G04 #@! TF.GenerationSoftware,KiCad,Pcbnew,(5.1.5)-3*
G04 #@! TF.CreationDate,2021-02-14T15:50:31-08:00*
G04 #@! TF.ProjectId,tree,74726565-2e6b-4696-9361-645f70636258,rev?*
G04 #@! TF.SameCoordinates,Original*
G04 #@! TF.FileFunction,Legend,Bot*
G04 #@! TF.FilePolarity,Positive*
%FSLAX46Y46*%
G04 Gerber Fmt 4.6, Leading zero omitted, Abs format (unit mm)*
G04 Created by KiCad (PCBNEW (5.1.5)-3) date 2021-02-14 15:50:31*
%MOMM*%
%LPD*%
G04 APERTURE LIST*
%ADD10C,0.120000*%
%ADD11C,0.150000*%
G04 APERTURE END LIST*
D10*
X165275000Y-108300000D02*
X165275000Y-92500000D01*
X154075000Y-92500000D02*
X154075000Y-108300000D01*
X154075000Y-92500000D02*
G75*
G03X152075000Y-90500000I-2000000J0D01*
G01*
X152075000Y-110300000D02*
G75*
G03X154075000Y-108300000I0J2000000D01*
G01*
X165275000Y-108300000D02*
G75*
G03X167275000Y-110300000I2000000J0D01*
G01*
X167275000Y-90500000D02*
G75*
G03X165275000Y-92500000I0J-2000000D01*
G01*
X167275000Y-110300000D02*
X167275000Y-128300000D01*
X152075000Y-110300000D02*
X152075000Y-128300000D01*
X152075000Y-72500000D02*
X152075000Y-90500000D01*
X152075000Y-128300000D02*
X167275000Y-128300000D01*
X167275000Y-72500000D02*
X167275000Y-90500000D01*
X152075000Y-72500000D02*
X167275000Y-72500000D01*
X151110000Y-71780000D02*
X151110000Y-129020000D01*
X168240000Y-71780000D02*
X151110000Y-71780000D01*
X168240000Y-129020000D02*
X168240000Y-71780000D01*
X151110000Y-129020000D02*
X168240000Y-129020000D01*
X158615000Y-121710000D02*
X160615000Y-121710000D01*
X155615000Y-124710000D02*
X163615000Y-124710000D01*
X162615000Y-123710000D02*
X156615000Y-123710000D01*
X157615000Y-122710000D02*
X161615000Y-122710000D01*
X226885000Y-78065000D02*
X222885000Y-78065000D01*
X221885000Y-77065000D02*
X227885000Y-77065000D01*
X228885000Y-76065000D02*
X220885000Y-76065000D01*
X225885000Y-79065000D02*
X223885000Y-79065000D01*
X233390000Y-71755000D02*
X216260000Y-71755000D01*
X216260000Y-71755000D02*
X216260000Y-128995000D01*
X216260000Y-128995000D02*
X233390000Y-128995000D01*
X233390000Y-128995000D02*
X233390000Y-71755000D01*
X232425000Y-128275000D02*
X217225000Y-128275000D01*
X217225000Y-128275000D02*
X217225000Y-110275000D01*
X232425000Y-72475000D02*
X217225000Y-72475000D01*
X232425000Y-128275000D02*
X232425000Y-110275000D01*
X232425000Y-90475000D02*
X232425000Y-72475000D01*
X217225000Y-90475000D02*
X217225000Y-72475000D01*
X217225000Y-110275000D02*
G75*
G03X219225000Y-108275000I0J2000000D01*
G01*
X219225000Y-92475000D02*
G75*
G03X217225000Y-90475000I-2000000J0D01*
G01*
X232425000Y-90475000D02*
G75*
G03X230425000Y-92475000I0J-2000000D01*
G01*
X230425000Y-108275000D02*
G75*
G03X232425000Y-110275000I2000000J0D01*
G01*
X230425000Y-108275000D02*
X230425000Y-92475000D01*
X219225000Y-92475000D02*
X219225000Y-108275000D01*
D11*
X150183571Y-73594285D02*
X150231190Y-73737142D01*
X150278809Y-73784761D01*
X150374047Y-73832380D01*
X150516904Y-73832380D01*
X150612142Y-73784761D01*
X150659761Y-73737142D01*
X150707380Y-73641904D01*
X150707380Y-73260952D01*
X149707380Y-73260952D01*
X149707380Y-73594285D01*
X149755000Y-73689523D01*
X149802619Y-73737142D01*
X149897857Y-73784761D01*
X149993095Y-73784761D01*
X150088333Y-73737142D01*
X150135952Y-73689523D01*
X150183571Y-73594285D01*
X150183571Y-73260952D01*
X149707380Y-74118095D02*
X149707380Y-74689523D01*
X150707380Y-74403809D02*
X149707380Y-74403809D01*
X150707380Y-75546666D02*
X150707380Y-74975238D01*
X150707380Y-75260952D02*
X149707380Y-75260952D01*
X149850238Y-75165714D01*
X149945476Y-75070476D01*
X149993095Y-74975238D01*
X159686428Y-129389047D02*
X159686428Y-130150952D01*
X159686428Y-70619047D02*
X159686428Y-71380952D01*
X160067380Y-71000000D02*
X159305476Y-71000000D01*
X234316428Y-127180714D02*
X234268809Y-127037857D01*
X234221190Y-126990238D01*
X234125952Y-126942619D01*
X233983095Y-126942619D01*
X233887857Y-126990238D01*
X233840238Y-127037857D01*
X233792619Y-127133095D01*
X233792619Y-127514047D01*
X234792619Y-127514047D01*
X234792619Y-127180714D01*
X234745000Y-127085476D01*
X234697380Y-127037857D01*
X234602142Y-126990238D01*
X234506904Y-126990238D01*
X234411666Y-127037857D01*
X234364047Y-127085476D01*
X234316428Y-127180714D01*
X234316428Y-127514047D01*
X234792619Y-126656904D02*
X234792619Y-126085476D01*
X233792619Y-126371190D02*
X234792619Y-126371190D01*
X234697380Y-125799761D02*
X234745000Y-125752142D01*
X234792619Y-125656904D01*
X234792619Y-125418809D01*
X234745000Y-125323571D01*
X234697380Y-125275952D01*
X234602142Y-125228333D01*
X234506904Y-125228333D01*
X234364047Y-125275952D01*
X233792619Y-125847380D01*
X233792619Y-125228333D01*
X224956428Y-129394047D02*
X224956428Y-130155952D01*
X225337380Y-129775000D02*
X224575476Y-129775000D01*
X224956428Y-70624047D02*
X224956428Y-71385952D01*
M02*
