G04 #@! TF.GenerationSoftware,KiCad,Pcbnew,(5.1.5)-3*
G04 #@! TF.CreationDate,2021-02-14T15:22:36-08:00*
G04 #@! TF.ProjectId,tree,74726565-2e6b-4696-9361-645f70636258,rev?*
G04 #@! TF.SameCoordinates,Original*
G04 #@! TF.FileFunction,Legend,Top*
G04 #@! TF.FilePolarity,Positive*
%FSLAX46Y46*%
G04 Gerber Fmt 4.6, Leading zero omitted, Abs format (unit mm)*
G04 Created by KiCad (PCBNEW (5.1.5)-3) date 2021-02-14 15:22:36*
%MOMM*%
%LPD*%
G04 APERTURE LIST*
%ADD10C,0.150000*%
%ADD11C,0.300000*%
%ADD12C,0.120000*%
G04 APERTURE END LIST*
D10*
X184585714Y-86077380D02*
X184014285Y-86077380D01*
X184300000Y-86077380D02*
X184300000Y-85077380D01*
X184204761Y-85220238D01*
X184109523Y-85315476D01*
X184014285Y-85363095D01*
X181885714Y-100827380D02*
X181314285Y-100827380D01*
X181600000Y-100827380D02*
X181600000Y-99827380D01*
X181504761Y-99970238D01*
X181409523Y-100065476D01*
X181314285Y-100113095D01*
X224200000Y-81630952D02*
X224152380Y-81726190D01*
X224152380Y-81869047D01*
X224200000Y-82011904D01*
X224295238Y-82107142D01*
X224390476Y-82154761D01*
X224580952Y-82202380D01*
X224723809Y-82202380D01*
X224914285Y-82154761D01*
X225009523Y-82107142D01*
X225104761Y-82011904D01*
X225152380Y-81869047D01*
X225152380Y-81773809D01*
X225104761Y-81630952D01*
X225057142Y-81583333D01*
X224723809Y-81583333D01*
X224723809Y-81773809D01*
X225152380Y-81154761D02*
X224152380Y-81154761D01*
X225152380Y-80583333D01*
X224152380Y-80583333D01*
X225152380Y-80107142D02*
X224152380Y-80107142D01*
X224152380Y-79869047D01*
X224200000Y-79726190D01*
X224295238Y-79630952D01*
X224390476Y-79583333D01*
X224580952Y-79535714D01*
X224723809Y-79535714D01*
X224914285Y-79583333D01*
X225009523Y-79630952D01*
X225104761Y-79726190D01*
X225152380Y-79869047D01*
X225152380Y-80107142D01*
X224771428Y-78345238D02*
X224771428Y-77583333D01*
X224485714Y-77107142D02*
X224771428Y-76345238D01*
X225057142Y-77107142D01*
X162014285Y-96777380D02*
X162014285Y-95777380D01*
X162014285Y-96253571D02*
X162585714Y-96253571D01*
X162585714Y-96777380D02*
X162585714Y-95777380D01*
X163395238Y-96253571D02*
X163538095Y-96301190D01*
X163585714Y-96348809D01*
X163633333Y-96444047D01*
X163633333Y-96586904D01*
X163585714Y-96682142D01*
X163538095Y-96729761D01*
X163442857Y-96777380D01*
X163061904Y-96777380D01*
X163061904Y-95777380D01*
X163395238Y-95777380D01*
X163490476Y-95825000D01*
X163538095Y-95872619D01*
X163585714Y-95967857D01*
X163585714Y-96063095D01*
X163538095Y-96158333D01*
X163490476Y-96205952D01*
X163395238Y-96253571D01*
X163061904Y-96253571D01*
X168002380Y-75791666D02*
X168002380Y-75601190D01*
X168050000Y-75505952D01*
X168145238Y-75410714D01*
X168335714Y-75363095D01*
X168669047Y-75363095D01*
X168859523Y-75410714D01*
X168954761Y-75505952D01*
X169002380Y-75601190D01*
X169002380Y-75791666D01*
X168954761Y-75886904D01*
X168859523Y-75982142D01*
X168669047Y-76029761D01*
X168335714Y-76029761D01*
X168145238Y-75982142D01*
X168050000Y-75886904D01*
X168002380Y-75791666D01*
X168335714Y-75077380D02*
X168335714Y-74696428D01*
X169002380Y-74934523D02*
X168145238Y-74934523D01*
X168050000Y-74886904D01*
X168002380Y-74791666D01*
X168002380Y-74696428D01*
X168335714Y-74505952D02*
X168335714Y-74125000D01*
X169002380Y-74363095D02*
X168145238Y-74363095D01*
X168050000Y-74315476D01*
X168002380Y-74220238D01*
X168002380Y-74125000D01*
D11*
X159378571Y-79271428D02*
X159378571Y-78985714D01*
X159450000Y-78842857D01*
X159592857Y-78700000D01*
X159878571Y-78628571D01*
X160378571Y-78628571D01*
X160664285Y-78700000D01*
X160807142Y-78842857D01*
X160878571Y-78985714D01*
X160878571Y-79271428D01*
X160807142Y-79414285D01*
X160664285Y-79557142D01*
X160378571Y-79628571D01*
X159878571Y-79628571D01*
X159592857Y-79557142D01*
X159450000Y-79414285D01*
X159378571Y-79271428D01*
X159878571Y-77985714D02*
X160878571Y-77985714D01*
X160021428Y-77985714D02*
X159950000Y-77914285D01*
X159878571Y-77771428D01*
X159878571Y-77557142D01*
X159950000Y-77414285D01*
X160092857Y-77342857D01*
X160878571Y-77342857D01*
D12*
X183580000Y-79850000D02*
X182757530Y-79850000D01*
X180872470Y-79850000D02*
X180050000Y-79850000D01*
X182142470Y-79850000D02*
X181487530Y-79850000D01*
X183580000Y-84865000D02*
X183580000Y-79850000D01*
X180050000Y-86320000D02*
X180050000Y-79850000D01*
X183580000Y-84865000D02*
X183013471Y-84865000D01*
X181886529Y-84865000D02*
X181743471Y-84865000D01*
X181690000Y-84918471D02*
X181690000Y-85061529D01*
X181690000Y-86188471D02*
X181690000Y-86320000D01*
X181690000Y-86320000D02*
X181487530Y-86320000D01*
X180872470Y-86320000D02*
X180050000Y-86320000D01*
X183580000Y-85625000D02*
X183580000Y-86385000D01*
X183580000Y-86385000D02*
X182450000Y-86385000D01*
X172660000Y-96438748D02*
X172660000Y-96961252D01*
X171240000Y-96438748D02*
X171240000Y-96961252D01*
X172660000Y-101386252D02*
X172660000Y-100863748D01*
X171240000Y-101386252D02*
X171240000Y-100863748D01*
X204035000Y-80513748D02*
X204035000Y-81036252D01*
X202615000Y-80513748D02*
X202615000Y-81036252D01*
X202440000Y-91538748D02*
X202440000Y-92061252D01*
X203860000Y-91538748D02*
X203860000Y-92061252D01*
X198785000Y-107888748D02*
X198785000Y-108411252D01*
X197365000Y-107888748D02*
X197365000Y-108411252D01*
X166800000Y-97035000D02*
X169260000Y-97035000D01*
X169260000Y-97035000D02*
X169260000Y-95565000D01*
X169260000Y-95565000D02*
X166800000Y-95565000D01*
X211500000Y-124100000D02*
X210900000Y-124100000D01*
X210900000Y-124100000D02*
X210900000Y-121200000D01*
X213200000Y-124100000D02*
X213200000Y-121200000D01*
X206325000Y-124050000D02*
X206325000Y-121150000D01*
X204025000Y-124050000D02*
X204025000Y-121150000D01*
X204625000Y-124050000D02*
X204025000Y-124050000D01*
X195925000Y-124175000D02*
X195925000Y-121275000D01*
X193625000Y-124175000D02*
X193625000Y-121275000D01*
X194225000Y-124175000D02*
X193625000Y-124175000D01*
X184100000Y-124125000D02*
X183500000Y-124125000D01*
X183500000Y-124125000D02*
X183500000Y-121225000D01*
X185800000Y-124125000D02*
X185800000Y-121225000D01*
X217900000Y-88325000D02*
X220800000Y-88325000D01*
X217900000Y-86025000D02*
X220800000Y-86025000D01*
X217900000Y-86625000D02*
X217900000Y-86025000D01*
X217850000Y-94675000D02*
X217850000Y-94075000D01*
X217850000Y-94075000D02*
X220750000Y-94075000D01*
X217850000Y-96375000D02*
X220750000Y-96375000D01*
X217825000Y-102075000D02*
X217825000Y-101475000D01*
X217825000Y-101475000D02*
X220725000Y-101475000D01*
X217825000Y-103775000D02*
X220725000Y-103775000D01*
X217800000Y-111625000D02*
X220700000Y-111625000D01*
X217800000Y-109325000D02*
X220700000Y-109325000D01*
X217800000Y-109925000D02*
X217800000Y-109325000D01*
X167125000Y-100045000D02*
X168125000Y-100045000D01*
X167125000Y-103405000D02*
X168125000Y-103405000D01*
X206970000Y-116575000D02*
X206970000Y-115575000D01*
X210330000Y-116575000D02*
X210330000Y-115575000D01*
X199480000Y-116525000D02*
X199480000Y-115525000D01*
X196120000Y-116525000D02*
X196120000Y-115525000D01*
X183145000Y-116375000D02*
X183145000Y-115375000D01*
X186505000Y-116375000D02*
X186505000Y-115375000D01*
X210350000Y-86095000D02*
X209350000Y-86095000D01*
X210350000Y-89455000D02*
X209350000Y-89455000D01*
X210375000Y-97455000D02*
X209375000Y-97455000D01*
X210375000Y-94095000D02*
X209375000Y-94095000D01*
X210225000Y-102220000D02*
X209225000Y-102220000D01*
X210225000Y-105580000D02*
X209225000Y-105580000D01*
D10*
X194625000Y-78675000D02*
X194625000Y-83075000D01*
X200150000Y-77100000D02*
X200150000Y-83075000D01*
X200075000Y-88175000D02*
X200075000Y-94150000D01*
X194550000Y-89750000D02*
X194550000Y-94150000D01*
X189250000Y-104850000D02*
X189250000Y-109250000D01*
X194775000Y-103275000D02*
X194775000Y-109250000D01*
D12*
X209745000Y-83540000D02*
X214945000Y-83540000D01*
X209745000Y-73320000D02*
X209745000Y-83540000D01*
X214945000Y-70720000D02*
X214945000Y-83540000D01*
X209745000Y-73320000D02*
X212345000Y-73320000D01*
X212345000Y-73320000D02*
X212345000Y-70720000D01*
X212345000Y-70720000D02*
X214945000Y-70720000D01*
X209745000Y-72050000D02*
X209745000Y-70720000D01*
X209745000Y-70720000D02*
X211075000Y-70720000D01*
X172940000Y-83866422D02*
X172940000Y-84383578D01*
X174360000Y-83866422D02*
X174360000Y-84383578D01*
X172915000Y-80608578D02*
X172915000Y-80091422D01*
X174335000Y-80608578D02*
X174335000Y-80091422D01*
D10*
X176350000Y-99400000D02*
X176350000Y-99375000D01*
X176350000Y-91350000D02*
X176350000Y-91375000D01*
X181000000Y-91350000D02*
X181000000Y-91375000D01*
X182075000Y-99450000D02*
X176350000Y-99450000D01*
X181000000Y-91350000D02*
X176350000Y-91350000D01*
X171266666Y-120196761D02*
X171409523Y-120244380D01*
X171647619Y-120244380D01*
X171742857Y-120196761D01*
X171790476Y-120149142D01*
X171838095Y-120053904D01*
X171838095Y-119958666D01*
X171790476Y-119863428D01*
X171742857Y-119815809D01*
X171647619Y-119768190D01*
X171457142Y-119720571D01*
X171361904Y-119672952D01*
X171314285Y-119625333D01*
X171266666Y-119530095D01*
X171266666Y-119434857D01*
X171314285Y-119339619D01*
X171361904Y-119292000D01*
X171457142Y-119244380D01*
X171695238Y-119244380D01*
X171838095Y-119292000D01*
X172171428Y-119244380D02*
X172409523Y-120244380D01*
X172600000Y-119530095D01*
X172790476Y-120244380D01*
X173028571Y-119244380D01*
X173361904Y-119339619D02*
X173409523Y-119292000D01*
X173504761Y-119244380D01*
X173742857Y-119244380D01*
X173838095Y-119292000D01*
X173885714Y-119339619D01*
X173933333Y-119434857D01*
X173933333Y-119530095D01*
X173885714Y-119672952D01*
X173314285Y-120244380D01*
X173933333Y-120244380D01*
X181481666Y-86772380D02*
X181481666Y-87486666D01*
X181434047Y-87629523D01*
X181338809Y-87724761D01*
X181195952Y-87772380D01*
X181100714Y-87772380D01*
X182481666Y-87772380D02*
X181910238Y-87772380D01*
X182195952Y-87772380D02*
X182195952Y-86772380D01*
X182100714Y-86915238D01*
X182005476Y-87010476D01*
X181910238Y-87058095D01*
X173957142Y-96866666D02*
X174004761Y-96914285D01*
X174052380Y-97057142D01*
X174052380Y-97152380D01*
X174004761Y-97295238D01*
X173909523Y-97390476D01*
X173814285Y-97438095D01*
X173623809Y-97485714D01*
X173480952Y-97485714D01*
X173290476Y-97438095D01*
X173195238Y-97390476D01*
X173100000Y-97295238D01*
X173052380Y-97152380D01*
X173052380Y-97057142D01*
X173100000Y-96914285D01*
X173147619Y-96866666D01*
X174052380Y-95914285D02*
X174052380Y-96485714D01*
X174052380Y-96200000D02*
X173052380Y-96200000D01*
X173195238Y-96295238D01*
X173290476Y-96390476D01*
X173338095Y-96485714D01*
X170657142Y-101291666D02*
X170704761Y-101339285D01*
X170752380Y-101482142D01*
X170752380Y-101577380D01*
X170704761Y-101720238D01*
X170609523Y-101815476D01*
X170514285Y-101863095D01*
X170323809Y-101910714D01*
X170180952Y-101910714D01*
X169990476Y-101863095D01*
X169895238Y-101815476D01*
X169800000Y-101720238D01*
X169752380Y-101577380D01*
X169752380Y-101482142D01*
X169800000Y-101339285D01*
X169847619Y-101291666D01*
X169847619Y-100910714D02*
X169800000Y-100863095D01*
X169752380Y-100767857D01*
X169752380Y-100529761D01*
X169800000Y-100434523D01*
X169847619Y-100386904D01*
X169942857Y-100339285D01*
X170038095Y-100339285D01*
X170180952Y-100386904D01*
X170752380Y-100958333D01*
X170752380Y-100339285D01*
X205332142Y-80941666D02*
X205379761Y-80989285D01*
X205427380Y-81132142D01*
X205427380Y-81227380D01*
X205379761Y-81370238D01*
X205284523Y-81465476D01*
X205189285Y-81513095D01*
X204998809Y-81560714D01*
X204855952Y-81560714D01*
X204665476Y-81513095D01*
X204570238Y-81465476D01*
X204475000Y-81370238D01*
X204427380Y-81227380D01*
X204427380Y-81132142D01*
X204475000Y-80989285D01*
X204522619Y-80941666D01*
X204427380Y-80608333D02*
X204427380Y-79989285D01*
X204808333Y-80322619D01*
X204808333Y-80179761D01*
X204855952Y-80084523D01*
X204903571Y-80036904D01*
X204998809Y-79989285D01*
X205236904Y-79989285D01*
X205332142Y-80036904D01*
X205379761Y-80084523D01*
X205427380Y-80179761D01*
X205427380Y-80465476D01*
X205379761Y-80560714D01*
X205332142Y-80608333D01*
X205157142Y-91966666D02*
X205204761Y-92014285D01*
X205252380Y-92157142D01*
X205252380Y-92252380D01*
X205204761Y-92395238D01*
X205109523Y-92490476D01*
X205014285Y-92538095D01*
X204823809Y-92585714D01*
X204680952Y-92585714D01*
X204490476Y-92538095D01*
X204395238Y-92490476D01*
X204300000Y-92395238D01*
X204252380Y-92252380D01*
X204252380Y-92157142D01*
X204300000Y-92014285D01*
X204347619Y-91966666D01*
X204585714Y-91109523D02*
X205252380Y-91109523D01*
X204204761Y-91347619D02*
X204919047Y-91585714D01*
X204919047Y-90966666D01*
X200082142Y-108316666D02*
X200129761Y-108364285D01*
X200177380Y-108507142D01*
X200177380Y-108602380D01*
X200129761Y-108745238D01*
X200034523Y-108840476D01*
X199939285Y-108888095D01*
X199748809Y-108935714D01*
X199605952Y-108935714D01*
X199415476Y-108888095D01*
X199320238Y-108840476D01*
X199225000Y-108745238D01*
X199177380Y-108602380D01*
X199177380Y-108507142D01*
X199225000Y-108364285D01*
X199272619Y-108316666D01*
X199177380Y-107411904D02*
X199177380Y-107888095D01*
X199653571Y-107935714D01*
X199605952Y-107888095D01*
X199558333Y-107792857D01*
X199558333Y-107554761D01*
X199605952Y-107459523D01*
X199653571Y-107411904D01*
X199748809Y-107364285D01*
X199986904Y-107364285D01*
X200082142Y-107411904D01*
X200129761Y-107459523D01*
X200177380Y-107554761D01*
X200177380Y-107792857D01*
X200129761Y-107888095D01*
X200082142Y-107935714D01*
X166861904Y-98182380D02*
X166861904Y-97182380D01*
X167100000Y-97182380D01*
X167242857Y-97230000D01*
X167338095Y-97325238D01*
X167385714Y-97420476D01*
X167433333Y-97610952D01*
X167433333Y-97753809D01*
X167385714Y-97944285D01*
X167338095Y-98039523D01*
X167242857Y-98134761D01*
X167100000Y-98182380D01*
X166861904Y-98182380D01*
X168385714Y-98182380D02*
X167814285Y-98182380D01*
X168100000Y-98182380D02*
X168100000Y-97182380D01*
X168004761Y-97325238D01*
X167909523Y-97420476D01*
X167814285Y-97468095D01*
X210252380Y-123388095D02*
X209252380Y-123388095D01*
X209252380Y-123150000D01*
X209300000Y-123007142D01*
X209395238Y-122911904D01*
X209490476Y-122864285D01*
X209680952Y-122816666D01*
X209823809Y-122816666D01*
X210014285Y-122864285D01*
X210109523Y-122911904D01*
X210204761Y-123007142D01*
X210252380Y-123150000D01*
X210252380Y-123388095D01*
X209347619Y-122435714D02*
X209300000Y-122388095D01*
X209252380Y-122292857D01*
X209252380Y-122054761D01*
X209300000Y-121959523D01*
X209347619Y-121911904D01*
X209442857Y-121864285D01*
X209538095Y-121864285D01*
X209680952Y-121911904D01*
X210252380Y-122483333D01*
X210252380Y-121864285D01*
X203377380Y-123338095D02*
X202377380Y-123338095D01*
X202377380Y-123100000D01*
X202425000Y-122957142D01*
X202520238Y-122861904D01*
X202615476Y-122814285D01*
X202805952Y-122766666D01*
X202948809Y-122766666D01*
X203139285Y-122814285D01*
X203234523Y-122861904D01*
X203329761Y-122957142D01*
X203377380Y-123100000D01*
X203377380Y-123338095D01*
X202377380Y-122433333D02*
X202377380Y-121814285D01*
X202758333Y-122147619D01*
X202758333Y-122004761D01*
X202805952Y-121909523D01*
X202853571Y-121861904D01*
X202948809Y-121814285D01*
X203186904Y-121814285D01*
X203282142Y-121861904D01*
X203329761Y-121909523D01*
X203377380Y-122004761D01*
X203377380Y-122290476D01*
X203329761Y-122385714D01*
X203282142Y-122433333D01*
X192977380Y-123463095D02*
X191977380Y-123463095D01*
X191977380Y-123225000D01*
X192025000Y-123082142D01*
X192120238Y-122986904D01*
X192215476Y-122939285D01*
X192405952Y-122891666D01*
X192548809Y-122891666D01*
X192739285Y-122939285D01*
X192834523Y-122986904D01*
X192929761Y-123082142D01*
X192977380Y-123225000D01*
X192977380Y-123463095D01*
X192310714Y-122034523D02*
X192977380Y-122034523D01*
X191929761Y-122272619D02*
X192644047Y-122510714D01*
X192644047Y-121891666D01*
X182852380Y-123413095D02*
X181852380Y-123413095D01*
X181852380Y-123175000D01*
X181900000Y-123032142D01*
X181995238Y-122936904D01*
X182090476Y-122889285D01*
X182280952Y-122841666D01*
X182423809Y-122841666D01*
X182614285Y-122889285D01*
X182709523Y-122936904D01*
X182804761Y-123032142D01*
X182852380Y-123175000D01*
X182852380Y-123413095D01*
X181852380Y-121936904D02*
X181852380Y-122413095D01*
X182328571Y-122460714D01*
X182280952Y-122413095D01*
X182233333Y-122317857D01*
X182233333Y-122079761D01*
X182280952Y-121984523D01*
X182328571Y-121936904D01*
X182423809Y-121889285D01*
X182661904Y-121889285D01*
X182757142Y-121936904D01*
X182804761Y-121984523D01*
X182852380Y-122079761D01*
X182852380Y-122317857D01*
X182804761Y-122413095D01*
X182757142Y-122460714D01*
X218611904Y-85377380D02*
X218611904Y-84377380D01*
X218850000Y-84377380D01*
X218992857Y-84425000D01*
X219088095Y-84520238D01*
X219135714Y-84615476D01*
X219183333Y-84805952D01*
X219183333Y-84948809D01*
X219135714Y-85139285D01*
X219088095Y-85234523D01*
X218992857Y-85329761D01*
X218850000Y-85377380D01*
X218611904Y-85377380D01*
X220040476Y-84377380D02*
X219850000Y-84377380D01*
X219754761Y-84425000D01*
X219707142Y-84472619D01*
X219611904Y-84615476D01*
X219564285Y-84805952D01*
X219564285Y-85186904D01*
X219611904Y-85282142D01*
X219659523Y-85329761D01*
X219754761Y-85377380D01*
X219945238Y-85377380D01*
X220040476Y-85329761D01*
X220088095Y-85282142D01*
X220135714Y-85186904D01*
X220135714Y-84948809D01*
X220088095Y-84853571D01*
X220040476Y-84805952D01*
X219945238Y-84758333D01*
X219754761Y-84758333D01*
X219659523Y-84805952D01*
X219611904Y-84853571D01*
X219564285Y-84948809D01*
X218561904Y-93427380D02*
X218561904Y-92427380D01*
X218800000Y-92427380D01*
X218942857Y-92475000D01*
X219038095Y-92570238D01*
X219085714Y-92665476D01*
X219133333Y-92855952D01*
X219133333Y-92998809D01*
X219085714Y-93189285D01*
X219038095Y-93284523D01*
X218942857Y-93379761D01*
X218800000Y-93427380D01*
X218561904Y-93427380D01*
X219466666Y-92427380D02*
X220133333Y-92427380D01*
X219704761Y-93427380D01*
X218536904Y-100827380D02*
X218536904Y-99827380D01*
X218775000Y-99827380D01*
X218917857Y-99875000D01*
X219013095Y-99970238D01*
X219060714Y-100065476D01*
X219108333Y-100255952D01*
X219108333Y-100398809D01*
X219060714Y-100589285D01*
X219013095Y-100684523D01*
X218917857Y-100779761D01*
X218775000Y-100827380D01*
X218536904Y-100827380D01*
X219679761Y-100255952D02*
X219584523Y-100208333D01*
X219536904Y-100160714D01*
X219489285Y-100065476D01*
X219489285Y-100017857D01*
X219536904Y-99922619D01*
X219584523Y-99875000D01*
X219679761Y-99827380D01*
X219870238Y-99827380D01*
X219965476Y-99875000D01*
X220013095Y-99922619D01*
X220060714Y-100017857D01*
X220060714Y-100065476D01*
X220013095Y-100160714D01*
X219965476Y-100208333D01*
X219870238Y-100255952D01*
X219679761Y-100255952D01*
X219584523Y-100303571D01*
X219536904Y-100351190D01*
X219489285Y-100446428D01*
X219489285Y-100636904D01*
X219536904Y-100732142D01*
X219584523Y-100779761D01*
X219679761Y-100827380D01*
X219870238Y-100827380D01*
X219965476Y-100779761D01*
X220013095Y-100732142D01*
X220060714Y-100636904D01*
X220060714Y-100446428D01*
X220013095Y-100351190D01*
X219965476Y-100303571D01*
X219870238Y-100255952D01*
X218511904Y-108677380D02*
X218511904Y-107677380D01*
X218750000Y-107677380D01*
X218892857Y-107725000D01*
X218988095Y-107820238D01*
X219035714Y-107915476D01*
X219083333Y-108105952D01*
X219083333Y-108248809D01*
X219035714Y-108439285D01*
X218988095Y-108534523D01*
X218892857Y-108629761D01*
X218750000Y-108677380D01*
X218511904Y-108677380D01*
X219559523Y-108677380D02*
X219750000Y-108677380D01*
X219845238Y-108629761D01*
X219892857Y-108582142D01*
X219988095Y-108439285D01*
X220035714Y-108248809D01*
X220035714Y-107867857D01*
X219988095Y-107772619D01*
X219940476Y-107725000D01*
X219845238Y-107677380D01*
X219654761Y-107677380D01*
X219559523Y-107725000D01*
X219511904Y-107772619D01*
X219464285Y-107867857D01*
X219464285Y-108105952D01*
X219511904Y-108201190D01*
X219559523Y-108248809D01*
X219654761Y-108296428D01*
X219845238Y-108296428D01*
X219940476Y-108248809D01*
X219988095Y-108201190D01*
X220035714Y-108105952D01*
X166934523Y-104977380D02*
X166601190Y-104501190D01*
X166363095Y-104977380D02*
X166363095Y-103977380D01*
X166744047Y-103977380D01*
X166839285Y-104025000D01*
X166886904Y-104072619D01*
X166934523Y-104167857D01*
X166934523Y-104310714D01*
X166886904Y-104405952D01*
X166839285Y-104453571D01*
X166744047Y-104501190D01*
X166363095Y-104501190D01*
X167363095Y-104977380D02*
X167363095Y-103977380D01*
X167934523Y-104977380D01*
X167934523Y-103977380D01*
X168934523Y-104977380D02*
X168363095Y-104977380D01*
X168648809Y-104977380D02*
X168648809Y-103977380D01*
X168553571Y-104120238D01*
X168458333Y-104215476D01*
X168363095Y-104263095D01*
X211902380Y-116765476D02*
X211426190Y-117098809D01*
X211902380Y-117336904D02*
X210902380Y-117336904D01*
X210902380Y-116955952D01*
X210950000Y-116860714D01*
X210997619Y-116813095D01*
X211092857Y-116765476D01*
X211235714Y-116765476D01*
X211330952Y-116813095D01*
X211378571Y-116860714D01*
X211426190Y-116955952D01*
X211426190Y-117336904D01*
X211902380Y-116336904D02*
X210902380Y-116336904D01*
X211902380Y-115765476D01*
X210902380Y-115765476D01*
X210997619Y-115336904D02*
X210950000Y-115289285D01*
X210902380Y-115194047D01*
X210902380Y-114955952D01*
X210950000Y-114860714D01*
X210997619Y-114813095D01*
X211092857Y-114765476D01*
X211188095Y-114765476D01*
X211330952Y-114813095D01*
X211902380Y-115384523D01*
X211902380Y-114765476D01*
X201052380Y-116715476D02*
X200576190Y-117048809D01*
X201052380Y-117286904D02*
X200052380Y-117286904D01*
X200052380Y-116905952D01*
X200100000Y-116810714D01*
X200147619Y-116763095D01*
X200242857Y-116715476D01*
X200385714Y-116715476D01*
X200480952Y-116763095D01*
X200528571Y-116810714D01*
X200576190Y-116905952D01*
X200576190Y-117286904D01*
X201052380Y-116286904D02*
X200052380Y-116286904D01*
X201052380Y-115715476D01*
X200052380Y-115715476D01*
X200052380Y-115334523D02*
X200052380Y-114715476D01*
X200433333Y-115048809D01*
X200433333Y-114905952D01*
X200480952Y-114810714D01*
X200528571Y-114763095D01*
X200623809Y-114715476D01*
X200861904Y-114715476D01*
X200957142Y-114763095D01*
X201004761Y-114810714D01*
X201052380Y-114905952D01*
X201052380Y-115191666D01*
X201004761Y-115286904D01*
X200957142Y-115334523D01*
X188077380Y-116565476D02*
X187601190Y-116898809D01*
X188077380Y-117136904D02*
X187077380Y-117136904D01*
X187077380Y-116755952D01*
X187125000Y-116660714D01*
X187172619Y-116613095D01*
X187267857Y-116565476D01*
X187410714Y-116565476D01*
X187505952Y-116613095D01*
X187553571Y-116660714D01*
X187601190Y-116755952D01*
X187601190Y-117136904D01*
X188077380Y-116136904D02*
X187077380Y-116136904D01*
X188077380Y-115565476D01*
X187077380Y-115565476D01*
X187410714Y-114660714D02*
X188077380Y-114660714D01*
X187029761Y-114898809D02*
X187744047Y-115136904D01*
X187744047Y-114517857D01*
X209159523Y-85427380D02*
X208826190Y-84951190D01*
X208588095Y-85427380D02*
X208588095Y-84427380D01*
X208969047Y-84427380D01*
X209064285Y-84475000D01*
X209111904Y-84522619D01*
X209159523Y-84617857D01*
X209159523Y-84760714D01*
X209111904Y-84855952D01*
X209064285Y-84903571D01*
X208969047Y-84951190D01*
X208588095Y-84951190D01*
X209588095Y-85427380D02*
X209588095Y-84427380D01*
X210159523Y-85427380D01*
X210159523Y-84427380D01*
X211111904Y-84427380D02*
X210635714Y-84427380D01*
X210588095Y-84903571D01*
X210635714Y-84855952D01*
X210730952Y-84808333D01*
X210969047Y-84808333D01*
X211064285Y-84855952D01*
X211111904Y-84903571D01*
X211159523Y-84998809D01*
X211159523Y-85236904D01*
X211111904Y-85332142D01*
X211064285Y-85379761D01*
X210969047Y-85427380D01*
X210730952Y-85427380D01*
X210635714Y-85379761D01*
X210588095Y-85332142D01*
X209184523Y-93427380D02*
X208851190Y-92951190D01*
X208613095Y-93427380D02*
X208613095Y-92427380D01*
X208994047Y-92427380D01*
X209089285Y-92475000D01*
X209136904Y-92522619D01*
X209184523Y-92617857D01*
X209184523Y-92760714D01*
X209136904Y-92855952D01*
X209089285Y-92903571D01*
X208994047Y-92951190D01*
X208613095Y-92951190D01*
X209613095Y-93427380D02*
X209613095Y-92427380D01*
X210184523Y-93427380D01*
X210184523Y-92427380D01*
X211089285Y-92427380D02*
X210898809Y-92427380D01*
X210803571Y-92475000D01*
X210755952Y-92522619D01*
X210660714Y-92665476D01*
X210613095Y-92855952D01*
X210613095Y-93236904D01*
X210660714Y-93332142D01*
X210708333Y-93379761D01*
X210803571Y-93427380D01*
X210994047Y-93427380D01*
X211089285Y-93379761D01*
X211136904Y-93332142D01*
X211184523Y-93236904D01*
X211184523Y-92998809D01*
X211136904Y-92903571D01*
X211089285Y-92855952D01*
X210994047Y-92808333D01*
X210803571Y-92808333D01*
X210708333Y-92855952D01*
X210660714Y-92903571D01*
X210613095Y-92998809D01*
X209034523Y-101552380D02*
X208701190Y-101076190D01*
X208463095Y-101552380D02*
X208463095Y-100552380D01*
X208844047Y-100552380D01*
X208939285Y-100600000D01*
X208986904Y-100647619D01*
X209034523Y-100742857D01*
X209034523Y-100885714D01*
X208986904Y-100980952D01*
X208939285Y-101028571D01*
X208844047Y-101076190D01*
X208463095Y-101076190D01*
X209463095Y-101552380D02*
X209463095Y-100552380D01*
X210034523Y-101552380D01*
X210034523Y-100552380D01*
X210415476Y-100552380D02*
X211082142Y-100552380D01*
X210653571Y-101552380D01*
X164666266Y-74135561D02*
X164809123Y-74183180D01*
X165047219Y-74183180D01*
X165142457Y-74135561D01*
X165190076Y-74087942D01*
X165237695Y-73992704D01*
X165237695Y-73897466D01*
X165190076Y-73802228D01*
X165142457Y-73754609D01*
X165047219Y-73706990D01*
X164856742Y-73659371D01*
X164761504Y-73611752D01*
X164713885Y-73564133D01*
X164666266Y-73468895D01*
X164666266Y-73373657D01*
X164713885Y-73278419D01*
X164761504Y-73230800D01*
X164856742Y-73183180D01*
X165094838Y-73183180D01*
X165237695Y-73230800D01*
X165571028Y-73183180D02*
X165809123Y-74183180D01*
X165999600Y-73468895D01*
X166190076Y-74183180D01*
X166428171Y-73183180D01*
X167332933Y-74183180D02*
X166761504Y-74183180D01*
X167047219Y-74183180D02*
X167047219Y-73183180D01*
X166951980Y-73326038D01*
X166856742Y-73421276D01*
X166761504Y-73468895D01*
X200352380Y-81636904D02*
X201161904Y-81636904D01*
X201257142Y-81589285D01*
X201304761Y-81541666D01*
X201352380Y-81446428D01*
X201352380Y-81255952D01*
X201304761Y-81160714D01*
X201257142Y-81113095D01*
X201161904Y-81065476D01*
X200352380Y-81065476D01*
X201352380Y-80065476D02*
X201352380Y-80636904D01*
X201352380Y-80351190D02*
X200352380Y-80351190D01*
X200495238Y-80446428D01*
X200590476Y-80541666D01*
X200638095Y-80636904D01*
X200277380Y-92711904D02*
X201086904Y-92711904D01*
X201182142Y-92664285D01*
X201229761Y-92616666D01*
X201277380Y-92521428D01*
X201277380Y-92330952D01*
X201229761Y-92235714D01*
X201182142Y-92188095D01*
X201086904Y-92140476D01*
X200277380Y-92140476D01*
X200372619Y-91711904D02*
X200325000Y-91664285D01*
X200277380Y-91569047D01*
X200277380Y-91330952D01*
X200325000Y-91235714D01*
X200372619Y-91188095D01*
X200467857Y-91140476D01*
X200563095Y-91140476D01*
X200705952Y-91188095D01*
X201277380Y-91759523D01*
X201277380Y-91140476D01*
X194977380Y-107811904D02*
X195786904Y-107811904D01*
X195882142Y-107764285D01*
X195929761Y-107716666D01*
X195977380Y-107621428D01*
X195977380Y-107430952D01*
X195929761Y-107335714D01*
X195882142Y-107288095D01*
X195786904Y-107240476D01*
X194977380Y-107240476D01*
X194977380Y-106859523D02*
X194977380Y-106240476D01*
X195358333Y-106573809D01*
X195358333Y-106430952D01*
X195405952Y-106335714D01*
X195453571Y-106288095D01*
X195548809Y-106240476D01*
X195786904Y-106240476D01*
X195882142Y-106288095D01*
X195929761Y-106335714D01*
X195977380Y-106430952D01*
X195977380Y-106716666D01*
X195929761Y-106811904D01*
X195882142Y-106859523D01*
X212011666Y-69172380D02*
X212011666Y-69886666D01*
X211964047Y-70029523D01*
X211868809Y-70124761D01*
X211725952Y-70172380D01*
X211630714Y-70172380D01*
X212440238Y-69267619D02*
X212487857Y-69220000D01*
X212583095Y-69172380D01*
X212821190Y-69172380D01*
X212916428Y-69220000D01*
X212964047Y-69267619D01*
X213011666Y-69362857D01*
X213011666Y-69458095D01*
X212964047Y-69600952D01*
X212392619Y-70172380D01*
X213011666Y-70172380D01*
X175752380Y-84291666D02*
X175276190Y-84625000D01*
X175752380Y-84863095D02*
X174752380Y-84863095D01*
X174752380Y-84482142D01*
X174800000Y-84386904D01*
X174847619Y-84339285D01*
X174942857Y-84291666D01*
X175085714Y-84291666D01*
X175180952Y-84339285D01*
X175228571Y-84386904D01*
X175276190Y-84482142D01*
X175276190Y-84863095D01*
X175752380Y-83339285D02*
X175752380Y-83910714D01*
X175752380Y-83625000D02*
X174752380Y-83625000D01*
X174895238Y-83720238D01*
X174990476Y-83815476D01*
X175038095Y-83910714D01*
X172427380Y-80516666D02*
X171951190Y-80850000D01*
X172427380Y-81088095D02*
X171427380Y-81088095D01*
X171427380Y-80707142D01*
X171475000Y-80611904D01*
X171522619Y-80564285D01*
X171617857Y-80516666D01*
X171760714Y-80516666D01*
X171855952Y-80564285D01*
X171903571Y-80611904D01*
X171951190Y-80707142D01*
X171951190Y-81088095D01*
X171522619Y-80135714D02*
X171475000Y-80088095D01*
X171427380Y-79992857D01*
X171427380Y-79754761D01*
X171475000Y-79659523D01*
X171522619Y-79611904D01*
X171617857Y-79564285D01*
X171713095Y-79564285D01*
X171855952Y-79611904D01*
X172427380Y-80183333D01*
X172427380Y-79564285D01*
X177913095Y-99777380D02*
X177913095Y-100586904D01*
X177960714Y-100682142D01*
X178008333Y-100729761D01*
X178103571Y-100777380D01*
X178294047Y-100777380D01*
X178389285Y-100729761D01*
X178436904Y-100682142D01*
X178484523Y-100586904D01*
X178484523Y-99777380D01*
X179389285Y-100110714D02*
X179389285Y-100777380D01*
X179151190Y-99729761D02*
X178913095Y-100444047D01*
X179532142Y-100444047D01*
M02*
