G04 #@! TF.GenerationSoftware,KiCad,Pcbnew,(5.1.5)-3*
G04 #@! TF.CreationDate,2021-02-14T15:22:36-08:00*
G04 #@! TF.ProjectId,tree,74726565-2e6b-4696-9361-645f70636258,rev?*
G04 #@! TF.SameCoordinates,Original*
G04 #@! TF.FileFunction,Copper,L2,Bot*
G04 #@! TF.FilePolarity,Positive*
%FSLAX46Y46*%
G04 Gerber Fmt 4.6, Leading zero omitted, Abs format (unit mm)*
G04 Created by KiCad (PCBNEW (5.1.5)-3) date 2021-02-14 15:22:36*
%MOMM*%
%LPD*%
G04 APERTURE LIST*
%ADD10R,1.000000X1.000000*%
%ADD11O,1.000000X1.000000*%
%ADD12C,2.000000*%
%ADD13R,2.000000X2.000000*%
%ADD14R,1.700000X1.700000*%
%ADD15O,1.700000X1.700000*%
%ADD16C,0.800000*%
%ADD17C,0.152400*%
%ADD18C,0.254000*%
G04 APERTURE END LIST*
D10*
X182450000Y-85625000D03*
D11*
X181180000Y-85625000D03*
X182450000Y-84355000D03*
X181180000Y-84355000D03*
X182450000Y-83085000D03*
X181180000Y-83085000D03*
X182450000Y-81815000D03*
X181180000Y-81815000D03*
X182450000Y-80545000D03*
X181180000Y-80545000D03*
D12*
X159675000Y-126390000D03*
D13*
X159675000Y-74400000D03*
X224825000Y-126375000D03*
D12*
X224825000Y-74385000D03*
D14*
X211075000Y-72050000D03*
D15*
X213615000Y-72050000D03*
X211075000Y-74590000D03*
X213615000Y-74590000D03*
X211075000Y-77130000D03*
X213615000Y-77130000D03*
X211075000Y-79670000D03*
X213615000Y-79670000D03*
X211075000Y-82210000D03*
X213615000Y-82210000D03*
D16*
X170375000Y-98875000D03*
X174175000Y-95700000D03*
X164100000Y-102900000D03*
X194675000Y-107800000D03*
X199550000Y-93050000D03*
X201225000Y-82625000D03*
X200000000Y-108175000D03*
X165125000Y-100525000D03*
X165125000Y-96475000D03*
X209825000Y-124850000D03*
X211500000Y-124900000D03*
X209075000Y-118500000D03*
X211475000Y-118475000D03*
X208225000Y-119550000D03*
X212600000Y-119525000D03*
X198175000Y-119625000D03*
X205700000Y-119625000D03*
X199000000Y-120400000D03*
X204625000Y-120325000D03*
X207400000Y-125125000D03*
X204600000Y-125150000D03*
X186375000Y-118275000D03*
X195693288Y-120778600D03*
X196600000Y-118250000D03*
X196575000Y-120150000D03*
X197400000Y-118950000D03*
X197425000Y-125275000D03*
X185275000Y-118125000D03*
X184100000Y-125150000D03*
X183625000Y-118075000D03*
X185075000Y-120300000D03*
X215925000Y-88175000D03*
X215925000Y-90250000D03*
X216675000Y-87350000D03*
X216675000Y-85325000D03*
X213625000Y-88975000D03*
X213625000Y-94550000D03*
X216575000Y-95375000D03*
X216575000Y-97600000D03*
X213325000Y-96175000D03*
X213325000Y-102025000D03*
X212400000Y-96975000D03*
X212400000Y-100725000D03*
X215925000Y-102700000D03*
X215950000Y-105725000D03*
X212525000Y-105100000D03*
X212500000Y-112750000D03*
X214075000Y-104300000D03*
X214075000Y-108350000D03*
X213325000Y-103450000D03*
X213350000Y-109925000D03*
X192950000Y-102475000D03*
X192950000Y-99850000D03*
X206850000Y-99850000D03*
X206850000Y-88175000D03*
X171075000Y-93925000D03*
X206150000Y-71350000D03*
X171075000Y-71350000D03*
X206100000Y-85925000D03*
X206250000Y-109100000D03*
X209850000Y-109150000D03*
X209850000Y-113875000D03*
X208170424Y-112800145D03*
X190500000Y-112050000D03*
X196300000Y-96775000D03*
X209057554Y-113346703D03*
X196325000Y-111525000D03*
X209050000Y-111525000D03*
X204250000Y-85275000D03*
X204675000Y-109875000D03*
X207450000Y-109875000D03*
X207475000Y-113900000D03*
X197578600Y-96500000D03*
X195575000Y-104000000D03*
X195600000Y-113625000D03*
X198100000Y-103925000D03*
X191650000Y-111875000D03*
X200300000Y-115875000D03*
X202496401Y-85025000D03*
X202575000Y-110550000D03*
X197400000Y-110525000D03*
X197400000Y-113775000D03*
X196950000Y-97550000D03*
X197273555Y-106052034D03*
X199075000Y-106050000D03*
X199075000Y-113875000D03*
X192562913Y-112146400D03*
X192550000Y-114350000D03*
X198825000Y-97525000D03*
X198425000Y-111750000D03*
X194800000Y-112146400D03*
X194425000Y-113525000D03*
X187625000Y-113550000D03*
X184425000Y-113450000D03*
X200850000Y-84575000D03*
X200850000Y-112775000D03*
X193725000Y-112025000D03*
X193725000Y-115050000D03*
X188900000Y-115050000D03*
X188900000Y-112000000D03*
X205050000Y-88975000D03*
X205050000Y-77750000D03*
X207700000Y-86575000D03*
X207700000Y-78925000D03*
X205725000Y-94575000D03*
X205200000Y-87546400D03*
X204031988Y-75843012D03*
X204000000Y-96175000D03*
X192307825Y-101771665D03*
X192325000Y-99100000D03*
X207575000Y-99100000D03*
X207550000Y-95375000D03*
X202300000Y-87241590D03*
X202325000Y-96975000D03*
X197350000Y-100650000D03*
X197300000Y-105100000D03*
X203200000Y-103500000D03*
X203125001Y-74424999D03*
X201550000Y-104300000D03*
X201540797Y-86612990D03*
X195628600Y-101075000D03*
X195632741Y-102761834D03*
X198975000Y-76575000D03*
X182775000Y-99475000D03*
X185325000Y-91800000D03*
X185325000Y-88950000D03*
X185325000Y-70075000D03*
X198900000Y-70100000D03*
X195703600Y-75975000D03*
X190975000Y-86525000D03*
X190328600Y-100700000D03*
X190975000Y-89950000D03*
X173525000Y-92325000D03*
X186175000Y-90025000D03*
X205350000Y-75300000D03*
X190200000Y-92275000D03*
X190200000Y-87400000D03*
X189700000Y-102200000D03*
X175025000Y-90725000D03*
X186675000Y-92300000D03*
X190200000Y-75475000D03*
X207775000Y-76175000D03*
X195075000Y-85625000D03*
X195075000Y-90850000D03*
X182525000Y-103950000D03*
X182525000Y-107725000D03*
X187625000Y-103975000D03*
X187625000Y-94200000D03*
X187625000Y-83200000D03*
X193425000Y-83200000D03*
X193425000Y-81578600D03*
X187625000Y-72350000D03*
X183325000Y-103200000D03*
X183275000Y-106925000D03*
X188500000Y-103225000D03*
X188475000Y-93325000D03*
X188500000Y-82450000D03*
X192500000Y-82425000D03*
X192525000Y-80950000D03*
X188500000Y-73250000D03*
X195000000Y-96775000D03*
X195000000Y-102050000D03*
X175600000Y-104225000D03*
X173550000Y-77900000D03*
X182150000Y-88525000D03*
X179350000Y-84350000D03*
X184500000Y-87825000D03*
X184500000Y-79075000D03*
D17*
X165125000Y-100525000D02*
X165125000Y-96475000D01*
X209825000Y-124850000D02*
X211450000Y-124850000D01*
X211450000Y-124850000D02*
X211500000Y-124900000D01*
X211300000Y-118500000D02*
X209075000Y-118500000D01*
X211475000Y-118475000D02*
X211300000Y-118500000D01*
X208225000Y-119550000D02*
X212575000Y-119550000D01*
X212575000Y-119550000D02*
X212600000Y-119525000D01*
X198175000Y-119625000D02*
X205700000Y-119625000D01*
X199000000Y-120400000D02*
X204550000Y-120400000D01*
X204550000Y-120400000D02*
X204625000Y-120325000D01*
X207400000Y-125125000D02*
X204625000Y-125125000D01*
X204625000Y-125125000D02*
X204600000Y-125150000D01*
X186375000Y-118275000D02*
X188878600Y-120778600D01*
X188878600Y-120778600D02*
X195693288Y-120778600D01*
X196600000Y-118250000D02*
X196600000Y-120125000D01*
X196600000Y-120125000D02*
X196575000Y-120150000D01*
X197400000Y-118950000D02*
X197400000Y-125250000D01*
X197400000Y-125250000D02*
X197425000Y-125275000D01*
X185275000Y-118690685D02*
X185850000Y-119265685D01*
X185275000Y-118125000D02*
X185275000Y-118690685D01*
X185850000Y-119265685D02*
X185850000Y-123925000D01*
X185850000Y-123925000D02*
X184625000Y-125150000D01*
X184625000Y-125150000D02*
X184100000Y-125150000D01*
X183625000Y-118075000D02*
X183625000Y-118850000D01*
X183625000Y-118850000D02*
X185075000Y-120300000D01*
X215925000Y-88175000D02*
X215925000Y-90250000D01*
X216675000Y-87350000D02*
X216675000Y-85325000D01*
X213625000Y-88975000D02*
X213625000Y-94550000D01*
X216575000Y-95375000D02*
X216575000Y-97600000D01*
X213325000Y-96175000D02*
X213325000Y-102025000D01*
X212400000Y-96975000D02*
X212400000Y-100725000D01*
X215925000Y-102700000D02*
X215925000Y-105700000D01*
X215925000Y-105700000D02*
X215950000Y-105725000D01*
X212525000Y-105100000D02*
X212525000Y-112725000D01*
X212525000Y-112725000D02*
X212500000Y-112750000D01*
X214075000Y-104300000D02*
X214075000Y-108350000D01*
X213325000Y-103450000D02*
X213325000Y-109900000D01*
X213325000Y-109900000D02*
X213350000Y-109925000D01*
X192950000Y-102475000D02*
X192950000Y-99850000D01*
X206850000Y-99850000D02*
X206850000Y-88175000D01*
X206150000Y-71350000D02*
X208775000Y-71350000D01*
X208775000Y-71350000D02*
X209575000Y-70550000D01*
X212115000Y-70550000D02*
X213615000Y-72050000D01*
X209575000Y-70550000D02*
X212115000Y-70550000D01*
X171075000Y-71350000D02*
X171075000Y-72925000D01*
X171075000Y-93925000D02*
X171075000Y-72925000D01*
X206100000Y-94019670D02*
X206353601Y-94273271D01*
X206100000Y-85925000D02*
X206100000Y-94019670D01*
X206353601Y-99416069D02*
X206221399Y-99548271D01*
X206221399Y-109071399D02*
X206250000Y-109100000D01*
X206221399Y-99548271D02*
X206221399Y-109071399D01*
X206353601Y-94273271D02*
X206353601Y-99416069D01*
X209850000Y-109150000D02*
X209850000Y-113875000D01*
X208170424Y-116854576D02*
X208170424Y-112800145D01*
X207675000Y-117350000D02*
X208170424Y-116854576D01*
X191000000Y-112340685D02*
X191000000Y-116775000D01*
X191575000Y-117350000D02*
X207675000Y-117350000D01*
X191000000Y-116775000D02*
X191575000Y-117350000D01*
X190500000Y-112050000D02*
X191000000Y-112340685D01*
X196325000Y-111525000D02*
X196300000Y-111100000D01*
X196300000Y-111100000D02*
X196300000Y-96775000D01*
X209050000Y-111525000D02*
X209050000Y-113339149D01*
X209050000Y-113339149D02*
X209057554Y-113346703D01*
X204250000Y-89518809D02*
X204625000Y-89893809D01*
X204250000Y-85275000D02*
X204250000Y-89518809D01*
X204625000Y-89893809D02*
X204675000Y-89943809D01*
X204675000Y-89943809D02*
X204675000Y-109875000D01*
X207450000Y-109875000D02*
X207450000Y-113875000D01*
X207450000Y-113875000D02*
X207475000Y-113900000D01*
X195575000Y-104000000D02*
X195575000Y-113600000D01*
X195575000Y-113600000D02*
X195600000Y-113625000D01*
X198100000Y-97021400D02*
X197578600Y-96500000D01*
X198100000Y-103925000D02*
X198100000Y-97021400D01*
X191650000Y-111875000D02*
X191650000Y-112440685D01*
X191650000Y-112440685D02*
X191650000Y-115550000D01*
X191650000Y-115550000D02*
X191975000Y-115875000D01*
X191975000Y-115875000D02*
X198100000Y-115875000D01*
X198100000Y-115875000D02*
X200300000Y-115875000D01*
X202496401Y-85025000D02*
X202496401Y-86446401D01*
X202496401Y-86446401D02*
X202750000Y-86700000D01*
X202928601Y-89015115D02*
X202750000Y-89193716D01*
X202750000Y-86700000D02*
X202928601Y-86878601D01*
X202928601Y-86878601D02*
X202928601Y-89015115D01*
X202571399Y-98365333D02*
X202571399Y-105171399D01*
X202953601Y-96673271D02*
X202953601Y-97983131D01*
X202750000Y-89193716D02*
X202750000Y-96469670D01*
X202953601Y-97983131D02*
X202571399Y-98365333D01*
X202750000Y-96469670D02*
X202953601Y-96673271D01*
X202571399Y-105171399D02*
X202575000Y-105175000D01*
X202575000Y-105175000D02*
X202575000Y-110550000D01*
X197400000Y-110525000D02*
X197400000Y-113775000D01*
X196950000Y-97550000D02*
X196950000Y-98115685D01*
X196950000Y-98115685D02*
X196671399Y-98394286D01*
X196671399Y-103778601D02*
X196671399Y-105449878D01*
X196671399Y-105449878D02*
X197273555Y-106052034D01*
X196671399Y-98394286D02*
X196671399Y-103778601D01*
X199500000Y-111125000D02*
X199075000Y-110700000D01*
X199500000Y-112275000D02*
X199500000Y-111125000D01*
X199075000Y-110700000D02*
X199075000Y-106050000D01*
X199075000Y-112700000D02*
X199500000Y-112275000D01*
X199075000Y-113875000D02*
X199075000Y-112700000D01*
X192562913Y-112146400D02*
X192562913Y-114337087D01*
X192562913Y-114337087D02*
X192550000Y-114350000D01*
X198825000Y-97525000D02*
X198825000Y-98090685D01*
X198446399Y-105748271D02*
X198446399Y-106351729D01*
X198825000Y-98090685D02*
X198825000Y-105369670D01*
X198825000Y-105369670D02*
X198446399Y-105748271D01*
X198425000Y-106373128D02*
X198425000Y-111750000D01*
X198446399Y-106351729D02*
X198425000Y-106373128D01*
X198425000Y-111750000D02*
X198425000Y-112150000D01*
X194800000Y-112146400D02*
X194800000Y-113150000D01*
X194800000Y-113150000D02*
X194425000Y-113525000D01*
X187625000Y-113550000D02*
X184525000Y-113550000D01*
X184525000Y-113550000D02*
X184425000Y-113450000D01*
X200850000Y-84575000D02*
X200850000Y-112775000D01*
X193725000Y-112025000D02*
X193725000Y-115050000D01*
X188900000Y-115050000D02*
X188900000Y-112000000D01*
X204571399Y-87244671D02*
X205050000Y-86766070D01*
X204571399Y-88496399D02*
X204571399Y-87244671D01*
X205050000Y-88975000D02*
X204571399Y-88496399D01*
X205050000Y-86766070D02*
X205050000Y-77750000D01*
X207700000Y-78925000D02*
X207700000Y-86575000D01*
X205678600Y-94528600D02*
X205725000Y-94575000D01*
X205678601Y-88025001D02*
X205678601Y-89671399D01*
X205200000Y-87546400D02*
X205678601Y-88025001D01*
X205678601Y-89671399D02*
X205650000Y-89700000D01*
X205650000Y-89700000D02*
X205678600Y-94528600D01*
X203621399Y-85576729D02*
X203945190Y-85900520D01*
X203945190Y-96120190D02*
X204000000Y-96175000D01*
X203945190Y-85900520D02*
X203945190Y-96120190D01*
X203621399Y-83192577D02*
X203621399Y-85576729D01*
X204031988Y-82781988D02*
X203621399Y-83192577D01*
X204031988Y-75843012D02*
X204031988Y-82781988D01*
X192307825Y-101771665D02*
X192307825Y-99117175D01*
X192307825Y-99117175D02*
X192325000Y-99100000D01*
X207575000Y-99100000D02*
X207575000Y-95400000D01*
X207575000Y-95400000D02*
X207550000Y-95375000D01*
X202300000Y-96950000D02*
X202325000Y-96975000D01*
X202300000Y-87241590D02*
X202300000Y-96950000D01*
X197350000Y-100650000D02*
X197350000Y-105050000D01*
X197350000Y-105050000D02*
X197300000Y-105100000D01*
X203175000Y-98200000D02*
X203125001Y-103425001D01*
X203153284Y-95803284D02*
X203371399Y-96021399D01*
X203175000Y-89200000D02*
X203153284Y-95378284D01*
X203125001Y-74124999D02*
X203125001Y-74424999D01*
X203371399Y-97996399D02*
X203175000Y-98192798D01*
X203640380Y-86190380D02*
X203640380Y-88734620D01*
X203175000Y-98192798D02*
X203175000Y-98200000D01*
X203371399Y-96021399D02*
X203371399Y-97996399D01*
X203125001Y-85675001D02*
X203640380Y-86190380D01*
X203125001Y-103425001D02*
X203200000Y-103500000D01*
X203153284Y-95378284D02*
X203153284Y-95803284D01*
X203640380Y-88734620D02*
X203175000Y-89200000D01*
X203125001Y-74424999D02*
X203125001Y-85675001D01*
X201540797Y-87815797D02*
X201575000Y-87850000D01*
X201540797Y-86612990D02*
X201540797Y-87815797D01*
X201575000Y-87850000D02*
X201550000Y-104300000D01*
X195628600Y-101075000D02*
X195628600Y-102757693D01*
X195628600Y-102757693D02*
X195632741Y-102761834D01*
X198900000Y-72925000D02*
X198900000Y-76500000D01*
X198900000Y-76500000D02*
X198975000Y-76575000D01*
X182775000Y-99475000D02*
X184875000Y-99475000D01*
X184875000Y-99475000D02*
X185325000Y-99025000D01*
X185325000Y-99025000D02*
X185325000Y-91800000D01*
X185325000Y-88950000D02*
X185325000Y-72925000D01*
X185325000Y-72925000D02*
X185325000Y-70075000D01*
X198900000Y-72925000D02*
X198900000Y-70100000D01*
X191500000Y-75975000D02*
X191000000Y-76475000D01*
X195703600Y-75975000D02*
X191500000Y-75975000D01*
X191000000Y-76475000D02*
X190975000Y-86525000D01*
X190975000Y-86525000D02*
X190975000Y-91500000D01*
X190975000Y-91500000D02*
X190975000Y-98500000D01*
X190328600Y-99146400D02*
X190328600Y-100700000D01*
X190975000Y-98500000D02*
X190328600Y-99146400D01*
X173525000Y-91100000D02*
X173525000Y-92325000D01*
X174600000Y-90025000D02*
X173525000Y-91100000D01*
X186175000Y-90025000D02*
X174600000Y-90025000D01*
X212765001Y-76280001D02*
X213615000Y-77130000D01*
X212765001Y-76280001D02*
X212755001Y-76280001D01*
X212755001Y-76280001D02*
X212325000Y-75850000D01*
X212325000Y-75850000D02*
X209225000Y-75850000D01*
X208675000Y-75300000D02*
X208175000Y-75300000D01*
X209225000Y-75850000D02*
X208675000Y-75300000D01*
X205350000Y-75300000D02*
X208175000Y-75300000D01*
X190200000Y-92275000D02*
X190200000Y-87400000D01*
X189700000Y-99150000D02*
X190150000Y-98700000D01*
X190150000Y-98700000D02*
X190200000Y-92275000D01*
X189700000Y-102200000D02*
X189700000Y-99150000D01*
X175025000Y-90725000D02*
X185950000Y-90725000D01*
X185950000Y-90725000D02*
X186675000Y-91450000D01*
X186675000Y-91450000D02*
X186675000Y-92300000D01*
X190200000Y-87400000D02*
X190200000Y-75475000D01*
X212400000Y-78475000D02*
X212765001Y-78820001D01*
X212375000Y-78450000D02*
X212400000Y-78475000D01*
X212765001Y-78820001D02*
X213615000Y-79670000D01*
X210133601Y-78208601D02*
X210400000Y-78475000D01*
X209808601Y-78208601D02*
X210133601Y-78208601D01*
X207775000Y-76175000D02*
X209808601Y-78208601D01*
X210400000Y-78475000D02*
X212375000Y-78450000D01*
X195075000Y-85625000D02*
X195075000Y-90850000D01*
X182525000Y-103950000D02*
X182525000Y-107725000D01*
X187625000Y-103975000D02*
X187625000Y-94200000D01*
X187625000Y-94200000D02*
X187625000Y-83200000D01*
X193425000Y-83200000D02*
X193425000Y-81400000D01*
X193425000Y-81400000D02*
X193425000Y-81578600D01*
X187625000Y-83200000D02*
X187625000Y-72350000D01*
X183325000Y-103200000D02*
X183325000Y-106875000D01*
X183325000Y-106875000D02*
X183275000Y-106925000D01*
X188500000Y-103225000D02*
X188500000Y-93350000D01*
X188500000Y-93350000D02*
X188475000Y-93325000D01*
X188475000Y-93325000D02*
X188475000Y-82475000D01*
X188475000Y-82475000D02*
X188500000Y-82450000D01*
X192500000Y-82425000D02*
X192500000Y-80975000D01*
X192500000Y-80975000D02*
X192525000Y-80950000D01*
X188500000Y-82450000D02*
X188500000Y-73250000D01*
X195000000Y-96775000D02*
X195000000Y-102050000D01*
X180472894Y-84355000D02*
X180467894Y-84350000D01*
X181180000Y-84355000D02*
X180472894Y-84355000D01*
X180467894Y-84350000D02*
X179350000Y-84350000D01*
X179350000Y-84350000D02*
X173550000Y-78550000D01*
X173550000Y-78550000D02*
X173550000Y-77900000D01*
X181584315Y-88525000D02*
X179350000Y-86290685D01*
X182150000Y-88525000D02*
X181584315Y-88525000D01*
X179350000Y-86290685D02*
X179350000Y-84350000D01*
X184500000Y-79075000D02*
X184500000Y-80625000D01*
X184500000Y-80625000D02*
X184500000Y-87825000D01*
D18*
G36*
X184290000Y-69973061D02*
G01*
X184290000Y-70176939D01*
X184329774Y-70376898D01*
X184407795Y-70565256D01*
X184521063Y-70734774D01*
X184613801Y-70827512D01*
X184613800Y-72959935D01*
X184613801Y-72959945D01*
X184613801Y-78042359D01*
X184601939Y-78040000D01*
X184398061Y-78040000D01*
X184198102Y-78079774D01*
X184009744Y-78157795D01*
X183840226Y-78271063D01*
X183696063Y-78415226D01*
X183582795Y-78584744D01*
X183504774Y-78773102D01*
X183465000Y-78973061D01*
X183465000Y-79176939D01*
X183504774Y-79376898D01*
X183582795Y-79565256D01*
X183696063Y-79734774D01*
X183788800Y-79827511D01*
X183788801Y-80590055D01*
X183788800Y-80590065D01*
X183788801Y-87072488D01*
X183696063Y-87165226D01*
X183582795Y-87334744D01*
X183504774Y-87523102D01*
X183465000Y-87723061D01*
X183465000Y-87926939D01*
X183504774Y-88126898D01*
X183582795Y-88315256D01*
X183696063Y-88484774D01*
X183840226Y-88628937D01*
X184009744Y-88742205D01*
X184198102Y-88820226D01*
X184291828Y-88838869D01*
X184290000Y-88848061D01*
X184290000Y-89051939D01*
X184329774Y-89251898D01*
X184355415Y-89313800D01*
X182824911Y-89313800D01*
X182953937Y-89184774D01*
X183067205Y-89015256D01*
X183145226Y-88826898D01*
X183185000Y-88626939D01*
X183185000Y-88423061D01*
X183145226Y-88223102D01*
X183067205Y-88034744D01*
X182953937Y-87865226D01*
X182809774Y-87721063D01*
X182640256Y-87607795D01*
X182451898Y-87529774D01*
X182251939Y-87490000D01*
X182048061Y-87490000D01*
X181848102Y-87529774D01*
X181669046Y-87603942D01*
X180733793Y-86668690D01*
X180848933Y-86716383D01*
X181068212Y-86760000D01*
X181291788Y-86760000D01*
X181511067Y-86716383D01*
X181622774Y-86670112D01*
X181705820Y-86714502D01*
X181825518Y-86750812D01*
X181950000Y-86763072D01*
X182950000Y-86763072D01*
X183074482Y-86750812D01*
X183194180Y-86714502D01*
X183304494Y-86655537D01*
X183401185Y-86576185D01*
X183480537Y-86479494D01*
X183539502Y-86369180D01*
X183575812Y-86249482D01*
X183588072Y-86125000D01*
X183588072Y-85125000D01*
X183575812Y-85000518D01*
X183539502Y-84880820D01*
X183491930Y-84791820D01*
X183527446Y-84711864D01*
X183544119Y-84656874D01*
X183417954Y-84482000D01*
X182577000Y-84482000D01*
X182577000Y-84486928D01*
X182323000Y-84486928D01*
X182323000Y-84482000D01*
X182311974Y-84482000D01*
X182315000Y-84466788D01*
X182315000Y-84243212D01*
X182311974Y-84228000D01*
X182323000Y-84228000D01*
X182323000Y-83212000D01*
X182577000Y-83212000D01*
X182577000Y-84228000D01*
X183417954Y-84228000D01*
X183544119Y-84053126D01*
X183527446Y-83998136D01*
X183437123Y-83794794D01*
X183384361Y-83720000D01*
X183437123Y-83645206D01*
X183527446Y-83441864D01*
X183544119Y-83386874D01*
X183417954Y-83212000D01*
X182577000Y-83212000D01*
X182323000Y-83212000D01*
X182311974Y-83212000D01*
X182315000Y-83196788D01*
X182315000Y-82973212D01*
X182311974Y-82958000D01*
X182323000Y-82958000D01*
X182323000Y-82946974D01*
X182338212Y-82950000D01*
X182561788Y-82950000D01*
X182577000Y-82946974D01*
X182577000Y-82958000D01*
X183417954Y-82958000D01*
X183544119Y-82783126D01*
X183527446Y-82728136D01*
X183437123Y-82524794D01*
X183387647Y-82454658D01*
X183455824Y-82352624D01*
X183541383Y-82146067D01*
X183585000Y-81926788D01*
X183585000Y-81703212D01*
X183541383Y-81483933D01*
X183455824Y-81277376D01*
X183387647Y-81175342D01*
X183437123Y-81105206D01*
X183527446Y-80901864D01*
X183544119Y-80846874D01*
X183417954Y-80672000D01*
X182577000Y-80672000D01*
X182577000Y-80683026D01*
X182561788Y-80680000D01*
X182338212Y-80680000D01*
X182323000Y-80683026D01*
X182323000Y-80672000D01*
X182311974Y-80672000D01*
X182315000Y-80656788D01*
X182315000Y-80433212D01*
X182311974Y-80418000D01*
X182323000Y-80418000D01*
X182323000Y-79575871D01*
X182577000Y-79575871D01*
X182577000Y-80418000D01*
X183417954Y-80418000D01*
X183544119Y-80243126D01*
X183527446Y-80188136D01*
X183437123Y-79984794D01*
X183308865Y-79802980D01*
X183147601Y-79649682D01*
X182959529Y-79530790D01*
X182751876Y-79450874D01*
X182577000Y-79575871D01*
X182323000Y-79575871D01*
X182148124Y-79450874D01*
X181940471Y-79530790D01*
X181819512Y-79607256D01*
X181717624Y-79539176D01*
X181511067Y-79453617D01*
X181291788Y-79410000D01*
X181068212Y-79410000D01*
X180848933Y-79453617D01*
X180642376Y-79539176D01*
X180456480Y-79663388D01*
X180298388Y-79821480D01*
X180174176Y-80007376D01*
X180088617Y-80213933D01*
X180045000Y-80433212D01*
X180045000Y-80656788D01*
X180088617Y-80876067D01*
X180174176Y-81082624D01*
X180239241Y-81180000D01*
X180174176Y-81277376D01*
X180088617Y-81483933D01*
X180045000Y-81703212D01*
X180045000Y-81926788D01*
X180088617Y-82146067D01*
X180174176Y-82352624D01*
X180239241Y-82450000D01*
X180174176Y-82547376D01*
X180088617Y-82753933D01*
X180045000Y-82973212D01*
X180045000Y-83196788D01*
X180088617Y-83416067D01*
X180174176Y-83622624D01*
X180184984Y-83638800D01*
X180102511Y-83638800D01*
X180009774Y-83546063D01*
X179840256Y-83432795D01*
X179651898Y-83354774D01*
X179451939Y-83315000D01*
X179320789Y-83315000D01*
X174438702Y-78432914D01*
X174467205Y-78390256D01*
X174545226Y-78201898D01*
X174585000Y-78001939D01*
X174585000Y-77798061D01*
X174545226Y-77598102D01*
X174467205Y-77409744D01*
X174353937Y-77240226D01*
X174209774Y-77096063D01*
X174040256Y-76982795D01*
X173851898Y-76904774D01*
X173651939Y-76865000D01*
X173448061Y-76865000D01*
X173248102Y-76904774D01*
X173059744Y-76982795D01*
X172890226Y-77096063D01*
X172746063Y-77240226D01*
X172632795Y-77409744D01*
X172554774Y-77598102D01*
X172515000Y-77798061D01*
X172515000Y-78001939D01*
X172554774Y-78201898D01*
X172632795Y-78390256D01*
X172746063Y-78559774D01*
X172846183Y-78659894D01*
X172849091Y-78689419D01*
X172889758Y-78823480D01*
X172955798Y-78947032D01*
X173044673Y-79055326D01*
X173071811Y-79077598D01*
X178315000Y-84320789D01*
X178315000Y-84451939D01*
X178354774Y-84651898D01*
X178432795Y-84840256D01*
X178546063Y-85009774D01*
X178638801Y-85102512D01*
X178638800Y-86255759D01*
X178635360Y-86290685D01*
X178638800Y-86325611D01*
X178638800Y-86325620D01*
X178649091Y-86430104D01*
X178689758Y-86564165D01*
X178755798Y-86687717D01*
X178844673Y-86796011D01*
X178871810Y-86818282D01*
X181056722Y-89003196D01*
X181078988Y-89030327D01*
X181106119Y-89052593D01*
X181106124Y-89052598D01*
X181187282Y-89119202D01*
X181310833Y-89185242D01*
X181362075Y-89200786D01*
X181475089Y-89313800D01*
X174634928Y-89313800D01*
X174600000Y-89310360D01*
X174565071Y-89313800D01*
X174565064Y-89313800D01*
X174460580Y-89324091D01*
X174326518Y-89364758D01*
X174202967Y-89430798D01*
X174121809Y-89497402D01*
X174121804Y-89497407D01*
X174094673Y-89519673D01*
X174072407Y-89546804D01*
X173046810Y-90572403D01*
X173019673Y-90594674D01*
X172930798Y-90702968D01*
X172864758Y-90826520D01*
X172824091Y-90960581D01*
X172813800Y-91065065D01*
X172813800Y-91065074D01*
X172810360Y-91100000D01*
X172813800Y-91134926D01*
X172813800Y-91572489D01*
X172721063Y-91665226D01*
X172607795Y-91834744D01*
X172529774Y-92023102D01*
X172490000Y-92223061D01*
X172490000Y-92426939D01*
X172529774Y-92626898D01*
X172607795Y-92815256D01*
X172721063Y-92984774D01*
X172865226Y-93128937D01*
X173034744Y-93242205D01*
X173223102Y-93320226D01*
X173423061Y-93360000D01*
X173626939Y-93360000D01*
X173826898Y-93320226D01*
X174015256Y-93242205D01*
X174184774Y-93128937D01*
X174328937Y-92984774D01*
X174442205Y-92815256D01*
X174520226Y-92626898D01*
X174560000Y-92426939D01*
X174560000Y-92223061D01*
X174520226Y-92023102D01*
X174442205Y-91834744D01*
X174328937Y-91665226D01*
X174236200Y-91572489D01*
X174236200Y-91399911D01*
X174365226Y-91528937D01*
X174534744Y-91642205D01*
X174723102Y-91720226D01*
X174923061Y-91760000D01*
X175126939Y-91760000D01*
X175326898Y-91720226D01*
X175515256Y-91642205D01*
X175684774Y-91528937D01*
X175777511Y-91436200D01*
X184355415Y-91436200D01*
X184329774Y-91498102D01*
X184290000Y-91698061D01*
X184290000Y-91901939D01*
X184329774Y-92101898D01*
X184407795Y-92290256D01*
X184521063Y-92459774D01*
X184613801Y-92552512D01*
X184613800Y-98730413D01*
X184580413Y-98763800D01*
X183527511Y-98763800D01*
X183434774Y-98671063D01*
X183265256Y-98557795D01*
X183076898Y-98479774D01*
X182876939Y-98440000D01*
X182673061Y-98440000D01*
X182473102Y-98479774D01*
X182284744Y-98557795D01*
X182115226Y-98671063D01*
X181971063Y-98815226D01*
X181857795Y-98984744D01*
X181779774Y-99173102D01*
X181740000Y-99373061D01*
X181740000Y-99576939D01*
X181779774Y-99776898D01*
X181857795Y-99965256D01*
X181971063Y-100134774D01*
X182115226Y-100278937D01*
X182284744Y-100392205D01*
X182473102Y-100470226D01*
X182673061Y-100510000D01*
X182876939Y-100510000D01*
X183076898Y-100470226D01*
X183265256Y-100392205D01*
X183434774Y-100278937D01*
X183527511Y-100186200D01*
X184840074Y-100186200D01*
X184875000Y-100189640D01*
X184909926Y-100186200D01*
X184909936Y-100186200D01*
X185014420Y-100175909D01*
X185148481Y-100135242D01*
X185272033Y-100069202D01*
X185380327Y-99980327D01*
X185402602Y-99953185D01*
X185803190Y-99552597D01*
X185830326Y-99530327D01*
X185919202Y-99422033D01*
X185985242Y-99298481D01*
X186025909Y-99164420D01*
X186036200Y-99059936D01*
X186036200Y-99059927D01*
X186039640Y-99025001D01*
X186036200Y-98990075D01*
X186036200Y-93117951D01*
X186184744Y-93217205D01*
X186373102Y-93295226D01*
X186573061Y-93335000D01*
X186776939Y-93335000D01*
X186913800Y-93307777D01*
X186913800Y-93447489D01*
X186821063Y-93540226D01*
X186707795Y-93709744D01*
X186629774Y-93898102D01*
X186590000Y-94098061D01*
X186590000Y-94301939D01*
X186629774Y-94501898D01*
X186707795Y-94690256D01*
X186821063Y-94859774D01*
X186913801Y-94952512D01*
X186913800Y-103222489D01*
X186821063Y-103315226D01*
X186707795Y-103484744D01*
X186629774Y-103673102D01*
X186590000Y-103873061D01*
X186590000Y-104076939D01*
X186629774Y-104276898D01*
X186707795Y-104465256D01*
X186821063Y-104634774D01*
X186965226Y-104778937D01*
X187134744Y-104892205D01*
X187323102Y-104970226D01*
X187523061Y-105010000D01*
X187726939Y-105010000D01*
X187926898Y-104970226D01*
X188115256Y-104892205D01*
X188284774Y-104778937D01*
X188428937Y-104634774D01*
X188542205Y-104465256D01*
X188620226Y-104276898D01*
X188624479Y-104255517D01*
X188801898Y-104220226D01*
X188990256Y-104142205D01*
X189159774Y-104028937D01*
X189303937Y-103884774D01*
X189417205Y-103715256D01*
X189495226Y-103526898D01*
X189535000Y-103326939D01*
X189535000Y-103222456D01*
X189598061Y-103235000D01*
X189801939Y-103235000D01*
X190001898Y-103195226D01*
X190190256Y-103117205D01*
X190359774Y-103003937D01*
X190503937Y-102859774D01*
X190617205Y-102690256D01*
X190695226Y-102501898D01*
X190735000Y-102301939D01*
X190735000Y-102098061D01*
X190695226Y-101898102D01*
X190617205Y-101709744D01*
X190610202Y-101699263D01*
X190630498Y-101695226D01*
X190818856Y-101617205D01*
X190988374Y-101503937D01*
X191132537Y-101359774D01*
X191245805Y-101190256D01*
X191323826Y-101001898D01*
X191363600Y-100801939D01*
X191363600Y-100598061D01*
X191323826Y-100398102D01*
X191245805Y-100209744D01*
X191132537Y-100040226D01*
X191039800Y-99947489D01*
X191039800Y-99440988D01*
X191290000Y-99190788D01*
X191290000Y-99201939D01*
X191329774Y-99401898D01*
X191407795Y-99590256D01*
X191521063Y-99759774D01*
X191596626Y-99835337D01*
X191596625Y-101019154D01*
X191503888Y-101111891D01*
X191390620Y-101281409D01*
X191312599Y-101469767D01*
X191272825Y-101669726D01*
X191272825Y-101873604D01*
X191312599Y-102073563D01*
X191390620Y-102261921D01*
X191503888Y-102431439D01*
X191648051Y-102575602D01*
X191817569Y-102688870D01*
X191948012Y-102742902D01*
X191954774Y-102776898D01*
X192032795Y-102965256D01*
X192146063Y-103134774D01*
X192290226Y-103278937D01*
X192459744Y-103392205D01*
X192648102Y-103470226D01*
X192848061Y-103510000D01*
X193051939Y-103510000D01*
X193251898Y-103470226D01*
X193440256Y-103392205D01*
X193609774Y-103278937D01*
X193753937Y-103134774D01*
X193867205Y-102965256D01*
X193945226Y-102776898D01*
X193985000Y-102576939D01*
X193985000Y-102373061D01*
X193945226Y-102173102D01*
X193867205Y-101984744D01*
X193753937Y-101815226D01*
X193661200Y-101722489D01*
X193661200Y-100602511D01*
X193753937Y-100509774D01*
X193867205Y-100340256D01*
X193945226Y-100151898D01*
X193985000Y-99951939D01*
X193985000Y-99748061D01*
X193945226Y-99548102D01*
X193867205Y-99359744D01*
X193753937Y-99190226D01*
X193609774Y-99046063D01*
X193440256Y-98932795D01*
X193338646Y-98890706D01*
X193320226Y-98798102D01*
X193242205Y-98609744D01*
X193128937Y-98440226D01*
X192984774Y-98296063D01*
X192815256Y-98182795D01*
X192626898Y-98104774D01*
X192426939Y-98065000D01*
X192223061Y-98065000D01*
X192023102Y-98104774D01*
X191834744Y-98182795D01*
X191686200Y-98282049D01*
X191686200Y-90702511D01*
X191778937Y-90609774D01*
X191892205Y-90440256D01*
X191970226Y-90251898D01*
X192010000Y-90051939D01*
X192010000Y-89848061D01*
X191970226Y-89648102D01*
X191892205Y-89459744D01*
X191778937Y-89290226D01*
X191686200Y-89197489D01*
X191686200Y-87277511D01*
X191778937Y-87184774D01*
X191892205Y-87015256D01*
X191970226Y-86826898D01*
X192010000Y-86626939D01*
X192010000Y-86423061D01*
X191970226Y-86223102D01*
X191892205Y-86034744D01*
X191778937Y-85865226D01*
X191688069Y-85774358D01*
X191688694Y-85523061D01*
X194040000Y-85523061D01*
X194040000Y-85726939D01*
X194079774Y-85926898D01*
X194157795Y-86115256D01*
X194271063Y-86284774D01*
X194363800Y-86377511D01*
X194363801Y-90097488D01*
X194271063Y-90190226D01*
X194157795Y-90359744D01*
X194079774Y-90548102D01*
X194040000Y-90748061D01*
X194040000Y-90951939D01*
X194079774Y-91151898D01*
X194157795Y-91340256D01*
X194271063Y-91509774D01*
X194415226Y-91653937D01*
X194584744Y-91767205D01*
X194773102Y-91845226D01*
X194973061Y-91885000D01*
X195176939Y-91885000D01*
X195376898Y-91845226D01*
X195565256Y-91767205D01*
X195734774Y-91653937D01*
X195878937Y-91509774D01*
X195992205Y-91340256D01*
X196070226Y-91151898D01*
X196110000Y-90951939D01*
X196110000Y-90748061D01*
X196070226Y-90548102D01*
X195992205Y-90359744D01*
X195878937Y-90190226D01*
X195786200Y-90097489D01*
X195786200Y-86377511D01*
X195878937Y-86284774D01*
X195992205Y-86115256D01*
X196070226Y-85926898D01*
X196110000Y-85726939D01*
X196110000Y-85523061D01*
X196070226Y-85323102D01*
X195992205Y-85134744D01*
X195878937Y-84965226D01*
X195734774Y-84821063D01*
X195565256Y-84707795D01*
X195376898Y-84629774D01*
X195176939Y-84590000D01*
X194973061Y-84590000D01*
X194773102Y-84629774D01*
X194584744Y-84707795D01*
X194415226Y-84821063D01*
X194271063Y-84965226D01*
X194157795Y-85134744D01*
X194079774Y-85323102D01*
X194040000Y-85523061D01*
X191688694Y-85523061D01*
X191694764Y-83082830D01*
X191696063Y-83084774D01*
X191840226Y-83228937D01*
X192009744Y-83342205D01*
X192198102Y-83420226D01*
X192398061Y-83460000D01*
X192421440Y-83460000D01*
X192429774Y-83501898D01*
X192507795Y-83690256D01*
X192621063Y-83859774D01*
X192765226Y-84003937D01*
X192934744Y-84117205D01*
X193123102Y-84195226D01*
X193323061Y-84235000D01*
X193526939Y-84235000D01*
X193726898Y-84195226D01*
X193915256Y-84117205D01*
X194084774Y-84003937D01*
X194228937Y-83859774D01*
X194342205Y-83690256D01*
X194420226Y-83501898D01*
X194460000Y-83301939D01*
X194460000Y-83098061D01*
X194420226Y-82898102D01*
X194342205Y-82709744D01*
X194228937Y-82540226D01*
X194136200Y-82447489D01*
X194136200Y-82331111D01*
X194228937Y-82238374D01*
X194342205Y-82068856D01*
X194420226Y-81880498D01*
X194460000Y-81680539D01*
X194460000Y-81476661D01*
X194420226Y-81276702D01*
X194342205Y-81088344D01*
X194228937Y-80918826D01*
X194084774Y-80774663D01*
X193915256Y-80661395D01*
X193726898Y-80583374D01*
X193526939Y-80543600D01*
X193476940Y-80543600D01*
X193442205Y-80459744D01*
X193328937Y-80290226D01*
X193184774Y-80146063D01*
X193015256Y-80032795D01*
X192826898Y-79954774D01*
X192626939Y-79915000D01*
X192423061Y-79915000D01*
X192223102Y-79954774D01*
X192034744Y-80032795D01*
X191865226Y-80146063D01*
X191721063Y-80290226D01*
X191701638Y-80319297D01*
X191710467Y-76770321D01*
X191794588Y-76686200D01*
X194951089Y-76686200D01*
X195043826Y-76778937D01*
X195213344Y-76892205D01*
X195401702Y-76970226D01*
X195601661Y-77010000D01*
X195805539Y-77010000D01*
X196005498Y-76970226D01*
X196193856Y-76892205D01*
X196363374Y-76778937D01*
X196507537Y-76634774D01*
X196620805Y-76465256D01*
X196698826Y-76276898D01*
X196738600Y-76076939D01*
X196738600Y-75873061D01*
X196698826Y-75673102D01*
X196620805Y-75484744D01*
X196507537Y-75315226D01*
X196363374Y-75171063D01*
X196193856Y-75057795D01*
X196005498Y-74979774D01*
X195805539Y-74940000D01*
X195601661Y-74940000D01*
X195401702Y-74979774D01*
X195213344Y-75057795D01*
X195043826Y-75171063D01*
X194951089Y-75263800D01*
X191534928Y-75263800D01*
X191500000Y-75260360D01*
X191465071Y-75263800D01*
X191465064Y-75263800D01*
X191360580Y-75274091D01*
X191226518Y-75314758D01*
X191223702Y-75316263D01*
X191195226Y-75173102D01*
X191117205Y-74984744D01*
X191003937Y-74815226D01*
X190859774Y-74671063D01*
X190690256Y-74557795D01*
X190501898Y-74479774D01*
X190301939Y-74440000D01*
X190098061Y-74440000D01*
X189898102Y-74479774D01*
X189709744Y-74557795D01*
X189540226Y-74671063D01*
X189396063Y-74815226D01*
X189282795Y-74984744D01*
X189211200Y-75157588D01*
X189211200Y-74002511D01*
X189303937Y-73909774D01*
X189417205Y-73740256D01*
X189495226Y-73551898D01*
X189535000Y-73351939D01*
X189535000Y-73148061D01*
X189495226Y-72948102D01*
X189417205Y-72759744D01*
X189303937Y-72590226D01*
X189159774Y-72446063D01*
X188990256Y-72332795D01*
X188801898Y-72254774D01*
X188655545Y-72225663D01*
X188620226Y-72048102D01*
X188542205Y-71859744D01*
X188428937Y-71690226D01*
X188284774Y-71546063D01*
X188115256Y-71432795D01*
X187926898Y-71354774D01*
X187726939Y-71315000D01*
X187523061Y-71315000D01*
X187323102Y-71354774D01*
X187134744Y-71432795D01*
X186965226Y-71546063D01*
X186821063Y-71690226D01*
X186707795Y-71859744D01*
X186629774Y-72048102D01*
X186590000Y-72248061D01*
X186590000Y-72451939D01*
X186629774Y-72651898D01*
X186707795Y-72840256D01*
X186821063Y-73009774D01*
X186913801Y-73102512D01*
X186913800Y-82447489D01*
X186821063Y-82540226D01*
X186707795Y-82709744D01*
X186629774Y-82898102D01*
X186590000Y-83098061D01*
X186590000Y-83301939D01*
X186629774Y-83501898D01*
X186707795Y-83690256D01*
X186821063Y-83859774D01*
X186913801Y-83952512D01*
X186913800Y-89300089D01*
X186834774Y-89221063D01*
X186665256Y-89107795D01*
X186476898Y-89029774D01*
X186360000Y-89006522D01*
X186360000Y-88848061D01*
X186320226Y-88648102D01*
X186242205Y-88459744D01*
X186128937Y-88290226D01*
X186036200Y-88197489D01*
X186036200Y-70827511D01*
X186128937Y-70734774D01*
X186242205Y-70565256D01*
X186320226Y-70376898D01*
X186360000Y-70176939D01*
X186360000Y-69973061D01*
X186332538Y-69835000D01*
X197897435Y-69835000D01*
X197865000Y-69998061D01*
X197865000Y-70201939D01*
X197904774Y-70401898D01*
X197982795Y-70590256D01*
X198096063Y-70759774D01*
X198188801Y-70852512D01*
X198188800Y-72890064D01*
X198188800Y-72890065D01*
X198188801Y-75897488D01*
X198171063Y-75915226D01*
X198057795Y-76084744D01*
X197979774Y-76273102D01*
X197940000Y-76473061D01*
X197940000Y-76676939D01*
X197979774Y-76876898D01*
X198057795Y-77065256D01*
X198171063Y-77234774D01*
X198315226Y-77378937D01*
X198484744Y-77492205D01*
X198673102Y-77570226D01*
X198873061Y-77610000D01*
X199076939Y-77610000D01*
X199276898Y-77570226D01*
X199465256Y-77492205D01*
X199634774Y-77378937D01*
X199778937Y-77234774D01*
X199892205Y-77065256D01*
X199970226Y-76876898D01*
X200010000Y-76676939D01*
X200010000Y-76473061D01*
X199970226Y-76273102D01*
X199892205Y-76084744D01*
X199778937Y-75915226D01*
X199634774Y-75771063D01*
X199611200Y-75755311D01*
X199611200Y-70852511D01*
X199703937Y-70759774D01*
X199817205Y-70590256D01*
X199895226Y-70401898D01*
X199935000Y-70201939D01*
X199935000Y-69998061D01*
X199902565Y-69835000D01*
X232815000Y-69835000D01*
X232815001Y-129215000D01*
X151585000Y-129215000D01*
X151585000Y-126228967D01*
X158040000Y-126228967D01*
X158040000Y-126551033D01*
X158102832Y-126866912D01*
X158226082Y-127164463D01*
X158405013Y-127432252D01*
X158632748Y-127659987D01*
X158900537Y-127838918D01*
X159198088Y-127962168D01*
X159513967Y-128025000D01*
X159836033Y-128025000D01*
X160151912Y-127962168D01*
X160449463Y-127838918D01*
X160717252Y-127659987D01*
X160944987Y-127432252D01*
X161123918Y-127164463D01*
X161247168Y-126866912D01*
X161310000Y-126551033D01*
X161310000Y-126228967D01*
X161247168Y-125913088D01*
X161123918Y-125615537D01*
X160944987Y-125347748D01*
X160717252Y-125120013D01*
X160449463Y-124941082D01*
X160151912Y-124817832D01*
X159836033Y-124755000D01*
X159513967Y-124755000D01*
X159198088Y-124817832D01*
X158900537Y-124941082D01*
X158632748Y-125120013D01*
X158405013Y-125347748D01*
X158226082Y-125615537D01*
X158102832Y-125913088D01*
X158040000Y-126228967D01*
X151585000Y-126228967D01*
X151585000Y-123437449D01*
X163715000Y-123437449D01*
X163715000Y-123822551D01*
X163790130Y-124200252D01*
X163937502Y-124556040D01*
X164151453Y-124876240D01*
X164423760Y-125148547D01*
X164743960Y-125362498D01*
X165099748Y-125509870D01*
X165477449Y-125585000D01*
X165862551Y-125585000D01*
X166240252Y-125509870D01*
X166596040Y-125362498D01*
X166916240Y-125148547D01*
X167188547Y-124876240D01*
X167402498Y-124556040D01*
X167549870Y-124200252D01*
X167625000Y-123822551D01*
X167625000Y-123437449D01*
X167549870Y-123059748D01*
X167402498Y-122703960D01*
X167188547Y-122383760D01*
X166916240Y-122111453D01*
X166596040Y-121897502D01*
X166240252Y-121750130D01*
X165862551Y-121675000D01*
X165477449Y-121675000D01*
X165099748Y-121750130D01*
X164743960Y-121897502D01*
X164423760Y-122111453D01*
X164151453Y-122383760D01*
X163937502Y-122703960D01*
X163790130Y-123059748D01*
X163715000Y-123437449D01*
X151585000Y-123437449D01*
X151585000Y-117973061D01*
X182590000Y-117973061D01*
X182590000Y-118176939D01*
X182629774Y-118376898D01*
X182707795Y-118565256D01*
X182821063Y-118734774D01*
X182912685Y-118826396D01*
X182910360Y-118850000D01*
X182913800Y-118884926D01*
X182913800Y-118884936D01*
X182924091Y-118989420D01*
X182962186Y-119115000D01*
X182964759Y-119123481D01*
X183030798Y-119247032D01*
X183097403Y-119328190D01*
X183119674Y-119355327D01*
X183146810Y-119377597D01*
X184040000Y-120270788D01*
X184040000Y-120401939D01*
X184079774Y-120601898D01*
X184157795Y-120790256D01*
X184271063Y-120959774D01*
X184415226Y-121103937D01*
X184584744Y-121217205D01*
X184773102Y-121295226D01*
X184973061Y-121335000D01*
X185138800Y-121335000D01*
X185138801Y-123630410D01*
X184552186Y-124217026D01*
X184401898Y-124154774D01*
X184201939Y-124115000D01*
X183998061Y-124115000D01*
X183798102Y-124154774D01*
X183609744Y-124232795D01*
X183440226Y-124346063D01*
X183296063Y-124490226D01*
X183182795Y-124659744D01*
X183104774Y-124848102D01*
X183065000Y-125048061D01*
X183065000Y-125251939D01*
X183104774Y-125451898D01*
X183182795Y-125640256D01*
X183296063Y-125809774D01*
X183440226Y-125953937D01*
X183609744Y-126067205D01*
X183798102Y-126145226D01*
X183998061Y-126185000D01*
X184201939Y-126185000D01*
X184401898Y-126145226D01*
X184590256Y-126067205D01*
X184759774Y-125953937D01*
X184903937Y-125809774D01*
X184906482Y-125805966D01*
X185022033Y-125744202D01*
X185130327Y-125655327D01*
X185152601Y-125628186D01*
X186328196Y-124452593D01*
X186355327Y-124430327D01*
X186377593Y-124403196D01*
X186377598Y-124403191D01*
X186444202Y-124322033D01*
X186510242Y-124198482D01*
X186550909Y-124064420D01*
X186552717Y-124046063D01*
X186561200Y-123959936D01*
X186561200Y-123959929D01*
X186564640Y-123925000D01*
X186561200Y-123890072D01*
X186561200Y-119466987D01*
X188351003Y-121256791D01*
X188373273Y-121283927D01*
X188481567Y-121372802D01*
X188605119Y-121438842D01*
X188739180Y-121479509D01*
X188843664Y-121489800D01*
X188843673Y-121489800D01*
X188878599Y-121493240D01*
X188913525Y-121489800D01*
X194940777Y-121489800D01*
X195033514Y-121582537D01*
X195203032Y-121695805D01*
X195391390Y-121773826D01*
X195591349Y-121813600D01*
X195795227Y-121813600D01*
X195995186Y-121773826D01*
X196183544Y-121695805D01*
X196353062Y-121582537D01*
X196497225Y-121438374D01*
X196610493Y-121268856D01*
X196645228Y-121185000D01*
X196676939Y-121185000D01*
X196688800Y-121182641D01*
X196688801Y-124547488D01*
X196621063Y-124615226D01*
X196507795Y-124784744D01*
X196429774Y-124973102D01*
X196390000Y-125173061D01*
X196390000Y-125376939D01*
X196429774Y-125576898D01*
X196507795Y-125765256D01*
X196621063Y-125934774D01*
X196765226Y-126078937D01*
X196934744Y-126192205D01*
X197123102Y-126270226D01*
X197323061Y-126310000D01*
X197526939Y-126310000D01*
X197726898Y-126270226D01*
X197915256Y-126192205D01*
X198084774Y-126078937D01*
X198228937Y-125934774D01*
X198342205Y-125765256D01*
X198420226Y-125576898D01*
X198460000Y-125376939D01*
X198460000Y-125173061D01*
X198435137Y-125048061D01*
X203565000Y-125048061D01*
X203565000Y-125251939D01*
X203604774Y-125451898D01*
X203682795Y-125640256D01*
X203796063Y-125809774D01*
X203940226Y-125953937D01*
X204109744Y-126067205D01*
X204298102Y-126145226D01*
X204498061Y-126185000D01*
X204701939Y-126185000D01*
X204901898Y-126145226D01*
X205090256Y-126067205D01*
X205259774Y-125953937D01*
X205377511Y-125836200D01*
X206647489Y-125836200D01*
X206740226Y-125928937D01*
X206909744Y-126042205D01*
X207098102Y-126120226D01*
X207298061Y-126160000D01*
X207501939Y-126160000D01*
X207701898Y-126120226D01*
X207890256Y-126042205D01*
X208059774Y-125928937D01*
X208203937Y-125784774D01*
X208317205Y-125615256D01*
X208395226Y-125426898D01*
X208435000Y-125226939D01*
X208435000Y-125023061D01*
X208395226Y-124823102D01*
X208364143Y-124748061D01*
X208790000Y-124748061D01*
X208790000Y-124951939D01*
X208829774Y-125151898D01*
X208907795Y-125340256D01*
X209021063Y-125509774D01*
X209165226Y-125653937D01*
X209334744Y-125767205D01*
X209523102Y-125845226D01*
X209723061Y-125885000D01*
X209926939Y-125885000D01*
X210126898Y-125845226D01*
X210315256Y-125767205D01*
X210484774Y-125653937D01*
X210577511Y-125561200D01*
X210697489Y-125561200D01*
X210840226Y-125703937D01*
X211009744Y-125817205D01*
X211198102Y-125895226D01*
X211398061Y-125935000D01*
X211601939Y-125935000D01*
X211801898Y-125895226D01*
X211990256Y-125817205D01*
X212159774Y-125703937D01*
X212303937Y-125559774D01*
X212417205Y-125390256D01*
X212423524Y-125375000D01*
X223186928Y-125375000D01*
X223186928Y-127375000D01*
X223199188Y-127499482D01*
X223235498Y-127619180D01*
X223294463Y-127729494D01*
X223373815Y-127826185D01*
X223470506Y-127905537D01*
X223580820Y-127964502D01*
X223700518Y-128000812D01*
X223825000Y-128013072D01*
X225825000Y-128013072D01*
X225949482Y-128000812D01*
X226069180Y-127964502D01*
X226179494Y-127905537D01*
X226276185Y-127826185D01*
X226355537Y-127729494D01*
X226414502Y-127619180D01*
X226450812Y-127499482D01*
X226463072Y-127375000D01*
X226463072Y-125375000D01*
X226450812Y-125250518D01*
X226414502Y-125130820D01*
X226355537Y-125020506D01*
X226276185Y-124923815D01*
X226179494Y-124844463D01*
X226069180Y-124785498D01*
X225949482Y-124749188D01*
X225825000Y-124736928D01*
X223825000Y-124736928D01*
X223700518Y-124749188D01*
X223580820Y-124785498D01*
X223470506Y-124844463D01*
X223373815Y-124923815D01*
X223294463Y-125020506D01*
X223235498Y-125130820D01*
X223199188Y-125250518D01*
X223186928Y-125375000D01*
X212423524Y-125375000D01*
X212495226Y-125201898D01*
X212535000Y-125001939D01*
X212535000Y-124798061D01*
X212495226Y-124598102D01*
X212417205Y-124409744D01*
X212303937Y-124240226D01*
X212159774Y-124096063D01*
X211990256Y-123982795D01*
X211801898Y-123904774D01*
X211601939Y-123865000D01*
X211398061Y-123865000D01*
X211198102Y-123904774D01*
X211009744Y-123982795D01*
X210840226Y-124096063D01*
X210797489Y-124138800D01*
X210577511Y-124138800D01*
X210484774Y-124046063D01*
X210315256Y-123932795D01*
X210126898Y-123854774D01*
X209926939Y-123815000D01*
X209723061Y-123815000D01*
X209523102Y-123854774D01*
X209334744Y-123932795D01*
X209165226Y-124046063D01*
X209021063Y-124190226D01*
X208907795Y-124359744D01*
X208829774Y-124548102D01*
X208790000Y-124748061D01*
X208364143Y-124748061D01*
X208317205Y-124634744D01*
X208203937Y-124465226D01*
X208059774Y-124321063D01*
X207890256Y-124207795D01*
X207701898Y-124129774D01*
X207501939Y-124090000D01*
X207298061Y-124090000D01*
X207098102Y-124129774D01*
X206909744Y-124207795D01*
X206740226Y-124321063D01*
X206647489Y-124413800D01*
X205327511Y-124413800D01*
X205259774Y-124346063D01*
X205090256Y-124232795D01*
X204901898Y-124154774D01*
X204701939Y-124115000D01*
X204498061Y-124115000D01*
X204298102Y-124154774D01*
X204109744Y-124232795D01*
X203940226Y-124346063D01*
X203796063Y-124490226D01*
X203682795Y-124659744D01*
X203604774Y-124848102D01*
X203565000Y-125048061D01*
X198435137Y-125048061D01*
X198420226Y-124973102D01*
X198342205Y-124784744D01*
X198228937Y-124615226D01*
X198111200Y-124497489D01*
X198111200Y-123432449D01*
X228865000Y-123432449D01*
X228865000Y-123817551D01*
X228940130Y-124195252D01*
X229087502Y-124551040D01*
X229301453Y-124871240D01*
X229573760Y-125143547D01*
X229893960Y-125357498D01*
X230249748Y-125504870D01*
X230627449Y-125580000D01*
X231012551Y-125580000D01*
X231390252Y-125504870D01*
X231746040Y-125357498D01*
X232066240Y-125143547D01*
X232338547Y-124871240D01*
X232552498Y-124551040D01*
X232699870Y-124195252D01*
X232775000Y-123817551D01*
X232775000Y-123432449D01*
X232699870Y-123054748D01*
X232552498Y-122698960D01*
X232338547Y-122378760D01*
X232066240Y-122106453D01*
X231746040Y-121892502D01*
X231390252Y-121745130D01*
X231012551Y-121670000D01*
X230627449Y-121670000D01*
X230249748Y-121745130D01*
X229893960Y-121892502D01*
X229573760Y-122106453D01*
X229301453Y-122378760D01*
X229087502Y-122698960D01*
X228940130Y-123054748D01*
X228865000Y-123432449D01*
X198111200Y-123432449D01*
X198111200Y-120932767D01*
X198196063Y-121059774D01*
X198340226Y-121203937D01*
X198509744Y-121317205D01*
X198698102Y-121395226D01*
X198898061Y-121435000D01*
X199101939Y-121435000D01*
X199301898Y-121395226D01*
X199490256Y-121317205D01*
X199659774Y-121203937D01*
X199752511Y-121111200D01*
X203947489Y-121111200D01*
X203965226Y-121128937D01*
X204134744Y-121242205D01*
X204323102Y-121320226D01*
X204523061Y-121360000D01*
X204726939Y-121360000D01*
X204926898Y-121320226D01*
X205115256Y-121242205D01*
X205284774Y-121128937D01*
X205428937Y-120984774D01*
X205542205Y-120815256D01*
X205606515Y-120660000D01*
X205801939Y-120660000D01*
X206001898Y-120620226D01*
X206190256Y-120542205D01*
X206359774Y-120428937D01*
X206503937Y-120284774D01*
X206617205Y-120115256D01*
X206695226Y-119926898D01*
X206735000Y-119726939D01*
X206735000Y-119523061D01*
X206720082Y-119448061D01*
X207190000Y-119448061D01*
X207190000Y-119651939D01*
X207229774Y-119851898D01*
X207307795Y-120040256D01*
X207421063Y-120209774D01*
X207565226Y-120353937D01*
X207734744Y-120467205D01*
X207923102Y-120545226D01*
X208123061Y-120585000D01*
X208326939Y-120585000D01*
X208526898Y-120545226D01*
X208715256Y-120467205D01*
X208884774Y-120353937D01*
X208977511Y-120261200D01*
X211872489Y-120261200D01*
X211940226Y-120328937D01*
X212109744Y-120442205D01*
X212298102Y-120520226D01*
X212498061Y-120560000D01*
X212701939Y-120560000D01*
X212901898Y-120520226D01*
X213090256Y-120442205D01*
X213259774Y-120328937D01*
X213403937Y-120184774D01*
X213517205Y-120015256D01*
X213595226Y-119826898D01*
X213635000Y-119626939D01*
X213635000Y-119423061D01*
X213595226Y-119223102D01*
X213517205Y-119034744D01*
X213403937Y-118865226D01*
X213259774Y-118721063D01*
X213090256Y-118607795D01*
X212901898Y-118529774D01*
X212701939Y-118490000D01*
X212510000Y-118490000D01*
X212510000Y-118373061D01*
X212470226Y-118173102D01*
X212392205Y-117984744D01*
X212278937Y-117815226D01*
X212134774Y-117671063D01*
X211965256Y-117557795D01*
X211776898Y-117479774D01*
X211576939Y-117440000D01*
X211373061Y-117440000D01*
X211173102Y-117479774D01*
X210984744Y-117557795D01*
X210815226Y-117671063D01*
X210697489Y-117788800D01*
X209827511Y-117788800D01*
X209734774Y-117696063D01*
X209565256Y-117582795D01*
X209376898Y-117504774D01*
X209176939Y-117465000D01*
X208973061Y-117465000D01*
X208773102Y-117504774D01*
X208584744Y-117582795D01*
X208415226Y-117696063D01*
X208271063Y-117840226D01*
X208157795Y-118009744D01*
X208079774Y-118198102D01*
X208040000Y-118398061D01*
X208040000Y-118531522D01*
X207923102Y-118554774D01*
X207734744Y-118632795D01*
X207565226Y-118746063D01*
X207421063Y-118890226D01*
X207307795Y-119059744D01*
X207229774Y-119248102D01*
X207190000Y-119448061D01*
X206720082Y-119448061D01*
X206695226Y-119323102D01*
X206617205Y-119134744D01*
X206503937Y-118965226D01*
X206359774Y-118821063D01*
X206190256Y-118707795D01*
X206001898Y-118629774D01*
X205801939Y-118590000D01*
X205598061Y-118590000D01*
X205398102Y-118629774D01*
X205209744Y-118707795D01*
X205040226Y-118821063D01*
X204947489Y-118913800D01*
X198927511Y-118913800D01*
X198834774Y-118821063D01*
X198665256Y-118707795D01*
X198476898Y-118629774D01*
X198379619Y-118610424D01*
X198317205Y-118459744D01*
X198203937Y-118290226D01*
X198059774Y-118146063D01*
X197932767Y-118061200D01*
X207640074Y-118061200D01*
X207675000Y-118064640D01*
X207709926Y-118061200D01*
X207709936Y-118061200D01*
X207814420Y-118050909D01*
X207948481Y-118010242D01*
X208072033Y-117944202D01*
X208180327Y-117855327D01*
X208202601Y-117828186D01*
X208648624Y-117382165D01*
X208675750Y-117359903D01*
X208698012Y-117332777D01*
X208698021Y-117332768D01*
X208764626Y-117251609D01*
X208807161Y-117172032D01*
X208830666Y-117128057D01*
X208871333Y-116993996D01*
X208881624Y-116889512D01*
X208881624Y-116889503D01*
X208885064Y-116854577D01*
X208881624Y-116819651D01*
X208881624Y-114366985D01*
X208941971Y-114378989D01*
X209046063Y-114534774D01*
X209190226Y-114678937D01*
X209359744Y-114792205D01*
X209548102Y-114870226D01*
X209748061Y-114910000D01*
X209951939Y-114910000D01*
X210151898Y-114870226D01*
X210340256Y-114792205D01*
X210509774Y-114678937D01*
X210653937Y-114534774D01*
X210767205Y-114365256D01*
X210845226Y-114176898D01*
X210885000Y-113976939D01*
X210885000Y-113773061D01*
X210845226Y-113573102D01*
X210767205Y-113384744D01*
X210653937Y-113215226D01*
X210561200Y-113122489D01*
X210561200Y-109902511D01*
X210653937Y-109809774D01*
X210767205Y-109640256D01*
X210845226Y-109451898D01*
X210885000Y-109251939D01*
X210885000Y-109048061D01*
X210845226Y-108848102D01*
X210767205Y-108659744D01*
X210653937Y-108490226D01*
X210509774Y-108346063D01*
X210340256Y-108232795D01*
X210151898Y-108154774D01*
X209951939Y-108115000D01*
X209748061Y-108115000D01*
X209548102Y-108154774D01*
X209359744Y-108232795D01*
X209190226Y-108346063D01*
X209046063Y-108490226D01*
X208932795Y-108659744D01*
X208854774Y-108848102D01*
X208815000Y-109048061D01*
X208815000Y-109251939D01*
X208854774Y-109451898D01*
X208932795Y-109640256D01*
X209046063Y-109809774D01*
X209138800Y-109902511D01*
X209138800Y-110490000D01*
X208948061Y-110490000D01*
X208748102Y-110529774D01*
X208559744Y-110607795D01*
X208390226Y-110721063D01*
X208246063Y-110865226D01*
X208161200Y-110992233D01*
X208161200Y-110627511D01*
X208253937Y-110534774D01*
X208367205Y-110365256D01*
X208445226Y-110176898D01*
X208485000Y-109976939D01*
X208485000Y-109773061D01*
X208445226Y-109573102D01*
X208367205Y-109384744D01*
X208253937Y-109215226D01*
X208109774Y-109071063D01*
X207940256Y-108957795D01*
X207751898Y-108879774D01*
X207551939Y-108840000D01*
X207348061Y-108840000D01*
X207257157Y-108858082D01*
X207245226Y-108798102D01*
X207167205Y-108609744D01*
X207053937Y-108440226D01*
X206932599Y-108318888D01*
X206932599Y-100885000D01*
X206951939Y-100885000D01*
X207151898Y-100845226D01*
X207340256Y-100767205D01*
X207509774Y-100653937D01*
X207653937Y-100509774D01*
X207767205Y-100340256D01*
X207845226Y-100151898D01*
X207855658Y-100099451D01*
X207876898Y-100095226D01*
X208065256Y-100017205D01*
X208234774Y-99903937D01*
X208378937Y-99759774D01*
X208492205Y-99590256D01*
X208570226Y-99401898D01*
X208610000Y-99201939D01*
X208610000Y-98998061D01*
X208570226Y-98798102D01*
X208492205Y-98609744D01*
X208378937Y-98440226D01*
X208286200Y-98347489D01*
X208286200Y-96873061D01*
X211365000Y-96873061D01*
X211365000Y-97076939D01*
X211404774Y-97276898D01*
X211482795Y-97465256D01*
X211596063Y-97634774D01*
X211688800Y-97727511D01*
X211688801Y-99972488D01*
X211596063Y-100065226D01*
X211482795Y-100234744D01*
X211404774Y-100423102D01*
X211365000Y-100623061D01*
X211365000Y-100826939D01*
X211404774Y-101026898D01*
X211482795Y-101215256D01*
X211596063Y-101384774D01*
X211740226Y-101528937D01*
X211909744Y-101642205D01*
X212098102Y-101720226D01*
X212298061Y-101760000D01*
X212322435Y-101760000D01*
X212290000Y-101923061D01*
X212290000Y-102126939D01*
X212329774Y-102326898D01*
X212407795Y-102515256D01*
X212521063Y-102684774D01*
X212573789Y-102737500D01*
X212521063Y-102790226D01*
X212407795Y-102959744D01*
X212329774Y-103148102D01*
X212290000Y-103348061D01*
X212290000Y-103551939D01*
X212329774Y-103751898D01*
X212407795Y-103940256D01*
X212491146Y-104065000D01*
X212423061Y-104065000D01*
X212223102Y-104104774D01*
X212034744Y-104182795D01*
X211865226Y-104296063D01*
X211721063Y-104440226D01*
X211607795Y-104609744D01*
X211529774Y-104798102D01*
X211490000Y-104998061D01*
X211490000Y-105201939D01*
X211529774Y-105401898D01*
X211607795Y-105590256D01*
X211721063Y-105759774D01*
X211813800Y-105852511D01*
X211813801Y-111972488D01*
X211696063Y-112090226D01*
X211582795Y-112259744D01*
X211504774Y-112448102D01*
X211465000Y-112648061D01*
X211465000Y-112851939D01*
X211504774Y-113051898D01*
X211582795Y-113240256D01*
X211696063Y-113409774D01*
X211840226Y-113553937D01*
X212009744Y-113667205D01*
X212198102Y-113745226D01*
X212398061Y-113785000D01*
X212601939Y-113785000D01*
X212801898Y-113745226D01*
X212990256Y-113667205D01*
X213159774Y-113553937D01*
X213303937Y-113409774D01*
X213417205Y-113240256D01*
X213495226Y-113051898D01*
X213535000Y-112851939D01*
X213535000Y-112648061D01*
X213495226Y-112448102D01*
X213417205Y-112259744D01*
X213303937Y-112090226D01*
X213236200Y-112022489D01*
X213236200Y-110957641D01*
X213248061Y-110960000D01*
X213451939Y-110960000D01*
X213651898Y-110920226D01*
X213840256Y-110842205D01*
X214009774Y-110728937D01*
X214153937Y-110584774D01*
X214267205Y-110415256D01*
X214345226Y-110226898D01*
X214385000Y-110026939D01*
X214385000Y-109823061D01*
X214345226Y-109623102D01*
X214267205Y-109434744D01*
X214227277Y-109374987D01*
X214376898Y-109345226D01*
X214565256Y-109267205D01*
X214734774Y-109153937D01*
X214878937Y-109009774D01*
X214992205Y-108840256D01*
X215070226Y-108651898D01*
X215110000Y-108451939D01*
X215110000Y-108248061D01*
X215070226Y-108048102D01*
X214992205Y-107859744D01*
X214878937Y-107690226D01*
X214786200Y-107597489D01*
X214786200Y-105052511D01*
X214878937Y-104959774D01*
X214992205Y-104790256D01*
X215070226Y-104601898D01*
X215110000Y-104401939D01*
X215110000Y-104198061D01*
X215070226Y-103998102D01*
X214992205Y-103809744D01*
X214878937Y-103640226D01*
X214734774Y-103496063D01*
X214565256Y-103382795D01*
X214376898Y-103304774D01*
X214350339Y-103299491D01*
X214320226Y-103148102D01*
X214242205Y-102959744D01*
X214128937Y-102790226D01*
X214076211Y-102737500D01*
X214128937Y-102684774D01*
X214186876Y-102598061D01*
X214890000Y-102598061D01*
X214890000Y-102801939D01*
X214929774Y-103001898D01*
X215007795Y-103190256D01*
X215121063Y-103359774D01*
X215213800Y-103452511D01*
X215213801Y-104997488D01*
X215146063Y-105065226D01*
X215032795Y-105234744D01*
X214954774Y-105423102D01*
X214915000Y-105623061D01*
X214915000Y-105826939D01*
X214954774Y-106026898D01*
X215032795Y-106215256D01*
X215146063Y-106384774D01*
X215290226Y-106528937D01*
X215459744Y-106642205D01*
X215648102Y-106720226D01*
X215848061Y-106760000D01*
X216051939Y-106760000D01*
X216251898Y-106720226D01*
X216440256Y-106642205D01*
X216609774Y-106528937D01*
X216753937Y-106384774D01*
X216867205Y-106215256D01*
X216945226Y-106026898D01*
X216985000Y-105826939D01*
X216985000Y-105623061D01*
X216945226Y-105423102D01*
X216867205Y-105234744D01*
X216753937Y-105065226D01*
X216636200Y-104947489D01*
X216636200Y-103452511D01*
X216728937Y-103359774D01*
X216842205Y-103190256D01*
X216920226Y-103001898D01*
X216960000Y-102801939D01*
X216960000Y-102598061D01*
X216920226Y-102398102D01*
X216842205Y-102209744D01*
X216728937Y-102040226D01*
X216584774Y-101896063D01*
X216415256Y-101782795D01*
X216226898Y-101704774D01*
X216026939Y-101665000D01*
X215823061Y-101665000D01*
X215623102Y-101704774D01*
X215434744Y-101782795D01*
X215265226Y-101896063D01*
X215121063Y-102040226D01*
X215007795Y-102209744D01*
X214929774Y-102398102D01*
X214890000Y-102598061D01*
X214186876Y-102598061D01*
X214242205Y-102515256D01*
X214320226Y-102326898D01*
X214360000Y-102126939D01*
X214360000Y-101923061D01*
X214320226Y-101723102D01*
X214242205Y-101534744D01*
X214128937Y-101365226D01*
X214036200Y-101272489D01*
X214036200Y-96927511D01*
X214128937Y-96834774D01*
X214242205Y-96665256D01*
X214320226Y-96476898D01*
X214360000Y-96276939D01*
X214360000Y-96073061D01*
X214320226Y-95873102D01*
X214242205Y-95684744D01*
X214128937Y-95515226D01*
X214090974Y-95477263D01*
X214115256Y-95467205D01*
X214284774Y-95353937D01*
X214365650Y-95273061D01*
X215540000Y-95273061D01*
X215540000Y-95476939D01*
X215579774Y-95676898D01*
X215657795Y-95865256D01*
X215771063Y-96034774D01*
X215863800Y-96127511D01*
X215863801Y-96847488D01*
X215771063Y-96940226D01*
X215657795Y-97109744D01*
X215579774Y-97298102D01*
X215540000Y-97498061D01*
X215540000Y-97701939D01*
X215579774Y-97901898D01*
X215657795Y-98090256D01*
X215771063Y-98259774D01*
X215915226Y-98403937D01*
X216084744Y-98517205D01*
X216273102Y-98595226D01*
X216473061Y-98635000D01*
X216676939Y-98635000D01*
X216876898Y-98595226D01*
X217065256Y-98517205D01*
X217234774Y-98403937D01*
X217378937Y-98259774D01*
X217492205Y-98090256D01*
X217570226Y-97901898D01*
X217610000Y-97701939D01*
X217610000Y-97498061D01*
X217570226Y-97298102D01*
X217492205Y-97109744D01*
X217378937Y-96940226D01*
X217286200Y-96847489D01*
X217286200Y-96127511D01*
X217378937Y-96034774D01*
X217492205Y-95865256D01*
X217570226Y-95676898D01*
X217610000Y-95476939D01*
X217610000Y-95273061D01*
X217570226Y-95073102D01*
X217492205Y-94884744D01*
X217378937Y-94715226D01*
X217234774Y-94571063D01*
X217065256Y-94457795D01*
X216876898Y-94379774D01*
X216676939Y-94340000D01*
X216473061Y-94340000D01*
X216273102Y-94379774D01*
X216084744Y-94457795D01*
X215915226Y-94571063D01*
X215771063Y-94715226D01*
X215657795Y-94884744D01*
X215579774Y-95073102D01*
X215540000Y-95273061D01*
X214365650Y-95273061D01*
X214428937Y-95209774D01*
X214542205Y-95040256D01*
X214620226Y-94851898D01*
X214660000Y-94651939D01*
X214660000Y-94448061D01*
X214620226Y-94248102D01*
X214542205Y-94059744D01*
X214428937Y-93890226D01*
X214336200Y-93797489D01*
X214336200Y-89727511D01*
X214428937Y-89634774D01*
X214542205Y-89465256D01*
X214620226Y-89276898D01*
X214660000Y-89076939D01*
X214660000Y-88873061D01*
X214620226Y-88673102D01*
X214542205Y-88484744D01*
X214428937Y-88315226D01*
X214284774Y-88171063D01*
X214138104Y-88073061D01*
X214890000Y-88073061D01*
X214890000Y-88276939D01*
X214929774Y-88476898D01*
X215007795Y-88665256D01*
X215121063Y-88834774D01*
X215213800Y-88927511D01*
X215213801Y-89497488D01*
X215121063Y-89590226D01*
X215007795Y-89759744D01*
X214929774Y-89948102D01*
X214890000Y-90148061D01*
X214890000Y-90351939D01*
X214929774Y-90551898D01*
X215007795Y-90740256D01*
X215121063Y-90909774D01*
X215265226Y-91053937D01*
X215434744Y-91167205D01*
X215623102Y-91245226D01*
X215823061Y-91285000D01*
X216026939Y-91285000D01*
X216226898Y-91245226D01*
X216415256Y-91167205D01*
X216584774Y-91053937D01*
X216728937Y-90909774D01*
X216842205Y-90740256D01*
X216920226Y-90551898D01*
X216960000Y-90351939D01*
X216960000Y-90148061D01*
X216920226Y-89948102D01*
X216842205Y-89759744D01*
X216728937Y-89590226D01*
X216636200Y-89497489D01*
X216636200Y-88927511D01*
X216728937Y-88834774D01*
X216842205Y-88665256D01*
X216920226Y-88476898D01*
X216945161Y-88351539D01*
X216976898Y-88345226D01*
X217165256Y-88267205D01*
X217334774Y-88153937D01*
X217478937Y-88009774D01*
X217592205Y-87840256D01*
X217670226Y-87651898D01*
X217710000Y-87451939D01*
X217710000Y-87248061D01*
X217670226Y-87048102D01*
X217592205Y-86859744D01*
X217478937Y-86690226D01*
X217386200Y-86597489D01*
X217386200Y-86077511D01*
X217478937Y-85984774D01*
X217592205Y-85815256D01*
X217670226Y-85626898D01*
X217710000Y-85426939D01*
X217710000Y-85223061D01*
X217670226Y-85023102D01*
X217592205Y-84834744D01*
X217478937Y-84665226D01*
X217334774Y-84521063D01*
X217165256Y-84407795D01*
X216976898Y-84329774D01*
X216776939Y-84290000D01*
X216573061Y-84290000D01*
X216373102Y-84329774D01*
X216184744Y-84407795D01*
X216015226Y-84521063D01*
X215871063Y-84665226D01*
X215757795Y-84834744D01*
X215679774Y-85023102D01*
X215640000Y-85223061D01*
X215640000Y-85426939D01*
X215679774Y-85626898D01*
X215757795Y-85815256D01*
X215871063Y-85984774D01*
X215963801Y-86077512D01*
X215963800Y-86597489D01*
X215871063Y-86690226D01*
X215757795Y-86859744D01*
X215679774Y-87048102D01*
X215654839Y-87173461D01*
X215623102Y-87179774D01*
X215434744Y-87257795D01*
X215265226Y-87371063D01*
X215121063Y-87515226D01*
X215007795Y-87684744D01*
X214929774Y-87873102D01*
X214890000Y-88073061D01*
X214138104Y-88073061D01*
X214115256Y-88057795D01*
X213926898Y-87979774D01*
X213726939Y-87940000D01*
X213523061Y-87940000D01*
X213323102Y-87979774D01*
X213134744Y-88057795D01*
X212965226Y-88171063D01*
X212821063Y-88315226D01*
X212707795Y-88484744D01*
X212629774Y-88673102D01*
X212590000Y-88873061D01*
X212590000Y-89076939D01*
X212629774Y-89276898D01*
X212707795Y-89465256D01*
X212821063Y-89634774D01*
X212913800Y-89727511D01*
X212913801Y-93797488D01*
X212821063Y-93890226D01*
X212707795Y-94059744D01*
X212629774Y-94248102D01*
X212590000Y-94448061D01*
X212590000Y-94651939D01*
X212629774Y-94851898D01*
X212707795Y-95040256D01*
X212821063Y-95209774D01*
X212859026Y-95247737D01*
X212834744Y-95257795D01*
X212665226Y-95371063D01*
X212521063Y-95515226D01*
X212407795Y-95684744D01*
X212329774Y-95873102D01*
X212316467Y-95940000D01*
X212298061Y-95940000D01*
X212098102Y-95979774D01*
X211909744Y-96057795D01*
X211740226Y-96171063D01*
X211596063Y-96315226D01*
X211482795Y-96484744D01*
X211404774Y-96673102D01*
X211365000Y-96873061D01*
X208286200Y-96873061D01*
X208286200Y-96102511D01*
X208353937Y-96034774D01*
X208467205Y-95865256D01*
X208545226Y-95676898D01*
X208585000Y-95476939D01*
X208585000Y-95273061D01*
X208545226Y-95073102D01*
X208467205Y-94884744D01*
X208353937Y-94715226D01*
X208209774Y-94571063D01*
X208040256Y-94457795D01*
X207851898Y-94379774D01*
X207651939Y-94340000D01*
X207561200Y-94340000D01*
X207561200Y-88927511D01*
X207653937Y-88834774D01*
X207767205Y-88665256D01*
X207845226Y-88476898D01*
X207885000Y-88276939D01*
X207885000Y-88073061D01*
X207845226Y-87873102D01*
X207767205Y-87684744D01*
X207717263Y-87610000D01*
X207801939Y-87610000D01*
X208001898Y-87570226D01*
X208190256Y-87492205D01*
X208359774Y-87378937D01*
X208503937Y-87234774D01*
X208617205Y-87065256D01*
X208695226Y-86876898D01*
X208735000Y-86676939D01*
X208735000Y-86473061D01*
X208695226Y-86273102D01*
X208617205Y-86084744D01*
X208503937Y-85915226D01*
X208411200Y-85822489D01*
X208411200Y-79677511D01*
X208503937Y-79584774D01*
X208617205Y-79415256D01*
X208695226Y-79226898D01*
X208735000Y-79026939D01*
X208735000Y-78823061D01*
X208695226Y-78623102D01*
X208617205Y-78434744D01*
X208503937Y-78265226D01*
X208359774Y-78121063D01*
X208190256Y-78007795D01*
X208001898Y-77929774D01*
X207801939Y-77890000D01*
X207598061Y-77890000D01*
X207398102Y-77929774D01*
X207209744Y-78007795D01*
X207040226Y-78121063D01*
X206896063Y-78265226D01*
X206782795Y-78434744D01*
X206704774Y-78623102D01*
X206665000Y-78823061D01*
X206665000Y-79026939D01*
X206704774Y-79226898D01*
X206782795Y-79415256D01*
X206896063Y-79584774D01*
X206988800Y-79677511D01*
X206988801Y-85392234D01*
X206903937Y-85265226D01*
X206759774Y-85121063D01*
X206590256Y-85007795D01*
X206401898Y-84929774D01*
X206201939Y-84890000D01*
X205998061Y-84890000D01*
X205798102Y-84929774D01*
X205761200Y-84945059D01*
X205761200Y-78502511D01*
X205853937Y-78409774D01*
X205967205Y-78240256D01*
X206045226Y-78051898D01*
X206085000Y-77851939D01*
X206085000Y-77648061D01*
X206045226Y-77448102D01*
X205967205Y-77259744D01*
X205853937Y-77090226D01*
X205709774Y-76946063D01*
X205540256Y-76832795D01*
X205351898Y-76754774D01*
X205151939Y-76715000D01*
X204948061Y-76715000D01*
X204748102Y-76754774D01*
X204743188Y-76756809D01*
X204743188Y-76595523D01*
X204835925Y-76502786D01*
X204949193Y-76333268D01*
X204977128Y-76265827D01*
X205048102Y-76295226D01*
X205248061Y-76335000D01*
X205451939Y-76335000D01*
X205651898Y-76295226D01*
X205840256Y-76217205D01*
X206009774Y-76103937D01*
X206102511Y-76011200D01*
X206752305Y-76011200D01*
X206740000Y-76073061D01*
X206740000Y-76276939D01*
X206779774Y-76476898D01*
X206857795Y-76665256D01*
X206971063Y-76834774D01*
X207115226Y-76978937D01*
X207284744Y-77092205D01*
X207473102Y-77170226D01*
X207673061Y-77210000D01*
X207804213Y-77210000D01*
X209281003Y-78686791D01*
X209303274Y-78713928D01*
X209411568Y-78802803D01*
X209535120Y-78868843D01*
X209669181Y-78909510D01*
X209773665Y-78919801D01*
X209773674Y-78919801D01*
X209789248Y-78921335D01*
X209759010Y-78966589D01*
X209647068Y-79236842D01*
X209590000Y-79523740D01*
X209590000Y-79816260D01*
X209647068Y-80103158D01*
X209759010Y-80373411D01*
X209921525Y-80616632D01*
X210128368Y-80823475D01*
X210302760Y-80940000D01*
X210128368Y-81056525D01*
X209921525Y-81263368D01*
X209759010Y-81506589D01*
X209647068Y-81776842D01*
X209590000Y-82063740D01*
X209590000Y-82356260D01*
X209647068Y-82643158D01*
X209759010Y-82913411D01*
X209921525Y-83156632D01*
X210128368Y-83363475D01*
X210371589Y-83525990D01*
X210641842Y-83637932D01*
X210928740Y-83695000D01*
X211221260Y-83695000D01*
X211508158Y-83637932D01*
X211778411Y-83525990D01*
X212021632Y-83363475D01*
X212228475Y-83156632D01*
X212346100Y-82980594D01*
X212517412Y-83210269D01*
X212733645Y-83405178D01*
X212983748Y-83554157D01*
X213258109Y-83651481D01*
X213488000Y-83530814D01*
X213488000Y-82337000D01*
X213742000Y-82337000D01*
X213742000Y-83530814D01*
X213971891Y-83651481D01*
X214246252Y-83554157D01*
X214496355Y-83405178D01*
X214712588Y-83210269D01*
X214886641Y-82976920D01*
X215011825Y-82714099D01*
X215056476Y-82566890D01*
X214935155Y-82337000D01*
X213742000Y-82337000D01*
X213488000Y-82337000D01*
X213468000Y-82337000D01*
X213468000Y-82083000D01*
X213488000Y-82083000D01*
X213488000Y-82063000D01*
X213742000Y-82063000D01*
X213742000Y-82083000D01*
X214935155Y-82083000D01*
X215056476Y-81853110D01*
X215011825Y-81705901D01*
X214886641Y-81443080D01*
X214712588Y-81209731D01*
X214496355Y-81014822D01*
X214379466Y-80945195D01*
X214561632Y-80823475D01*
X214768475Y-80616632D01*
X214930990Y-80373411D01*
X215042932Y-80103158D01*
X215100000Y-79816260D01*
X215100000Y-79523740D01*
X215042932Y-79236842D01*
X214930990Y-78966589D01*
X214768475Y-78723368D01*
X214561632Y-78516525D01*
X214387240Y-78400000D01*
X214561632Y-78283475D01*
X214768475Y-78076632D01*
X214930990Y-77833411D01*
X215042932Y-77563158D01*
X215100000Y-77276260D01*
X215100000Y-76983740D01*
X215093776Y-76952449D01*
X216875000Y-76952449D01*
X216875000Y-77337551D01*
X216950130Y-77715252D01*
X217097502Y-78071040D01*
X217311453Y-78391240D01*
X217583760Y-78663547D01*
X217903960Y-78877498D01*
X218259748Y-79024870D01*
X218637449Y-79100000D01*
X219022551Y-79100000D01*
X219400252Y-79024870D01*
X219756040Y-78877498D01*
X220076240Y-78663547D01*
X220348547Y-78391240D01*
X220562498Y-78071040D01*
X220709870Y-77715252D01*
X220785000Y-77337551D01*
X220785000Y-76952449D01*
X220709870Y-76574748D01*
X220562498Y-76218960D01*
X220348547Y-75898760D01*
X220076240Y-75626453D01*
X219917541Y-75520413D01*
X223869192Y-75520413D01*
X223964956Y-75784814D01*
X224254571Y-75925704D01*
X224566108Y-76007384D01*
X224887595Y-76026718D01*
X225206675Y-75982961D01*
X225511088Y-75877795D01*
X225685044Y-75784814D01*
X225780808Y-75520413D01*
X224825000Y-74564605D01*
X223869192Y-75520413D01*
X219917541Y-75520413D01*
X219756040Y-75412502D01*
X219400252Y-75265130D01*
X219022551Y-75190000D01*
X218637449Y-75190000D01*
X218259748Y-75265130D01*
X217903960Y-75412502D01*
X217583760Y-75626453D01*
X217311453Y-75898760D01*
X217097502Y-76218960D01*
X216950130Y-76574748D01*
X216875000Y-76952449D01*
X215093776Y-76952449D01*
X215042932Y-76696842D01*
X214930990Y-76426589D01*
X214768475Y-76183368D01*
X214561632Y-75976525D01*
X214387240Y-75860000D01*
X214561632Y-75743475D01*
X214768475Y-75536632D01*
X214930990Y-75293411D01*
X215042932Y-75023158D01*
X215100000Y-74736260D01*
X215100000Y-74447595D01*
X223183282Y-74447595D01*
X223227039Y-74766675D01*
X223332205Y-75071088D01*
X223425186Y-75245044D01*
X223689587Y-75340808D01*
X224645395Y-74385000D01*
X225004605Y-74385000D01*
X225960413Y-75340808D01*
X226224814Y-75245044D01*
X226365704Y-74955429D01*
X226447384Y-74643892D01*
X226466718Y-74322405D01*
X226422961Y-74003325D01*
X226317795Y-73698912D01*
X226224814Y-73524956D01*
X225960413Y-73429192D01*
X225004605Y-74385000D01*
X224645395Y-74385000D01*
X223689587Y-73429192D01*
X223425186Y-73524956D01*
X223284296Y-73814571D01*
X223202616Y-74126108D01*
X223183282Y-74447595D01*
X215100000Y-74447595D01*
X215100000Y-74443740D01*
X215042932Y-74156842D01*
X214930990Y-73886589D01*
X214768475Y-73643368D01*
X214561632Y-73436525D01*
X214387240Y-73320000D01*
X214492620Y-73249587D01*
X223869192Y-73249587D01*
X224825000Y-74205395D01*
X225780808Y-73249587D01*
X225685044Y-72985186D01*
X225395429Y-72844296D01*
X225083892Y-72762616D01*
X224762405Y-72743282D01*
X224443325Y-72787039D01*
X224138912Y-72892205D01*
X223964956Y-72985186D01*
X223869192Y-73249587D01*
X214492620Y-73249587D01*
X214561632Y-73203475D01*
X214768475Y-72996632D01*
X214930990Y-72753411D01*
X215042932Y-72483158D01*
X215100000Y-72196260D01*
X215100000Y-71903740D01*
X215042932Y-71616842D01*
X214930990Y-71346589D01*
X214768475Y-71103368D01*
X214561632Y-70896525D01*
X214318411Y-70734010D01*
X214048158Y-70622068D01*
X213761260Y-70565000D01*
X213468740Y-70565000D01*
X213191028Y-70620241D01*
X212642602Y-70071814D01*
X212620327Y-70044673D01*
X212512033Y-69955798D01*
X212388481Y-69889758D01*
X212254420Y-69849091D01*
X212149936Y-69838800D01*
X212149926Y-69838800D01*
X212115000Y-69835360D01*
X212080074Y-69838800D01*
X209609928Y-69838800D01*
X209575000Y-69835360D01*
X209540071Y-69838800D01*
X209540064Y-69838800D01*
X209435580Y-69849091D01*
X209301519Y-69889758D01*
X209177967Y-69955798D01*
X209069673Y-70044673D01*
X209047402Y-70071810D01*
X208480413Y-70638800D01*
X206902511Y-70638800D01*
X206809774Y-70546063D01*
X206640256Y-70432795D01*
X206451898Y-70354774D01*
X206251939Y-70315000D01*
X206048061Y-70315000D01*
X205848102Y-70354774D01*
X205659744Y-70432795D01*
X205490226Y-70546063D01*
X205346063Y-70690226D01*
X205232795Y-70859744D01*
X205154774Y-71048102D01*
X205115000Y-71248061D01*
X205115000Y-71451939D01*
X205154774Y-71651898D01*
X205232795Y-71840256D01*
X205346063Y-72009774D01*
X205490226Y-72153937D01*
X205659744Y-72267205D01*
X205848102Y-72345226D01*
X206048061Y-72385000D01*
X206251939Y-72385000D01*
X206451898Y-72345226D01*
X206640256Y-72267205D01*
X206809774Y-72153937D01*
X206902511Y-72061200D01*
X208740074Y-72061200D01*
X208775000Y-72064640D01*
X208809926Y-72061200D01*
X208809936Y-72061200D01*
X208914420Y-72050909D01*
X209048481Y-72010242D01*
X209172033Y-71944202D01*
X209280327Y-71855327D01*
X209302602Y-71828186D01*
X209586928Y-71543859D01*
X209586928Y-72900000D01*
X209599188Y-73024482D01*
X209635498Y-73144180D01*
X209694463Y-73254494D01*
X209773815Y-73351185D01*
X209870506Y-73430537D01*
X209980820Y-73489502D01*
X210053380Y-73511513D01*
X209921525Y-73643368D01*
X209759010Y-73886589D01*
X209647068Y-74156842D01*
X209590000Y-74443740D01*
X209590000Y-74736260D01*
X209647068Y-75023158D01*
X209694968Y-75138800D01*
X209519588Y-75138800D01*
X209202601Y-74821814D01*
X209180327Y-74794673D01*
X209072033Y-74705798D01*
X208948481Y-74639758D01*
X208814420Y-74599091D01*
X208709936Y-74588800D01*
X208709926Y-74588800D01*
X208675000Y-74585360D01*
X208640074Y-74588800D01*
X206102511Y-74588800D01*
X206009774Y-74496063D01*
X205840256Y-74382795D01*
X205651898Y-74304774D01*
X205451939Y-74265000D01*
X205248061Y-74265000D01*
X205048102Y-74304774D01*
X204859744Y-74382795D01*
X204690226Y-74496063D01*
X204546063Y-74640226D01*
X204432795Y-74809744D01*
X204404860Y-74877185D01*
X204333886Y-74847786D01*
X204133927Y-74808012D01*
X204086628Y-74808012D01*
X204120227Y-74726897D01*
X204160001Y-74526938D01*
X204160001Y-74323060D01*
X204120227Y-74123101D01*
X204042206Y-73934743D01*
X203928938Y-73765225D01*
X203784775Y-73621062D01*
X203615257Y-73507794D01*
X203426899Y-73429773D01*
X203226940Y-73389999D01*
X203023062Y-73389999D01*
X202823103Y-73429773D01*
X202634745Y-73507794D01*
X202465227Y-73621062D01*
X202321064Y-73765225D01*
X202207796Y-73934743D01*
X202129775Y-74123101D01*
X202090001Y-74323060D01*
X202090001Y-74526938D01*
X202129775Y-74726897D01*
X202207796Y-74915255D01*
X202321064Y-75084773D01*
X202413801Y-75177510D01*
X202413802Y-83990000D01*
X202394462Y-83990000D01*
X202194503Y-84029774D01*
X202006145Y-84107795D01*
X201836627Y-84221063D01*
X201827465Y-84230225D01*
X201767205Y-84084744D01*
X201653937Y-83915226D01*
X201509774Y-83771063D01*
X201340256Y-83657795D01*
X201151898Y-83579774D01*
X200951939Y-83540000D01*
X200748061Y-83540000D01*
X200548102Y-83579774D01*
X200359744Y-83657795D01*
X200190226Y-83771063D01*
X200046063Y-83915226D01*
X199932795Y-84084744D01*
X199854774Y-84273102D01*
X199815000Y-84473061D01*
X199815000Y-84676939D01*
X199854774Y-84876898D01*
X199932795Y-85065256D01*
X200046063Y-85234774D01*
X200138800Y-85327511D01*
X200138801Y-110811405D01*
X200094202Y-110727967D01*
X200062567Y-110689420D01*
X200005327Y-110619673D01*
X199978185Y-110597398D01*
X199786200Y-110405413D01*
X199786200Y-106802511D01*
X199878937Y-106709774D01*
X199992205Y-106540256D01*
X200070226Y-106351898D01*
X200110000Y-106151939D01*
X200110000Y-105948061D01*
X200070226Y-105748102D01*
X199992205Y-105559744D01*
X199878937Y-105390226D01*
X199734774Y-105246063D01*
X199565256Y-105132795D01*
X199536200Y-105120760D01*
X199536200Y-98277511D01*
X199628937Y-98184774D01*
X199742205Y-98015256D01*
X199820226Y-97826898D01*
X199860000Y-97626939D01*
X199860000Y-97423061D01*
X199820226Y-97223102D01*
X199742205Y-97034744D01*
X199628937Y-96865226D01*
X199484774Y-96721063D01*
X199315256Y-96607795D01*
X199126898Y-96529774D01*
X198926939Y-96490000D01*
X198723061Y-96490000D01*
X198613600Y-96511773D01*
X198613600Y-96398061D01*
X198573826Y-96198102D01*
X198495805Y-96009744D01*
X198382537Y-95840226D01*
X198238374Y-95696063D01*
X198068856Y-95582795D01*
X197880498Y-95504774D01*
X197680539Y-95465000D01*
X197476661Y-95465000D01*
X197276702Y-95504774D01*
X197088344Y-95582795D01*
X196918826Y-95696063D01*
X196774663Y-95840226D01*
X196768849Y-95848928D01*
X196601898Y-95779774D01*
X196401939Y-95740000D01*
X196198061Y-95740000D01*
X195998102Y-95779774D01*
X195809744Y-95857795D01*
X195650000Y-95964532D01*
X195490256Y-95857795D01*
X195301898Y-95779774D01*
X195101939Y-95740000D01*
X194898061Y-95740000D01*
X194698102Y-95779774D01*
X194509744Y-95857795D01*
X194340226Y-95971063D01*
X194196063Y-96115226D01*
X194082795Y-96284744D01*
X194004774Y-96473102D01*
X193965000Y-96673061D01*
X193965000Y-96876939D01*
X194004774Y-97076898D01*
X194082795Y-97265256D01*
X194196063Y-97434774D01*
X194288800Y-97527511D01*
X194288801Y-101297488D01*
X194196063Y-101390226D01*
X194082795Y-101559744D01*
X194004774Y-101748102D01*
X193965000Y-101948061D01*
X193965000Y-102151939D01*
X194004774Y-102351898D01*
X194082795Y-102540256D01*
X194196063Y-102709774D01*
X194340226Y-102853937D01*
X194509744Y-102967205D01*
X194628063Y-103016215D01*
X194637515Y-103063732D01*
X194715536Y-103252090D01*
X194773079Y-103338210D01*
X194771063Y-103340226D01*
X194657795Y-103509744D01*
X194579774Y-103698102D01*
X194540000Y-103898061D01*
X194540000Y-104101939D01*
X194579774Y-104301898D01*
X194657795Y-104490256D01*
X194771063Y-104659774D01*
X194863800Y-104752511D01*
X194863801Y-111111400D01*
X194698061Y-111111400D01*
X194498102Y-111151174D01*
X194363574Y-111206898D01*
X194215256Y-111107795D01*
X194026898Y-111029774D01*
X193826939Y-110990000D01*
X193623061Y-110990000D01*
X193423102Y-111029774D01*
X193234744Y-111107795D01*
X193065226Y-111221063D01*
X193055522Y-111230767D01*
X193053169Y-111229195D01*
X192864811Y-111151174D01*
X192664852Y-111111400D01*
X192460974Y-111111400D01*
X192368504Y-111129793D01*
X192309774Y-111071063D01*
X192140256Y-110957795D01*
X191951898Y-110879774D01*
X191751939Y-110840000D01*
X191548061Y-110840000D01*
X191348102Y-110879774D01*
X191159744Y-110957795D01*
X190990226Y-111071063D01*
X190946584Y-111114705D01*
X190801898Y-111054774D01*
X190601939Y-111015000D01*
X190398061Y-111015000D01*
X190198102Y-111054774D01*
X190009744Y-111132795D01*
X189840226Y-111246063D01*
X189720810Y-111365479D01*
X189703937Y-111340226D01*
X189559774Y-111196063D01*
X189390256Y-111082795D01*
X189201898Y-111004774D01*
X189001939Y-110965000D01*
X188798061Y-110965000D01*
X188598102Y-111004774D01*
X188409744Y-111082795D01*
X188240226Y-111196063D01*
X188096063Y-111340226D01*
X187982795Y-111509744D01*
X187904774Y-111698102D01*
X187865000Y-111898061D01*
X187865000Y-112101939D01*
X187904774Y-112301898D01*
X187982795Y-112490256D01*
X188063793Y-112611478D01*
X187926898Y-112554774D01*
X187726939Y-112515000D01*
X187523061Y-112515000D01*
X187323102Y-112554774D01*
X187134744Y-112632795D01*
X186965226Y-112746063D01*
X186872489Y-112838800D01*
X185261393Y-112838800D01*
X185228937Y-112790226D01*
X185084774Y-112646063D01*
X184915256Y-112532795D01*
X184726898Y-112454774D01*
X184526939Y-112415000D01*
X184323061Y-112415000D01*
X184123102Y-112454774D01*
X183934744Y-112532795D01*
X183765226Y-112646063D01*
X183621063Y-112790226D01*
X183507795Y-112959744D01*
X183429774Y-113148102D01*
X183390000Y-113348061D01*
X183390000Y-113551939D01*
X183429774Y-113751898D01*
X183507795Y-113940256D01*
X183621063Y-114109774D01*
X183765226Y-114253937D01*
X183934744Y-114367205D01*
X184123102Y-114445226D01*
X184323061Y-114485000D01*
X184526939Y-114485000D01*
X184726898Y-114445226D01*
X184915256Y-114367205D01*
X185073904Y-114261200D01*
X186872489Y-114261200D01*
X186965226Y-114353937D01*
X187134744Y-114467205D01*
X187323102Y-114545226D01*
X187523061Y-114585000D01*
X187726939Y-114585000D01*
X187926898Y-114545226D01*
X188017599Y-114507656D01*
X187982795Y-114559744D01*
X187904774Y-114748102D01*
X187865000Y-114948061D01*
X187865000Y-115151939D01*
X187904774Y-115351898D01*
X187982795Y-115540256D01*
X188096063Y-115709774D01*
X188240226Y-115853937D01*
X188409744Y-115967205D01*
X188598102Y-116045226D01*
X188798061Y-116085000D01*
X189001939Y-116085000D01*
X189201898Y-116045226D01*
X189390256Y-115967205D01*
X189559774Y-115853937D01*
X189703937Y-115709774D01*
X189817205Y-115540256D01*
X189895226Y-115351898D01*
X189935000Y-115151939D01*
X189935000Y-114948061D01*
X189895226Y-114748102D01*
X189817205Y-114559744D01*
X189703937Y-114390226D01*
X189611200Y-114297489D01*
X189611200Y-112752511D01*
X189679190Y-112684521D01*
X189696063Y-112709774D01*
X189840226Y-112853937D01*
X190009744Y-112967205D01*
X190198102Y-113045226D01*
X190288800Y-113063267D01*
X190288801Y-116740064D01*
X190285360Y-116775000D01*
X190288801Y-116809936D01*
X190299092Y-116914420D01*
X190323231Y-116993995D01*
X190339759Y-117048481D01*
X190405798Y-117172032D01*
X190472403Y-117253190D01*
X190494674Y-117280327D01*
X190521810Y-117302597D01*
X191047402Y-117828190D01*
X191069673Y-117855327D01*
X191096809Y-117877597D01*
X191177967Y-117944202D01*
X191301518Y-118010242D01*
X191375866Y-118032795D01*
X191435580Y-118050909D01*
X191540064Y-118061200D01*
X191540071Y-118061200D01*
X191575000Y-118064640D01*
X191609928Y-118061200D01*
X195582278Y-118061200D01*
X195565000Y-118148061D01*
X195565000Y-118351939D01*
X195604774Y-118551898D01*
X195682795Y-118740256D01*
X195796063Y-118909774D01*
X195888800Y-119002511D01*
X195888801Y-119372488D01*
X195771063Y-119490226D01*
X195657795Y-119659744D01*
X195623060Y-119743600D01*
X195591349Y-119743600D01*
X195391390Y-119783374D01*
X195203032Y-119861395D01*
X195033514Y-119974663D01*
X194940777Y-120067400D01*
X189173188Y-120067400D01*
X187410000Y-118304213D01*
X187410000Y-118173061D01*
X187370226Y-117973102D01*
X187292205Y-117784744D01*
X187178937Y-117615226D01*
X187034774Y-117471063D01*
X186865256Y-117357795D01*
X186676898Y-117279774D01*
X186476939Y-117240000D01*
X186273061Y-117240000D01*
X186073102Y-117279774D01*
X185946094Y-117332383D01*
X185934774Y-117321063D01*
X185765256Y-117207795D01*
X185576898Y-117129774D01*
X185376939Y-117090000D01*
X185173061Y-117090000D01*
X184973102Y-117129774D01*
X184784744Y-117207795D01*
X184615226Y-117321063D01*
X184471063Y-117465226D01*
X184466704Y-117471749D01*
X184428937Y-117415226D01*
X184284774Y-117271063D01*
X184115256Y-117157795D01*
X183926898Y-117079774D01*
X183726939Y-117040000D01*
X183523061Y-117040000D01*
X183323102Y-117079774D01*
X183134744Y-117157795D01*
X182965226Y-117271063D01*
X182821063Y-117415226D01*
X182707795Y-117584744D01*
X182629774Y-117773102D01*
X182590000Y-117973061D01*
X151585000Y-117973061D01*
X151585000Y-104123061D01*
X174565000Y-104123061D01*
X174565000Y-104326939D01*
X174604774Y-104526898D01*
X174682795Y-104715256D01*
X174796063Y-104884774D01*
X174940226Y-105028937D01*
X175109744Y-105142205D01*
X175298102Y-105220226D01*
X175498061Y-105260000D01*
X175701939Y-105260000D01*
X175901898Y-105220226D01*
X176090256Y-105142205D01*
X176259774Y-105028937D01*
X176403937Y-104884774D01*
X176517205Y-104715256D01*
X176595226Y-104526898D01*
X176635000Y-104326939D01*
X176635000Y-104123061D01*
X176595226Y-103923102D01*
X176564143Y-103848061D01*
X181490000Y-103848061D01*
X181490000Y-104051939D01*
X181529774Y-104251898D01*
X181607795Y-104440256D01*
X181721063Y-104609774D01*
X181813800Y-104702511D01*
X181813801Y-106972488D01*
X181721063Y-107065226D01*
X181607795Y-107234744D01*
X181529774Y-107423102D01*
X181490000Y-107623061D01*
X181490000Y-107826939D01*
X181529774Y-108026898D01*
X181607795Y-108215256D01*
X181721063Y-108384774D01*
X181865226Y-108528937D01*
X182034744Y-108642205D01*
X182223102Y-108720226D01*
X182423061Y-108760000D01*
X182626939Y-108760000D01*
X182826898Y-108720226D01*
X183015256Y-108642205D01*
X183184774Y-108528937D01*
X183328937Y-108384774D01*
X183442205Y-108215256D01*
X183520226Y-108026898D01*
X183539984Y-107927569D01*
X183576898Y-107920226D01*
X183765256Y-107842205D01*
X183934774Y-107728937D01*
X184078937Y-107584774D01*
X184192205Y-107415256D01*
X184270226Y-107226898D01*
X184310000Y-107026939D01*
X184310000Y-106823061D01*
X184270226Y-106623102D01*
X184192205Y-106434744D01*
X184078937Y-106265226D01*
X184036200Y-106222489D01*
X184036200Y-103952511D01*
X184128937Y-103859774D01*
X184242205Y-103690256D01*
X184320226Y-103501898D01*
X184360000Y-103301939D01*
X184360000Y-103098061D01*
X184320226Y-102898102D01*
X184242205Y-102709744D01*
X184128937Y-102540226D01*
X183984774Y-102396063D01*
X183815256Y-102282795D01*
X183626898Y-102204774D01*
X183426939Y-102165000D01*
X183223061Y-102165000D01*
X183023102Y-102204774D01*
X182834744Y-102282795D01*
X182665226Y-102396063D01*
X182521063Y-102540226D01*
X182407795Y-102709744D01*
X182329774Y-102898102D01*
X182322431Y-102935016D01*
X182223102Y-102954774D01*
X182034744Y-103032795D01*
X181865226Y-103146063D01*
X181721063Y-103290226D01*
X181607795Y-103459744D01*
X181529774Y-103648102D01*
X181490000Y-103848061D01*
X176564143Y-103848061D01*
X176517205Y-103734744D01*
X176403937Y-103565226D01*
X176259774Y-103421063D01*
X176090256Y-103307795D01*
X175901898Y-103229774D01*
X175701939Y-103190000D01*
X175498061Y-103190000D01*
X175298102Y-103229774D01*
X175109744Y-103307795D01*
X174940226Y-103421063D01*
X174796063Y-103565226D01*
X174682795Y-103734744D01*
X174604774Y-103923102D01*
X174565000Y-104123061D01*
X151585000Y-104123061D01*
X151585000Y-96373061D01*
X164090000Y-96373061D01*
X164090000Y-96576939D01*
X164129774Y-96776898D01*
X164207795Y-96965256D01*
X164321063Y-97134774D01*
X164413801Y-97227512D01*
X164413800Y-99772489D01*
X164321063Y-99865226D01*
X164207795Y-100034744D01*
X164129774Y-100223102D01*
X164090000Y-100423061D01*
X164090000Y-100626939D01*
X164129774Y-100826898D01*
X164207795Y-101015256D01*
X164321063Y-101184774D01*
X164465226Y-101328937D01*
X164634744Y-101442205D01*
X164823102Y-101520226D01*
X165023061Y-101560000D01*
X165226939Y-101560000D01*
X165426898Y-101520226D01*
X165615256Y-101442205D01*
X165784774Y-101328937D01*
X165928937Y-101184774D01*
X166042205Y-101015256D01*
X166120226Y-100826898D01*
X166160000Y-100626939D01*
X166160000Y-100423061D01*
X166120226Y-100223102D01*
X166042205Y-100034744D01*
X165928937Y-99865226D01*
X165836200Y-99772489D01*
X165836200Y-97227511D01*
X165928937Y-97134774D01*
X166042205Y-96965256D01*
X166120226Y-96776898D01*
X166160000Y-96576939D01*
X166160000Y-96373061D01*
X166120226Y-96173102D01*
X166042205Y-95984744D01*
X165928937Y-95815226D01*
X165784774Y-95671063D01*
X165615256Y-95557795D01*
X165426898Y-95479774D01*
X165226939Y-95440000D01*
X165023061Y-95440000D01*
X164823102Y-95479774D01*
X164634744Y-95557795D01*
X164465226Y-95671063D01*
X164321063Y-95815226D01*
X164207795Y-95984744D01*
X164129774Y-96173102D01*
X164090000Y-96373061D01*
X151585000Y-96373061D01*
X151585000Y-76957449D01*
X151725000Y-76957449D01*
X151725000Y-77342551D01*
X151800130Y-77720252D01*
X151947502Y-78076040D01*
X152161453Y-78396240D01*
X152433760Y-78668547D01*
X152753960Y-78882498D01*
X153109748Y-79029870D01*
X153487449Y-79105000D01*
X153872551Y-79105000D01*
X154250252Y-79029870D01*
X154606040Y-78882498D01*
X154926240Y-78668547D01*
X155198547Y-78396240D01*
X155412498Y-78076040D01*
X155559870Y-77720252D01*
X155635000Y-77342551D01*
X155635000Y-76957449D01*
X155559870Y-76579748D01*
X155412498Y-76223960D01*
X155198547Y-75903760D01*
X154926240Y-75631453D01*
X154606040Y-75417502D01*
X154250252Y-75270130D01*
X153872551Y-75195000D01*
X153487449Y-75195000D01*
X153109748Y-75270130D01*
X152753960Y-75417502D01*
X152433760Y-75631453D01*
X152161453Y-75903760D01*
X151947502Y-76223960D01*
X151800130Y-76579748D01*
X151725000Y-76957449D01*
X151585000Y-76957449D01*
X151585000Y-73400000D01*
X158036928Y-73400000D01*
X158036928Y-75400000D01*
X158049188Y-75524482D01*
X158085498Y-75644180D01*
X158144463Y-75754494D01*
X158223815Y-75851185D01*
X158320506Y-75930537D01*
X158430820Y-75989502D01*
X158550518Y-76025812D01*
X158675000Y-76038072D01*
X160675000Y-76038072D01*
X160799482Y-76025812D01*
X160919180Y-75989502D01*
X161029494Y-75930537D01*
X161126185Y-75851185D01*
X161205537Y-75754494D01*
X161264502Y-75644180D01*
X161300812Y-75524482D01*
X161313072Y-75400000D01*
X161313072Y-73400000D01*
X161300812Y-73275518D01*
X161264502Y-73155820D01*
X161205537Y-73045506D01*
X161126185Y-72948815D01*
X161029494Y-72869463D01*
X160919180Y-72810498D01*
X160799482Y-72774188D01*
X160675000Y-72761928D01*
X158675000Y-72761928D01*
X158550518Y-72774188D01*
X158430820Y-72810498D01*
X158320506Y-72869463D01*
X158223815Y-72948815D01*
X158144463Y-73045506D01*
X158085498Y-73155820D01*
X158049188Y-73275518D01*
X158036928Y-73400000D01*
X151585000Y-73400000D01*
X151585000Y-71248061D01*
X170040000Y-71248061D01*
X170040000Y-71451939D01*
X170079774Y-71651898D01*
X170157795Y-71840256D01*
X170271063Y-72009774D01*
X170363800Y-72102511D01*
X170363801Y-72890064D01*
X170363800Y-93172489D01*
X170271063Y-93265226D01*
X170157795Y-93434744D01*
X170079774Y-93623102D01*
X170040000Y-93823061D01*
X170040000Y-94026939D01*
X170079774Y-94226898D01*
X170157795Y-94415256D01*
X170271063Y-94584774D01*
X170415226Y-94728937D01*
X170584744Y-94842205D01*
X170773102Y-94920226D01*
X170973061Y-94960000D01*
X171176939Y-94960000D01*
X171376898Y-94920226D01*
X171565256Y-94842205D01*
X171734774Y-94728937D01*
X171878937Y-94584774D01*
X171992205Y-94415256D01*
X172070226Y-94226898D01*
X172110000Y-94026939D01*
X172110000Y-93823061D01*
X172070226Y-93623102D01*
X171992205Y-93434744D01*
X171878937Y-93265226D01*
X171786200Y-93172489D01*
X171786200Y-72102511D01*
X171878937Y-72009774D01*
X171992205Y-71840256D01*
X172070226Y-71651898D01*
X172110000Y-71451939D01*
X172110000Y-71248061D01*
X172070226Y-71048102D01*
X171992205Y-70859744D01*
X171878937Y-70690226D01*
X171734774Y-70546063D01*
X171565256Y-70432795D01*
X171376898Y-70354774D01*
X171176939Y-70315000D01*
X170973061Y-70315000D01*
X170773102Y-70354774D01*
X170584744Y-70432795D01*
X170415226Y-70546063D01*
X170271063Y-70690226D01*
X170157795Y-70859744D01*
X170079774Y-71048102D01*
X170040000Y-71248061D01*
X151585000Y-71248061D01*
X151585000Y-69835000D01*
X184317462Y-69835000D01*
X184290000Y-69973061D01*
G37*
X184290000Y-69973061D02*
X184290000Y-70176939D01*
X184329774Y-70376898D01*
X184407795Y-70565256D01*
X184521063Y-70734774D01*
X184613801Y-70827512D01*
X184613800Y-72959935D01*
X184613801Y-72959945D01*
X184613801Y-78042359D01*
X184601939Y-78040000D01*
X184398061Y-78040000D01*
X184198102Y-78079774D01*
X184009744Y-78157795D01*
X183840226Y-78271063D01*
X183696063Y-78415226D01*
X183582795Y-78584744D01*
X183504774Y-78773102D01*
X183465000Y-78973061D01*
X183465000Y-79176939D01*
X183504774Y-79376898D01*
X183582795Y-79565256D01*
X183696063Y-79734774D01*
X183788800Y-79827511D01*
X183788801Y-80590055D01*
X183788800Y-80590065D01*
X183788801Y-87072488D01*
X183696063Y-87165226D01*
X183582795Y-87334744D01*
X183504774Y-87523102D01*
X183465000Y-87723061D01*
X183465000Y-87926939D01*
X183504774Y-88126898D01*
X183582795Y-88315256D01*
X183696063Y-88484774D01*
X183840226Y-88628937D01*
X184009744Y-88742205D01*
X184198102Y-88820226D01*
X184291828Y-88838869D01*
X184290000Y-88848061D01*
X184290000Y-89051939D01*
X184329774Y-89251898D01*
X184355415Y-89313800D01*
X182824911Y-89313800D01*
X182953937Y-89184774D01*
X183067205Y-89015256D01*
X183145226Y-88826898D01*
X183185000Y-88626939D01*
X183185000Y-88423061D01*
X183145226Y-88223102D01*
X183067205Y-88034744D01*
X182953937Y-87865226D01*
X182809774Y-87721063D01*
X182640256Y-87607795D01*
X182451898Y-87529774D01*
X182251939Y-87490000D01*
X182048061Y-87490000D01*
X181848102Y-87529774D01*
X181669046Y-87603942D01*
X180733793Y-86668690D01*
X180848933Y-86716383D01*
X181068212Y-86760000D01*
X181291788Y-86760000D01*
X181511067Y-86716383D01*
X181622774Y-86670112D01*
X181705820Y-86714502D01*
X181825518Y-86750812D01*
X181950000Y-86763072D01*
X182950000Y-86763072D01*
X183074482Y-86750812D01*
X183194180Y-86714502D01*
X183304494Y-86655537D01*
X183401185Y-86576185D01*
X183480537Y-86479494D01*
X183539502Y-86369180D01*
X183575812Y-86249482D01*
X183588072Y-86125000D01*
X183588072Y-85125000D01*
X183575812Y-85000518D01*
X183539502Y-84880820D01*
X183491930Y-84791820D01*
X183527446Y-84711864D01*
X183544119Y-84656874D01*
X183417954Y-84482000D01*
X182577000Y-84482000D01*
X182577000Y-84486928D01*
X182323000Y-84486928D01*
X182323000Y-84482000D01*
X182311974Y-84482000D01*
X182315000Y-84466788D01*
X182315000Y-84243212D01*
X182311974Y-84228000D01*
X182323000Y-84228000D01*
X182323000Y-83212000D01*
X182577000Y-83212000D01*
X182577000Y-84228000D01*
X183417954Y-84228000D01*
X183544119Y-84053126D01*
X183527446Y-83998136D01*
X183437123Y-83794794D01*
X183384361Y-83720000D01*
X183437123Y-83645206D01*
X183527446Y-83441864D01*
X183544119Y-83386874D01*
X183417954Y-83212000D01*
X182577000Y-83212000D01*
X182323000Y-83212000D01*
X182311974Y-83212000D01*
X182315000Y-83196788D01*
X182315000Y-82973212D01*
X182311974Y-82958000D01*
X182323000Y-82958000D01*
X182323000Y-82946974D01*
X182338212Y-82950000D01*
X182561788Y-82950000D01*
X182577000Y-82946974D01*
X182577000Y-82958000D01*
X183417954Y-82958000D01*
X183544119Y-82783126D01*
X183527446Y-82728136D01*
X183437123Y-82524794D01*
X183387647Y-82454658D01*
X183455824Y-82352624D01*
X183541383Y-82146067D01*
X183585000Y-81926788D01*
X183585000Y-81703212D01*
X183541383Y-81483933D01*
X183455824Y-81277376D01*
X183387647Y-81175342D01*
X183437123Y-81105206D01*
X183527446Y-80901864D01*
X183544119Y-80846874D01*
X183417954Y-80672000D01*
X182577000Y-80672000D01*
X182577000Y-80683026D01*
X182561788Y-80680000D01*
X182338212Y-80680000D01*
X182323000Y-80683026D01*
X182323000Y-80672000D01*
X182311974Y-80672000D01*
X182315000Y-80656788D01*
X182315000Y-80433212D01*
X182311974Y-80418000D01*
X182323000Y-80418000D01*
X182323000Y-79575871D01*
X182577000Y-79575871D01*
X182577000Y-80418000D01*
X183417954Y-80418000D01*
X183544119Y-80243126D01*
X183527446Y-80188136D01*
X183437123Y-79984794D01*
X183308865Y-79802980D01*
X183147601Y-79649682D01*
X182959529Y-79530790D01*
X182751876Y-79450874D01*
X182577000Y-79575871D01*
X182323000Y-79575871D01*
X182148124Y-79450874D01*
X181940471Y-79530790D01*
X181819512Y-79607256D01*
X181717624Y-79539176D01*
X181511067Y-79453617D01*
X181291788Y-79410000D01*
X181068212Y-79410000D01*
X180848933Y-79453617D01*
X180642376Y-79539176D01*
X180456480Y-79663388D01*
X180298388Y-79821480D01*
X180174176Y-80007376D01*
X180088617Y-80213933D01*
X180045000Y-80433212D01*
X180045000Y-80656788D01*
X180088617Y-80876067D01*
X180174176Y-81082624D01*
X180239241Y-81180000D01*
X180174176Y-81277376D01*
X180088617Y-81483933D01*
X180045000Y-81703212D01*
X180045000Y-81926788D01*
X180088617Y-82146067D01*
X180174176Y-82352624D01*
X180239241Y-82450000D01*
X180174176Y-82547376D01*
X180088617Y-82753933D01*
X180045000Y-82973212D01*
X180045000Y-83196788D01*
X180088617Y-83416067D01*
X180174176Y-83622624D01*
X180184984Y-83638800D01*
X180102511Y-83638800D01*
X180009774Y-83546063D01*
X179840256Y-83432795D01*
X179651898Y-83354774D01*
X179451939Y-83315000D01*
X179320789Y-83315000D01*
X174438702Y-78432914D01*
X174467205Y-78390256D01*
X174545226Y-78201898D01*
X174585000Y-78001939D01*
X174585000Y-77798061D01*
X174545226Y-77598102D01*
X174467205Y-77409744D01*
X174353937Y-77240226D01*
X174209774Y-77096063D01*
X174040256Y-76982795D01*
X173851898Y-76904774D01*
X173651939Y-76865000D01*
X173448061Y-76865000D01*
X173248102Y-76904774D01*
X173059744Y-76982795D01*
X172890226Y-77096063D01*
X172746063Y-77240226D01*
X172632795Y-77409744D01*
X172554774Y-77598102D01*
X172515000Y-77798061D01*
X172515000Y-78001939D01*
X172554774Y-78201898D01*
X172632795Y-78390256D01*
X172746063Y-78559774D01*
X172846183Y-78659894D01*
X172849091Y-78689419D01*
X172889758Y-78823480D01*
X172955798Y-78947032D01*
X173044673Y-79055326D01*
X173071811Y-79077598D01*
X178315000Y-84320789D01*
X178315000Y-84451939D01*
X178354774Y-84651898D01*
X178432795Y-84840256D01*
X178546063Y-85009774D01*
X178638801Y-85102512D01*
X178638800Y-86255759D01*
X178635360Y-86290685D01*
X178638800Y-86325611D01*
X178638800Y-86325620D01*
X178649091Y-86430104D01*
X178689758Y-86564165D01*
X178755798Y-86687717D01*
X178844673Y-86796011D01*
X178871810Y-86818282D01*
X181056722Y-89003196D01*
X181078988Y-89030327D01*
X181106119Y-89052593D01*
X181106124Y-89052598D01*
X181187282Y-89119202D01*
X181310833Y-89185242D01*
X181362075Y-89200786D01*
X181475089Y-89313800D01*
X174634928Y-89313800D01*
X174600000Y-89310360D01*
X174565071Y-89313800D01*
X174565064Y-89313800D01*
X174460580Y-89324091D01*
X174326518Y-89364758D01*
X174202967Y-89430798D01*
X174121809Y-89497402D01*
X174121804Y-89497407D01*
X174094673Y-89519673D01*
X174072407Y-89546804D01*
X173046810Y-90572403D01*
X173019673Y-90594674D01*
X172930798Y-90702968D01*
X172864758Y-90826520D01*
X172824091Y-90960581D01*
X172813800Y-91065065D01*
X172813800Y-91065074D01*
X172810360Y-91100000D01*
X172813800Y-91134926D01*
X172813800Y-91572489D01*
X172721063Y-91665226D01*
X172607795Y-91834744D01*
X172529774Y-92023102D01*
X172490000Y-92223061D01*
X172490000Y-92426939D01*
X172529774Y-92626898D01*
X172607795Y-92815256D01*
X172721063Y-92984774D01*
X172865226Y-93128937D01*
X173034744Y-93242205D01*
X173223102Y-93320226D01*
X173423061Y-93360000D01*
X173626939Y-93360000D01*
X173826898Y-93320226D01*
X174015256Y-93242205D01*
X174184774Y-93128937D01*
X174328937Y-92984774D01*
X174442205Y-92815256D01*
X174520226Y-92626898D01*
X174560000Y-92426939D01*
X174560000Y-92223061D01*
X174520226Y-92023102D01*
X174442205Y-91834744D01*
X174328937Y-91665226D01*
X174236200Y-91572489D01*
X174236200Y-91399911D01*
X174365226Y-91528937D01*
X174534744Y-91642205D01*
X174723102Y-91720226D01*
X174923061Y-91760000D01*
X175126939Y-91760000D01*
X175326898Y-91720226D01*
X175515256Y-91642205D01*
X175684774Y-91528937D01*
X175777511Y-91436200D01*
X184355415Y-91436200D01*
X184329774Y-91498102D01*
X184290000Y-91698061D01*
X184290000Y-91901939D01*
X184329774Y-92101898D01*
X184407795Y-92290256D01*
X184521063Y-92459774D01*
X184613801Y-92552512D01*
X184613800Y-98730413D01*
X184580413Y-98763800D01*
X183527511Y-98763800D01*
X183434774Y-98671063D01*
X183265256Y-98557795D01*
X183076898Y-98479774D01*
X182876939Y-98440000D01*
X182673061Y-98440000D01*
X182473102Y-98479774D01*
X182284744Y-98557795D01*
X182115226Y-98671063D01*
X181971063Y-98815226D01*
X181857795Y-98984744D01*
X181779774Y-99173102D01*
X181740000Y-99373061D01*
X181740000Y-99576939D01*
X181779774Y-99776898D01*
X181857795Y-99965256D01*
X181971063Y-100134774D01*
X182115226Y-100278937D01*
X182284744Y-100392205D01*
X182473102Y-100470226D01*
X182673061Y-100510000D01*
X182876939Y-100510000D01*
X183076898Y-100470226D01*
X183265256Y-100392205D01*
X183434774Y-100278937D01*
X183527511Y-100186200D01*
X184840074Y-100186200D01*
X184875000Y-100189640D01*
X184909926Y-100186200D01*
X184909936Y-100186200D01*
X185014420Y-100175909D01*
X185148481Y-100135242D01*
X185272033Y-100069202D01*
X185380327Y-99980327D01*
X185402602Y-99953185D01*
X185803190Y-99552597D01*
X185830326Y-99530327D01*
X185919202Y-99422033D01*
X185985242Y-99298481D01*
X186025909Y-99164420D01*
X186036200Y-99059936D01*
X186036200Y-99059927D01*
X186039640Y-99025001D01*
X186036200Y-98990075D01*
X186036200Y-93117951D01*
X186184744Y-93217205D01*
X186373102Y-93295226D01*
X186573061Y-93335000D01*
X186776939Y-93335000D01*
X186913800Y-93307777D01*
X186913800Y-93447489D01*
X186821063Y-93540226D01*
X186707795Y-93709744D01*
X186629774Y-93898102D01*
X186590000Y-94098061D01*
X186590000Y-94301939D01*
X186629774Y-94501898D01*
X186707795Y-94690256D01*
X186821063Y-94859774D01*
X186913801Y-94952512D01*
X186913800Y-103222489D01*
X186821063Y-103315226D01*
X186707795Y-103484744D01*
X186629774Y-103673102D01*
X186590000Y-103873061D01*
X186590000Y-104076939D01*
X186629774Y-104276898D01*
X186707795Y-104465256D01*
X186821063Y-104634774D01*
X186965226Y-104778937D01*
X187134744Y-104892205D01*
X187323102Y-104970226D01*
X187523061Y-105010000D01*
X187726939Y-105010000D01*
X187926898Y-104970226D01*
X188115256Y-104892205D01*
X188284774Y-104778937D01*
X188428937Y-104634774D01*
X188542205Y-104465256D01*
X188620226Y-104276898D01*
X188624479Y-104255517D01*
X188801898Y-104220226D01*
X188990256Y-104142205D01*
X189159774Y-104028937D01*
X189303937Y-103884774D01*
X189417205Y-103715256D01*
X189495226Y-103526898D01*
X189535000Y-103326939D01*
X189535000Y-103222456D01*
X189598061Y-103235000D01*
X189801939Y-103235000D01*
X190001898Y-103195226D01*
X190190256Y-103117205D01*
X190359774Y-103003937D01*
X190503937Y-102859774D01*
X190617205Y-102690256D01*
X190695226Y-102501898D01*
X190735000Y-102301939D01*
X190735000Y-102098061D01*
X190695226Y-101898102D01*
X190617205Y-101709744D01*
X190610202Y-101699263D01*
X190630498Y-101695226D01*
X190818856Y-101617205D01*
X190988374Y-101503937D01*
X191132537Y-101359774D01*
X191245805Y-101190256D01*
X191323826Y-101001898D01*
X191363600Y-100801939D01*
X191363600Y-100598061D01*
X191323826Y-100398102D01*
X191245805Y-100209744D01*
X191132537Y-100040226D01*
X191039800Y-99947489D01*
X191039800Y-99440988D01*
X191290000Y-99190788D01*
X191290000Y-99201939D01*
X191329774Y-99401898D01*
X191407795Y-99590256D01*
X191521063Y-99759774D01*
X191596626Y-99835337D01*
X191596625Y-101019154D01*
X191503888Y-101111891D01*
X191390620Y-101281409D01*
X191312599Y-101469767D01*
X191272825Y-101669726D01*
X191272825Y-101873604D01*
X191312599Y-102073563D01*
X191390620Y-102261921D01*
X191503888Y-102431439D01*
X191648051Y-102575602D01*
X191817569Y-102688870D01*
X191948012Y-102742902D01*
X191954774Y-102776898D01*
X192032795Y-102965256D01*
X192146063Y-103134774D01*
X192290226Y-103278937D01*
X192459744Y-103392205D01*
X192648102Y-103470226D01*
X192848061Y-103510000D01*
X193051939Y-103510000D01*
X193251898Y-103470226D01*
X193440256Y-103392205D01*
X193609774Y-103278937D01*
X193753937Y-103134774D01*
X193867205Y-102965256D01*
X193945226Y-102776898D01*
X193985000Y-102576939D01*
X193985000Y-102373061D01*
X193945226Y-102173102D01*
X193867205Y-101984744D01*
X193753937Y-101815226D01*
X193661200Y-101722489D01*
X193661200Y-100602511D01*
X193753937Y-100509774D01*
X193867205Y-100340256D01*
X193945226Y-100151898D01*
X193985000Y-99951939D01*
X193985000Y-99748061D01*
X193945226Y-99548102D01*
X193867205Y-99359744D01*
X193753937Y-99190226D01*
X193609774Y-99046063D01*
X193440256Y-98932795D01*
X193338646Y-98890706D01*
X193320226Y-98798102D01*
X193242205Y-98609744D01*
X193128937Y-98440226D01*
X192984774Y-98296063D01*
X192815256Y-98182795D01*
X192626898Y-98104774D01*
X192426939Y-98065000D01*
X192223061Y-98065000D01*
X192023102Y-98104774D01*
X191834744Y-98182795D01*
X191686200Y-98282049D01*
X191686200Y-90702511D01*
X191778937Y-90609774D01*
X191892205Y-90440256D01*
X191970226Y-90251898D01*
X192010000Y-90051939D01*
X192010000Y-89848061D01*
X191970226Y-89648102D01*
X191892205Y-89459744D01*
X191778937Y-89290226D01*
X191686200Y-89197489D01*
X191686200Y-87277511D01*
X191778937Y-87184774D01*
X191892205Y-87015256D01*
X191970226Y-86826898D01*
X192010000Y-86626939D01*
X192010000Y-86423061D01*
X191970226Y-86223102D01*
X191892205Y-86034744D01*
X191778937Y-85865226D01*
X191688069Y-85774358D01*
X191688694Y-85523061D01*
X194040000Y-85523061D01*
X194040000Y-85726939D01*
X194079774Y-85926898D01*
X194157795Y-86115256D01*
X194271063Y-86284774D01*
X194363800Y-86377511D01*
X194363801Y-90097488D01*
X194271063Y-90190226D01*
X194157795Y-90359744D01*
X194079774Y-90548102D01*
X194040000Y-90748061D01*
X194040000Y-90951939D01*
X194079774Y-91151898D01*
X194157795Y-91340256D01*
X194271063Y-91509774D01*
X194415226Y-91653937D01*
X194584744Y-91767205D01*
X194773102Y-91845226D01*
X194973061Y-91885000D01*
X195176939Y-91885000D01*
X195376898Y-91845226D01*
X195565256Y-91767205D01*
X195734774Y-91653937D01*
X195878937Y-91509774D01*
X195992205Y-91340256D01*
X196070226Y-91151898D01*
X196110000Y-90951939D01*
X196110000Y-90748061D01*
X196070226Y-90548102D01*
X195992205Y-90359744D01*
X195878937Y-90190226D01*
X195786200Y-90097489D01*
X195786200Y-86377511D01*
X195878937Y-86284774D01*
X195992205Y-86115256D01*
X196070226Y-85926898D01*
X196110000Y-85726939D01*
X196110000Y-85523061D01*
X196070226Y-85323102D01*
X195992205Y-85134744D01*
X195878937Y-84965226D01*
X195734774Y-84821063D01*
X195565256Y-84707795D01*
X195376898Y-84629774D01*
X195176939Y-84590000D01*
X194973061Y-84590000D01*
X194773102Y-84629774D01*
X194584744Y-84707795D01*
X194415226Y-84821063D01*
X194271063Y-84965226D01*
X194157795Y-85134744D01*
X194079774Y-85323102D01*
X194040000Y-85523061D01*
X191688694Y-85523061D01*
X191694764Y-83082830D01*
X191696063Y-83084774D01*
X191840226Y-83228937D01*
X192009744Y-83342205D01*
X192198102Y-83420226D01*
X192398061Y-83460000D01*
X192421440Y-83460000D01*
X192429774Y-83501898D01*
X192507795Y-83690256D01*
X192621063Y-83859774D01*
X192765226Y-84003937D01*
X192934744Y-84117205D01*
X193123102Y-84195226D01*
X193323061Y-84235000D01*
X193526939Y-84235000D01*
X193726898Y-84195226D01*
X193915256Y-84117205D01*
X194084774Y-84003937D01*
X194228937Y-83859774D01*
X194342205Y-83690256D01*
X194420226Y-83501898D01*
X194460000Y-83301939D01*
X194460000Y-83098061D01*
X194420226Y-82898102D01*
X194342205Y-82709744D01*
X194228937Y-82540226D01*
X194136200Y-82447489D01*
X194136200Y-82331111D01*
X194228937Y-82238374D01*
X194342205Y-82068856D01*
X194420226Y-81880498D01*
X194460000Y-81680539D01*
X194460000Y-81476661D01*
X194420226Y-81276702D01*
X194342205Y-81088344D01*
X194228937Y-80918826D01*
X194084774Y-80774663D01*
X193915256Y-80661395D01*
X193726898Y-80583374D01*
X193526939Y-80543600D01*
X193476940Y-80543600D01*
X193442205Y-80459744D01*
X193328937Y-80290226D01*
X193184774Y-80146063D01*
X193015256Y-80032795D01*
X192826898Y-79954774D01*
X192626939Y-79915000D01*
X192423061Y-79915000D01*
X192223102Y-79954774D01*
X192034744Y-80032795D01*
X191865226Y-80146063D01*
X191721063Y-80290226D01*
X191701638Y-80319297D01*
X191710467Y-76770321D01*
X191794588Y-76686200D01*
X194951089Y-76686200D01*
X195043826Y-76778937D01*
X195213344Y-76892205D01*
X195401702Y-76970226D01*
X195601661Y-77010000D01*
X195805539Y-77010000D01*
X196005498Y-76970226D01*
X196193856Y-76892205D01*
X196363374Y-76778937D01*
X196507537Y-76634774D01*
X196620805Y-76465256D01*
X196698826Y-76276898D01*
X196738600Y-76076939D01*
X196738600Y-75873061D01*
X196698826Y-75673102D01*
X196620805Y-75484744D01*
X196507537Y-75315226D01*
X196363374Y-75171063D01*
X196193856Y-75057795D01*
X196005498Y-74979774D01*
X195805539Y-74940000D01*
X195601661Y-74940000D01*
X195401702Y-74979774D01*
X195213344Y-75057795D01*
X195043826Y-75171063D01*
X194951089Y-75263800D01*
X191534928Y-75263800D01*
X191500000Y-75260360D01*
X191465071Y-75263800D01*
X191465064Y-75263800D01*
X191360580Y-75274091D01*
X191226518Y-75314758D01*
X191223702Y-75316263D01*
X191195226Y-75173102D01*
X191117205Y-74984744D01*
X191003937Y-74815226D01*
X190859774Y-74671063D01*
X190690256Y-74557795D01*
X190501898Y-74479774D01*
X190301939Y-74440000D01*
X190098061Y-74440000D01*
X189898102Y-74479774D01*
X189709744Y-74557795D01*
X189540226Y-74671063D01*
X189396063Y-74815226D01*
X189282795Y-74984744D01*
X189211200Y-75157588D01*
X189211200Y-74002511D01*
X189303937Y-73909774D01*
X189417205Y-73740256D01*
X189495226Y-73551898D01*
X189535000Y-73351939D01*
X189535000Y-73148061D01*
X189495226Y-72948102D01*
X189417205Y-72759744D01*
X189303937Y-72590226D01*
X189159774Y-72446063D01*
X188990256Y-72332795D01*
X188801898Y-72254774D01*
X188655545Y-72225663D01*
X188620226Y-72048102D01*
X188542205Y-71859744D01*
X188428937Y-71690226D01*
X188284774Y-71546063D01*
X188115256Y-71432795D01*
X187926898Y-71354774D01*
X187726939Y-71315000D01*
X187523061Y-71315000D01*
X187323102Y-71354774D01*
X187134744Y-71432795D01*
X186965226Y-71546063D01*
X186821063Y-71690226D01*
X186707795Y-71859744D01*
X186629774Y-72048102D01*
X186590000Y-72248061D01*
X186590000Y-72451939D01*
X186629774Y-72651898D01*
X186707795Y-72840256D01*
X186821063Y-73009774D01*
X186913801Y-73102512D01*
X186913800Y-82447489D01*
X186821063Y-82540226D01*
X186707795Y-82709744D01*
X186629774Y-82898102D01*
X186590000Y-83098061D01*
X186590000Y-83301939D01*
X186629774Y-83501898D01*
X186707795Y-83690256D01*
X186821063Y-83859774D01*
X186913801Y-83952512D01*
X186913800Y-89300089D01*
X186834774Y-89221063D01*
X186665256Y-89107795D01*
X186476898Y-89029774D01*
X186360000Y-89006522D01*
X186360000Y-88848061D01*
X186320226Y-88648102D01*
X186242205Y-88459744D01*
X186128937Y-88290226D01*
X186036200Y-88197489D01*
X186036200Y-70827511D01*
X186128937Y-70734774D01*
X186242205Y-70565256D01*
X186320226Y-70376898D01*
X186360000Y-70176939D01*
X186360000Y-69973061D01*
X186332538Y-69835000D01*
X197897435Y-69835000D01*
X197865000Y-69998061D01*
X197865000Y-70201939D01*
X197904774Y-70401898D01*
X197982795Y-70590256D01*
X198096063Y-70759774D01*
X198188801Y-70852512D01*
X198188800Y-72890064D01*
X198188800Y-72890065D01*
X198188801Y-75897488D01*
X198171063Y-75915226D01*
X198057795Y-76084744D01*
X197979774Y-76273102D01*
X197940000Y-76473061D01*
X197940000Y-76676939D01*
X197979774Y-76876898D01*
X198057795Y-77065256D01*
X198171063Y-77234774D01*
X198315226Y-77378937D01*
X198484744Y-77492205D01*
X198673102Y-77570226D01*
X198873061Y-77610000D01*
X199076939Y-77610000D01*
X199276898Y-77570226D01*
X199465256Y-77492205D01*
X199634774Y-77378937D01*
X199778937Y-77234774D01*
X199892205Y-77065256D01*
X199970226Y-76876898D01*
X200010000Y-76676939D01*
X200010000Y-76473061D01*
X199970226Y-76273102D01*
X199892205Y-76084744D01*
X199778937Y-75915226D01*
X199634774Y-75771063D01*
X199611200Y-75755311D01*
X199611200Y-70852511D01*
X199703937Y-70759774D01*
X199817205Y-70590256D01*
X199895226Y-70401898D01*
X199935000Y-70201939D01*
X199935000Y-69998061D01*
X199902565Y-69835000D01*
X232815000Y-69835000D01*
X232815001Y-129215000D01*
X151585000Y-129215000D01*
X151585000Y-126228967D01*
X158040000Y-126228967D01*
X158040000Y-126551033D01*
X158102832Y-126866912D01*
X158226082Y-127164463D01*
X158405013Y-127432252D01*
X158632748Y-127659987D01*
X158900537Y-127838918D01*
X159198088Y-127962168D01*
X159513967Y-128025000D01*
X159836033Y-128025000D01*
X160151912Y-127962168D01*
X160449463Y-127838918D01*
X160717252Y-127659987D01*
X160944987Y-127432252D01*
X161123918Y-127164463D01*
X161247168Y-126866912D01*
X161310000Y-126551033D01*
X161310000Y-126228967D01*
X161247168Y-125913088D01*
X161123918Y-125615537D01*
X160944987Y-125347748D01*
X160717252Y-125120013D01*
X160449463Y-124941082D01*
X160151912Y-124817832D01*
X159836033Y-124755000D01*
X159513967Y-124755000D01*
X159198088Y-124817832D01*
X158900537Y-124941082D01*
X158632748Y-125120013D01*
X158405013Y-125347748D01*
X158226082Y-125615537D01*
X158102832Y-125913088D01*
X158040000Y-126228967D01*
X151585000Y-126228967D01*
X151585000Y-123437449D01*
X163715000Y-123437449D01*
X163715000Y-123822551D01*
X163790130Y-124200252D01*
X163937502Y-124556040D01*
X164151453Y-124876240D01*
X164423760Y-125148547D01*
X164743960Y-125362498D01*
X165099748Y-125509870D01*
X165477449Y-125585000D01*
X165862551Y-125585000D01*
X166240252Y-125509870D01*
X166596040Y-125362498D01*
X166916240Y-125148547D01*
X167188547Y-124876240D01*
X167402498Y-124556040D01*
X167549870Y-124200252D01*
X167625000Y-123822551D01*
X167625000Y-123437449D01*
X167549870Y-123059748D01*
X167402498Y-122703960D01*
X167188547Y-122383760D01*
X166916240Y-122111453D01*
X166596040Y-121897502D01*
X166240252Y-121750130D01*
X165862551Y-121675000D01*
X165477449Y-121675000D01*
X165099748Y-121750130D01*
X164743960Y-121897502D01*
X164423760Y-122111453D01*
X164151453Y-122383760D01*
X163937502Y-122703960D01*
X163790130Y-123059748D01*
X163715000Y-123437449D01*
X151585000Y-123437449D01*
X151585000Y-117973061D01*
X182590000Y-117973061D01*
X182590000Y-118176939D01*
X182629774Y-118376898D01*
X182707795Y-118565256D01*
X182821063Y-118734774D01*
X182912685Y-118826396D01*
X182910360Y-118850000D01*
X182913800Y-118884926D01*
X182913800Y-118884936D01*
X182924091Y-118989420D01*
X182962186Y-119115000D01*
X182964759Y-119123481D01*
X183030798Y-119247032D01*
X183097403Y-119328190D01*
X183119674Y-119355327D01*
X183146810Y-119377597D01*
X184040000Y-120270788D01*
X184040000Y-120401939D01*
X184079774Y-120601898D01*
X184157795Y-120790256D01*
X184271063Y-120959774D01*
X184415226Y-121103937D01*
X184584744Y-121217205D01*
X184773102Y-121295226D01*
X184973061Y-121335000D01*
X185138800Y-121335000D01*
X185138801Y-123630410D01*
X184552186Y-124217026D01*
X184401898Y-124154774D01*
X184201939Y-124115000D01*
X183998061Y-124115000D01*
X183798102Y-124154774D01*
X183609744Y-124232795D01*
X183440226Y-124346063D01*
X183296063Y-124490226D01*
X183182795Y-124659744D01*
X183104774Y-124848102D01*
X183065000Y-125048061D01*
X183065000Y-125251939D01*
X183104774Y-125451898D01*
X183182795Y-125640256D01*
X183296063Y-125809774D01*
X183440226Y-125953937D01*
X183609744Y-126067205D01*
X183798102Y-126145226D01*
X183998061Y-126185000D01*
X184201939Y-126185000D01*
X184401898Y-126145226D01*
X184590256Y-126067205D01*
X184759774Y-125953937D01*
X184903937Y-125809774D01*
X184906482Y-125805966D01*
X185022033Y-125744202D01*
X185130327Y-125655327D01*
X185152601Y-125628186D01*
X186328196Y-124452593D01*
X186355327Y-124430327D01*
X186377593Y-124403196D01*
X186377598Y-124403191D01*
X186444202Y-124322033D01*
X186510242Y-124198482D01*
X186550909Y-124064420D01*
X186552717Y-124046063D01*
X186561200Y-123959936D01*
X186561200Y-123959929D01*
X186564640Y-123925000D01*
X186561200Y-123890072D01*
X186561200Y-119466987D01*
X188351003Y-121256791D01*
X188373273Y-121283927D01*
X188481567Y-121372802D01*
X188605119Y-121438842D01*
X188739180Y-121479509D01*
X188843664Y-121489800D01*
X188843673Y-121489800D01*
X188878599Y-121493240D01*
X188913525Y-121489800D01*
X194940777Y-121489800D01*
X195033514Y-121582537D01*
X195203032Y-121695805D01*
X195391390Y-121773826D01*
X195591349Y-121813600D01*
X195795227Y-121813600D01*
X195995186Y-121773826D01*
X196183544Y-121695805D01*
X196353062Y-121582537D01*
X196497225Y-121438374D01*
X196610493Y-121268856D01*
X196645228Y-121185000D01*
X196676939Y-121185000D01*
X196688800Y-121182641D01*
X196688801Y-124547488D01*
X196621063Y-124615226D01*
X196507795Y-124784744D01*
X196429774Y-124973102D01*
X196390000Y-125173061D01*
X196390000Y-125376939D01*
X196429774Y-125576898D01*
X196507795Y-125765256D01*
X196621063Y-125934774D01*
X196765226Y-126078937D01*
X196934744Y-126192205D01*
X197123102Y-126270226D01*
X197323061Y-126310000D01*
X197526939Y-126310000D01*
X197726898Y-126270226D01*
X197915256Y-126192205D01*
X198084774Y-126078937D01*
X198228937Y-125934774D01*
X198342205Y-125765256D01*
X198420226Y-125576898D01*
X198460000Y-125376939D01*
X198460000Y-125173061D01*
X198435137Y-125048061D01*
X203565000Y-125048061D01*
X203565000Y-125251939D01*
X203604774Y-125451898D01*
X203682795Y-125640256D01*
X203796063Y-125809774D01*
X203940226Y-125953937D01*
X204109744Y-126067205D01*
X204298102Y-126145226D01*
X204498061Y-126185000D01*
X204701939Y-126185000D01*
X204901898Y-126145226D01*
X205090256Y-126067205D01*
X205259774Y-125953937D01*
X205377511Y-125836200D01*
X206647489Y-125836200D01*
X206740226Y-125928937D01*
X206909744Y-126042205D01*
X207098102Y-126120226D01*
X207298061Y-126160000D01*
X207501939Y-126160000D01*
X207701898Y-126120226D01*
X207890256Y-126042205D01*
X208059774Y-125928937D01*
X208203937Y-125784774D01*
X208317205Y-125615256D01*
X208395226Y-125426898D01*
X208435000Y-125226939D01*
X208435000Y-125023061D01*
X208395226Y-124823102D01*
X208364143Y-124748061D01*
X208790000Y-124748061D01*
X208790000Y-124951939D01*
X208829774Y-125151898D01*
X208907795Y-125340256D01*
X209021063Y-125509774D01*
X209165226Y-125653937D01*
X209334744Y-125767205D01*
X209523102Y-125845226D01*
X209723061Y-125885000D01*
X209926939Y-125885000D01*
X210126898Y-125845226D01*
X210315256Y-125767205D01*
X210484774Y-125653937D01*
X210577511Y-125561200D01*
X210697489Y-125561200D01*
X210840226Y-125703937D01*
X211009744Y-125817205D01*
X211198102Y-125895226D01*
X211398061Y-125935000D01*
X211601939Y-125935000D01*
X211801898Y-125895226D01*
X211990256Y-125817205D01*
X212159774Y-125703937D01*
X212303937Y-125559774D01*
X212417205Y-125390256D01*
X212423524Y-125375000D01*
X223186928Y-125375000D01*
X223186928Y-127375000D01*
X223199188Y-127499482D01*
X223235498Y-127619180D01*
X223294463Y-127729494D01*
X223373815Y-127826185D01*
X223470506Y-127905537D01*
X223580820Y-127964502D01*
X223700518Y-128000812D01*
X223825000Y-128013072D01*
X225825000Y-128013072D01*
X225949482Y-128000812D01*
X226069180Y-127964502D01*
X226179494Y-127905537D01*
X226276185Y-127826185D01*
X226355537Y-127729494D01*
X226414502Y-127619180D01*
X226450812Y-127499482D01*
X226463072Y-127375000D01*
X226463072Y-125375000D01*
X226450812Y-125250518D01*
X226414502Y-125130820D01*
X226355537Y-125020506D01*
X226276185Y-124923815D01*
X226179494Y-124844463D01*
X226069180Y-124785498D01*
X225949482Y-124749188D01*
X225825000Y-124736928D01*
X223825000Y-124736928D01*
X223700518Y-124749188D01*
X223580820Y-124785498D01*
X223470506Y-124844463D01*
X223373815Y-124923815D01*
X223294463Y-125020506D01*
X223235498Y-125130820D01*
X223199188Y-125250518D01*
X223186928Y-125375000D01*
X212423524Y-125375000D01*
X212495226Y-125201898D01*
X212535000Y-125001939D01*
X212535000Y-124798061D01*
X212495226Y-124598102D01*
X212417205Y-124409744D01*
X212303937Y-124240226D01*
X212159774Y-124096063D01*
X211990256Y-123982795D01*
X211801898Y-123904774D01*
X211601939Y-123865000D01*
X211398061Y-123865000D01*
X211198102Y-123904774D01*
X211009744Y-123982795D01*
X210840226Y-124096063D01*
X210797489Y-124138800D01*
X210577511Y-124138800D01*
X210484774Y-124046063D01*
X210315256Y-123932795D01*
X210126898Y-123854774D01*
X209926939Y-123815000D01*
X209723061Y-123815000D01*
X209523102Y-123854774D01*
X209334744Y-123932795D01*
X209165226Y-124046063D01*
X209021063Y-124190226D01*
X208907795Y-124359744D01*
X208829774Y-124548102D01*
X208790000Y-124748061D01*
X208364143Y-124748061D01*
X208317205Y-124634744D01*
X208203937Y-124465226D01*
X208059774Y-124321063D01*
X207890256Y-124207795D01*
X207701898Y-124129774D01*
X207501939Y-124090000D01*
X207298061Y-124090000D01*
X207098102Y-124129774D01*
X206909744Y-124207795D01*
X206740226Y-124321063D01*
X206647489Y-124413800D01*
X205327511Y-124413800D01*
X205259774Y-124346063D01*
X205090256Y-124232795D01*
X204901898Y-124154774D01*
X204701939Y-124115000D01*
X204498061Y-124115000D01*
X204298102Y-124154774D01*
X204109744Y-124232795D01*
X203940226Y-124346063D01*
X203796063Y-124490226D01*
X203682795Y-124659744D01*
X203604774Y-124848102D01*
X203565000Y-125048061D01*
X198435137Y-125048061D01*
X198420226Y-124973102D01*
X198342205Y-124784744D01*
X198228937Y-124615226D01*
X198111200Y-124497489D01*
X198111200Y-123432449D01*
X228865000Y-123432449D01*
X228865000Y-123817551D01*
X228940130Y-124195252D01*
X229087502Y-124551040D01*
X229301453Y-124871240D01*
X229573760Y-125143547D01*
X229893960Y-125357498D01*
X230249748Y-125504870D01*
X230627449Y-125580000D01*
X231012551Y-125580000D01*
X231390252Y-125504870D01*
X231746040Y-125357498D01*
X232066240Y-125143547D01*
X232338547Y-124871240D01*
X232552498Y-124551040D01*
X232699870Y-124195252D01*
X232775000Y-123817551D01*
X232775000Y-123432449D01*
X232699870Y-123054748D01*
X232552498Y-122698960D01*
X232338547Y-122378760D01*
X232066240Y-122106453D01*
X231746040Y-121892502D01*
X231390252Y-121745130D01*
X231012551Y-121670000D01*
X230627449Y-121670000D01*
X230249748Y-121745130D01*
X229893960Y-121892502D01*
X229573760Y-122106453D01*
X229301453Y-122378760D01*
X229087502Y-122698960D01*
X228940130Y-123054748D01*
X228865000Y-123432449D01*
X198111200Y-123432449D01*
X198111200Y-120932767D01*
X198196063Y-121059774D01*
X198340226Y-121203937D01*
X198509744Y-121317205D01*
X198698102Y-121395226D01*
X198898061Y-121435000D01*
X199101939Y-121435000D01*
X199301898Y-121395226D01*
X199490256Y-121317205D01*
X199659774Y-121203937D01*
X199752511Y-121111200D01*
X203947489Y-121111200D01*
X203965226Y-121128937D01*
X204134744Y-121242205D01*
X204323102Y-121320226D01*
X204523061Y-121360000D01*
X204726939Y-121360000D01*
X204926898Y-121320226D01*
X205115256Y-121242205D01*
X205284774Y-121128937D01*
X205428937Y-120984774D01*
X205542205Y-120815256D01*
X205606515Y-120660000D01*
X205801939Y-120660000D01*
X206001898Y-120620226D01*
X206190256Y-120542205D01*
X206359774Y-120428937D01*
X206503937Y-120284774D01*
X206617205Y-120115256D01*
X206695226Y-119926898D01*
X206735000Y-119726939D01*
X206735000Y-119523061D01*
X206720082Y-119448061D01*
X207190000Y-119448061D01*
X207190000Y-119651939D01*
X207229774Y-119851898D01*
X207307795Y-120040256D01*
X207421063Y-120209774D01*
X207565226Y-120353937D01*
X207734744Y-120467205D01*
X207923102Y-120545226D01*
X208123061Y-120585000D01*
X208326939Y-120585000D01*
X208526898Y-120545226D01*
X208715256Y-120467205D01*
X208884774Y-120353937D01*
X208977511Y-120261200D01*
X211872489Y-120261200D01*
X211940226Y-120328937D01*
X212109744Y-120442205D01*
X212298102Y-120520226D01*
X212498061Y-120560000D01*
X212701939Y-120560000D01*
X212901898Y-120520226D01*
X213090256Y-120442205D01*
X213259774Y-120328937D01*
X213403937Y-120184774D01*
X213517205Y-120015256D01*
X213595226Y-119826898D01*
X213635000Y-119626939D01*
X213635000Y-119423061D01*
X213595226Y-119223102D01*
X213517205Y-119034744D01*
X213403937Y-118865226D01*
X213259774Y-118721063D01*
X213090256Y-118607795D01*
X212901898Y-118529774D01*
X212701939Y-118490000D01*
X212510000Y-118490000D01*
X212510000Y-118373061D01*
X212470226Y-118173102D01*
X212392205Y-117984744D01*
X212278937Y-117815226D01*
X212134774Y-117671063D01*
X211965256Y-117557795D01*
X211776898Y-117479774D01*
X211576939Y-117440000D01*
X211373061Y-117440000D01*
X211173102Y-117479774D01*
X210984744Y-117557795D01*
X210815226Y-117671063D01*
X210697489Y-117788800D01*
X209827511Y-117788800D01*
X209734774Y-117696063D01*
X209565256Y-117582795D01*
X209376898Y-117504774D01*
X209176939Y-117465000D01*
X208973061Y-117465000D01*
X208773102Y-117504774D01*
X208584744Y-117582795D01*
X208415226Y-117696063D01*
X208271063Y-117840226D01*
X208157795Y-118009744D01*
X208079774Y-118198102D01*
X208040000Y-118398061D01*
X208040000Y-118531522D01*
X207923102Y-118554774D01*
X207734744Y-118632795D01*
X207565226Y-118746063D01*
X207421063Y-118890226D01*
X207307795Y-119059744D01*
X207229774Y-119248102D01*
X207190000Y-119448061D01*
X206720082Y-119448061D01*
X206695226Y-119323102D01*
X206617205Y-119134744D01*
X206503937Y-118965226D01*
X206359774Y-118821063D01*
X206190256Y-118707795D01*
X206001898Y-118629774D01*
X205801939Y-118590000D01*
X205598061Y-118590000D01*
X205398102Y-118629774D01*
X205209744Y-118707795D01*
X205040226Y-118821063D01*
X204947489Y-118913800D01*
X198927511Y-118913800D01*
X198834774Y-118821063D01*
X198665256Y-118707795D01*
X198476898Y-118629774D01*
X198379619Y-118610424D01*
X198317205Y-118459744D01*
X198203937Y-118290226D01*
X198059774Y-118146063D01*
X197932767Y-118061200D01*
X207640074Y-118061200D01*
X207675000Y-118064640D01*
X207709926Y-118061200D01*
X207709936Y-118061200D01*
X207814420Y-118050909D01*
X207948481Y-118010242D01*
X208072033Y-117944202D01*
X208180327Y-117855327D01*
X208202601Y-117828186D01*
X208648624Y-117382165D01*
X208675750Y-117359903D01*
X208698012Y-117332777D01*
X208698021Y-117332768D01*
X208764626Y-117251609D01*
X208807161Y-117172032D01*
X208830666Y-117128057D01*
X208871333Y-116993996D01*
X208881624Y-116889512D01*
X208881624Y-116889503D01*
X208885064Y-116854577D01*
X208881624Y-116819651D01*
X208881624Y-114366985D01*
X208941971Y-114378989D01*
X209046063Y-114534774D01*
X209190226Y-114678937D01*
X209359744Y-114792205D01*
X209548102Y-114870226D01*
X209748061Y-114910000D01*
X209951939Y-114910000D01*
X210151898Y-114870226D01*
X210340256Y-114792205D01*
X210509774Y-114678937D01*
X210653937Y-114534774D01*
X210767205Y-114365256D01*
X210845226Y-114176898D01*
X210885000Y-113976939D01*
X210885000Y-113773061D01*
X210845226Y-113573102D01*
X210767205Y-113384744D01*
X210653937Y-113215226D01*
X210561200Y-113122489D01*
X210561200Y-109902511D01*
X210653937Y-109809774D01*
X210767205Y-109640256D01*
X210845226Y-109451898D01*
X210885000Y-109251939D01*
X210885000Y-109048061D01*
X210845226Y-108848102D01*
X210767205Y-108659744D01*
X210653937Y-108490226D01*
X210509774Y-108346063D01*
X210340256Y-108232795D01*
X210151898Y-108154774D01*
X209951939Y-108115000D01*
X209748061Y-108115000D01*
X209548102Y-108154774D01*
X209359744Y-108232795D01*
X209190226Y-108346063D01*
X209046063Y-108490226D01*
X208932795Y-108659744D01*
X208854774Y-108848102D01*
X208815000Y-109048061D01*
X208815000Y-109251939D01*
X208854774Y-109451898D01*
X208932795Y-109640256D01*
X209046063Y-109809774D01*
X209138800Y-109902511D01*
X209138800Y-110490000D01*
X208948061Y-110490000D01*
X208748102Y-110529774D01*
X208559744Y-110607795D01*
X208390226Y-110721063D01*
X208246063Y-110865226D01*
X208161200Y-110992233D01*
X208161200Y-110627511D01*
X208253937Y-110534774D01*
X208367205Y-110365256D01*
X208445226Y-110176898D01*
X208485000Y-109976939D01*
X208485000Y-109773061D01*
X208445226Y-109573102D01*
X208367205Y-109384744D01*
X208253937Y-109215226D01*
X208109774Y-109071063D01*
X207940256Y-108957795D01*
X207751898Y-108879774D01*
X207551939Y-108840000D01*
X207348061Y-108840000D01*
X207257157Y-108858082D01*
X207245226Y-108798102D01*
X207167205Y-108609744D01*
X207053937Y-108440226D01*
X206932599Y-108318888D01*
X206932599Y-100885000D01*
X206951939Y-100885000D01*
X207151898Y-100845226D01*
X207340256Y-100767205D01*
X207509774Y-100653937D01*
X207653937Y-100509774D01*
X207767205Y-100340256D01*
X207845226Y-100151898D01*
X207855658Y-100099451D01*
X207876898Y-100095226D01*
X208065256Y-100017205D01*
X208234774Y-99903937D01*
X208378937Y-99759774D01*
X208492205Y-99590256D01*
X208570226Y-99401898D01*
X208610000Y-99201939D01*
X208610000Y-98998061D01*
X208570226Y-98798102D01*
X208492205Y-98609744D01*
X208378937Y-98440226D01*
X208286200Y-98347489D01*
X208286200Y-96873061D01*
X211365000Y-96873061D01*
X211365000Y-97076939D01*
X211404774Y-97276898D01*
X211482795Y-97465256D01*
X211596063Y-97634774D01*
X211688800Y-97727511D01*
X211688801Y-99972488D01*
X211596063Y-100065226D01*
X211482795Y-100234744D01*
X211404774Y-100423102D01*
X211365000Y-100623061D01*
X211365000Y-100826939D01*
X211404774Y-101026898D01*
X211482795Y-101215256D01*
X211596063Y-101384774D01*
X211740226Y-101528937D01*
X211909744Y-101642205D01*
X212098102Y-101720226D01*
X212298061Y-101760000D01*
X212322435Y-101760000D01*
X212290000Y-101923061D01*
X212290000Y-102126939D01*
X212329774Y-102326898D01*
X212407795Y-102515256D01*
X212521063Y-102684774D01*
X212573789Y-102737500D01*
X212521063Y-102790226D01*
X212407795Y-102959744D01*
X212329774Y-103148102D01*
X212290000Y-103348061D01*
X212290000Y-103551939D01*
X212329774Y-103751898D01*
X212407795Y-103940256D01*
X212491146Y-104065000D01*
X212423061Y-104065000D01*
X212223102Y-104104774D01*
X212034744Y-104182795D01*
X211865226Y-104296063D01*
X211721063Y-104440226D01*
X211607795Y-104609744D01*
X211529774Y-104798102D01*
X211490000Y-104998061D01*
X211490000Y-105201939D01*
X211529774Y-105401898D01*
X211607795Y-105590256D01*
X211721063Y-105759774D01*
X211813800Y-105852511D01*
X211813801Y-111972488D01*
X211696063Y-112090226D01*
X211582795Y-112259744D01*
X211504774Y-112448102D01*
X211465000Y-112648061D01*
X211465000Y-112851939D01*
X211504774Y-113051898D01*
X211582795Y-113240256D01*
X211696063Y-113409774D01*
X211840226Y-113553937D01*
X212009744Y-113667205D01*
X212198102Y-113745226D01*
X212398061Y-113785000D01*
X212601939Y-113785000D01*
X212801898Y-113745226D01*
X212990256Y-113667205D01*
X213159774Y-113553937D01*
X213303937Y-113409774D01*
X213417205Y-113240256D01*
X213495226Y-113051898D01*
X213535000Y-112851939D01*
X213535000Y-112648061D01*
X213495226Y-112448102D01*
X213417205Y-112259744D01*
X213303937Y-112090226D01*
X213236200Y-112022489D01*
X213236200Y-110957641D01*
X213248061Y-110960000D01*
X213451939Y-110960000D01*
X213651898Y-110920226D01*
X213840256Y-110842205D01*
X214009774Y-110728937D01*
X214153937Y-110584774D01*
X214267205Y-110415256D01*
X214345226Y-110226898D01*
X214385000Y-110026939D01*
X214385000Y-109823061D01*
X214345226Y-109623102D01*
X214267205Y-109434744D01*
X214227277Y-109374987D01*
X214376898Y-109345226D01*
X214565256Y-109267205D01*
X214734774Y-109153937D01*
X214878937Y-109009774D01*
X214992205Y-108840256D01*
X215070226Y-108651898D01*
X215110000Y-108451939D01*
X215110000Y-108248061D01*
X215070226Y-108048102D01*
X214992205Y-107859744D01*
X214878937Y-107690226D01*
X214786200Y-107597489D01*
X214786200Y-105052511D01*
X214878937Y-104959774D01*
X214992205Y-104790256D01*
X215070226Y-104601898D01*
X215110000Y-104401939D01*
X215110000Y-104198061D01*
X215070226Y-103998102D01*
X214992205Y-103809744D01*
X214878937Y-103640226D01*
X214734774Y-103496063D01*
X214565256Y-103382795D01*
X214376898Y-103304774D01*
X214350339Y-103299491D01*
X214320226Y-103148102D01*
X214242205Y-102959744D01*
X214128937Y-102790226D01*
X214076211Y-102737500D01*
X214128937Y-102684774D01*
X214186876Y-102598061D01*
X214890000Y-102598061D01*
X214890000Y-102801939D01*
X214929774Y-103001898D01*
X215007795Y-103190256D01*
X215121063Y-103359774D01*
X215213800Y-103452511D01*
X215213801Y-104997488D01*
X215146063Y-105065226D01*
X215032795Y-105234744D01*
X214954774Y-105423102D01*
X214915000Y-105623061D01*
X214915000Y-105826939D01*
X214954774Y-106026898D01*
X215032795Y-106215256D01*
X215146063Y-106384774D01*
X215290226Y-106528937D01*
X215459744Y-106642205D01*
X215648102Y-106720226D01*
X215848061Y-106760000D01*
X216051939Y-106760000D01*
X216251898Y-106720226D01*
X216440256Y-106642205D01*
X216609774Y-106528937D01*
X216753937Y-106384774D01*
X216867205Y-106215256D01*
X216945226Y-106026898D01*
X216985000Y-105826939D01*
X216985000Y-105623061D01*
X216945226Y-105423102D01*
X216867205Y-105234744D01*
X216753937Y-105065226D01*
X216636200Y-104947489D01*
X216636200Y-103452511D01*
X216728937Y-103359774D01*
X216842205Y-103190256D01*
X216920226Y-103001898D01*
X216960000Y-102801939D01*
X216960000Y-102598061D01*
X216920226Y-102398102D01*
X216842205Y-102209744D01*
X216728937Y-102040226D01*
X216584774Y-101896063D01*
X216415256Y-101782795D01*
X216226898Y-101704774D01*
X216026939Y-101665000D01*
X215823061Y-101665000D01*
X215623102Y-101704774D01*
X215434744Y-101782795D01*
X215265226Y-101896063D01*
X215121063Y-102040226D01*
X215007795Y-102209744D01*
X214929774Y-102398102D01*
X214890000Y-102598061D01*
X214186876Y-102598061D01*
X214242205Y-102515256D01*
X214320226Y-102326898D01*
X214360000Y-102126939D01*
X214360000Y-101923061D01*
X214320226Y-101723102D01*
X214242205Y-101534744D01*
X214128937Y-101365226D01*
X214036200Y-101272489D01*
X214036200Y-96927511D01*
X214128937Y-96834774D01*
X214242205Y-96665256D01*
X214320226Y-96476898D01*
X214360000Y-96276939D01*
X214360000Y-96073061D01*
X214320226Y-95873102D01*
X214242205Y-95684744D01*
X214128937Y-95515226D01*
X214090974Y-95477263D01*
X214115256Y-95467205D01*
X214284774Y-95353937D01*
X214365650Y-95273061D01*
X215540000Y-95273061D01*
X215540000Y-95476939D01*
X215579774Y-95676898D01*
X215657795Y-95865256D01*
X215771063Y-96034774D01*
X215863800Y-96127511D01*
X215863801Y-96847488D01*
X215771063Y-96940226D01*
X215657795Y-97109744D01*
X215579774Y-97298102D01*
X215540000Y-97498061D01*
X215540000Y-97701939D01*
X215579774Y-97901898D01*
X215657795Y-98090256D01*
X215771063Y-98259774D01*
X215915226Y-98403937D01*
X216084744Y-98517205D01*
X216273102Y-98595226D01*
X216473061Y-98635000D01*
X216676939Y-98635000D01*
X216876898Y-98595226D01*
X217065256Y-98517205D01*
X217234774Y-98403937D01*
X217378937Y-98259774D01*
X217492205Y-98090256D01*
X217570226Y-97901898D01*
X217610000Y-97701939D01*
X217610000Y-97498061D01*
X217570226Y-97298102D01*
X217492205Y-97109744D01*
X217378937Y-96940226D01*
X217286200Y-96847489D01*
X217286200Y-96127511D01*
X217378937Y-96034774D01*
X217492205Y-95865256D01*
X217570226Y-95676898D01*
X217610000Y-95476939D01*
X217610000Y-95273061D01*
X217570226Y-95073102D01*
X217492205Y-94884744D01*
X217378937Y-94715226D01*
X217234774Y-94571063D01*
X217065256Y-94457795D01*
X216876898Y-94379774D01*
X216676939Y-94340000D01*
X216473061Y-94340000D01*
X216273102Y-94379774D01*
X216084744Y-94457795D01*
X215915226Y-94571063D01*
X215771063Y-94715226D01*
X215657795Y-94884744D01*
X215579774Y-95073102D01*
X215540000Y-95273061D01*
X214365650Y-95273061D01*
X214428937Y-95209774D01*
X214542205Y-95040256D01*
X214620226Y-94851898D01*
X214660000Y-94651939D01*
X214660000Y-94448061D01*
X214620226Y-94248102D01*
X214542205Y-94059744D01*
X214428937Y-93890226D01*
X214336200Y-93797489D01*
X214336200Y-89727511D01*
X214428937Y-89634774D01*
X214542205Y-89465256D01*
X214620226Y-89276898D01*
X214660000Y-89076939D01*
X214660000Y-88873061D01*
X214620226Y-88673102D01*
X214542205Y-88484744D01*
X214428937Y-88315226D01*
X214284774Y-88171063D01*
X214138104Y-88073061D01*
X214890000Y-88073061D01*
X214890000Y-88276939D01*
X214929774Y-88476898D01*
X215007795Y-88665256D01*
X215121063Y-88834774D01*
X215213800Y-88927511D01*
X215213801Y-89497488D01*
X215121063Y-89590226D01*
X215007795Y-89759744D01*
X214929774Y-89948102D01*
X214890000Y-90148061D01*
X214890000Y-90351939D01*
X214929774Y-90551898D01*
X215007795Y-90740256D01*
X215121063Y-90909774D01*
X215265226Y-91053937D01*
X215434744Y-91167205D01*
X215623102Y-91245226D01*
X215823061Y-91285000D01*
X216026939Y-91285000D01*
X216226898Y-91245226D01*
X216415256Y-91167205D01*
X216584774Y-91053937D01*
X216728937Y-90909774D01*
X216842205Y-90740256D01*
X216920226Y-90551898D01*
X216960000Y-90351939D01*
X216960000Y-90148061D01*
X216920226Y-89948102D01*
X216842205Y-89759744D01*
X216728937Y-89590226D01*
X216636200Y-89497489D01*
X216636200Y-88927511D01*
X216728937Y-88834774D01*
X216842205Y-88665256D01*
X216920226Y-88476898D01*
X216945161Y-88351539D01*
X216976898Y-88345226D01*
X217165256Y-88267205D01*
X217334774Y-88153937D01*
X217478937Y-88009774D01*
X217592205Y-87840256D01*
X217670226Y-87651898D01*
X217710000Y-87451939D01*
X217710000Y-87248061D01*
X217670226Y-87048102D01*
X217592205Y-86859744D01*
X217478937Y-86690226D01*
X217386200Y-86597489D01*
X217386200Y-86077511D01*
X217478937Y-85984774D01*
X217592205Y-85815256D01*
X217670226Y-85626898D01*
X217710000Y-85426939D01*
X217710000Y-85223061D01*
X217670226Y-85023102D01*
X217592205Y-84834744D01*
X217478937Y-84665226D01*
X217334774Y-84521063D01*
X217165256Y-84407795D01*
X216976898Y-84329774D01*
X216776939Y-84290000D01*
X216573061Y-84290000D01*
X216373102Y-84329774D01*
X216184744Y-84407795D01*
X216015226Y-84521063D01*
X215871063Y-84665226D01*
X215757795Y-84834744D01*
X215679774Y-85023102D01*
X215640000Y-85223061D01*
X215640000Y-85426939D01*
X215679774Y-85626898D01*
X215757795Y-85815256D01*
X215871063Y-85984774D01*
X215963801Y-86077512D01*
X215963800Y-86597489D01*
X215871063Y-86690226D01*
X215757795Y-86859744D01*
X215679774Y-87048102D01*
X215654839Y-87173461D01*
X215623102Y-87179774D01*
X215434744Y-87257795D01*
X215265226Y-87371063D01*
X215121063Y-87515226D01*
X215007795Y-87684744D01*
X214929774Y-87873102D01*
X214890000Y-88073061D01*
X214138104Y-88073061D01*
X214115256Y-88057795D01*
X213926898Y-87979774D01*
X213726939Y-87940000D01*
X213523061Y-87940000D01*
X213323102Y-87979774D01*
X213134744Y-88057795D01*
X212965226Y-88171063D01*
X212821063Y-88315226D01*
X212707795Y-88484744D01*
X212629774Y-88673102D01*
X212590000Y-88873061D01*
X212590000Y-89076939D01*
X212629774Y-89276898D01*
X212707795Y-89465256D01*
X212821063Y-89634774D01*
X212913800Y-89727511D01*
X212913801Y-93797488D01*
X212821063Y-93890226D01*
X212707795Y-94059744D01*
X212629774Y-94248102D01*
X212590000Y-94448061D01*
X212590000Y-94651939D01*
X212629774Y-94851898D01*
X212707795Y-95040256D01*
X212821063Y-95209774D01*
X212859026Y-95247737D01*
X212834744Y-95257795D01*
X212665226Y-95371063D01*
X212521063Y-95515226D01*
X212407795Y-95684744D01*
X212329774Y-95873102D01*
X212316467Y-95940000D01*
X212298061Y-95940000D01*
X212098102Y-95979774D01*
X211909744Y-96057795D01*
X211740226Y-96171063D01*
X211596063Y-96315226D01*
X211482795Y-96484744D01*
X211404774Y-96673102D01*
X211365000Y-96873061D01*
X208286200Y-96873061D01*
X208286200Y-96102511D01*
X208353937Y-96034774D01*
X208467205Y-95865256D01*
X208545226Y-95676898D01*
X208585000Y-95476939D01*
X208585000Y-95273061D01*
X208545226Y-95073102D01*
X208467205Y-94884744D01*
X208353937Y-94715226D01*
X208209774Y-94571063D01*
X208040256Y-94457795D01*
X207851898Y-94379774D01*
X207651939Y-94340000D01*
X207561200Y-94340000D01*
X207561200Y-88927511D01*
X207653937Y-88834774D01*
X207767205Y-88665256D01*
X207845226Y-88476898D01*
X207885000Y-88276939D01*
X207885000Y-88073061D01*
X207845226Y-87873102D01*
X207767205Y-87684744D01*
X207717263Y-87610000D01*
X207801939Y-87610000D01*
X208001898Y-87570226D01*
X208190256Y-87492205D01*
X208359774Y-87378937D01*
X208503937Y-87234774D01*
X208617205Y-87065256D01*
X208695226Y-86876898D01*
X208735000Y-86676939D01*
X208735000Y-86473061D01*
X208695226Y-86273102D01*
X208617205Y-86084744D01*
X208503937Y-85915226D01*
X208411200Y-85822489D01*
X208411200Y-79677511D01*
X208503937Y-79584774D01*
X208617205Y-79415256D01*
X208695226Y-79226898D01*
X208735000Y-79026939D01*
X208735000Y-78823061D01*
X208695226Y-78623102D01*
X208617205Y-78434744D01*
X208503937Y-78265226D01*
X208359774Y-78121063D01*
X208190256Y-78007795D01*
X208001898Y-77929774D01*
X207801939Y-77890000D01*
X207598061Y-77890000D01*
X207398102Y-77929774D01*
X207209744Y-78007795D01*
X207040226Y-78121063D01*
X206896063Y-78265226D01*
X206782795Y-78434744D01*
X206704774Y-78623102D01*
X206665000Y-78823061D01*
X206665000Y-79026939D01*
X206704774Y-79226898D01*
X206782795Y-79415256D01*
X206896063Y-79584774D01*
X206988800Y-79677511D01*
X206988801Y-85392234D01*
X206903937Y-85265226D01*
X206759774Y-85121063D01*
X206590256Y-85007795D01*
X206401898Y-84929774D01*
X206201939Y-84890000D01*
X205998061Y-84890000D01*
X205798102Y-84929774D01*
X205761200Y-84945059D01*
X205761200Y-78502511D01*
X205853937Y-78409774D01*
X205967205Y-78240256D01*
X206045226Y-78051898D01*
X206085000Y-77851939D01*
X206085000Y-77648061D01*
X206045226Y-77448102D01*
X205967205Y-77259744D01*
X205853937Y-77090226D01*
X205709774Y-76946063D01*
X205540256Y-76832795D01*
X205351898Y-76754774D01*
X205151939Y-76715000D01*
X204948061Y-76715000D01*
X204748102Y-76754774D01*
X204743188Y-76756809D01*
X204743188Y-76595523D01*
X204835925Y-76502786D01*
X204949193Y-76333268D01*
X204977128Y-76265827D01*
X205048102Y-76295226D01*
X205248061Y-76335000D01*
X205451939Y-76335000D01*
X205651898Y-76295226D01*
X205840256Y-76217205D01*
X206009774Y-76103937D01*
X206102511Y-76011200D01*
X206752305Y-76011200D01*
X206740000Y-76073061D01*
X206740000Y-76276939D01*
X206779774Y-76476898D01*
X206857795Y-76665256D01*
X206971063Y-76834774D01*
X207115226Y-76978937D01*
X207284744Y-77092205D01*
X207473102Y-77170226D01*
X207673061Y-77210000D01*
X207804213Y-77210000D01*
X209281003Y-78686791D01*
X209303274Y-78713928D01*
X209411568Y-78802803D01*
X209535120Y-78868843D01*
X209669181Y-78909510D01*
X209773665Y-78919801D01*
X209773674Y-78919801D01*
X209789248Y-78921335D01*
X209759010Y-78966589D01*
X209647068Y-79236842D01*
X209590000Y-79523740D01*
X209590000Y-79816260D01*
X209647068Y-80103158D01*
X209759010Y-80373411D01*
X209921525Y-80616632D01*
X210128368Y-80823475D01*
X210302760Y-80940000D01*
X210128368Y-81056525D01*
X209921525Y-81263368D01*
X209759010Y-81506589D01*
X209647068Y-81776842D01*
X209590000Y-82063740D01*
X209590000Y-82356260D01*
X209647068Y-82643158D01*
X209759010Y-82913411D01*
X209921525Y-83156632D01*
X210128368Y-83363475D01*
X210371589Y-83525990D01*
X210641842Y-83637932D01*
X210928740Y-83695000D01*
X211221260Y-83695000D01*
X211508158Y-83637932D01*
X211778411Y-83525990D01*
X212021632Y-83363475D01*
X212228475Y-83156632D01*
X212346100Y-82980594D01*
X212517412Y-83210269D01*
X212733645Y-83405178D01*
X212983748Y-83554157D01*
X213258109Y-83651481D01*
X213488000Y-83530814D01*
X213488000Y-82337000D01*
X213742000Y-82337000D01*
X213742000Y-83530814D01*
X213971891Y-83651481D01*
X214246252Y-83554157D01*
X214496355Y-83405178D01*
X214712588Y-83210269D01*
X214886641Y-82976920D01*
X215011825Y-82714099D01*
X215056476Y-82566890D01*
X214935155Y-82337000D01*
X213742000Y-82337000D01*
X213488000Y-82337000D01*
X213468000Y-82337000D01*
X213468000Y-82083000D01*
X213488000Y-82083000D01*
X213488000Y-82063000D01*
X213742000Y-82063000D01*
X213742000Y-82083000D01*
X214935155Y-82083000D01*
X215056476Y-81853110D01*
X215011825Y-81705901D01*
X214886641Y-81443080D01*
X214712588Y-81209731D01*
X214496355Y-81014822D01*
X214379466Y-80945195D01*
X214561632Y-80823475D01*
X214768475Y-80616632D01*
X214930990Y-80373411D01*
X215042932Y-80103158D01*
X215100000Y-79816260D01*
X215100000Y-79523740D01*
X215042932Y-79236842D01*
X214930990Y-78966589D01*
X214768475Y-78723368D01*
X214561632Y-78516525D01*
X214387240Y-78400000D01*
X214561632Y-78283475D01*
X214768475Y-78076632D01*
X214930990Y-77833411D01*
X215042932Y-77563158D01*
X215100000Y-77276260D01*
X215100000Y-76983740D01*
X215093776Y-76952449D01*
X216875000Y-76952449D01*
X216875000Y-77337551D01*
X216950130Y-77715252D01*
X217097502Y-78071040D01*
X217311453Y-78391240D01*
X217583760Y-78663547D01*
X217903960Y-78877498D01*
X218259748Y-79024870D01*
X218637449Y-79100000D01*
X219022551Y-79100000D01*
X219400252Y-79024870D01*
X219756040Y-78877498D01*
X220076240Y-78663547D01*
X220348547Y-78391240D01*
X220562498Y-78071040D01*
X220709870Y-77715252D01*
X220785000Y-77337551D01*
X220785000Y-76952449D01*
X220709870Y-76574748D01*
X220562498Y-76218960D01*
X220348547Y-75898760D01*
X220076240Y-75626453D01*
X219917541Y-75520413D01*
X223869192Y-75520413D01*
X223964956Y-75784814D01*
X224254571Y-75925704D01*
X224566108Y-76007384D01*
X224887595Y-76026718D01*
X225206675Y-75982961D01*
X225511088Y-75877795D01*
X225685044Y-75784814D01*
X225780808Y-75520413D01*
X224825000Y-74564605D01*
X223869192Y-75520413D01*
X219917541Y-75520413D01*
X219756040Y-75412502D01*
X219400252Y-75265130D01*
X219022551Y-75190000D01*
X218637449Y-75190000D01*
X218259748Y-75265130D01*
X217903960Y-75412502D01*
X217583760Y-75626453D01*
X217311453Y-75898760D01*
X217097502Y-76218960D01*
X216950130Y-76574748D01*
X216875000Y-76952449D01*
X215093776Y-76952449D01*
X215042932Y-76696842D01*
X214930990Y-76426589D01*
X214768475Y-76183368D01*
X214561632Y-75976525D01*
X214387240Y-75860000D01*
X214561632Y-75743475D01*
X214768475Y-75536632D01*
X214930990Y-75293411D01*
X215042932Y-75023158D01*
X215100000Y-74736260D01*
X215100000Y-74447595D01*
X223183282Y-74447595D01*
X223227039Y-74766675D01*
X223332205Y-75071088D01*
X223425186Y-75245044D01*
X223689587Y-75340808D01*
X224645395Y-74385000D01*
X225004605Y-74385000D01*
X225960413Y-75340808D01*
X226224814Y-75245044D01*
X226365704Y-74955429D01*
X226447384Y-74643892D01*
X226466718Y-74322405D01*
X226422961Y-74003325D01*
X226317795Y-73698912D01*
X226224814Y-73524956D01*
X225960413Y-73429192D01*
X225004605Y-74385000D01*
X224645395Y-74385000D01*
X223689587Y-73429192D01*
X223425186Y-73524956D01*
X223284296Y-73814571D01*
X223202616Y-74126108D01*
X223183282Y-74447595D01*
X215100000Y-74447595D01*
X215100000Y-74443740D01*
X215042932Y-74156842D01*
X214930990Y-73886589D01*
X214768475Y-73643368D01*
X214561632Y-73436525D01*
X214387240Y-73320000D01*
X214492620Y-73249587D01*
X223869192Y-73249587D01*
X224825000Y-74205395D01*
X225780808Y-73249587D01*
X225685044Y-72985186D01*
X225395429Y-72844296D01*
X225083892Y-72762616D01*
X224762405Y-72743282D01*
X224443325Y-72787039D01*
X224138912Y-72892205D01*
X223964956Y-72985186D01*
X223869192Y-73249587D01*
X214492620Y-73249587D01*
X214561632Y-73203475D01*
X214768475Y-72996632D01*
X214930990Y-72753411D01*
X215042932Y-72483158D01*
X215100000Y-72196260D01*
X215100000Y-71903740D01*
X215042932Y-71616842D01*
X214930990Y-71346589D01*
X214768475Y-71103368D01*
X214561632Y-70896525D01*
X214318411Y-70734010D01*
X214048158Y-70622068D01*
X213761260Y-70565000D01*
X213468740Y-70565000D01*
X213191028Y-70620241D01*
X212642602Y-70071814D01*
X212620327Y-70044673D01*
X212512033Y-69955798D01*
X212388481Y-69889758D01*
X212254420Y-69849091D01*
X212149936Y-69838800D01*
X212149926Y-69838800D01*
X212115000Y-69835360D01*
X212080074Y-69838800D01*
X209609928Y-69838800D01*
X209575000Y-69835360D01*
X209540071Y-69838800D01*
X209540064Y-69838800D01*
X209435580Y-69849091D01*
X209301519Y-69889758D01*
X209177967Y-69955798D01*
X209069673Y-70044673D01*
X209047402Y-70071810D01*
X208480413Y-70638800D01*
X206902511Y-70638800D01*
X206809774Y-70546063D01*
X206640256Y-70432795D01*
X206451898Y-70354774D01*
X206251939Y-70315000D01*
X206048061Y-70315000D01*
X205848102Y-70354774D01*
X205659744Y-70432795D01*
X205490226Y-70546063D01*
X205346063Y-70690226D01*
X205232795Y-70859744D01*
X205154774Y-71048102D01*
X205115000Y-71248061D01*
X205115000Y-71451939D01*
X205154774Y-71651898D01*
X205232795Y-71840256D01*
X205346063Y-72009774D01*
X205490226Y-72153937D01*
X205659744Y-72267205D01*
X205848102Y-72345226D01*
X206048061Y-72385000D01*
X206251939Y-72385000D01*
X206451898Y-72345226D01*
X206640256Y-72267205D01*
X206809774Y-72153937D01*
X206902511Y-72061200D01*
X208740074Y-72061200D01*
X208775000Y-72064640D01*
X208809926Y-72061200D01*
X208809936Y-72061200D01*
X208914420Y-72050909D01*
X209048481Y-72010242D01*
X209172033Y-71944202D01*
X209280327Y-71855327D01*
X209302602Y-71828186D01*
X209586928Y-71543859D01*
X209586928Y-72900000D01*
X209599188Y-73024482D01*
X209635498Y-73144180D01*
X209694463Y-73254494D01*
X209773815Y-73351185D01*
X209870506Y-73430537D01*
X209980820Y-73489502D01*
X210053380Y-73511513D01*
X209921525Y-73643368D01*
X209759010Y-73886589D01*
X209647068Y-74156842D01*
X209590000Y-74443740D01*
X209590000Y-74736260D01*
X209647068Y-75023158D01*
X209694968Y-75138800D01*
X209519588Y-75138800D01*
X209202601Y-74821814D01*
X209180327Y-74794673D01*
X209072033Y-74705798D01*
X208948481Y-74639758D01*
X208814420Y-74599091D01*
X208709936Y-74588800D01*
X208709926Y-74588800D01*
X208675000Y-74585360D01*
X208640074Y-74588800D01*
X206102511Y-74588800D01*
X206009774Y-74496063D01*
X205840256Y-74382795D01*
X205651898Y-74304774D01*
X205451939Y-74265000D01*
X205248061Y-74265000D01*
X205048102Y-74304774D01*
X204859744Y-74382795D01*
X204690226Y-74496063D01*
X204546063Y-74640226D01*
X204432795Y-74809744D01*
X204404860Y-74877185D01*
X204333886Y-74847786D01*
X204133927Y-74808012D01*
X204086628Y-74808012D01*
X204120227Y-74726897D01*
X204160001Y-74526938D01*
X204160001Y-74323060D01*
X204120227Y-74123101D01*
X204042206Y-73934743D01*
X203928938Y-73765225D01*
X203784775Y-73621062D01*
X203615257Y-73507794D01*
X203426899Y-73429773D01*
X203226940Y-73389999D01*
X203023062Y-73389999D01*
X202823103Y-73429773D01*
X202634745Y-73507794D01*
X202465227Y-73621062D01*
X202321064Y-73765225D01*
X202207796Y-73934743D01*
X202129775Y-74123101D01*
X202090001Y-74323060D01*
X202090001Y-74526938D01*
X202129775Y-74726897D01*
X202207796Y-74915255D01*
X202321064Y-75084773D01*
X202413801Y-75177510D01*
X202413802Y-83990000D01*
X202394462Y-83990000D01*
X202194503Y-84029774D01*
X202006145Y-84107795D01*
X201836627Y-84221063D01*
X201827465Y-84230225D01*
X201767205Y-84084744D01*
X201653937Y-83915226D01*
X201509774Y-83771063D01*
X201340256Y-83657795D01*
X201151898Y-83579774D01*
X200951939Y-83540000D01*
X200748061Y-83540000D01*
X200548102Y-83579774D01*
X200359744Y-83657795D01*
X200190226Y-83771063D01*
X200046063Y-83915226D01*
X199932795Y-84084744D01*
X199854774Y-84273102D01*
X199815000Y-84473061D01*
X199815000Y-84676939D01*
X199854774Y-84876898D01*
X199932795Y-85065256D01*
X200046063Y-85234774D01*
X200138800Y-85327511D01*
X200138801Y-110811405D01*
X200094202Y-110727967D01*
X200062567Y-110689420D01*
X200005327Y-110619673D01*
X199978185Y-110597398D01*
X199786200Y-110405413D01*
X199786200Y-106802511D01*
X199878937Y-106709774D01*
X199992205Y-106540256D01*
X200070226Y-106351898D01*
X200110000Y-106151939D01*
X200110000Y-105948061D01*
X200070226Y-105748102D01*
X199992205Y-105559744D01*
X199878937Y-105390226D01*
X199734774Y-105246063D01*
X199565256Y-105132795D01*
X199536200Y-105120760D01*
X199536200Y-98277511D01*
X199628937Y-98184774D01*
X199742205Y-98015256D01*
X199820226Y-97826898D01*
X199860000Y-97626939D01*
X199860000Y-97423061D01*
X199820226Y-97223102D01*
X199742205Y-97034744D01*
X199628937Y-96865226D01*
X199484774Y-96721063D01*
X199315256Y-96607795D01*
X199126898Y-96529774D01*
X198926939Y-96490000D01*
X198723061Y-96490000D01*
X198613600Y-96511773D01*
X198613600Y-96398061D01*
X198573826Y-96198102D01*
X198495805Y-96009744D01*
X198382537Y-95840226D01*
X198238374Y-95696063D01*
X198068856Y-95582795D01*
X197880498Y-95504774D01*
X197680539Y-95465000D01*
X197476661Y-95465000D01*
X197276702Y-95504774D01*
X197088344Y-95582795D01*
X196918826Y-95696063D01*
X196774663Y-95840226D01*
X196768849Y-95848928D01*
X196601898Y-95779774D01*
X196401939Y-95740000D01*
X196198061Y-95740000D01*
X195998102Y-95779774D01*
X195809744Y-95857795D01*
X195650000Y-95964532D01*
X195490256Y-95857795D01*
X195301898Y-95779774D01*
X195101939Y-95740000D01*
X194898061Y-95740000D01*
X194698102Y-95779774D01*
X194509744Y-95857795D01*
X194340226Y-95971063D01*
X194196063Y-96115226D01*
X194082795Y-96284744D01*
X194004774Y-96473102D01*
X193965000Y-96673061D01*
X193965000Y-96876939D01*
X194004774Y-97076898D01*
X194082795Y-97265256D01*
X194196063Y-97434774D01*
X194288800Y-97527511D01*
X194288801Y-101297488D01*
X194196063Y-101390226D01*
X194082795Y-101559744D01*
X194004774Y-101748102D01*
X193965000Y-101948061D01*
X193965000Y-102151939D01*
X194004774Y-102351898D01*
X194082795Y-102540256D01*
X194196063Y-102709774D01*
X194340226Y-102853937D01*
X194509744Y-102967205D01*
X194628063Y-103016215D01*
X194637515Y-103063732D01*
X194715536Y-103252090D01*
X194773079Y-103338210D01*
X194771063Y-103340226D01*
X194657795Y-103509744D01*
X194579774Y-103698102D01*
X194540000Y-103898061D01*
X194540000Y-104101939D01*
X194579774Y-104301898D01*
X194657795Y-104490256D01*
X194771063Y-104659774D01*
X194863800Y-104752511D01*
X194863801Y-111111400D01*
X194698061Y-111111400D01*
X194498102Y-111151174D01*
X194363574Y-111206898D01*
X194215256Y-111107795D01*
X194026898Y-111029774D01*
X193826939Y-110990000D01*
X193623061Y-110990000D01*
X193423102Y-111029774D01*
X193234744Y-111107795D01*
X193065226Y-111221063D01*
X193055522Y-111230767D01*
X193053169Y-111229195D01*
X192864811Y-111151174D01*
X192664852Y-111111400D01*
X192460974Y-111111400D01*
X192368504Y-111129793D01*
X192309774Y-111071063D01*
X192140256Y-110957795D01*
X191951898Y-110879774D01*
X191751939Y-110840000D01*
X191548061Y-110840000D01*
X191348102Y-110879774D01*
X191159744Y-110957795D01*
X190990226Y-111071063D01*
X190946584Y-111114705D01*
X190801898Y-111054774D01*
X190601939Y-111015000D01*
X190398061Y-111015000D01*
X190198102Y-111054774D01*
X190009744Y-111132795D01*
X189840226Y-111246063D01*
X189720810Y-111365479D01*
X189703937Y-111340226D01*
X189559774Y-111196063D01*
X189390256Y-111082795D01*
X189201898Y-111004774D01*
X189001939Y-110965000D01*
X188798061Y-110965000D01*
X188598102Y-111004774D01*
X188409744Y-111082795D01*
X188240226Y-111196063D01*
X188096063Y-111340226D01*
X187982795Y-111509744D01*
X187904774Y-111698102D01*
X187865000Y-111898061D01*
X187865000Y-112101939D01*
X187904774Y-112301898D01*
X187982795Y-112490256D01*
X188063793Y-112611478D01*
X187926898Y-112554774D01*
X187726939Y-112515000D01*
X187523061Y-112515000D01*
X187323102Y-112554774D01*
X187134744Y-112632795D01*
X186965226Y-112746063D01*
X186872489Y-112838800D01*
X185261393Y-112838800D01*
X185228937Y-112790226D01*
X185084774Y-112646063D01*
X184915256Y-112532795D01*
X184726898Y-112454774D01*
X184526939Y-112415000D01*
X184323061Y-112415000D01*
X184123102Y-112454774D01*
X183934744Y-112532795D01*
X183765226Y-112646063D01*
X183621063Y-112790226D01*
X183507795Y-112959744D01*
X183429774Y-113148102D01*
X183390000Y-113348061D01*
X183390000Y-113551939D01*
X183429774Y-113751898D01*
X183507795Y-113940256D01*
X183621063Y-114109774D01*
X183765226Y-114253937D01*
X183934744Y-114367205D01*
X184123102Y-114445226D01*
X184323061Y-114485000D01*
X184526939Y-114485000D01*
X184726898Y-114445226D01*
X184915256Y-114367205D01*
X185073904Y-114261200D01*
X186872489Y-114261200D01*
X186965226Y-114353937D01*
X187134744Y-114467205D01*
X187323102Y-114545226D01*
X187523061Y-114585000D01*
X187726939Y-114585000D01*
X187926898Y-114545226D01*
X188017599Y-114507656D01*
X187982795Y-114559744D01*
X187904774Y-114748102D01*
X187865000Y-114948061D01*
X187865000Y-115151939D01*
X187904774Y-115351898D01*
X187982795Y-115540256D01*
X188096063Y-115709774D01*
X188240226Y-115853937D01*
X188409744Y-115967205D01*
X188598102Y-116045226D01*
X188798061Y-116085000D01*
X189001939Y-116085000D01*
X189201898Y-116045226D01*
X189390256Y-115967205D01*
X189559774Y-115853937D01*
X189703937Y-115709774D01*
X189817205Y-115540256D01*
X189895226Y-115351898D01*
X189935000Y-115151939D01*
X189935000Y-114948061D01*
X189895226Y-114748102D01*
X189817205Y-114559744D01*
X189703937Y-114390226D01*
X189611200Y-114297489D01*
X189611200Y-112752511D01*
X189679190Y-112684521D01*
X189696063Y-112709774D01*
X189840226Y-112853937D01*
X190009744Y-112967205D01*
X190198102Y-113045226D01*
X190288800Y-113063267D01*
X190288801Y-116740064D01*
X190285360Y-116775000D01*
X190288801Y-116809936D01*
X190299092Y-116914420D01*
X190323231Y-116993995D01*
X190339759Y-117048481D01*
X190405798Y-117172032D01*
X190472403Y-117253190D01*
X190494674Y-117280327D01*
X190521810Y-117302597D01*
X191047402Y-117828190D01*
X191069673Y-117855327D01*
X191096809Y-117877597D01*
X191177967Y-117944202D01*
X191301518Y-118010242D01*
X191375866Y-118032795D01*
X191435580Y-118050909D01*
X191540064Y-118061200D01*
X191540071Y-118061200D01*
X191575000Y-118064640D01*
X191609928Y-118061200D01*
X195582278Y-118061200D01*
X195565000Y-118148061D01*
X195565000Y-118351939D01*
X195604774Y-118551898D01*
X195682795Y-118740256D01*
X195796063Y-118909774D01*
X195888800Y-119002511D01*
X195888801Y-119372488D01*
X195771063Y-119490226D01*
X195657795Y-119659744D01*
X195623060Y-119743600D01*
X195591349Y-119743600D01*
X195391390Y-119783374D01*
X195203032Y-119861395D01*
X195033514Y-119974663D01*
X194940777Y-120067400D01*
X189173188Y-120067400D01*
X187410000Y-118304213D01*
X187410000Y-118173061D01*
X187370226Y-117973102D01*
X187292205Y-117784744D01*
X187178937Y-117615226D01*
X187034774Y-117471063D01*
X186865256Y-117357795D01*
X186676898Y-117279774D01*
X186476939Y-117240000D01*
X186273061Y-117240000D01*
X186073102Y-117279774D01*
X185946094Y-117332383D01*
X185934774Y-117321063D01*
X185765256Y-117207795D01*
X185576898Y-117129774D01*
X185376939Y-117090000D01*
X185173061Y-117090000D01*
X184973102Y-117129774D01*
X184784744Y-117207795D01*
X184615226Y-117321063D01*
X184471063Y-117465226D01*
X184466704Y-117471749D01*
X184428937Y-117415226D01*
X184284774Y-117271063D01*
X184115256Y-117157795D01*
X183926898Y-117079774D01*
X183726939Y-117040000D01*
X183523061Y-117040000D01*
X183323102Y-117079774D01*
X183134744Y-117157795D01*
X182965226Y-117271063D01*
X182821063Y-117415226D01*
X182707795Y-117584744D01*
X182629774Y-117773102D01*
X182590000Y-117973061D01*
X151585000Y-117973061D01*
X151585000Y-104123061D01*
X174565000Y-104123061D01*
X174565000Y-104326939D01*
X174604774Y-104526898D01*
X174682795Y-104715256D01*
X174796063Y-104884774D01*
X174940226Y-105028937D01*
X175109744Y-105142205D01*
X175298102Y-105220226D01*
X175498061Y-105260000D01*
X175701939Y-105260000D01*
X175901898Y-105220226D01*
X176090256Y-105142205D01*
X176259774Y-105028937D01*
X176403937Y-104884774D01*
X176517205Y-104715256D01*
X176595226Y-104526898D01*
X176635000Y-104326939D01*
X176635000Y-104123061D01*
X176595226Y-103923102D01*
X176564143Y-103848061D01*
X181490000Y-103848061D01*
X181490000Y-104051939D01*
X181529774Y-104251898D01*
X181607795Y-104440256D01*
X181721063Y-104609774D01*
X181813800Y-104702511D01*
X181813801Y-106972488D01*
X181721063Y-107065226D01*
X181607795Y-107234744D01*
X181529774Y-107423102D01*
X181490000Y-107623061D01*
X181490000Y-107826939D01*
X181529774Y-108026898D01*
X181607795Y-108215256D01*
X181721063Y-108384774D01*
X181865226Y-108528937D01*
X182034744Y-108642205D01*
X182223102Y-108720226D01*
X182423061Y-108760000D01*
X182626939Y-108760000D01*
X182826898Y-108720226D01*
X183015256Y-108642205D01*
X183184774Y-108528937D01*
X183328937Y-108384774D01*
X183442205Y-108215256D01*
X183520226Y-108026898D01*
X183539984Y-107927569D01*
X183576898Y-107920226D01*
X183765256Y-107842205D01*
X183934774Y-107728937D01*
X184078937Y-107584774D01*
X184192205Y-107415256D01*
X184270226Y-107226898D01*
X184310000Y-107026939D01*
X184310000Y-106823061D01*
X184270226Y-106623102D01*
X184192205Y-106434744D01*
X184078937Y-106265226D01*
X184036200Y-106222489D01*
X184036200Y-103952511D01*
X184128937Y-103859774D01*
X184242205Y-103690256D01*
X184320226Y-103501898D01*
X184360000Y-103301939D01*
X184360000Y-103098061D01*
X184320226Y-102898102D01*
X184242205Y-102709744D01*
X184128937Y-102540226D01*
X183984774Y-102396063D01*
X183815256Y-102282795D01*
X183626898Y-102204774D01*
X183426939Y-102165000D01*
X183223061Y-102165000D01*
X183023102Y-102204774D01*
X182834744Y-102282795D01*
X182665226Y-102396063D01*
X182521063Y-102540226D01*
X182407795Y-102709744D01*
X182329774Y-102898102D01*
X182322431Y-102935016D01*
X182223102Y-102954774D01*
X182034744Y-103032795D01*
X181865226Y-103146063D01*
X181721063Y-103290226D01*
X181607795Y-103459744D01*
X181529774Y-103648102D01*
X181490000Y-103848061D01*
X176564143Y-103848061D01*
X176517205Y-103734744D01*
X176403937Y-103565226D01*
X176259774Y-103421063D01*
X176090256Y-103307795D01*
X175901898Y-103229774D01*
X175701939Y-103190000D01*
X175498061Y-103190000D01*
X175298102Y-103229774D01*
X175109744Y-103307795D01*
X174940226Y-103421063D01*
X174796063Y-103565226D01*
X174682795Y-103734744D01*
X174604774Y-103923102D01*
X174565000Y-104123061D01*
X151585000Y-104123061D01*
X151585000Y-96373061D01*
X164090000Y-96373061D01*
X164090000Y-96576939D01*
X164129774Y-96776898D01*
X164207795Y-96965256D01*
X164321063Y-97134774D01*
X164413801Y-97227512D01*
X164413800Y-99772489D01*
X164321063Y-99865226D01*
X164207795Y-100034744D01*
X164129774Y-100223102D01*
X164090000Y-100423061D01*
X164090000Y-100626939D01*
X164129774Y-100826898D01*
X164207795Y-101015256D01*
X164321063Y-101184774D01*
X164465226Y-101328937D01*
X164634744Y-101442205D01*
X164823102Y-101520226D01*
X165023061Y-101560000D01*
X165226939Y-101560000D01*
X165426898Y-101520226D01*
X165615256Y-101442205D01*
X165784774Y-101328937D01*
X165928937Y-101184774D01*
X166042205Y-101015256D01*
X166120226Y-100826898D01*
X166160000Y-100626939D01*
X166160000Y-100423061D01*
X166120226Y-100223102D01*
X166042205Y-100034744D01*
X165928937Y-99865226D01*
X165836200Y-99772489D01*
X165836200Y-97227511D01*
X165928937Y-97134774D01*
X166042205Y-96965256D01*
X166120226Y-96776898D01*
X166160000Y-96576939D01*
X166160000Y-96373061D01*
X166120226Y-96173102D01*
X166042205Y-95984744D01*
X165928937Y-95815226D01*
X165784774Y-95671063D01*
X165615256Y-95557795D01*
X165426898Y-95479774D01*
X165226939Y-95440000D01*
X165023061Y-95440000D01*
X164823102Y-95479774D01*
X164634744Y-95557795D01*
X164465226Y-95671063D01*
X164321063Y-95815226D01*
X164207795Y-95984744D01*
X164129774Y-96173102D01*
X164090000Y-96373061D01*
X151585000Y-96373061D01*
X151585000Y-76957449D01*
X151725000Y-76957449D01*
X151725000Y-77342551D01*
X151800130Y-77720252D01*
X151947502Y-78076040D01*
X152161453Y-78396240D01*
X152433760Y-78668547D01*
X152753960Y-78882498D01*
X153109748Y-79029870D01*
X153487449Y-79105000D01*
X153872551Y-79105000D01*
X154250252Y-79029870D01*
X154606040Y-78882498D01*
X154926240Y-78668547D01*
X155198547Y-78396240D01*
X155412498Y-78076040D01*
X155559870Y-77720252D01*
X155635000Y-77342551D01*
X155635000Y-76957449D01*
X155559870Y-76579748D01*
X155412498Y-76223960D01*
X155198547Y-75903760D01*
X154926240Y-75631453D01*
X154606040Y-75417502D01*
X154250252Y-75270130D01*
X153872551Y-75195000D01*
X153487449Y-75195000D01*
X153109748Y-75270130D01*
X152753960Y-75417502D01*
X152433760Y-75631453D01*
X152161453Y-75903760D01*
X151947502Y-76223960D01*
X151800130Y-76579748D01*
X151725000Y-76957449D01*
X151585000Y-76957449D01*
X151585000Y-73400000D01*
X158036928Y-73400000D01*
X158036928Y-75400000D01*
X158049188Y-75524482D01*
X158085498Y-75644180D01*
X158144463Y-75754494D01*
X158223815Y-75851185D01*
X158320506Y-75930537D01*
X158430820Y-75989502D01*
X158550518Y-76025812D01*
X158675000Y-76038072D01*
X160675000Y-76038072D01*
X160799482Y-76025812D01*
X160919180Y-75989502D01*
X161029494Y-75930537D01*
X161126185Y-75851185D01*
X161205537Y-75754494D01*
X161264502Y-75644180D01*
X161300812Y-75524482D01*
X161313072Y-75400000D01*
X161313072Y-73400000D01*
X161300812Y-73275518D01*
X161264502Y-73155820D01*
X161205537Y-73045506D01*
X161126185Y-72948815D01*
X161029494Y-72869463D01*
X160919180Y-72810498D01*
X160799482Y-72774188D01*
X160675000Y-72761928D01*
X158675000Y-72761928D01*
X158550518Y-72774188D01*
X158430820Y-72810498D01*
X158320506Y-72869463D01*
X158223815Y-72948815D01*
X158144463Y-73045506D01*
X158085498Y-73155820D01*
X158049188Y-73275518D01*
X158036928Y-73400000D01*
X151585000Y-73400000D01*
X151585000Y-71248061D01*
X170040000Y-71248061D01*
X170040000Y-71451939D01*
X170079774Y-71651898D01*
X170157795Y-71840256D01*
X170271063Y-72009774D01*
X170363800Y-72102511D01*
X170363801Y-72890064D01*
X170363800Y-93172489D01*
X170271063Y-93265226D01*
X170157795Y-93434744D01*
X170079774Y-93623102D01*
X170040000Y-93823061D01*
X170040000Y-94026939D01*
X170079774Y-94226898D01*
X170157795Y-94415256D01*
X170271063Y-94584774D01*
X170415226Y-94728937D01*
X170584744Y-94842205D01*
X170773102Y-94920226D01*
X170973061Y-94960000D01*
X171176939Y-94960000D01*
X171376898Y-94920226D01*
X171565256Y-94842205D01*
X171734774Y-94728937D01*
X171878937Y-94584774D01*
X171992205Y-94415256D01*
X172070226Y-94226898D01*
X172110000Y-94026939D01*
X172110000Y-93823061D01*
X172070226Y-93623102D01*
X171992205Y-93434744D01*
X171878937Y-93265226D01*
X171786200Y-93172489D01*
X171786200Y-72102511D01*
X171878937Y-72009774D01*
X171992205Y-71840256D01*
X172070226Y-71651898D01*
X172110000Y-71451939D01*
X172110000Y-71248061D01*
X172070226Y-71048102D01*
X171992205Y-70859744D01*
X171878937Y-70690226D01*
X171734774Y-70546063D01*
X171565256Y-70432795D01*
X171376898Y-70354774D01*
X171176939Y-70315000D01*
X170973061Y-70315000D01*
X170773102Y-70354774D01*
X170584744Y-70432795D01*
X170415226Y-70546063D01*
X170271063Y-70690226D01*
X170157795Y-70859744D01*
X170079774Y-71048102D01*
X170040000Y-71248061D01*
X151585000Y-71248061D01*
X151585000Y-69835000D01*
X184317462Y-69835000D01*
X184290000Y-69973061D01*
M02*
