G04 #@! TF.GenerationSoftware,KiCad,Pcbnew,(5.1.5)-3*
G04 #@! TF.CreationDate,2021-02-14T15:50:31-08:00*
G04 #@! TF.ProjectId,tree,74726565-2e6b-4696-9361-645f70636258,rev?*
G04 #@! TF.SameCoordinates,Original*
G04 #@! TF.FileFunction,Legend,Top*
G04 #@! TF.FilePolarity,Positive*
%FSLAX46Y46*%
G04 Gerber Fmt 4.6, Leading zero omitted, Abs format (unit mm)*
G04 Created by KiCad (PCBNEW (5.1.5)-3) date 2021-02-14 15:50:31*
%MOMM*%
%LPD*%
G04 APERTURE LIST*
%ADD10C,0.150000*%
%ADD11C,0.300000*%
%ADD12C,0.120000*%
G04 APERTURE END LIST*
D10*
X163089285Y-96852380D02*
X163089285Y-95852380D01*
X163089285Y-96328571D02*
X163660714Y-96328571D01*
X163660714Y-96852380D02*
X163660714Y-95852380D01*
X164470238Y-96328571D02*
X164613095Y-96376190D01*
X164660714Y-96423809D01*
X164708333Y-96519047D01*
X164708333Y-96661904D01*
X164660714Y-96757142D01*
X164613095Y-96804761D01*
X164517857Y-96852380D01*
X164136904Y-96852380D01*
X164136904Y-95852380D01*
X164470238Y-95852380D01*
X164565476Y-95900000D01*
X164613095Y-95947619D01*
X164660714Y-96042857D01*
X164660714Y-96138095D01*
X164613095Y-96233333D01*
X164565476Y-96280952D01*
X164470238Y-96328571D01*
X164136904Y-96328571D01*
X174660714Y-74927380D02*
X174089285Y-74927380D01*
X174375000Y-74927380D02*
X174375000Y-73927380D01*
X174279761Y-74070238D01*
X174184523Y-74165476D01*
X174089285Y-74213095D01*
X187135714Y-100002380D02*
X186564285Y-100002380D01*
X186850000Y-100002380D02*
X186850000Y-99002380D01*
X186754761Y-99145238D01*
X186659523Y-99240476D01*
X186564285Y-99288095D01*
X168102380Y-75991666D02*
X168102380Y-75801190D01*
X168150000Y-75705952D01*
X168245238Y-75610714D01*
X168435714Y-75563095D01*
X168769047Y-75563095D01*
X168959523Y-75610714D01*
X169054761Y-75705952D01*
X169102380Y-75801190D01*
X169102380Y-75991666D01*
X169054761Y-76086904D01*
X168959523Y-76182142D01*
X168769047Y-76229761D01*
X168435714Y-76229761D01*
X168245238Y-76182142D01*
X168150000Y-76086904D01*
X168102380Y-75991666D01*
X168435714Y-75277380D02*
X168435714Y-74896428D01*
X169102380Y-75134523D02*
X168245238Y-75134523D01*
X168150000Y-75086904D01*
X168102380Y-74991666D01*
X168102380Y-74896428D01*
X168435714Y-74705952D02*
X168435714Y-74325000D01*
X169102380Y-74563095D02*
X168245238Y-74563095D01*
X168150000Y-74515476D01*
X168102380Y-74420238D01*
X168102380Y-74325000D01*
D11*
X159703571Y-79321428D02*
X159703571Y-79035714D01*
X159775000Y-78892857D01*
X159917857Y-78750000D01*
X160203571Y-78678571D01*
X160703571Y-78678571D01*
X160989285Y-78750000D01*
X161132142Y-78892857D01*
X161203571Y-79035714D01*
X161203571Y-79321428D01*
X161132142Y-79464285D01*
X160989285Y-79607142D01*
X160703571Y-79678571D01*
X160203571Y-79678571D01*
X159917857Y-79607142D01*
X159775000Y-79464285D01*
X159703571Y-79321428D01*
X160203571Y-78035714D02*
X161203571Y-78035714D01*
X160346428Y-78035714D02*
X160275000Y-77964285D01*
X160203571Y-77821428D01*
X160203571Y-77607142D01*
X160275000Y-77464285D01*
X160417857Y-77392857D01*
X161203571Y-77392857D01*
D12*
X169160000Y-90113748D02*
X169160000Y-90636252D01*
X167740000Y-90113748D02*
X167740000Y-90636252D01*
X187465000Y-96663748D02*
X187465000Y-97186252D01*
X188885000Y-96663748D02*
X188885000Y-97186252D01*
X204035000Y-80513748D02*
X204035000Y-81036252D01*
X202615000Y-80513748D02*
X202615000Y-81036252D01*
X202440000Y-91538748D02*
X202440000Y-92061252D01*
X203860000Y-91538748D02*
X203860000Y-92061252D01*
X198785000Y-107888748D02*
X198785000Y-108411252D01*
X197365000Y-107888748D02*
X197365000Y-108411252D01*
X166800000Y-97035000D02*
X169260000Y-97035000D01*
X169260000Y-97035000D02*
X169260000Y-95565000D01*
X169260000Y-95565000D02*
X166800000Y-95565000D01*
X211500000Y-124100000D02*
X210900000Y-124100000D01*
X210900000Y-124100000D02*
X210900000Y-121200000D01*
X213200000Y-124100000D02*
X213200000Y-121200000D01*
X206325000Y-124050000D02*
X206325000Y-121150000D01*
X204025000Y-124050000D02*
X204025000Y-121150000D01*
X204625000Y-124050000D02*
X204025000Y-124050000D01*
X195925000Y-124175000D02*
X195925000Y-121275000D01*
X193625000Y-124175000D02*
X193625000Y-121275000D01*
X194225000Y-124175000D02*
X193625000Y-124175000D01*
X184100000Y-124125000D02*
X183500000Y-124125000D01*
X183500000Y-124125000D02*
X183500000Y-121225000D01*
X185800000Y-124125000D02*
X185800000Y-121225000D01*
X217900000Y-88325000D02*
X220800000Y-88325000D01*
X217900000Y-86025000D02*
X220800000Y-86025000D01*
X217900000Y-86625000D02*
X217900000Y-86025000D01*
X217850000Y-94675000D02*
X217850000Y-94075000D01*
X217850000Y-94075000D02*
X220750000Y-94075000D01*
X217850000Y-96375000D02*
X220750000Y-96375000D01*
X217825000Y-102075000D02*
X217825000Y-101475000D01*
X217825000Y-101475000D02*
X220725000Y-101475000D01*
X217825000Y-103775000D02*
X220725000Y-103775000D01*
X217800000Y-111625000D02*
X220700000Y-111625000D01*
X217800000Y-109325000D02*
X220700000Y-109325000D01*
X217800000Y-109925000D02*
X217800000Y-109325000D01*
X188380000Y-78305000D02*
X188380000Y-75645000D01*
X175620000Y-78305000D02*
X188380000Y-78305000D01*
X175620000Y-75645000D02*
X188380000Y-75645000D01*
X175620000Y-78305000D02*
X175620000Y-75645000D01*
X174350000Y-78305000D02*
X173020000Y-78305000D01*
X173020000Y-78305000D02*
X173020000Y-76975000D01*
X177310000Y-82803922D02*
X177310000Y-83321078D01*
X175890000Y-82803922D02*
X175890000Y-83321078D01*
X167125000Y-100045000D02*
X168125000Y-100045000D01*
X167125000Y-103405000D02*
X168125000Y-103405000D01*
X206970000Y-116575000D02*
X206970000Y-115575000D01*
X210330000Y-116575000D02*
X210330000Y-115575000D01*
X199480000Y-116525000D02*
X199480000Y-115525000D01*
X196120000Y-116525000D02*
X196120000Y-115525000D01*
X183145000Y-116375000D02*
X183145000Y-115375000D01*
X186505000Y-116375000D02*
X186505000Y-115375000D01*
X210350000Y-86095000D02*
X209350000Y-86095000D01*
X210350000Y-89455000D02*
X209350000Y-89455000D01*
X210375000Y-97455000D02*
X209375000Y-97455000D01*
X210375000Y-94095000D02*
X209375000Y-94095000D01*
X210225000Y-102220000D02*
X209225000Y-102220000D01*
X210225000Y-105580000D02*
X209225000Y-105580000D01*
X174790000Y-90390000D02*
X174215000Y-90390000D01*
X174215000Y-90390000D02*
X174215000Y-90965000D01*
X183860000Y-90390000D02*
X184435000Y-90390000D01*
X184435000Y-90390000D02*
X184435000Y-90965000D01*
X174790000Y-100610000D02*
X174215000Y-100610000D01*
X174215000Y-100610000D02*
X174215000Y-100035000D01*
X183860000Y-100610000D02*
X184435000Y-100610000D01*
X184435000Y-100610000D02*
X184435000Y-100035000D01*
X184435000Y-100035000D02*
X185725000Y-100035000D01*
D10*
X194625000Y-78675000D02*
X194625000Y-83075000D01*
X200150000Y-77100000D02*
X200150000Y-83075000D01*
X200075000Y-88175000D02*
X200075000Y-94150000D01*
X194550000Y-89750000D02*
X194550000Y-94150000D01*
X189250000Y-104850000D02*
X189250000Y-109250000D01*
X194775000Y-103275000D02*
X194775000Y-109250000D01*
D12*
X210145000Y-83615000D02*
X215345000Y-83615000D01*
X210145000Y-73395000D02*
X210145000Y-83615000D01*
X215345000Y-70795000D02*
X215345000Y-83615000D01*
X210145000Y-73395000D02*
X212745000Y-73395000D01*
X212745000Y-73395000D02*
X212745000Y-70795000D01*
X212745000Y-70795000D02*
X215345000Y-70795000D01*
X210145000Y-72125000D02*
X210145000Y-70795000D01*
X210145000Y-70795000D02*
X211475000Y-70795000D01*
D10*
X171266666Y-120196761D02*
X171409523Y-120244380D01*
X171647619Y-120244380D01*
X171742857Y-120196761D01*
X171790476Y-120149142D01*
X171838095Y-120053904D01*
X171838095Y-119958666D01*
X171790476Y-119863428D01*
X171742857Y-119815809D01*
X171647619Y-119768190D01*
X171457142Y-119720571D01*
X171361904Y-119672952D01*
X171314285Y-119625333D01*
X171266666Y-119530095D01*
X171266666Y-119434857D01*
X171314285Y-119339619D01*
X171361904Y-119292000D01*
X171457142Y-119244380D01*
X171695238Y-119244380D01*
X171838095Y-119292000D01*
X172171428Y-119244380D02*
X172409523Y-120244380D01*
X172600000Y-119530095D01*
X172790476Y-120244380D01*
X173028571Y-119244380D01*
X173361904Y-119339619D02*
X173409523Y-119292000D01*
X173504761Y-119244380D01*
X173742857Y-119244380D01*
X173838095Y-119292000D01*
X173885714Y-119339619D01*
X173933333Y-119434857D01*
X173933333Y-119530095D01*
X173885714Y-119672952D01*
X173314285Y-120244380D01*
X173933333Y-120244380D01*
X170457142Y-90541666D02*
X170504761Y-90589285D01*
X170552380Y-90732142D01*
X170552380Y-90827380D01*
X170504761Y-90970238D01*
X170409523Y-91065476D01*
X170314285Y-91113095D01*
X170123809Y-91160714D01*
X169980952Y-91160714D01*
X169790476Y-91113095D01*
X169695238Y-91065476D01*
X169600000Y-90970238D01*
X169552380Y-90827380D01*
X169552380Y-90732142D01*
X169600000Y-90589285D01*
X169647619Y-90541666D01*
X170552380Y-89589285D02*
X170552380Y-90160714D01*
X170552380Y-89875000D02*
X169552380Y-89875000D01*
X169695238Y-89970238D01*
X169790476Y-90065476D01*
X169838095Y-90160714D01*
X190182142Y-97091666D02*
X190229761Y-97139285D01*
X190277380Y-97282142D01*
X190277380Y-97377380D01*
X190229761Y-97520238D01*
X190134523Y-97615476D01*
X190039285Y-97663095D01*
X189848809Y-97710714D01*
X189705952Y-97710714D01*
X189515476Y-97663095D01*
X189420238Y-97615476D01*
X189325000Y-97520238D01*
X189277380Y-97377380D01*
X189277380Y-97282142D01*
X189325000Y-97139285D01*
X189372619Y-97091666D01*
X189372619Y-96710714D02*
X189325000Y-96663095D01*
X189277380Y-96567857D01*
X189277380Y-96329761D01*
X189325000Y-96234523D01*
X189372619Y-96186904D01*
X189467857Y-96139285D01*
X189563095Y-96139285D01*
X189705952Y-96186904D01*
X190277380Y-96758333D01*
X190277380Y-96139285D01*
X205332142Y-80941666D02*
X205379761Y-80989285D01*
X205427380Y-81132142D01*
X205427380Y-81227380D01*
X205379761Y-81370238D01*
X205284523Y-81465476D01*
X205189285Y-81513095D01*
X204998809Y-81560714D01*
X204855952Y-81560714D01*
X204665476Y-81513095D01*
X204570238Y-81465476D01*
X204475000Y-81370238D01*
X204427380Y-81227380D01*
X204427380Y-81132142D01*
X204475000Y-80989285D01*
X204522619Y-80941666D01*
X204427380Y-80608333D02*
X204427380Y-79989285D01*
X204808333Y-80322619D01*
X204808333Y-80179761D01*
X204855952Y-80084523D01*
X204903571Y-80036904D01*
X204998809Y-79989285D01*
X205236904Y-79989285D01*
X205332142Y-80036904D01*
X205379761Y-80084523D01*
X205427380Y-80179761D01*
X205427380Y-80465476D01*
X205379761Y-80560714D01*
X205332142Y-80608333D01*
X205157142Y-91966666D02*
X205204761Y-92014285D01*
X205252380Y-92157142D01*
X205252380Y-92252380D01*
X205204761Y-92395238D01*
X205109523Y-92490476D01*
X205014285Y-92538095D01*
X204823809Y-92585714D01*
X204680952Y-92585714D01*
X204490476Y-92538095D01*
X204395238Y-92490476D01*
X204300000Y-92395238D01*
X204252380Y-92252380D01*
X204252380Y-92157142D01*
X204300000Y-92014285D01*
X204347619Y-91966666D01*
X204585714Y-91109523D02*
X205252380Y-91109523D01*
X204204761Y-91347619D02*
X204919047Y-91585714D01*
X204919047Y-90966666D01*
X200082142Y-108316666D02*
X200129761Y-108364285D01*
X200177380Y-108507142D01*
X200177380Y-108602380D01*
X200129761Y-108745238D01*
X200034523Y-108840476D01*
X199939285Y-108888095D01*
X199748809Y-108935714D01*
X199605952Y-108935714D01*
X199415476Y-108888095D01*
X199320238Y-108840476D01*
X199225000Y-108745238D01*
X199177380Y-108602380D01*
X199177380Y-108507142D01*
X199225000Y-108364285D01*
X199272619Y-108316666D01*
X199177380Y-107411904D02*
X199177380Y-107888095D01*
X199653571Y-107935714D01*
X199605952Y-107888095D01*
X199558333Y-107792857D01*
X199558333Y-107554761D01*
X199605952Y-107459523D01*
X199653571Y-107411904D01*
X199748809Y-107364285D01*
X199986904Y-107364285D01*
X200082142Y-107411904D01*
X200129761Y-107459523D01*
X200177380Y-107554761D01*
X200177380Y-107792857D01*
X200129761Y-107888095D01*
X200082142Y-107935714D01*
X166861904Y-98182380D02*
X166861904Y-97182380D01*
X167100000Y-97182380D01*
X167242857Y-97230000D01*
X167338095Y-97325238D01*
X167385714Y-97420476D01*
X167433333Y-97610952D01*
X167433333Y-97753809D01*
X167385714Y-97944285D01*
X167338095Y-98039523D01*
X167242857Y-98134761D01*
X167100000Y-98182380D01*
X166861904Y-98182380D01*
X168385714Y-98182380D02*
X167814285Y-98182380D01*
X168100000Y-98182380D02*
X168100000Y-97182380D01*
X168004761Y-97325238D01*
X167909523Y-97420476D01*
X167814285Y-97468095D01*
X210252380Y-123388095D02*
X209252380Y-123388095D01*
X209252380Y-123150000D01*
X209300000Y-123007142D01*
X209395238Y-122911904D01*
X209490476Y-122864285D01*
X209680952Y-122816666D01*
X209823809Y-122816666D01*
X210014285Y-122864285D01*
X210109523Y-122911904D01*
X210204761Y-123007142D01*
X210252380Y-123150000D01*
X210252380Y-123388095D01*
X209347619Y-122435714D02*
X209300000Y-122388095D01*
X209252380Y-122292857D01*
X209252380Y-122054761D01*
X209300000Y-121959523D01*
X209347619Y-121911904D01*
X209442857Y-121864285D01*
X209538095Y-121864285D01*
X209680952Y-121911904D01*
X210252380Y-122483333D01*
X210252380Y-121864285D01*
X203377380Y-123338095D02*
X202377380Y-123338095D01*
X202377380Y-123100000D01*
X202425000Y-122957142D01*
X202520238Y-122861904D01*
X202615476Y-122814285D01*
X202805952Y-122766666D01*
X202948809Y-122766666D01*
X203139285Y-122814285D01*
X203234523Y-122861904D01*
X203329761Y-122957142D01*
X203377380Y-123100000D01*
X203377380Y-123338095D01*
X202377380Y-122433333D02*
X202377380Y-121814285D01*
X202758333Y-122147619D01*
X202758333Y-122004761D01*
X202805952Y-121909523D01*
X202853571Y-121861904D01*
X202948809Y-121814285D01*
X203186904Y-121814285D01*
X203282142Y-121861904D01*
X203329761Y-121909523D01*
X203377380Y-122004761D01*
X203377380Y-122290476D01*
X203329761Y-122385714D01*
X203282142Y-122433333D01*
X192977380Y-123463095D02*
X191977380Y-123463095D01*
X191977380Y-123225000D01*
X192025000Y-123082142D01*
X192120238Y-122986904D01*
X192215476Y-122939285D01*
X192405952Y-122891666D01*
X192548809Y-122891666D01*
X192739285Y-122939285D01*
X192834523Y-122986904D01*
X192929761Y-123082142D01*
X192977380Y-123225000D01*
X192977380Y-123463095D01*
X192310714Y-122034523D02*
X192977380Y-122034523D01*
X191929761Y-122272619D02*
X192644047Y-122510714D01*
X192644047Y-121891666D01*
X182852380Y-123413095D02*
X181852380Y-123413095D01*
X181852380Y-123175000D01*
X181900000Y-123032142D01*
X181995238Y-122936904D01*
X182090476Y-122889285D01*
X182280952Y-122841666D01*
X182423809Y-122841666D01*
X182614285Y-122889285D01*
X182709523Y-122936904D01*
X182804761Y-123032142D01*
X182852380Y-123175000D01*
X182852380Y-123413095D01*
X181852380Y-121936904D02*
X181852380Y-122413095D01*
X182328571Y-122460714D01*
X182280952Y-122413095D01*
X182233333Y-122317857D01*
X182233333Y-122079761D01*
X182280952Y-121984523D01*
X182328571Y-121936904D01*
X182423809Y-121889285D01*
X182661904Y-121889285D01*
X182757142Y-121936904D01*
X182804761Y-121984523D01*
X182852380Y-122079761D01*
X182852380Y-122317857D01*
X182804761Y-122413095D01*
X182757142Y-122460714D01*
X218611904Y-85377380D02*
X218611904Y-84377380D01*
X218850000Y-84377380D01*
X218992857Y-84425000D01*
X219088095Y-84520238D01*
X219135714Y-84615476D01*
X219183333Y-84805952D01*
X219183333Y-84948809D01*
X219135714Y-85139285D01*
X219088095Y-85234523D01*
X218992857Y-85329761D01*
X218850000Y-85377380D01*
X218611904Y-85377380D01*
X220040476Y-84377380D02*
X219850000Y-84377380D01*
X219754761Y-84425000D01*
X219707142Y-84472619D01*
X219611904Y-84615476D01*
X219564285Y-84805952D01*
X219564285Y-85186904D01*
X219611904Y-85282142D01*
X219659523Y-85329761D01*
X219754761Y-85377380D01*
X219945238Y-85377380D01*
X220040476Y-85329761D01*
X220088095Y-85282142D01*
X220135714Y-85186904D01*
X220135714Y-84948809D01*
X220088095Y-84853571D01*
X220040476Y-84805952D01*
X219945238Y-84758333D01*
X219754761Y-84758333D01*
X219659523Y-84805952D01*
X219611904Y-84853571D01*
X219564285Y-84948809D01*
X218561904Y-93427380D02*
X218561904Y-92427380D01*
X218800000Y-92427380D01*
X218942857Y-92475000D01*
X219038095Y-92570238D01*
X219085714Y-92665476D01*
X219133333Y-92855952D01*
X219133333Y-92998809D01*
X219085714Y-93189285D01*
X219038095Y-93284523D01*
X218942857Y-93379761D01*
X218800000Y-93427380D01*
X218561904Y-93427380D01*
X219466666Y-92427380D02*
X220133333Y-92427380D01*
X219704761Y-93427380D01*
X218536904Y-100827380D02*
X218536904Y-99827380D01*
X218775000Y-99827380D01*
X218917857Y-99875000D01*
X219013095Y-99970238D01*
X219060714Y-100065476D01*
X219108333Y-100255952D01*
X219108333Y-100398809D01*
X219060714Y-100589285D01*
X219013095Y-100684523D01*
X218917857Y-100779761D01*
X218775000Y-100827380D01*
X218536904Y-100827380D01*
X219679761Y-100255952D02*
X219584523Y-100208333D01*
X219536904Y-100160714D01*
X219489285Y-100065476D01*
X219489285Y-100017857D01*
X219536904Y-99922619D01*
X219584523Y-99875000D01*
X219679761Y-99827380D01*
X219870238Y-99827380D01*
X219965476Y-99875000D01*
X220013095Y-99922619D01*
X220060714Y-100017857D01*
X220060714Y-100065476D01*
X220013095Y-100160714D01*
X219965476Y-100208333D01*
X219870238Y-100255952D01*
X219679761Y-100255952D01*
X219584523Y-100303571D01*
X219536904Y-100351190D01*
X219489285Y-100446428D01*
X219489285Y-100636904D01*
X219536904Y-100732142D01*
X219584523Y-100779761D01*
X219679761Y-100827380D01*
X219870238Y-100827380D01*
X219965476Y-100779761D01*
X220013095Y-100732142D01*
X220060714Y-100636904D01*
X220060714Y-100446428D01*
X220013095Y-100351190D01*
X219965476Y-100303571D01*
X219870238Y-100255952D01*
X218511904Y-108677380D02*
X218511904Y-107677380D01*
X218750000Y-107677380D01*
X218892857Y-107725000D01*
X218988095Y-107820238D01*
X219035714Y-107915476D01*
X219083333Y-108105952D01*
X219083333Y-108248809D01*
X219035714Y-108439285D01*
X218988095Y-108534523D01*
X218892857Y-108629761D01*
X218750000Y-108677380D01*
X218511904Y-108677380D01*
X219559523Y-108677380D02*
X219750000Y-108677380D01*
X219845238Y-108629761D01*
X219892857Y-108582142D01*
X219988095Y-108439285D01*
X220035714Y-108248809D01*
X220035714Y-107867857D01*
X219988095Y-107772619D01*
X219940476Y-107725000D01*
X219845238Y-107677380D01*
X219654761Y-107677380D01*
X219559523Y-107725000D01*
X219511904Y-107772619D01*
X219464285Y-107867857D01*
X219464285Y-108105952D01*
X219511904Y-108201190D01*
X219559523Y-108248809D01*
X219654761Y-108296428D01*
X219845238Y-108296428D01*
X219940476Y-108248809D01*
X219988095Y-108201190D01*
X220035714Y-108105952D01*
X171472380Y-77308333D02*
X172186666Y-77308333D01*
X172329523Y-77355952D01*
X172424761Y-77451190D01*
X172472380Y-77594047D01*
X172472380Y-77689285D01*
X172472380Y-76308333D02*
X172472380Y-76879761D01*
X172472380Y-76594047D02*
X171472380Y-76594047D01*
X171615238Y-76689285D01*
X171710476Y-76784523D01*
X171758095Y-76879761D01*
X178702380Y-83229166D02*
X178226190Y-83562500D01*
X178702380Y-83800595D02*
X177702380Y-83800595D01*
X177702380Y-83419642D01*
X177750000Y-83324404D01*
X177797619Y-83276785D01*
X177892857Y-83229166D01*
X178035714Y-83229166D01*
X178130952Y-83276785D01*
X178178571Y-83324404D01*
X178226190Y-83419642D01*
X178226190Y-83800595D01*
X178702380Y-82276785D02*
X178702380Y-82848214D01*
X178702380Y-82562500D02*
X177702380Y-82562500D01*
X177845238Y-82657738D01*
X177940476Y-82752976D01*
X177988095Y-82848214D01*
X166934523Y-104977380D02*
X166601190Y-104501190D01*
X166363095Y-104977380D02*
X166363095Y-103977380D01*
X166744047Y-103977380D01*
X166839285Y-104025000D01*
X166886904Y-104072619D01*
X166934523Y-104167857D01*
X166934523Y-104310714D01*
X166886904Y-104405952D01*
X166839285Y-104453571D01*
X166744047Y-104501190D01*
X166363095Y-104501190D01*
X167363095Y-104977380D02*
X167363095Y-103977380D01*
X167934523Y-104977380D01*
X167934523Y-103977380D01*
X168934523Y-104977380D02*
X168363095Y-104977380D01*
X168648809Y-104977380D02*
X168648809Y-103977380D01*
X168553571Y-104120238D01*
X168458333Y-104215476D01*
X168363095Y-104263095D01*
X211902380Y-116765476D02*
X211426190Y-117098809D01*
X211902380Y-117336904D02*
X210902380Y-117336904D01*
X210902380Y-116955952D01*
X210950000Y-116860714D01*
X210997619Y-116813095D01*
X211092857Y-116765476D01*
X211235714Y-116765476D01*
X211330952Y-116813095D01*
X211378571Y-116860714D01*
X211426190Y-116955952D01*
X211426190Y-117336904D01*
X211902380Y-116336904D02*
X210902380Y-116336904D01*
X211902380Y-115765476D01*
X210902380Y-115765476D01*
X210997619Y-115336904D02*
X210950000Y-115289285D01*
X210902380Y-115194047D01*
X210902380Y-114955952D01*
X210950000Y-114860714D01*
X210997619Y-114813095D01*
X211092857Y-114765476D01*
X211188095Y-114765476D01*
X211330952Y-114813095D01*
X211902380Y-115384523D01*
X211902380Y-114765476D01*
X201052380Y-116715476D02*
X200576190Y-117048809D01*
X201052380Y-117286904D02*
X200052380Y-117286904D01*
X200052380Y-116905952D01*
X200100000Y-116810714D01*
X200147619Y-116763095D01*
X200242857Y-116715476D01*
X200385714Y-116715476D01*
X200480952Y-116763095D01*
X200528571Y-116810714D01*
X200576190Y-116905952D01*
X200576190Y-117286904D01*
X201052380Y-116286904D02*
X200052380Y-116286904D01*
X201052380Y-115715476D01*
X200052380Y-115715476D01*
X200052380Y-115334523D02*
X200052380Y-114715476D01*
X200433333Y-115048809D01*
X200433333Y-114905952D01*
X200480952Y-114810714D01*
X200528571Y-114763095D01*
X200623809Y-114715476D01*
X200861904Y-114715476D01*
X200957142Y-114763095D01*
X201004761Y-114810714D01*
X201052380Y-114905952D01*
X201052380Y-115191666D01*
X201004761Y-115286904D01*
X200957142Y-115334523D01*
X188077380Y-116565476D02*
X187601190Y-116898809D01*
X188077380Y-117136904D02*
X187077380Y-117136904D01*
X187077380Y-116755952D01*
X187125000Y-116660714D01*
X187172619Y-116613095D01*
X187267857Y-116565476D01*
X187410714Y-116565476D01*
X187505952Y-116613095D01*
X187553571Y-116660714D01*
X187601190Y-116755952D01*
X187601190Y-117136904D01*
X188077380Y-116136904D02*
X187077380Y-116136904D01*
X188077380Y-115565476D01*
X187077380Y-115565476D01*
X187410714Y-114660714D02*
X188077380Y-114660714D01*
X187029761Y-114898809D02*
X187744047Y-115136904D01*
X187744047Y-114517857D01*
X209159523Y-85427380D02*
X208826190Y-84951190D01*
X208588095Y-85427380D02*
X208588095Y-84427380D01*
X208969047Y-84427380D01*
X209064285Y-84475000D01*
X209111904Y-84522619D01*
X209159523Y-84617857D01*
X209159523Y-84760714D01*
X209111904Y-84855952D01*
X209064285Y-84903571D01*
X208969047Y-84951190D01*
X208588095Y-84951190D01*
X209588095Y-85427380D02*
X209588095Y-84427380D01*
X210159523Y-85427380D01*
X210159523Y-84427380D01*
X211111904Y-84427380D02*
X210635714Y-84427380D01*
X210588095Y-84903571D01*
X210635714Y-84855952D01*
X210730952Y-84808333D01*
X210969047Y-84808333D01*
X211064285Y-84855952D01*
X211111904Y-84903571D01*
X211159523Y-84998809D01*
X211159523Y-85236904D01*
X211111904Y-85332142D01*
X211064285Y-85379761D01*
X210969047Y-85427380D01*
X210730952Y-85427380D01*
X210635714Y-85379761D01*
X210588095Y-85332142D01*
X209184523Y-93427380D02*
X208851190Y-92951190D01*
X208613095Y-93427380D02*
X208613095Y-92427380D01*
X208994047Y-92427380D01*
X209089285Y-92475000D01*
X209136904Y-92522619D01*
X209184523Y-92617857D01*
X209184523Y-92760714D01*
X209136904Y-92855952D01*
X209089285Y-92903571D01*
X208994047Y-92951190D01*
X208613095Y-92951190D01*
X209613095Y-93427380D02*
X209613095Y-92427380D01*
X210184523Y-93427380D01*
X210184523Y-92427380D01*
X211089285Y-92427380D02*
X210898809Y-92427380D01*
X210803571Y-92475000D01*
X210755952Y-92522619D01*
X210660714Y-92665476D01*
X210613095Y-92855952D01*
X210613095Y-93236904D01*
X210660714Y-93332142D01*
X210708333Y-93379761D01*
X210803571Y-93427380D01*
X210994047Y-93427380D01*
X211089285Y-93379761D01*
X211136904Y-93332142D01*
X211184523Y-93236904D01*
X211184523Y-92998809D01*
X211136904Y-92903571D01*
X211089285Y-92855952D01*
X210994047Y-92808333D01*
X210803571Y-92808333D01*
X210708333Y-92855952D01*
X210660714Y-92903571D01*
X210613095Y-92998809D01*
X209034523Y-101552380D02*
X208701190Y-101076190D01*
X208463095Y-101552380D02*
X208463095Y-100552380D01*
X208844047Y-100552380D01*
X208939285Y-100600000D01*
X208986904Y-100647619D01*
X209034523Y-100742857D01*
X209034523Y-100885714D01*
X208986904Y-100980952D01*
X208939285Y-101028571D01*
X208844047Y-101076190D01*
X208463095Y-101076190D01*
X209463095Y-101552380D02*
X209463095Y-100552380D01*
X210034523Y-101552380D01*
X210034523Y-100552380D01*
X210415476Y-100552380D02*
X211082142Y-100552380D01*
X210653571Y-101552380D01*
X178563095Y-102302380D02*
X178563095Y-103111904D01*
X178610714Y-103207142D01*
X178658333Y-103254761D01*
X178753571Y-103302380D01*
X178944047Y-103302380D01*
X179039285Y-103254761D01*
X179086904Y-103207142D01*
X179134523Y-103111904D01*
X179134523Y-102302380D01*
X180039285Y-102635714D02*
X180039285Y-103302380D01*
X179801190Y-102254761D02*
X179563095Y-102969047D01*
X180182142Y-102969047D01*
X164666266Y-74135561D02*
X164809123Y-74183180D01*
X165047219Y-74183180D01*
X165142457Y-74135561D01*
X165190076Y-74087942D01*
X165237695Y-73992704D01*
X165237695Y-73897466D01*
X165190076Y-73802228D01*
X165142457Y-73754609D01*
X165047219Y-73706990D01*
X164856742Y-73659371D01*
X164761504Y-73611752D01*
X164713885Y-73564133D01*
X164666266Y-73468895D01*
X164666266Y-73373657D01*
X164713885Y-73278419D01*
X164761504Y-73230800D01*
X164856742Y-73183180D01*
X165094838Y-73183180D01*
X165237695Y-73230800D01*
X165571028Y-73183180D02*
X165809123Y-74183180D01*
X165999600Y-73468895D01*
X166190076Y-74183180D01*
X166428171Y-73183180D01*
X167332933Y-74183180D02*
X166761504Y-74183180D01*
X167047219Y-74183180D02*
X167047219Y-73183180D01*
X166951980Y-73326038D01*
X166856742Y-73421276D01*
X166761504Y-73468895D01*
X200352380Y-81636904D02*
X201161904Y-81636904D01*
X201257142Y-81589285D01*
X201304761Y-81541666D01*
X201352380Y-81446428D01*
X201352380Y-81255952D01*
X201304761Y-81160714D01*
X201257142Y-81113095D01*
X201161904Y-81065476D01*
X200352380Y-81065476D01*
X201352380Y-80065476D02*
X201352380Y-80636904D01*
X201352380Y-80351190D02*
X200352380Y-80351190D01*
X200495238Y-80446428D01*
X200590476Y-80541666D01*
X200638095Y-80636904D01*
X200277380Y-92711904D02*
X201086904Y-92711904D01*
X201182142Y-92664285D01*
X201229761Y-92616666D01*
X201277380Y-92521428D01*
X201277380Y-92330952D01*
X201229761Y-92235714D01*
X201182142Y-92188095D01*
X201086904Y-92140476D01*
X200277380Y-92140476D01*
X200372619Y-91711904D02*
X200325000Y-91664285D01*
X200277380Y-91569047D01*
X200277380Y-91330952D01*
X200325000Y-91235714D01*
X200372619Y-91188095D01*
X200467857Y-91140476D01*
X200563095Y-91140476D01*
X200705952Y-91188095D01*
X201277380Y-91759523D01*
X201277380Y-91140476D01*
X194977380Y-107811904D02*
X195786904Y-107811904D01*
X195882142Y-107764285D01*
X195929761Y-107716666D01*
X195977380Y-107621428D01*
X195977380Y-107430952D01*
X195929761Y-107335714D01*
X195882142Y-107288095D01*
X195786904Y-107240476D01*
X194977380Y-107240476D01*
X194977380Y-106859523D02*
X194977380Y-106240476D01*
X195358333Y-106573809D01*
X195358333Y-106430952D01*
X195405952Y-106335714D01*
X195453571Y-106288095D01*
X195548809Y-106240476D01*
X195786904Y-106240476D01*
X195882142Y-106288095D01*
X195929761Y-106335714D01*
X195977380Y-106430952D01*
X195977380Y-106716666D01*
X195929761Y-106811904D01*
X195882142Y-106859523D01*
X212411666Y-69247380D02*
X212411666Y-69961666D01*
X212364047Y-70104523D01*
X212268809Y-70199761D01*
X212125952Y-70247380D01*
X212030714Y-70247380D01*
X212840238Y-69342619D02*
X212887857Y-69295000D01*
X212983095Y-69247380D01*
X213221190Y-69247380D01*
X213316428Y-69295000D01*
X213364047Y-69342619D01*
X213411666Y-69437857D01*
X213411666Y-69533095D01*
X213364047Y-69675952D01*
X212792619Y-70247380D01*
X213411666Y-70247380D01*
M02*
