G04 #@! TF.GenerationSoftware,KiCad,Pcbnew,(5.1.5)-3*
G04 #@! TF.CreationDate,2021-02-14T15:50:31-08:00*
G04 #@! TF.ProjectId,tree,74726565-2e6b-4696-9361-645f70636258,rev?*
G04 #@! TF.SameCoordinates,Original*
G04 #@! TF.FileFunction,Paste,Top*
G04 #@! TF.FilePolarity,Positive*
%FSLAX46Y46*%
G04 Gerber Fmt 4.6, Leading zero omitted, Abs format (unit mm)*
G04 Created by KiCad (PCBNEW (5.1.5)-3) date 2021-02-14 15:50:31*
%MOMM*%
%LPD*%
G04 APERTURE LIST*
%ADD10R,2.100000X1.400000*%
%ADD11C,0.100000*%
%ADD12R,0.800000X1.000000*%
%ADD13R,1.000000X0.800000*%
%ADD14R,0.800000X0.500000*%
%ADD15R,0.800000X0.400000*%
%ADD16R,0.500000X0.800000*%
%ADD17R,0.400000X0.800000*%
%ADD18R,1.200000X2.500000*%
%ADD19R,0.450000X1.500000*%
G04 APERTURE END LIST*
D10*
X169600000Y-111700000D03*
X169600000Y-116200000D03*
X175600000Y-111700000D03*
X175600000Y-116200000D03*
D11*
G36*
X168924505Y-88776204D02*
G01*
X168948773Y-88779804D01*
X168972572Y-88785765D01*
X168995671Y-88794030D01*
X169017850Y-88804520D01*
X169038893Y-88817132D01*
X169058599Y-88831747D01*
X169076777Y-88848223D01*
X169093253Y-88866401D01*
X169107868Y-88886107D01*
X169120480Y-88907150D01*
X169130970Y-88929329D01*
X169139235Y-88952428D01*
X169145196Y-88976227D01*
X169148796Y-89000495D01*
X169150000Y-89024999D01*
X169150000Y-89675001D01*
X169148796Y-89699505D01*
X169145196Y-89723773D01*
X169139235Y-89747572D01*
X169130970Y-89770671D01*
X169120480Y-89792850D01*
X169107868Y-89813893D01*
X169093253Y-89833599D01*
X169076777Y-89851777D01*
X169058599Y-89868253D01*
X169038893Y-89882868D01*
X169017850Y-89895480D01*
X168995671Y-89905970D01*
X168972572Y-89914235D01*
X168948773Y-89920196D01*
X168924505Y-89923796D01*
X168900001Y-89925000D01*
X167999999Y-89925000D01*
X167975495Y-89923796D01*
X167951227Y-89920196D01*
X167927428Y-89914235D01*
X167904329Y-89905970D01*
X167882150Y-89895480D01*
X167861107Y-89882868D01*
X167841401Y-89868253D01*
X167823223Y-89851777D01*
X167806747Y-89833599D01*
X167792132Y-89813893D01*
X167779520Y-89792850D01*
X167769030Y-89770671D01*
X167760765Y-89747572D01*
X167754804Y-89723773D01*
X167751204Y-89699505D01*
X167750000Y-89675001D01*
X167750000Y-89024999D01*
X167751204Y-89000495D01*
X167754804Y-88976227D01*
X167760765Y-88952428D01*
X167769030Y-88929329D01*
X167779520Y-88907150D01*
X167792132Y-88886107D01*
X167806747Y-88866401D01*
X167823223Y-88848223D01*
X167841401Y-88831747D01*
X167861107Y-88817132D01*
X167882150Y-88804520D01*
X167904329Y-88794030D01*
X167927428Y-88785765D01*
X167951227Y-88779804D01*
X167975495Y-88776204D01*
X167999999Y-88775000D01*
X168900001Y-88775000D01*
X168924505Y-88776204D01*
G37*
G36*
X168924505Y-90826204D02*
G01*
X168948773Y-90829804D01*
X168972572Y-90835765D01*
X168995671Y-90844030D01*
X169017850Y-90854520D01*
X169038893Y-90867132D01*
X169058599Y-90881747D01*
X169076777Y-90898223D01*
X169093253Y-90916401D01*
X169107868Y-90936107D01*
X169120480Y-90957150D01*
X169130970Y-90979329D01*
X169139235Y-91002428D01*
X169145196Y-91026227D01*
X169148796Y-91050495D01*
X169150000Y-91074999D01*
X169150000Y-91725001D01*
X169148796Y-91749505D01*
X169145196Y-91773773D01*
X169139235Y-91797572D01*
X169130970Y-91820671D01*
X169120480Y-91842850D01*
X169107868Y-91863893D01*
X169093253Y-91883599D01*
X169076777Y-91901777D01*
X169058599Y-91918253D01*
X169038893Y-91932868D01*
X169017850Y-91945480D01*
X168995671Y-91955970D01*
X168972572Y-91964235D01*
X168948773Y-91970196D01*
X168924505Y-91973796D01*
X168900001Y-91975000D01*
X167999999Y-91975000D01*
X167975495Y-91973796D01*
X167951227Y-91970196D01*
X167927428Y-91964235D01*
X167904329Y-91955970D01*
X167882150Y-91945480D01*
X167861107Y-91932868D01*
X167841401Y-91918253D01*
X167823223Y-91901777D01*
X167806747Y-91883599D01*
X167792132Y-91863893D01*
X167779520Y-91842850D01*
X167769030Y-91820671D01*
X167760765Y-91797572D01*
X167754804Y-91773773D01*
X167751204Y-91749505D01*
X167750000Y-91725001D01*
X167750000Y-91074999D01*
X167751204Y-91050495D01*
X167754804Y-91026227D01*
X167760765Y-91002428D01*
X167769030Y-90979329D01*
X167779520Y-90957150D01*
X167792132Y-90936107D01*
X167806747Y-90916401D01*
X167823223Y-90898223D01*
X167841401Y-90881747D01*
X167861107Y-90867132D01*
X167882150Y-90854520D01*
X167904329Y-90844030D01*
X167927428Y-90835765D01*
X167951227Y-90829804D01*
X167975495Y-90826204D01*
X167999999Y-90825000D01*
X168900001Y-90825000D01*
X168924505Y-90826204D01*
G37*
G36*
X188649505Y-97376204D02*
G01*
X188673773Y-97379804D01*
X188697572Y-97385765D01*
X188720671Y-97394030D01*
X188742850Y-97404520D01*
X188763893Y-97417132D01*
X188783599Y-97431747D01*
X188801777Y-97448223D01*
X188818253Y-97466401D01*
X188832868Y-97486107D01*
X188845480Y-97507150D01*
X188855970Y-97529329D01*
X188864235Y-97552428D01*
X188870196Y-97576227D01*
X188873796Y-97600495D01*
X188875000Y-97624999D01*
X188875000Y-98275001D01*
X188873796Y-98299505D01*
X188870196Y-98323773D01*
X188864235Y-98347572D01*
X188855970Y-98370671D01*
X188845480Y-98392850D01*
X188832868Y-98413893D01*
X188818253Y-98433599D01*
X188801777Y-98451777D01*
X188783599Y-98468253D01*
X188763893Y-98482868D01*
X188742850Y-98495480D01*
X188720671Y-98505970D01*
X188697572Y-98514235D01*
X188673773Y-98520196D01*
X188649505Y-98523796D01*
X188625001Y-98525000D01*
X187724999Y-98525000D01*
X187700495Y-98523796D01*
X187676227Y-98520196D01*
X187652428Y-98514235D01*
X187629329Y-98505970D01*
X187607150Y-98495480D01*
X187586107Y-98482868D01*
X187566401Y-98468253D01*
X187548223Y-98451777D01*
X187531747Y-98433599D01*
X187517132Y-98413893D01*
X187504520Y-98392850D01*
X187494030Y-98370671D01*
X187485765Y-98347572D01*
X187479804Y-98323773D01*
X187476204Y-98299505D01*
X187475000Y-98275001D01*
X187475000Y-97624999D01*
X187476204Y-97600495D01*
X187479804Y-97576227D01*
X187485765Y-97552428D01*
X187494030Y-97529329D01*
X187504520Y-97507150D01*
X187517132Y-97486107D01*
X187531747Y-97466401D01*
X187548223Y-97448223D01*
X187566401Y-97431747D01*
X187586107Y-97417132D01*
X187607150Y-97404520D01*
X187629329Y-97394030D01*
X187652428Y-97385765D01*
X187676227Y-97379804D01*
X187700495Y-97376204D01*
X187724999Y-97375000D01*
X188625001Y-97375000D01*
X188649505Y-97376204D01*
G37*
G36*
X188649505Y-95326204D02*
G01*
X188673773Y-95329804D01*
X188697572Y-95335765D01*
X188720671Y-95344030D01*
X188742850Y-95354520D01*
X188763893Y-95367132D01*
X188783599Y-95381747D01*
X188801777Y-95398223D01*
X188818253Y-95416401D01*
X188832868Y-95436107D01*
X188845480Y-95457150D01*
X188855970Y-95479329D01*
X188864235Y-95502428D01*
X188870196Y-95526227D01*
X188873796Y-95550495D01*
X188875000Y-95574999D01*
X188875000Y-96225001D01*
X188873796Y-96249505D01*
X188870196Y-96273773D01*
X188864235Y-96297572D01*
X188855970Y-96320671D01*
X188845480Y-96342850D01*
X188832868Y-96363893D01*
X188818253Y-96383599D01*
X188801777Y-96401777D01*
X188783599Y-96418253D01*
X188763893Y-96432868D01*
X188742850Y-96445480D01*
X188720671Y-96455970D01*
X188697572Y-96464235D01*
X188673773Y-96470196D01*
X188649505Y-96473796D01*
X188625001Y-96475000D01*
X187724999Y-96475000D01*
X187700495Y-96473796D01*
X187676227Y-96470196D01*
X187652428Y-96464235D01*
X187629329Y-96455970D01*
X187607150Y-96445480D01*
X187586107Y-96432868D01*
X187566401Y-96418253D01*
X187548223Y-96401777D01*
X187531747Y-96383599D01*
X187517132Y-96363893D01*
X187504520Y-96342850D01*
X187494030Y-96320671D01*
X187485765Y-96297572D01*
X187479804Y-96273773D01*
X187476204Y-96249505D01*
X187475000Y-96225001D01*
X187475000Y-95574999D01*
X187476204Y-95550495D01*
X187479804Y-95526227D01*
X187485765Y-95502428D01*
X187494030Y-95479329D01*
X187504520Y-95457150D01*
X187517132Y-95436107D01*
X187531747Y-95416401D01*
X187548223Y-95398223D01*
X187566401Y-95381747D01*
X187586107Y-95367132D01*
X187607150Y-95354520D01*
X187629329Y-95344030D01*
X187652428Y-95335765D01*
X187676227Y-95329804D01*
X187700495Y-95326204D01*
X187724999Y-95325000D01*
X188625001Y-95325000D01*
X188649505Y-95326204D01*
G37*
G36*
X203799505Y-79176204D02*
G01*
X203823773Y-79179804D01*
X203847572Y-79185765D01*
X203870671Y-79194030D01*
X203892850Y-79204520D01*
X203913893Y-79217132D01*
X203933599Y-79231747D01*
X203951777Y-79248223D01*
X203968253Y-79266401D01*
X203982868Y-79286107D01*
X203995480Y-79307150D01*
X204005970Y-79329329D01*
X204014235Y-79352428D01*
X204020196Y-79376227D01*
X204023796Y-79400495D01*
X204025000Y-79424999D01*
X204025000Y-80075001D01*
X204023796Y-80099505D01*
X204020196Y-80123773D01*
X204014235Y-80147572D01*
X204005970Y-80170671D01*
X203995480Y-80192850D01*
X203982868Y-80213893D01*
X203968253Y-80233599D01*
X203951777Y-80251777D01*
X203933599Y-80268253D01*
X203913893Y-80282868D01*
X203892850Y-80295480D01*
X203870671Y-80305970D01*
X203847572Y-80314235D01*
X203823773Y-80320196D01*
X203799505Y-80323796D01*
X203775001Y-80325000D01*
X202874999Y-80325000D01*
X202850495Y-80323796D01*
X202826227Y-80320196D01*
X202802428Y-80314235D01*
X202779329Y-80305970D01*
X202757150Y-80295480D01*
X202736107Y-80282868D01*
X202716401Y-80268253D01*
X202698223Y-80251777D01*
X202681747Y-80233599D01*
X202667132Y-80213893D01*
X202654520Y-80192850D01*
X202644030Y-80170671D01*
X202635765Y-80147572D01*
X202629804Y-80123773D01*
X202626204Y-80099505D01*
X202625000Y-80075001D01*
X202625000Y-79424999D01*
X202626204Y-79400495D01*
X202629804Y-79376227D01*
X202635765Y-79352428D01*
X202644030Y-79329329D01*
X202654520Y-79307150D01*
X202667132Y-79286107D01*
X202681747Y-79266401D01*
X202698223Y-79248223D01*
X202716401Y-79231747D01*
X202736107Y-79217132D01*
X202757150Y-79204520D01*
X202779329Y-79194030D01*
X202802428Y-79185765D01*
X202826227Y-79179804D01*
X202850495Y-79176204D01*
X202874999Y-79175000D01*
X203775001Y-79175000D01*
X203799505Y-79176204D01*
G37*
G36*
X203799505Y-81226204D02*
G01*
X203823773Y-81229804D01*
X203847572Y-81235765D01*
X203870671Y-81244030D01*
X203892850Y-81254520D01*
X203913893Y-81267132D01*
X203933599Y-81281747D01*
X203951777Y-81298223D01*
X203968253Y-81316401D01*
X203982868Y-81336107D01*
X203995480Y-81357150D01*
X204005970Y-81379329D01*
X204014235Y-81402428D01*
X204020196Y-81426227D01*
X204023796Y-81450495D01*
X204025000Y-81474999D01*
X204025000Y-82125001D01*
X204023796Y-82149505D01*
X204020196Y-82173773D01*
X204014235Y-82197572D01*
X204005970Y-82220671D01*
X203995480Y-82242850D01*
X203982868Y-82263893D01*
X203968253Y-82283599D01*
X203951777Y-82301777D01*
X203933599Y-82318253D01*
X203913893Y-82332868D01*
X203892850Y-82345480D01*
X203870671Y-82355970D01*
X203847572Y-82364235D01*
X203823773Y-82370196D01*
X203799505Y-82373796D01*
X203775001Y-82375000D01*
X202874999Y-82375000D01*
X202850495Y-82373796D01*
X202826227Y-82370196D01*
X202802428Y-82364235D01*
X202779329Y-82355970D01*
X202757150Y-82345480D01*
X202736107Y-82332868D01*
X202716401Y-82318253D01*
X202698223Y-82301777D01*
X202681747Y-82283599D01*
X202667132Y-82263893D01*
X202654520Y-82242850D01*
X202644030Y-82220671D01*
X202635765Y-82197572D01*
X202629804Y-82173773D01*
X202626204Y-82149505D01*
X202625000Y-82125001D01*
X202625000Y-81474999D01*
X202626204Y-81450495D01*
X202629804Y-81426227D01*
X202635765Y-81402428D01*
X202644030Y-81379329D01*
X202654520Y-81357150D01*
X202667132Y-81336107D01*
X202681747Y-81316401D01*
X202698223Y-81298223D01*
X202716401Y-81281747D01*
X202736107Y-81267132D01*
X202757150Y-81254520D01*
X202779329Y-81244030D01*
X202802428Y-81235765D01*
X202826227Y-81229804D01*
X202850495Y-81226204D01*
X202874999Y-81225000D01*
X203775001Y-81225000D01*
X203799505Y-81226204D01*
G37*
G36*
X203624505Y-92251204D02*
G01*
X203648773Y-92254804D01*
X203672572Y-92260765D01*
X203695671Y-92269030D01*
X203717850Y-92279520D01*
X203738893Y-92292132D01*
X203758599Y-92306747D01*
X203776777Y-92323223D01*
X203793253Y-92341401D01*
X203807868Y-92361107D01*
X203820480Y-92382150D01*
X203830970Y-92404329D01*
X203839235Y-92427428D01*
X203845196Y-92451227D01*
X203848796Y-92475495D01*
X203850000Y-92499999D01*
X203850000Y-93150001D01*
X203848796Y-93174505D01*
X203845196Y-93198773D01*
X203839235Y-93222572D01*
X203830970Y-93245671D01*
X203820480Y-93267850D01*
X203807868Y-93288893D01*
X203793253Y-93308599D01*
X203776777Y-93326777D01*
X203758599Y-93343253D01*
X203738893Y-93357868D01*
X203717850Y-93370480D01*
X203695671Y-93380970D01*
X203672572Y-93389235D01*
X203648773Y-93395196D01*
X203624505Y-93398796D01*
X203600001Y-93400000D01*
X202699999Y-93400000D01*
X202675495Y-93398796D01*
X202651227Y-93395196D01*
X202627428Y-93389235D01*
X202604329Y-93380970D01*
X202582150Y-93370480D01*
X202561107Y-93357868D01*
X202541401Y-93343253D01*
X202523223Y-93326777D01*
X202506747Y-93308599D01*
X202492132Y-93288893D01*
X202479520Y-93267850D01*
X202469030Y-93245671D01*
X202460765Y-93222572D01*
X202454804Y-93198773D01*
X202451204Y-93174505D01*
X202450000Y-93150001D01*
X202450000Y-92499999D01*
X202451204Y-92475495D01*
X202454804Y-92451227D01*
X202460765Y-92427428D01*
X202469030Y-92404329D01*
X202479520Y-92382150D01*
X202492132Y-92361107D01*
X202506747Y-92341401D01*
X202523223Y-92323223D01*
X202541401Y-92306747D01*
X202561107Y-92292132D01*
X202582150Y-92279520D01*
X202604329Y-92269030D01*
X202627428Y-92260765D01*
X202651227Y-92254804D01*
X202675495Y-92251204D01*
X202699999Y-92250000D01*
X203600001Y-92250000D01*
X203624505Y-92251204D01*
G37*
G36*
X203624505Y-90201204D02*
G01*
X203648773Y-90204804D01*
X203672572Y-90210765D01*
X203695671Y-90219030D01*
X203717850Y-90229520D01*
X203738893Y-90242132D01*
X203758599Y-90256747D01*
X203776777Y-90273223D01*
X203793253Y-90291401D01*
X203807868Y-90311107D01*
X203820480Y-90332150D01*
X203830970Y-90354329D01*
X203839235Y-90377428D01*
X203845196Y-90401227D01*
X203848796Y-90425495D01*
X203850000Y-90449999D01*
X203850000Y-91100001D01*
X203848796Y-91124505D01*
X203845196Y-91148773D01*
X203839235Y-91172572D01*
X203830970Y-91195671D01*
X203820480Y-91217850D01*
X203807868Y-91238893D01*
X203793253Y-91258599D01*
X203776777Y-91276777D01*
X203758599Y-91293253D01*
X203738893Y-91307868D01*
X203717850Y-91320480D01*
X203695671Y-91330970D01*
X203672572Y-91339235D01*
X203648773Y-91345196D01*
X203624505Y-91348796D01*
X203600001Y-91350000D01*
X202699999Y-91350000D01*
X202675495Y-91348796D01*
X202651227Y-91345196D01*
X202627428Y-91339235D01*
X202604329Y-91330970D01*
X202582150Y-91320480D01*
X202561107Y-91307868D01*
X202541401Y-91293253D01*
X202523223Y-91276777D01*
X202506747Y-91258599D01*
X202492132Y-91238893D01*
X202479520Y-91217850D01*
X202469030Y-91195671D01*
X202460765Y-91172572D01*
X202454804Y-91148773D01*
X202451204Y-91124505D01*
X202450000Y-91100001D01*
X202450000Y-90449999D01*
X202451204Y-90425495D01*
X202454804Y-90401227D01*
X202460765Y-90377428D01*
X202469030Y-90354329D01*
X202479520Y-90332150D01*
X202492132Y-90311107D01*
X202506747Y-90291401D01*
X202523223Y-90273223D01*
X202541401Y-90256747D01*
X202561107Y-90242132D01*
X202582150Y-90229520D01*
X202604329Y-90219030D01*
X202627428Y-90210765D01*
X202651227Y-90204804D01*
X202675495Y-90201204D01*
X202699999Y-90200000D01*
X203600001Y-90200000D01*
X203624505Y-90201204D01*
G37*
G36*
X198549505Y-106551204D02*
G01*
X198573773Y-106554804D01*
X198597572Y-106560765D01*
X198620671Y-106569030D01*
X198642850Y-106579520D01*
X198663893Y-106592132D01*
X198683599Y-106606747D01*
X198701777Y-106623223D01*
X198718253Y-106641401D01*
X198732868Y-106661107D01*
X198745480Y-106682150D01*
X198755970Y-106704329D01*
X198764235Y-106727428D01*
X198770196Y-106751227D01*
X198773796Y-106775495D01*
X198775000Y-106799999D01*
X198775000Y-107450001D01*
X198773796Y-107474505D01*
X198770196Y-107498773D01*
X198764235Y-107522572D01*
X198755970Y-107545671D01*
X198745480Y-107567850D01*
X198732868Y-107588893D01*
X198718253Y-107608599D01*
X198701777Y-107626777D01*
X198683599Y-107643253D01*
X198663893Y-107657868D01*
X198642850Y-107670480D01*
X198620671Y-107680970D01*
X198597572Y-107689235D01*
X198573773Y-107695196D01*
X198549505Y-107698796D01*
X198525001Y-107700000D01*
X197624999Y-107700000D01*
X197600495Y-107698796D01*
X197576227Y-107695196D01*
X197552428Y-107689235D01*
X197529329Y-107680970D01*
X197507150Y-107670480D01*
X197486107Y-107657868D01*
X197466401Y-107643253D01*
X197448223Y-107626777D01*
X197431747Y-107608599D01*
X197417132Y-107588893D01*
X197404520Y-107567850D01*
X197394030Y-107545671D01*
X197385765Y-107522572D01*
X197379804Y-107498773D01*
X197376204Y-107474505D01*
X197375000Y-107450001D01*
X197375000Y-106799999D01*
X197376204Y-106775495D01*
X197379804Y-106751227D01*
X197385765Y-106727428D01*
X197394030Y-106704329D01*
X197404520Y-106682150D01*
X197417132Y-106661107D01*
X197431747Y-106641401D01*
X197448223Y-106623223D01*
X197466401Y-106606747D01*
X197486107Y-106592132D01*
X197507150Y-106579520D01*
X197529329Y-106569030D01*
X197552428Y-106560765D01*
X197576227Y-106554804D01*
X197600495Y-106551204D01*
X197624999Y-106550000D01*
X198525001Y-106550000D01*
X198549505Y-106551204D01*
G37*
G36*
X198549505Y-108601204D02*
G01*
X198573773Y-108604804D01*
X198597572Y-108610765D01*
X198620671Y-108619030D01*
X198642850Y-108629520D01*
X198663893Y-108642132D01*
X198683599Y-108656747D01*
X198701777Y-108673223D01*
X198718253Y-108691401D01*
X198732868Y-108711107D01*
X198745480Y-108732150D01*
X198755970Y-108754329D01*
X198764235Y-108777428D01*
X198770196Y-108801227D01*
X198773796Y-108825495D01*
X198775000Y-108849999D01*
X198775000Y-109500001D01*
X198773796Y-109524505D01*
X198770196Y-109548773D01*
X198764235Y-109572572D01*
X198755970Y-109595671D01*
X198745480Y-109617850D01*
X198732868Y-109638893D01*
X198718253Y-109658599D01*
X198701777Y-109676777D01*
X198683599Y-109693253D01*
X198663893Y-109707868D01*
X198642850Y-109720480D01*
X198620671Y-109730970D01*
X198597572Y-109739235D01*
X198573773Y-109745196D01*
X198549505Y-109748796D01*
X198525001Y-109750000D01*
X197624999Y-109750000D01*
X197600495Y-109748796D01*
X197576227Y-109745196D01*
X197552428Y-109739235D01*
X197529329Y-109730970D01*
X197507150Y-109720480D01*
X197486107Y-109707868D01*
X197466401Y-109693253D01*
X197448223Y-109676777D01*
X197431747Y-109658599D01*
X197417132Y-109638893D01*
X197404520Y-109617850D01*
X197394030Y-109595671D01*
X197385765Y-109572572D01*
X197379804Y-109548773D01*
X197376204Y-109524505D01*
X197375000Y-109500001D01*
X197375000Y-108849999D01*
X197376204Y-108825495D01*
X197379804Y-108801227D01*
X197385765Y-108777428D01*
X197394030Y-108754329D01*
X197404520Y-108732150D01*
X197417132Y-108711107D01*
X197431747Y-108691401D01*
X197448223Y-108673223D01*
X197466401Y-108656747D01*
X197486107Y-108642132D01*
X197507150Y-108629520D01*
X197529329Y-108619030D01*
X197552428Y-108610765D01*
X197576227Y-108604804D01*
X197600495Y-108601204D01*
X197624999Y-108600000D01*
X198525001Y-108600000D01*
X198549505Y-108601204D01*
G37*
G36*
X168785779Y-95826144D02*
G01*
X168808834Y-95829563D01*
X168831443Y-95835227D01*
X168853387Y-95843079D01*
X168874457Y-95853044D01*
X168894448Y-95865026D01*
X168913168Y-95878910D01*
X168930438Y-95894562D01*
X168946090Y-95911832D01*
X168959974Y-95930552D01*
X168971956Y-95950543D01*
X168981921Y-95971613D01*
X168989773Y-95993557D01*
X168995437Y-96016166D01*
X168998856Y-96039221D01*
X169000000Y-96062500D01*
X169000000Y-96537500D01*
X168998856Y-96560779D01*
X168995437Y-96583834D01*
X168989773Y-96606443D01*
X168981921Y-96628387D01*
X168971956Y-96649457D01*
X168959974Y-96669448D01*
X168946090Y-96688168D01*
X168930438Y-96705438D01*
X168913168Y-96721090D01*
X168894448Y-96734974D01*
X168874457Y-96746956D01*
X168853387Y-96756921D01*
X168831443Y-96764773D01*
X168808834Y-96770437D01*
X168785779Y-96773856D01*
X168762500Y-96775000D01*
X168187500Y-96775000D01*
X168164221Y-96773856D01*
X168141166Y-96770437D01*
X168118557Y-96764773D01*
X168096613Y-96756921D01*
X168075543Y-96746956D01*
X168055552Y-96734974D01*
X168036832Y-96721090D01*
X168019562Y-96705438D01*
X168003910Y-96688168D01*
X167990026Y-96669448D01*
X167978044Y-96649457D01*
X167968079Y-96628387D01*
X167960227Y-96606443D01*
X167954563Y-96583834D01*
X167951144Y-96560779D01*
X167950000Y-96537500D01*
X167950000Y-96062500D01*
X167951144Y-96039221D01*
X167954563Y-96016166D01*
X167960227Y-95993557D01*
X167968079Y-95971613D01*
X167978044Y-95950543D01*
X167990026Y-95930552D01*
X168003910Y-95911832D01*
X168019562Y-95894562D01*
X168036832Y-95878910D01*
X168055552Y-95865026D01*
X168075543Y-95853044D01*
X168096613Y-95843079D01*
X168118557Y-95835227D01*
X168141166Y-95829563D01*
X168164221Y-95826144D01*
X168187500Y-95825000D01*
X168762500Y-95825000D01*
X168785779Y-95826144D01*
G37*
G36*
X167035779Y-95826144D02*
G01*
X167058834Y-95829563D01*
X167081443Y-95835227D01*
X167103387Y-95843079D01*
X167124457Y-95853044D01*
X167144448Y-95865026D01*
X167163168Y-95878910D01*
X167180438Y-95894562D01*
X167196090Y-95911832D01*
X167209974Y-95930552D01*
X167221956Y-95950543D01*
X167231921Y-95971613D01*
X167239773Y-95993557D01*
X167245437Y-96016166D01*
X167248856Y-96039221D01*
X167250000Y-96062500D01*
X167250000Y-96537500D01*
X167248856Y-96560779D01*
X167245437Y-96583834D01*
X167239773Y-96606443D01*
X167231921Y-96628387D01*
X167221956Y-96649457D01*
X167209974Y-96669448D01*
X167196090Y-96688168D01*
X167180438Y-96705438D01*
X167163168Y-96721090D01*
X167144448Y-96734974D01*
X167124457Y-96746956D01*
X167103387Y-96756921D01*
X167081443Y-96764773D01*
X167058834Y-96770437D01*
X167035779Y-96773856D01*
X167012500Y-96775000D01*
X166437500Y-96775000D01*
X166414221Y-96773856D01*
X166391166Y-96770437D01*
X166368557Y-96764773D01*
X166346613Y-96756921D01*
X166325543Y-96746956D01*
X166305552Y-96734974D01*
X166286832Y-96721090D01*
X166269562Y-96705438D01*
X166253910Y-96688168D01*
X166240026Y-96669448D01*
X166228044Y-96649457D01*
X166218079Y-96628387D01*
X166210227Y-96606443D01*
X166204563Y-96583834D01*
X166201144Y-96560779D01*
X166200000Y-96537500D01*
X166200000Y-96062500D01*
X166201144Y-96039221D01*
X166204563Y-96016166D01*
X166210227Y-95993557D01*
X166218079Y-95971613D01*
X166228044Y-95950543D01*
X166240026Y-95930552D01*
X166253910Y-95911832D01*
X166269562Y-95894562D01*
X166286832Y-95878910D01*
X166305552Y-95865026D01*
X166325543Y-95853044D01*
X166346613Y-95843079D01*
X166368557Y-95835227D01*
X166391166Y-95829563D01*
X166414221Y-95826144D01*
X166437500Y-95825000D01*
X167012500Y-95825000D01*
X167035779Y-95826144D01*
G37*
D12*
X211500000Y-123400000D03*
X211500000Y-121900000D03*
X212600000Y-121900000D03*
X212600000Y-123400000D03*
X205725000Y-123350000D03*
X205725000Y-121850000D03*
X204625000Y-121850000D03*
X204625000Y-123350000D03*
X195325000Y-123475000D03*
X195325000Y-121975000D03*
X194225000Y-121975000D03*
X194225000Y-123475000D03*
X184100000Y-123425000D03*
X184100000Y-121925000D03*
X185200000Y-121925000D03*
X185200000Y-123425000D03*
D13*
X218600000Y-87725000D03*
X220100000Y-87725000D03*
X220100000Y-86625000D03*
X218600000Y-86625000D03*
X218550000Y-94675000D03*
X220050000Y-94675000D03*
X220050000Y-95775000D03*
X218550000Y-95775000D03*
X218525000Y-102075000D03*
X220025000Y-102075000D03*
X220025000Y-103175000D03*
X218525000Y-103175000D03*
X218500000Y-111025000D03*
X220000000Y-111025000D03*
X220000000Y-109925000D03*
X218500000Y-109925000D03*
D11*
G36*
X177080142Y-81638674D02*
G01*
X177103803Y-81642184D01*
X177127007Y-81647996D01*
X177149529Y-81656054D01*
X177171153Y-81666282D01*
X177191670Y-81678579D01*
X177210883Y-81692829D01*
X177228607Y-81708893D01*
X177244671Y-81726617D01*
X177258921Y-81745830D01*
X177271218Y-81766347D01*
X177281446Y-81787971D01*
X177289504Y-81810493D01*
X177295316Y-81833697D01*
X177298826Y-81857358D01*
X177300000Y-81881250D01*
X177300000Y-82368750D01*
X177298826Y-82392642D01*
X177295316Y-82416303D01*
X177289504Y-82439507D01*
X177281446Y-82462029D01*
X177271218Y-82483653D01*
X177258921Y-82504170D01*
X177244671Y-82523383D01*
X177228607Y-82541107D01*
X177210883Y-82557171D01*
X177191670Y-82571421D01*
X177171153Y-82583718D01*
X177149529Y-82593946D01*
X177127007Y-82602004D01*
X177103803Y-82607816D01*
X177080142Y-82611326D01*
X177056250Y-82612500D01*
X176143750Y-82612500D01*
X176119858Y-82611326D01*
X176096197Y-82607816D01*
X176072993Y-82602004D01*
X176050471Y-82593946D01*
X176028847Y-82583718D01*
X176008330Y-82571421D01*
X175989117Y-82557171D01*
X175971393Y-82541107D01*
X175955329Y-82523383D01*
X175941079Y-82504170D01*
X175928782Y-82483653D01*
X175918554Y-82462029D01*
X175910496Y-82439507D01*
X175904684Y-82416303D01*
X175901174Y-82392642D01*
X175900000Y-82368750D01*
X175900000Y-81881250D01*
X175901174Y-81857358D01*
X175904684Y-81833697D01*
X175910496Y-81810493D01*
X175918554Y-81787971D01*
X175928782Y-81766347D01*
X175941079Y-81745830D01*
X175955329Y-81726617D01*
X175971393Y-81708893D01*
X175989117Y-81692829D01*
X176008330Y-81678579D01*
X176028847Y-81666282D01*
X176050471Y-81656054D01*
X176072993Y-81647996D01*
X176096197Y-81642184D01*
X176119858Y-81638674D01*
X176143750Y-81637500D01*
X177056250Y-81637500D01*
X177080142Y-81638674D01*
G37*
G36*
X177080142Y-83513674D02*
G01*
X177103803Y-83517184D01*
X177127007Y-83522996D01*
X177149529Y-83531054D01*
X177171153Y-83541282D01*
X177191670Y-83553579D01*
X177210883Y-83567829D01*
X177228607Y-83583893D01*
X177244671Y-83601617D01*
X177258921Y-83620830D01*
X177271218Y-83641347D01*
X177281446Y-83662971D01*
X177289504Y-83685493D01*
X177295316Y-83708697D01*
X177298826Y-83732358D01*
X177300000Y-83756250D01*
X177300000Y-84243750D01*
X177298826Y-84267642D01*
X177295316Y-84291303D01*
X177289504Y-84314507D01*
X177281446Y-84337029D01*
X177271218Y-84358653D01*
X177258921Y-84379170D01*
X177244671Y-84398383D01*
X177228607Y-84416107D01*
X177210883Y-84432171D01*
X177191670Y-84446421D01*
X177171153Y-84458718D01*
X177149529Y-84468946D01*
X177127007Y-84477004D01*
X177103803Y-84482816D01*
X177080142Y-84486326D01*
X177056250Y-84487500D01*
X176143750Y-84487500D01*
X176119858Y-84486326D01*
X176096197Y-84482816D01*
X176072993Y-84477004D01*
X176050471Y-84468946D01*
X176028847Y-84458718D01*
X176008330Y-84446421D01*
X175989117Y-84432171D01*
X175971393Y-84416107D01*
X175955329Y-84398383D01*
X175941079Y-84379170D01*
X175928782Y-84358653D01*
X175918554Y-84337029D01*
X175910496Y-84314507D01*
X175904684Y-84291303D01*
X175901174Y-84267642D01*
X175900000Y-84243750D01*
X175900000Y-83756250D01*
X175901174Y-83732358D01*
X175904684Y-83708697D01*
X175910496Y-83685493D01*
X175918554Y-83662971D01*
X175928782Y-83641347D01*
X175941079Y-83620830D01*
X175955329Y-83601617D01*
X175971393Y-83583893D01*
X175989117Y-83567829D01*
X176008330Y-83553579D01*
X176028847Y-83541282D01*
X176050471Y-83531054D01*
X176072993Y-83522996D01*
X176096197Y-83517184D01*
X176119858Y-83513674D01*
X176143750Y-83512500D01*
X177056250Y-83512500D01*
X177080142Y-83513674D01*
G37*
D14*
X168525000Y-102925000D03*
D15*
X168525000Y-101325000D03*
X168525000Y-102125000D03*
D14*
X168525000Y-100525000D03*
D15*
X166725000Y-102125000D03*
D14*
X166725000Y-102925000D03*
D15*
X166725000Y-101325000D03*
D14*
X166725000Y-100525000D03*
D16*
X209850000Y-115175000D03*
D17*
X208250000Y-115175000D03*
X209050000Y-115175000D03*
D16*
X207450000Y-115175000D03*
D17*
X209050000Y-116975000D03*
D16*
X209850000Y-116975000D03*
D17*
X208250000Y-116975000D03*
D16*
X207450000Y-116975000D03*
X196600000Y-116925000D03*
D17*
X197400000Y-116925000D03*
D16*
X199000000Y-116925000D03*
D17*
X198200000Y-116925000D03*
D16*
X196600000Y-115125000D03*
D17*
X198200000Y-115125000D03*
X197400000Y-115125000D03*
D16*
X199000000Y-115125000D03*
X186025000Y-114975000D03*
D17*
X184425000Y-114975000D03*
X185225000Y-114975000D03*
D16*
X183625000Y-114975000D03*
D17*
X185225000Y-116775000D03*
D16*
X186025000Y-116775000D03*
D17*
X184425000Y-116775000D03*
D16*
X183625000Y-116775000D03*
D14*
X210750000Y-88975000D03*
D15*
X210750000Y-88175000D03*
D14*
X210750000Y-86575000D03*
D15*
X210750000Y-87375000D03*
D14*
X208950000Y-88975000D03*
D15*
X208950000Y-87375000D03*
X208950000Y-88175000D03*
D14*
X208950000Y-86575000D03*
X208975000Y-94575000D03*
D15*
X208975000Y-96175000D03*
X208975000Y-95375000D03*
D14*
X208975000Y-96975000D03*
D15*
X210775000Y-95375000D03*
D14*
X210775000Y-94575000D03*
D15*
X210775000Y-96175000D03*
D14*
X210775000Y-96975000D03*
X210625000Y-105100000D03*
D15*
X210625000Y-104300000D03*
D14*
X210625000Y-102700000D03*
D15*
X210625000Y-103500000D03*
D14*
X208825000Y-105100000D03*
D15*
X208825000Y-103500000D03*
X208825000Y-104300000D03*
D14*
X208825000Y-102700000D03*
D11*
G36*
X185600977Y-99225662D02*
G01*
X185614325Y-99227642D01*
X185627414Y-99230921D01*
X185640119Y-99235467D01*
X185652317Y-99241236D01*
X185663891Y-99248173D01*
X185674729Y-99256211D01*
X185684727Y-99265273D01*
X185693789Y-99275271D01*
X185701827Y-99286109D01*
X185708764Y-99297683D01*
X185714533Y-99309881D01*
X185719079Y-99322586D01*
X185722358Y-99335675D01*
X185724338Y-99349023D01*
X185725000Y-99362500D01*
X185725000Y-99637500D01*
X185724338Y-99650977D01*
X185722358Y-99664325D01*
X185719079Y-99677414D01*
X185714533Y-99690119D01*
X185708764Y-99702317D01*
X185701827Y-99713891D01*
X185693789Y-99724729D01*
X185684727Y-99734727D01*
X185674729Y-99743789D01*
X185663891Y-99751827D01*
X185652317Y-99758764D01*
X185640119Y-99764533D01*
X185627414Y-99769079D01*
X185614325Y-99772358D01*
X185600977Y-99774338D01*
X185587500Y-99775000D01*
X184387500Y-99775000D01*
X184374023Y-99774338D01*
X184360675Y-99772358D01*
X184347586Y-99769079D01*
X184334881Y-99764533D01*
X184322683Y-99758764D01*
X184311109Y-99751827D01*
X184300271Y-99743789D01*
X184290273Y-99734727D01*
X184281211Y-99724729D01*
X184273173Y-99713891D01*
X184266236Y-99702317D01*
X184260467Y-99690119D01*
X184255921Y-99677414D01*
X184252642Y-99664325D01*
X184250662Y-99650977D01*
X184250000Y-99637500D01*
X184250000Y-99362500D01*
X184250662Y-99349023D01*
X184252642Y-99335675D01*
X184255921Y-99322586D01*
X184260467Y-99309881D01*
X184266236Y-99297683D01*
X184273173Y-99286109D01*
X184281211Y-99275271D01*
X184290273Y-99265273D01*
X184300271Y-99256211D01*
X184311109Y-99248173D01*
X184322683Y-99241236D01*
X184334881Y-99235467D01*
X184347586Y-99230921D01*
X184360675Y-99227642D01*
X184374023Y-99225662D01*
X184387500Y-99225000D01*
X185587500Y-99225000D01*
X185600977Y-99225662D01*
G37*
G36*
X185600977Y-98425662D02*
G01*
X185614325Y-98427642D01*
X185627414Y-98430921D01*
X185640119Y-98435467D01*
X185652317Y-98441236D01*
X185663891Y-98448173D01*
X185674729Y-98456211D01*
X185684727Y-98465273D01*
X185693789Y-98475271D01*
X185701827Y-98486109D01*
X185708764Y-98497683D01*
X185714533Y-98509881D01*
X185719079Y-98522586D01*
X185722358Y-98535675D01*
X185724338Y-98549023D01*
X185725000Y-98562500D01*
X185725000Y-98837500D01*
X185724338Y-98850977D01*
X185722358Y-98864325D01*
X185719079Y-98877414D01*
X185714533Y-98890119D01*
X185708764Y-98902317D01*
X185701827Y-98913891D01*
X185693789Y-98924729D01*
X185684727Y-98934727D01*
X185674729Y-98943789D01*
X185663891Y-98951827D01*
X185652317Y-98958764D01*
X185640119Y-98964533D01*
X185627414Y-98969079D01*
X185614325Y-98972358D01*
X185600977Y-98974338D01*
X185587500Y-98975000D01*
X184387500Y-98975000D01*
X184374023Y-98974338D01*
X184360675Y-98972358D01*
X184347586Y-98969079D01*
X184334881Y-98964533D01*
X184322683Y-98958764D01*
X184311109Y-98951827D01*
X184300271Y-98943789D01*
X184290273Y-98934727D01*
X184281211Y-98924729D01*
X184273173Y-98913891D01*
X184266236Y-98902317D01*
X184260467Y-98890119D01*
X184255921Y-98877414D01*
X184252642Y-98864325D01*
X184250662Y-98850977D01*
X184250000Y-98837500D01*
X184250000Y-98562500D01*
X184250662Y-98549023D01*
X184252642Y-98535675D01*
X184255921Y-98522586D01*
X184260467Y-98509881D01*
X184266236Y-98497683D01*
X184273173Y-98486109D01*
X184281211Y-98475271D01*
X184290273Y-98465273D01*
X184300271Y-98456211D01*
X184311109Y-98448173D01*
X184322683Y-98441236D01*
X184334881Y-98435467D01*
X184347586Y-98430921D01*
X184360675Y-98427642D01*
X184374023Y-98425662D01*
X184387500Y-98425000D01*
X185587500Y-98425000D01*
X185600977Y-98425662D01*
G37*
G36*
X185600977Y-97625662D02*
G01*
X185614325Y-97627642D01*
X185627414Y-97630921D01*
X185640119Y-97635467D01*
X185652317Y-97641236D01*
X185663891Y-97648173D01*
X185674729Y-97656211D01*
X185684727Y-97665273D01*
X185693789Y-97675271D01*
X185701827Y-97686109D01*
X185708764Y-97697683D01*
X185714533Y-97709881D01*
X185719079Y-97722586D01*
X185722358Y-97735675D01*
X185724338Y-97749023D01*
X185725000Y-97762500D01*
X185725000Y-98037500D01*
X185724338Y-98050977D01*
X185722358Y-98064325D01*
X185719079Y-98077414D01*
X185714533Y-98090119D01*
X185708764Y-98102317D01*
X185701827Y-98113891D01*
X185693789Y-98124729D01*
X185684727Y-98134727D01*
X185674729Y-98143789D01*
X185663891Y-98151827D01*
X185652317Y-98158764D01*
X185640119Y-98164533D01*
X185627414Y-98169079D01*
X185614325Y-98172358D01*
X185600977Y-98174338D01*
X185587500Y-98175000D01*
X184387500Y-98175000D01*
X184374023Y-98174338D01*
X184360675Y-98172358D01*
X184347586Y-98169079D01*
X184334881Y-98164533D01*
X184322683Y-98158764D01*
X184311109Y-98151827D01*
X184300271Y-98143789D01*
X184290273Y-98134727D01*
X184281211Y-98124729D01*
X184273173Y-98113891D01*
X184266236Y-98102317D01*
X184260467Y-98090119D01*
X184255921Y-98077414D01*
X184252642Y-98064325D01*
X184250662Y-98050977D01*
X184250000Y-98037500D01*
X184250000Y-97762500D01*
X184250662Y-97749023D01*
X184252642Y-97735675D01*
X184255921Y-97722586D01*
X184260467Y-97709881D01*
X184266236Y-97697683D01*
X184273173Y-97686109D01*
X184281211Y-97675271D01*
X184290273Y-97665273D01*
X184300271Y-97656211D01*
X184311109Y-97648173D01*
X184322683Y-97641236D01*
X184334881Y-97635467D01*
X184347586Y-97630921D01*
X184360675Y-97627642D01*
X184374023Y-97625662D01*
X184387500Y-97625000D01*
X185587500Y-97625000D01*
X185600977Y-97625662D01*
G37*
G36*
X185600977Y-96825662D02*
G01*
X185614325Y-96827642D01*
X185627414Y-96830921D01*
X185640119Y-96835467D01*
X185652317Y-96841236D01*
X185663891Y-96848173D01*
X185674729Y-96856211D01*
X185684727Y-96865273D01*
X185693789Y-96875271D01*
X185701827Y-96886109D01*
X185708764Y-96897683D01*
X185714533Y-96909881D01*
X185719079Y-96922586D01*
X185722358Y-96935675D01*
X185724338Y-96949023D01*
X185725000Y-96962500D01*
X185725000Y-97237500D01*
X185724338Y-97250977D01*
X185722358Y-97264325D01*
X185719079Y-97277414D01*
X185714533Y-97290119D01*
X185708764Y-97302317D01*
X185701827Y-97313891D01*
X185693789Y-97324729D01*
X185684727Y-97334727D01*
X185674729Y-97343789D01*
X185663891Y-97351827D01*
X185652317Y-97358764D01*
X185640119Y-97364533D01*
X185627414Y-97369079D01*
X185614325Y-97372358D01*
X185600977Y-97374338D01*
X185587500Y-97375000D01*
X184387500Y-97375000D01*
X184374023Y-97374338D01*
X184360675Y-97372358D01*
X184347586Y-97369079D01*
X184334881Y-97364533D01*
X184322683Y-97358764D01*
X184311109Y-97351827D01*
X184300271Y-97343789D01*
X184290273Y-97334727D01*
X184281211Y-97324729D01*
X184273173Y-97313891D01*
X184266236Y-97302317D01*
X184260467Y-97290119D01*
X184255921Y-97277414D01*
X184252642Y-97264325D01*
X184250662Y-97250977D01*
X184250000Y-97237500D01*
X184250000Y-96962500D01*
X184250662Y-96949023D01*
X184252642Y-96935675D01*
X184255921Y-96922586D01*
X184260467Y-96909881D01*
X184266236Y-96897683D01*
X184273173Y-96886109D01*
X184281211Y-96875271D01*
X184290273Y-96865273D01*
X184300271Y-96856211D01*
X184311109Y-96848173D01*
X184322683Y-96841236D01*
X184334881Y-96835467D01*
X184347586Y-96830921D01*
X184360675Y-96827642D01*
X184374023Y-96825662D01*
X184387500Y-96825000D01*
X185587500Y-96825000D01*
X185600977Y-96825662D01*
G37*
G36*
X185600977Y-96025662D02*
G01*
X185614325Y-96027642D01*
X185627414Y-96030921D01*
X185640119Y-96035467D01*
X185652317Y-96041236D01*
X185663891Y-96048173D01*
X185674729Y-96056211D01*
X185684727Y-96065273D01*
X185693789Y-96075271D01*
X185701827Y-96086109D01*
X185708764Y-96097683D01*
X185714533Y-96109881D01*
X185719079Y-96122586D01*
X185722358Y-96135675D01*
X185724338Y-96149023D01*
X185725000Y-96162500D01*
X185725000Y-96437500D01*
X185724338Y-96450977D01*
X185722358Y-96464325D01*
X185719079Y-96477414D01*
X185714533Y-96490119D01*
X185708764Y-96502317D01*
X185701827Y-96513891D01*
X185693789Y-96524729D01*
X185684727Y-96534727D01*
X185674729Y-96543789D01*
X185663891Y-96551827D01*
X185652317Y-96558764D01*
X185640119Y-96564533D01*
X185627414Y-96569079D01*
X185614325Y-96572358D01*
X185600977Y-96574338D01*
X185587500Y-96575000D01*
X184387500Y-96575000D01*
X184374023Y-96574338D01*
X184360675Y-96572358D01*
X184347586Y-96569079D01*
X184334881Y-96564533D01*
X184322683Y-96558764D01*
X184311109Y-96551827D01*
X184300271Y-96543789D01*
X184290273Y-96534727D01*
X184281211Y-96524729D01*
X184273173Y-96513891D01*
X184266236Y-96502317D01*
X184260467Y-96490119D01*
X184255921Y-96477414D01*
X184252642Y-96464325D01*
X184250662Y-96450977D01*
X184250000Y-96437500D01*
X184250000Y-96162500D01*
X184250662Y-96149023D01*
X184252642Y-96135675D01*
X184255921Y-96122586D01*
X184260467Y-96109881D01*
X184266236Y-96097683D01*
X184273173Y-96086109D01*
X184281211Y-96075271D01*
X184290273Y-96065273D01*
X184300271Y-96056211D01*
X184311109Y-96048173D01*
X184322683Y-96041236D01*
X184334881Y-96035467D01*
X184347586Y-96030921D01*
X184360675Y-96027642D01*
X184374023Y-96025662D01*
X184387500Y-96025000D01*
X185587500Y-96025000D01*
X185600977Y-96025662D01*
G37*
G36*
X185600977Y-95225662D02*
G01*
X185614325Y-95227642D01*
X185627414Y-95230921D01*
X185640119Y-95235467D01*
X185652317Y-95241236D01*
X185663891Y-95248173D01*
X185674729Y-95256211D01*
X185684727Y-95265273D01*
X185693789Y-95275271D01*
X185701827Y-95286109D01*
X185708764Y-95297683D01*
X185714533Y-95309881D01*
X185719079Y-95322586D01*
X185722358Y-95335675D01*
X185724338Y-95349023D01*
X185725000Y-95362500D01*
X185725000Y-95637500D01*
X185724338Y-95650977D01*
X185722358Y-95664325D01*
X185719079Y-95677414D01*
X185714533Y-95690119D01*
X185708764Y-95702317D01*
X185701827Y-95713891D01*
X185693789Y-95724729D01*
X185684727Y-95734727D01*
X185674729Y-95743789D01*
X185663891Y-95751827D01*
X185652317Y-95758764D01*
X185640119Y-95764533D01*
X185627414Y-95769079D01*
X185614325Y-95772358D01*
X185600977Y-95774338D01*
X185587500Y-95775000D01*
X184387500Y-95775000D01*
X184374023Y-95774338D01*
X184360675Y-95772358D01*
X184347586Y-95769079D01*
X184334881Y-95764533D01*
X184322683Y-95758764D01*
X184311109Y-95751827D01*
X184300271Y-95743789D01*
X184290273Y-95734727D01*
X184281211Y-95724729D01*
X184273173Y-95713891D01*
X184266236Y-95702317D01*
X184260467Y-95690119D01*
X184255921Y-95677414D01*
X184252642Y-95664325D01*
X184250662Y-95650977D01*
X184250000Y-95637500D01*
X184250000Y-95362500D01*
X184250662Y-95349023D01*
X184252642Y-95335675D01*
X184255921Y-95322586D01*
X184260467Y-95309881D01*
X184266236Y-95297683D01*
X184273173Y-95286109D01*
X184281211Y-95275271D01*
X184290273Y-95265273D01*
X184300271Y-95256211D01*
X184311109Y-95248173D01*
X184322683Y-95241236D01*
X184334881Y-95235467D01*
X184347586Y-95230921D01*
X184360675Y-95227642D01*
X184374023Y-95225662D01*
X184387500Y-95225000D01*
X185587500Y-95225000D01*
X185600977Y-95225662D01*
G37*
G36*
X185600977Y-94425662D02*
G01*
X185614325Y-94427642D01*
X185627414Y-94430921D01*
X185640119Y-94435467D01*
X185652317Y-94441236D01*
X185663891Y-94448173D01*
X185674729Y-94456211D01*
X185684727Y-94465273D01*
X185693789Y-94475271D01*
X185701827Y-94486109D01*
X185708764Y-94497683D01*
X185714533Y-94509881D01*
X185719079Y-94522586D01*
X185722358Y-94535675D01*
X185724338Y-94549023D01*
X185725000Y-94562500D01*
X185725000Y-94837500D01*
X185724338Y-94850977D01*
X185722358Y-94864325D01*
X185719079Y-94877414D01*
X185714533Y-94890119D01*
X185708764Y-94902317D01*
X185701827Y-94913891D01*
X185693789Y-94924729D01*
X185684727Y-94934727D01*
X185674729Y-94943789D01*
X185663891Y-94951827D01*
X185652317Y-94958764D01*
X185640119Y-94964533D01*
X185627414Y-94969079D01*
X185614325Y-94972358D01*
X185600977Y-94974338D01*
X185587500Y-94975000D01*
X184387500Y-94975000D01*
X184374023Y-94974338D01*
X184360675Y-94972358D01*
X184347586Y-94969079D01*
X184334881Y-94964533D01*
X184322683Y-94958764D01*
X184311109Y-94951827D01*
X184300271Y-94943789D01*
X184290273Y-94934727D01*
X184281211Y-94924729D01*
X184273173Y-94913891D01*
X184266236Y-94902317D01*
X184260467Y-94890119D01*
X184255921Y-94877414D01*
X184252642Y-94864325D01*
X184250662Y-94850977D01*
X184250000Y-94837500D01*
X184250000Y-94562500D01*
X184250662Y-94549023D01*
X184252642Y-94535675D01*
X184255921Y-94522586D01*
X184260467Y-94509881D01*
X184266236Y-94497683D01*
X184273173Y-94486109D01*
X184281211Y-94475271D01*
X184290273Y-94465273D01*
X184300271Y-94456211D01*
X184311109Y-94448173D01*
X184322683Y-94441236D01*
X184334881Y-94435467D01*
X184347586Y-94430921D01*
X184360675Y-94427642D01*
X184374023Y-94425662D01*
X184387500Y-94425000D01*
X185587500Y-94425000D01*
X185600977Y-94425662D01*
G37*
G36*
X185600977Y-93625662D02*
G01*
X185614325Y-93627642D01*
X185627414Y-93630921D01*
X185640119Y-93635467D01*
X185652317Y-93641236D01*
X185663891Y-93648173D01*
X185674729Y-93656211D01*
X185684727Y-93665273D01*
X185693789Y-93675271D01*
X185701827Y-93686109D01*
X185708764Y-93697683D01*
X185714533Y-93709881D01*
X185719079Y-93722586D01*
X185722358Y-93735675D01*
X185724338Y-93749023D01*
X185725000Y-93762500D01*
X185725000Y-94037500D01*
X185724338Y-94050977D01*
X185722358Y-94064325D01*
X185719079Y-94077414D01*
X185714533Y-94090119D01*
X185708764Y-94102317D01*
X185701827Y-94113891D01*
X185693789Y-94124729D01*
X185684727Y-94134727D01*
X185674729Y-94143789D01*
X185663891Y-94151827D01*
X185652317Y-94158764D01*
X185640119Y-94164533D01*
X185627414Y-94169079D01*
X185614325Y-94172358D01*
X185600977Y-94174338D01*
X185587500Y-94175000D01*
X184387500Y-94175000D01*
X184374023Y-94174338D01*
X184360675Y-94172358D01*
X184347586Y-94169079D01*
X184334881Y-94164533D01*
X184322683Y-94158764D01*
X184311109Y-94151827D01*
X184300271Y-94143789D01*
X184290273Y-94134727D01*
X184281211Y-94124729D01*
X184273173Y-94113891D01*
X184266236Y-94102317D01*
X184260467Y-94090119D01*
X184255921Y-94077414D01*
X184252642Y-94064325D01*
X184250662Y-94050977D01*
X184250000Y-94037500D01*
X184250000Y-93762500D01*
X184250662Y-93749023D01*
X184252642Y-93735675D01*
X184255921Y-93722586D01*
X184260467Y-93709881D01*
X184266236Y-93697683D01*
X184273173Y-93686109D01*
X184281211Y-93675271D01*
X184290273Y-93665273D01*
X184300271Y-93656211D01*
X184311109Y-93648173D01*
X184322683Y-93641236D01*
X184334881Y-93635467D01*
X184347586Y-93630921D01*
X184360675Y-93627642D01*
X184374023Y-93625662D01*
X184387500Y-93625000D01*
X185587500Y-93625000D01*
X185600977Y-93625662D01*
G37*
G36*
X185600977Y-92825662D02*
G01*
X185614325Y-92827642D01*
X185627414Y-92830921D01*
X185640119Y-92835467D01*
X185652317Y-92841236D01*
X185663891Y-92848173D01*
X185674729Y-92856211D01*
X185684727Y-92865273D01*
X185693789Y-92875271D01*
X185701827Y-92886109D01*
X185708764Y-92897683D01*
X185714533Y-92909881D01*
X185719079Y-92922586D01*
X185722358Y-92935675D01*
X185724338Y-92949023D01*
X185725000Y-92962500D01*
X185725000Y-93237500D01*
X185724338Y-93250977D01*
X185722358Y-93264325D01*
X185719079Y-93277414D01*
X185714533Y-93290119D01*
X185708764Y-93302317D01*
X185701827Y-93313891D01*
X185693789Y-93324729D01*
X185684727Y-93334727D01*
X185674729Y-93343789D01*
X185663891Y-93351827D01*
X185652317Y-93358764D01*
X185640119Y-93364533D01*
X185627414Y-93369079D01*
X185614325Y-93372358D01*
X185600977Y-93374338D01*
X185587500Y-93375000D01*
X184387500Y-93375000D01*
X184374023Y-93374338D01*
X184360675Y-93372358D01*
X184347586Y-93369079D01*
X184334881Y-93364533D01*
X184322683Y-93358764D01*
X184311109Y-93351827D01*
X184300271Y-93343789D01*
X184290273Y-93334727D01*
X184281211Y-93324729D01*
X184273173Y-93313891D01*
X184266236Y-93302317D01*
X184260467Y-93290119D01*
X184255921Y-93277414D01*
X184252642Y-93264325D01*
X184250662Y-93250977D01*
X184250000Y-93237500D01*
X184250000Y-92962500D01*
X184250662Y-92949023D01*
X184252642Y-92935675D01*
X184255921Y-92922586D01*
X184260467Y-92909881D01*
X184266236Y-92897683D01*
X184273173Y-92886109D01*
X184281211Y-92875271D01*
X184290273Y-92865273D01*
X184300271Y-92856211D01*
X184311109Y-92848173D01*
X184322683Y-92841236D01*
X184334881Y-92835467D01*
X184347586Y-92830921D01*
X184360675Y-92827642D01*
X184374023Y-92825662D01*
X184387500Y-92825000D01*
X185587500Y-92825000D01*
X185600977Y-92825662D01*
G37*
G36*
X185600977Y-92025662D02*
G01*
X185614325Y-92027642D01*
X185627414Y-92030921D01*
X185640119Y-92035467D01*
X185652317Y-92041236D01*
X185663891Y-92048173D01*
X185674729Y-92056211D01*
X185684727Y-92065273D01*
X185693789Y-92075271D01*
X185701827Y-92086109D01*
X185708764Y-92097683D01*
X185714533Y-92109881D01*
X185719079Y-92122586D01*
X185722358Y-92135675D01*
X185724338Y-92149023D01*
X185725000Y-92162500D01*
X185725000Y-92437500D01*
X185724338Y-92450977D01*
X185722358Y-92464325D01*
X185719079Y-92477414D01*
X185714533Y-92490119D01*
X185708764Y-92502317D01*
X185701827Y-92513891D01*
X185693789Y-92524729D01*
X185684727Y-92534727D01*
X185674729Y-92543789D01*
X185663891Y-92551827D01*
X185652317Y-92558764D01*
X185640119Y-92564533D01*
X185627414Y-92569079D01*
X185614325Y-92572358D01*
X185600977Y-92574338D01*
X185587500Y-92575000D01*
X184387500Y-92575000D01*
X184374023Y-92574338D01*
X184360675Y-92572358D01*
X184347586Y-92569079D01*
X184334881Y-92564533D01*
X184322683Y-92558764D01*
X184311109Y-92551827D01*
X184300271Y-92543789D01*
X184290273Y-92534727D01*
X184281211Y-92524729D01*
X184273173Y-92513891D01*
X184266236Y-92502317D01*
X184260467Y-92490119D01*
X184255921Y-92477414D01*
X184252642Y-92464325D01*
X184250662Y-92450977D01*
X184250000Y-92437500D01*
X184250000Y-92162500D01*
X184250662Y-92149023D01*
X184252642Y-92135675D01*
X184255921Y-92122586D01*
X184260467Y-92109881D01*
X184266236Y-92097683D01*
X184273173Y-92086109D01*
X184281211Y-92075271D01*
X184290273Y-92065273D01*
X184300271Y-92056211D01*
X184311109Y-92048173D01*
X184322683Y-92041236D01*
X184334881Y-92035467D01*
X184347586Y-92030921D01*
X184360675Y-92027642D01*
X184374023Y-92025662D01*
X184387500Y-92025000D01*
X185587500Y-92025000D01*
X185600977Y-92025662D01*
G37*
G36*
X185600977Y-91225662D02*
G01*
X185614325Y-91227642D01*
X185627414Y-91230921D01*
X185640119Y-91235467D01*
X185652317Y-91241236D01*
X185663891Y-91248173D01*
X185674729Y-91256211D01*
X185684727Y-91265273D01*
X185693789Y-91275271D01*
X185701827Y-91286109D01*
X185708764Y-91297683D01*
X185714533Y-91309881D01*
X185719079Y-91322586D01*
X185722358Y-91335675D01*
X185724338Y-91349023D01*
X185725000Y-91362500D01*
X185725000Y-91637500D01*
X185724338Y-91650977D01*
X185722358Y-91664325D01*
X185719079Y-91677414D01*
X185714533Y-91690119D01*
X185708764Y-91702317D01*
X185701827Y-91713891D01*
X185693789Y-91724729D01*
X185684727Y-91734727D01*
X185674729Y-91743789D01*
X185663891Y-91751827D01*
X185652317Y-91758764D01*
X185640119Y-91764533D01*
X185627414Y-91769079D01*
X185614325Y-91772358D01*
X185600977Y-91774338D01*
X185587500Y-91775000D01*
X184387500Y-91775000D01*
X184374023Y-91774338D01*
X184360675Y-91772358D01*
X184347586Y-91769079D01*
X184334881Y-91764533D01*
X184322683Y-91758764D01*
X184311109Y-91751827D01*
X184300271Y-91743789D01*
X184290273Y-91734727D01*
X184281211Y-91724729D01*
X184273173Y-91713891D01*
X184266236Y-91702317D01*
X184260467Y-91690119D01*
X184255921Y-91677414D01*
X184252642Y-91664325D01*
X184250662Y-91650977D01*
X184250000Y-91637500D01*
X184250000Y-91362500D01*
X184250662Y-91349023D01*
X184252642Y-91335675D01*
X184255921Y-91322586D01*
X184260467Y-91309881D01*
X184266236Y-91297683D01*
X184273173Y-91286109D01*
X184281211Y-91275271D01*
X184290273Y-91265273D01*
X184300271Y-91256211D01*
X184311109Y-91248173D01*
X184322683Y-91241236D01*
X184334881Y-91235467D01*
X184347586Y-91230921D01*
X184360675Y-91227642D01*
X184374023Y-91225662D01*
X184387500Y-91225000D01*
X185587500Y-91225000D01*
X185600977Y-91225662D01*
G37*
G36*
X183475977Y-89100662D02*
G01*
X183489325Y-89102642D01*
X183502414Y-89105921D01*
X183515119Y-89110467D01*
X183527317Y-89116236D01*
X183538891Y-89123173D01*
X183549729Y-89131211D01*
X183559727Y-89140273D01*
X183568789Y-89150271D01*
X183576827Y-89161109D01*
X183583764Y-89172683D01*
X183589533Y-89184881D01*
X183594079Y-89197586D01*
X183597358Y-89210675D01*
X183599338Y-89224023D01*
X183600000Y-89237500D01*
X183600000Y-90437500D01*
X183599338Y-90450977D01*
X183597358Y-90464325D01*
X183594079Y-90477414D01*
X183589533Y-90490119D01*
X183583764Y-90502317D01*
X183576827Y-90513891D01*
X183568789Y-90524729D01*
X183559727Y-90534727D01*
X183549729Y-90543789D01*
X183538891Y-90551827D01*
X183527317Y-90558764D01*
X183515119Y-90564533D01*
X183502414Y-90569079D01*
X183489325Y-90572358D01*
X183475977Y-90574338D01*
X183462500Y-90575000D01*
X183187500Y-90575000D01*
X183174023Y-90574338D01*
X183160675Y-90572358D01*
X183147586Y-90569079D01*
X183134881Y-90564533D01*
X183122683Y-90558764D01*
X183111109Y-90551827D01*
X183100271Y-90543789D01*
X183090273Y-90534727D01*
X183081211Y-90524729D01*
X183073173Y-90513891D01*
X183066236Y-90502317D01*
X183060467Y-90490119D01*
X183055921Y-90477414D01*
X183052642Y-90464325D01*
X183050662Y-90450977D01*
X183050000Y-90437500D01*
X183050000Y-89237500D01*
X183050662Y-89224023D01*
X183052642Y-89210675D01*
X183055921Y-89197586D01*
X183060467Y-89184881D01*
X183066236Y-89172683D01*
X183073173Y-89161109D01*
X183081211Y-89150271D01*
X183090273Y-89140273D01*
X183100271Y-89131211D01*
X183111109Y-89123173D01*
X183122683Y-89116236D01*
X183134881Y-89110467D01*
X183147586Y-89105921D01*
X183160675Y-89102642D01*
X183174023Y-89100662D01*
X183187500Y-89100000D01*
X183462500Y-89100000D01*
X183475977Y-89100662D01*
G37*
G36*
X182675977Y-89100662D02*
G01*
X182689325Y-89102642D01*
X182702414Y-89105921D01*
X182715119Y-89110467D01*
X182727317Y-89116236D01*
X182738891Y-89123173D01*
X182749729Y-89131211D01*
X182759727Y-89140273D01*
X182768789Y-89150271D01*
X182776827Y-89161109D01*
X182783764Y-89172683D01*
X182789533Y-89184881D01*
X182794079Y-89197586D01*
X182797358Y-89210675D01*
X182799338Y-89224023D01*
X182800000Y-89237500D01*
X182800000Y-90437500D01*
X182799338Y-90450977D01*
X182797358Y-90464325D01*
X182794079Y-90477414D01*
X182789533Y-90490119D01*
X182783764Y-90502317D01*
X182776827Y-90513891D01*
X182768789Y-90524729D01*
X182759727Y-90534727D01*
X182749729Y-90543789D01*
X182738891Y-90551827D01*
X182727317Y-90558764D01*
X182715119Y-90564533D01*
X182702414Y-90569079D01*
X182689325Y-90572358D01*
X182675977Y-90574338D01*
X182662500Y-90575000D01*
X182387500Y-90575000D01*
X182374023Y-90574338D01*
X182360675Y-90572358D01*
X182347586Y-90569079D01*
X182334881Y-90564533D01*
X182322683Y-90558764D01*
X182311109Y-90551827D01*
X182300271Y-90543789D01*
X182290273Y-90534727D01*
X182281211Y-90524729D01*
X182273173Y-90513891D01*
X182266236Y-90502317D01*
X182260467Y-90490119D01*
X182255921Y-90477414D01*
X182252642Y-90464325D01*
X182250662Y-90450977D01*
X182250000Y-90437500D01*
X182250000Y-89237500D01*
X182250662Y-89224023D01*
X182252642Y-89210675D01*
X182255921Y-89197586D01*
X182260467Y-89184881D01*
X182266236Y-89172683D01*
X182273173Y-89161109D01*
X182281211Y-89150271D01*
X182290273Y-89140273D01*
X182300271Y-89131211D01*
X182311109Y-89123173D01*
X182322683Y-89116236D01*
X182334881Y-89110467D01*
X182347586Y-89105921D01*
X182360675Y-89102642D01*
X182374023Y-89100662D01*
X182387500Y-89100000D01*
X182662500Y-89100000D01*
X182675977Y-89100662D01*
G37*
G36*
X181875977Y-89100662D02*
G01*
X181889325Y-89102642D01*
X181902414Y-89105921D01*
X181915119Y-89110467D01*
X181927317Y-89116236D01*
X181938891Y-89123173D01*
X181949729Y-89131211D01*
X181959727Y-89140273D01*
X181968789Y-89150271D01*
X181976827Y-89161109D01*
X181983764Y-89172683D01*
X181989533Y-89184881D01*
X181994079Y-89197586D01*
X181997358Y-89210675D01*
X181999338Y-89224023D01*
X182000000Y-89237500D01*
X182000000Y-90437500D01*
X181999338Y-90450977D01*
X181997358Y-90464325D01*
X181994079Y-90477414D01*
X181989533Y-90490119D01*
X181983764Y-90502317D01*
X181976827Y-90513891D01*
X181968789Y-90524729D01*
X181959727Y-90534727D01*
X181949729Y-90543789D01*
X181938891Y-90551827D01*
X181927317Y-90558764D01*
X181915119Y-90564533D01*
X181902414Y-90569079D01*
X181889325Y-90572358D01*
X181875977Y-90574338D01*
X181862500Y-90575000D01*
X181587500Y-90575000D01*
X181574023Y-90574338D01*
X181560675Y-90572358D01*
X181547586Y-90569079D01*
X181534881Y-90564533D01*
X181522683Y-90558764D01*
X181511109Y-90551827D01*
X181500271Y-90543789D01*
X181490273Y-90534727D01*
X181481211Y-90524729D01*
X181473173Y-90513891D01*
X181466236Y-90502317D01*
X181460467Y-90490119D01*
X181455921Y-90477414D01*
X181452642Y-90464325D01*
X181450662Y-90450977D01*
X181450000Y-90437500D01*
X181450000Y-89237500D01*
X181450662Y-89224023D01*
X181452642Y-89210675D01*
X181455921Y-89197586D01*
X181460467Y-89184881D01*
X181466236Y-89172683D01*
X181473173Y-89161109D01*
X181481211Y-89150271D01*
X181490273Y-89140273D01*
X181500271Y-89131211D01*
X181511109Y-89123173D01*
X181522683Y-89116236D01*
X181534881Y-89110467D01*
X181547586Y-89105921D01*
X181560675Y-89102642D01*
X181574023Y-89100662D01*
X181587500Y-89100000D01*
X181862500Y-89100000D01*
X181875977Y-89100662D01*
G37*
G36*
X181075977Y-89100662D02*
G01*
X181089325Y-89102642D01*
X181102414Y-89105921D01*
X181115119Y-89110467D01*
X181127317Y-89116236D01*
X181138891Y-89123173D01*
X181149729Y-89131211D01*
X181159727Y-89140273D01*
X181168789Y-89150271D01*
X181176827Y-89161109D01*
X181183764Y-89172683D01*
X181189533Y-89184881D01*
X181194079Y-89197586D01*
X181197358Y-89210675D01*
X181199338Y-89224023D01*
X181200000Y-89237500D01*
X181200000Y-90437500D01*
X181199338Y-90450977D01*
X181197358Y-90464325D01*
X181194079Y-90477414D01*
X181189533Y-90490119D01*
X181183764Y-90502317D01*
X181176827Y-90513891D01*
X181168789Y-90524729D01*
X181159727Y-90534727D01*
X181149729Y-90543789D01*
X181138891Y-90551827D01*
X181127317Y-90558764D01*
X181115119Y-90564533D01*
X181102414Y-90569079D01*
X181089325Y-90572358D01*
X181075977Y-90574338D01*
X181062500Y-90575000D01*
X180787500Y-90575000D01*
X180774023Y-90574338D01*
X180760675Y-90572358D01*
X180747586Y-90569079D01*
X180734881Y-90564533D01*
X180722683Y-90558764D01*
X180711109Y-90551827D01*
X180700271Y-90543789D01*
X180690273Y-90534727D01*
X180681211Y-90524729D01*
X180673173Y-90513891D01*
X180666236Y-90502317D01*
X180660467Y-90490119D01*
X180655921Y-90477414D01*
X180652642Y-90464325D01*
X180650662Y-90450977D01*
X180650000Y-90437500D01*
X180650000Y-89237500D01*
X180650662Y-89224023D01*
X180652642Y-89210675D01*
X180655921Y-89197586D01*
X180660467Y-89184881D01*
X180666236Y-89172683D01*
X180673173Y-89161109D01*
X180681211Y-89150271D01*
X180690273Y-89140273D01*
X180700271Y-89131211D01*
X180711109Y-89123173D01*
X180722683Y-89116236D01*
X180734881Y-89110467D01*
X180747586Y-89105921D01*
X180760675Y-89102642D01*
X180774023Y-89100662D01*
X180787500Y-89100000D01*
X181062500Y-89100000D01*
X181075977Y-89100662D01*
G37*
G36*
X180275977Y-89100662D02*
G01*
X180289325Y-89102642D01*
X180302414Y-89105921D01*
X180315119Y-89110467D01*
X180327317Y-89116236D01*
X180338891Y-89123173D01*
X180349729Y-89131211D01*
X180359727Y-89140273D01*
X180368789Y-89150271D01*
X180376827Y-89161109D01*
X180383764Y-89172683D01*
X180389533Y-89184881D01*
X180394079Y-89197586D01*
X180397358Y-89210675D01*
X180399338Y-89224023D01*
X180400000Y-89237500D01*
X180400000Y-90437500D01*
X180399338Y-90450977D01*
X180397358Y-90464325D01*
X180394079Y-90477414D01*
X180389533Y-90490119D01*
X180383764Y-90502317D01*
X180376827Y-90513891D01*
X180368789Y-90524729D01*
X180359727Y-90534727D01*
X180349729Y-90543789D01*
X180338891Y-90551827D01*
X180327317Y-90558764D01*
X180315119Y-90564533D01*
X180302414Y-90569079D01*
X180289325Y-90572358D01*
X180275977Y-90574338D01*
X180262500Y-90575000D01*
X179987500Y-90575000D01*
X179974023Y-90574338D01*
X179960675Y-90572358D01*
X179947586Y-90569079D01*
X179934881Y-90564533D01*
X179922683Y-90558764D01*
X179911109Y-90551827D01*
X179900271Y-90543789D01*
X179890273Y-90534727D01*
X179881211Y-90524729D01*
X179873173Y-90513891D01*
X179866236Y-90502317D01*
X179860467Y-90490119D01*
X179855921Y-90477414D01*
X179852642Y-90464325D01*
X179850662Y-90450977D01*
X179850000Y-90437500D01*
X179850000Y-89237500D01*
X179850662Y-89224023D01*
X179852642Y-89210675D01*
X179855921Y-89197586D01*
X179860467Y-89184881D01*
X179866236Y-89172683D01*
X179873173Y-89161109D01*
X179881211Y-89150271D01*
X179890273Y-89140273D01*
X179900271Y-89131211D01*
X179911109Y-89123173D01*
X179922683Y-89116236D01*
X179934881Y-89110467D01*
X179947586Y-89105921D01*
X179960675Y-89102642D01*
X179974023Y-89100662D01*
X179987500Y-89100000D01*
X180262500Y-89100000D01*
X180275977Y-89100662D01*
G37*
G36*
X179475977Y-89100662D02*
G01*
X179489325Y-89102642D01*
X179502414Y-89105921D01*
X179515119Y-89110467D01*
X179527317Y-89116236D01*
X179538891Y-89123173D01*
X179549729Y-89131211D01*
X179559727Y-89140273D01*
X179568789Y-89150271D01*
X179576827Y-89161109D01*
X179583764Y-89172683D01*
X179589533Y-89184881D01*
X179594079Y-89197586D01*
X179597358Y-89210675D01*
X179599338Y-89224023D01*
X179600000Y-89237500D01*
X179600000Y-90437500D01*
X179599338Y-90450977D01*
X179597358Y-90464325D01*
X179594079Y-90477414D01*
X179589533Y-90490119D01*
X179583764Y-90502317D01*
X179576827Y-90513891D01*
X179568789Y-90524729D01*
X179559727Y-90534727D01*
X179549729Y-90543789D01*
X179538891Y-90551827D01*
X179527317Y-90558764D01*
X179515119Y-90564533D01*
X179502414Y-90569079D01*
X179489325Y-90572358D01*
X179475977Y-90574338D01*
X179462500Y-90575000D01*
X179187500Y-90575000D01*
X179174023Y-90574338D01*
X179160675Y-90572358D01*
X179147586Y-90569079D01*
X179134881Y-90564533D01*
X179122683Y-90558764D01*
X179111109Y-90551827D01*
X179100271Y-90543789D01*
X179090273Y-90534727D01*
X179081211Y-90524729D01*
X179073173Y-90513891D01*
X179066236Y-90502317D01*
X179060467Y-90490119D01*
X179055921Y-90477414D01*
X179052642Y-90464325D01*
X179050662Y-90450977D01*
X179050000Y-90437500D01*
X179050000Y-89237500D01*
X179050662Y-89224023D01*
X179052642Y-89210675D01*
X179055921Y-89197586D01*
X179060467Y-89184881D01*
X179066236Y-89172683D01*
X179073173Y-89161109D01*
X179081211Y-89150271D01*
X179090273Y-89140273D01*
X179100271Y-89131211D01*
X179111109Y-89123173D01*
X179122683Y-89116236D01*
X179134881Y-89110467D01*
X179147586Y-89105921D01*
X179160675Y-89102642D01*
X179174023Y-89100662D01*
X179187500Y-89100000D01*
X179462500Y-89100000D01*
X179475977Y-89100662D01*
G37*
G36*
X178675977Y-89100662D02*
G01*
X178689325Y-89102642D01*
X178702414Y-89105921D01*
X178715119Y-89110467D01*
X178727317Y-89116236D01*
X178738891Y-89123173D01*
X178749729Y-89131211D01*
X178759727Y-89140273D01*
X178768789Y-89150271D01*
X178776827Y-89161109D01*
X178783764Y-89172683D01*
X178789533Y-89184881D01*
X178794079Y-89197586D01*
X178797358Y-89210675D01*
X178799338Y-89224023D01*
X178800000Y-89237500D01*
X178800000Y-90437500D01*
X178799338Y-90450977D01*
X178797358Y-90464325D01*
X178794079Y-90477414D01*
X178789533Y-90490119D01*
X178783764Y-90502317D01*
X178776827Y-90513891D01*
X178768789Y-90524729D01*
X178759727Y-90534727D01*
X178749729Y-90543789D01*
X178738891Y-90551827D01*
X178727317Y-90558764D01*
X178715119Y-90564533D01*
X178702414Y-90569079D01*
X178689325Y-90572358D01*
X178675977Y-90574338D01*
X178662500Y-90575000D01*
X178387500Y-90575000D01*
X178374023Y-90574338D01*
X178360675Y-90572358D01*
X178347586Y-90569079D01*
X178334881Y-90564533D01*
X178322683Y-90558764D01*
X178311109Y-90551827D01*
X178300271Y-90543789D01*
X178290273Y-90534727D01*
X178281211Y-90524729D01*
X178273173Y-90513891D01*
X178266236Y-90502317D01*
X178260467Y-90490119D01*
X178255921Y-90477414D01*
X178252642Y-90464325D01*
X178250662Y-90450977D01*
X178250000Y-90437500D01*
X178250000Y-89237500D01*
X178250662Y-89224023D01*
X178252642Y-89210675D01*
X178255921Y-89197586D01*
X178260467Y-89184881D01*
X178266236Y-89172683D01*
X178273173Y-89161109D01*
X178281211Y-89150271D01*
X178290273Y-89140273D01*
X178300271Y-89131211D01*
X178311109Y-89123173D01*
X178322683Y-89116236D01*
X178334881Y-89110467D01*
X178347586Y-89105921D01*
X178360675Y-89102642D01*
X178374023Y-89100662D01*
X178387500Y-89100000D01*
X178662500Y-89100000D01*
X178675977Y-89100662D01*
G37*
G36*
X177875977Y-89100662D02*
G01*
X177889325Y-89102642D01*
X177902414Y-89105921D01*
X177915119Y-89110467D01*
X177927317Y-89116236D01*
X177938891Y-89123173D01*
X177949729Y-89131211D01*
X177959727Y-89140273D01*
X177968789Y-89150271D01*
X177976827Y-89161109D01*
X177983764Y-89172683D01*
X177989533Y-89184881D01*
X177994079Y-89197586D01*
X177997358Y-89210675D01*
X177999338Y-89224023D01*
X178000000Y-89237500D01*
X178000000Y-90437500D01*
X177999338Y-90450977D01*
X177997358Y-90464325D01*
X177994079Y-90477414D01*
X177989533Y-90490119D01*
X177983764Y-90502317D01*
X177976827Y-90513891D01*
X177968789Y-90524729D01*
X177959727Y-90534727D01*
X177949729Y-90543789D01*
X177938891Y-90551827D01*
X177927317Y-90558764D01*
X177915119Y-90564533D01*
X177902414Y-90569079D01*
X177889325Y-90572358D01*
X177875977Y-90574338D01*
X177862500Y-90575000D01*
X177587500Y-90575000D01*
X177574023Y-90574338D01*
X177560675Y-90572358D01*
X177547586Y-90569079D01*
X177534881Y-90564533D01*
X177522683Y-90558764D01*
X177511109Y-90551827D01*
X177500271Y-90543789D01*
X177490273Y-90534727D01*
X177481211Y-90524729D01*
X177473173Y-90513891D01*
X177466236Y-90502317D01*
X177460467Y-90490119D01*
X177455921Y-90477414D01*
X177452642Y-90464325D01*
X177450662Y-90450977D01*
X177450000Y-90437500D01*
X177450000Y-89237500D01*
X177450662Y-89224023D01*
X177452642Y-89210675D01*
X177455921Y-89197586D01*
X177460467Y-89184881D01*
X177466236Y-89172683D01*
X177473173Y-89161109D01*
X177481211Y-89150271D01*
X177490273Y-89140273D01*
X177500271Y-89131211D01*
X177511109Y-89123173D01*
X177522683Y-89116236D01*
X177534881Y-89110467D01*
X177547586Y-89105921D01*
X177560675Y-89102642D01*
X177574023Y-89100662D01*
X177587500Y-89100000D01*
X177862500Y-89100000D01*
X177875977Y-89100662D01*
G37*
G36*
X177075977Y-89100662D02*
G01*
X177089325Y-89102642D01*
X177102414Y-89105921D01*
X177115119Y-89110467D01*
X177127317Y-89116236D01*
X177138891Y-89123173D01*
X177149729Y-89131211D01*
X177159727Y-89140273D01*
X177168789Y-89150271D01*
X177176827Y-89161109D01*
X177183764Y-89172683D01*
X177189533Y-89184881D01*
X177194079Y-89197586D01*
X177197358Y-89210675D01*
X177199338Y-89224023D01*
X177200000Y-89237500D01*
X177200000Y-90437500D01*
X177199338Y-90450977D01*
X177197358Y-90464325D01*
X177194079Y-90477414D01*
X177189533Y-90490119D01*
X177183764Y-90502317D01*
X177176827Y-90513891D01*
X177168789Y-90524729D01*
X177159727Y-90534727D01*
X177149729Y-90543789D01*
X177138891Y-90551827D01*
X177127317Y-90558764D01*
X177115119Y-90564533D01*
X177102414Y-90569079D01*
X177089325Y-90572358D01*
X177075977Y-90574338D01*
X177062500Y-90575000D01*
X176787500Y-90575000D01*
X176774023Y-90574338D01*
X176760675Y-90572358D01*
X176747586Y-90569079D01*
X176734881Y-90564533D01*
X176722683Y-90558764D01*
X176711109Y-90551827D01*
X176700271Y-90543789D01*
X176690273Y-90534727D01*
X176681211Y-90524729D01*
X176673173Y-90513891D01*
X176666236Y-90502317D01*
X176660467Y-90490119D01*
X176655921Y-90477414D01*
X176652642Y-90464325D01*
X176650662Y-90450977D01*
X176650000Y-90437500D01*
X176650000Y-89237500D01*
X176650662Y-89224023D01*
X176652642Y-89210675D01*
X176655921Y-89197586D01*
X176660467Y-89184881D01*
X176666236Y-89172683D01*
X176673173Y-89161109D01*
X176681211Y-89150271D01*
X176690273Y-89140273D01*
X176700271Y-89131211D01*
X176711109Y-89123173D01*
X176722683Y-89116236D01*
X176734881Y-89110467D01*
X176747586Y-89105921D01*
X176760675Y-89102642D01*
X176774023Y-89100662D01*
X176787500Y-89100000D01*
X177062500Y-89100000D01*
X177075977Y-89100662D01*
G37*
G36*
X176275977Y-89100662D02*
G01*
X176289325Y-89102642D01*
X176302414Y-89105921D01*
X176315119Y-89110467D01*
X176327317Y-89116236D01*
X176338891Y-89123173D01*
X176349729Y-89131211D01*
X176359727Y-89140273D01*
X176368789Y-89150271D01*
X176376827Y-89161109D01*
X176383764Y-89172683D01*
X176389533Y-89184881D01*
X176394079Y-89197586D01*
X176397358Y-89210675D01*
X176399338Y-89224023D01*
X176400000Y-89237500D01*
X176400000Y-90437500D01*
X176399338Y-90450977D01*
X176397358Y-90464325D01*
X176394079Y-90477414D01*
X176389533Y-90490119D01*
X176383764Y-90502317D01*
X176376827Y-90513891D01*
X176368789Y-90524729D01*
X176359727Y-90534727D01*
X176349729Y-90543789D01*
X176338891Y-90551827D01*
X176327317Y-90558764D01*
X176315119Y-90564533D01*
X176302414Y-90569079D01*
X176289325Y-90572358D01*
X176275977Y-90574338D01*
X176262500Y-90575000D01*
X175987500Y-90575000D01*
X175974023Y-90574338D01*
X175960675Y-90572358D01*
X175947586Y-90569079D01*
X175934881Y-90564533D01*
X175922683Y-90558764D01*
X175911109Y-90551827D01*
X175900271Y-90543789D01*
X175890273Y-90534727D01*
X175881211Y-90524729D01*
X175873173Y-90513891D01*
X175866236Y-90502317D01*
X175860467Y-90490119D01*
X175855921Y-90477414D01*
X175852642Y-90464325D01*
X175850662Y-90450977D01*
X175850000Y-90437500D01*
X175850000Y-89237500D01*
X175850662Y-89224023D01*
X175852642Y-89210675D01*
X175855921Y-89197586D01*
X175860467Y-89184881D01*
X175866236Y-89172683D01*
X175873173Y-89161109D01*
X175881211Y-89150271D01*
X175890273Y-89140273D01*
X175900271Y-89131211D01*
X175911109Y-89123173D01*
X175922683Y-89116236D01*
X175934881Y-89110467D01*
X175947586Y-89105921D01*
X175960675Y-89102642D01*
X175974023Y-89100662D01*
X175987500Y-89100000D01*
X176262500Y-89100000D01*
X176275977Y-89100662D01*
G37*
G36*
X175475977Y-89100662D02*
G01*
X175489325Y-89102642D01*
X175502414Y-89105921D01*
X175515119Y-89110467D01*
X175527317Y-89116236D01*
X175538891Y-89123173D01*
X175549729Y-89131211D01*
X175559727Y-89140273D01*
X175568789Y-89150271D01*
X175576827Y-89161109D01*
X175583764Y-89172683D01*
X175589533Y-89184881D01*
X175594079Y-89197586D01*
X175597358Y-89210675D01*
X175599338Y-89224023D01*
X175600000Y-89237500D01*
X175600000Y-90437500D01*
X175599338Y-90450977D01*
X175597358Y-90464325D01*
X175594079Y-90477414D01*
X175589533Y-90490119D01*
X175583764Y-90502317D01*
X175576827Y-90513891D01*
X175568789Y-90524729D01*
X175559727Y-90534727D01*
X175549729Y-90543789D01*
X175538891Y-90551827D01*
X175527317Y-90558764D01*
X175515119Y-90564533D01*
X175502414Y-90569079D01*
X175489325Y-90572358D01*
X175475977Y-90574338D01*
X175462500Y-90575000D01*
X175187500Y-90575000D01*
X175174023Y-90574338D01*
X175160675Y-90572358D01*
X175147586Y-90569079D01*
X175134881Y-90564533D01*
X175122683Y-90558764D01*
X175111109Y-90551827D01*
X175100271Y-90543789D01*
X175090273Y-90534727D01*
X175081211Y-90524729D01*
X175073173Y-90513891D01*
X175066236Y-90502317D01*
X175060467Y-90490119D01*
X175055921Y-90477414D01*
X175052642Y-90464325D01*
X175050662Y-90450977D01*
X175050000Y-90437500D01*
X175050000Y-89237500D01*
X175050662Y-89224023D01*
X175052642Y-89210675D01*
X175055921Y-89197586D01*
X175060467Y-89184881D01*
X175066236Y-89172683D01*
X175073173Y-89161109D01*
X175081211Y-89150271D01*
X175090273Y-89140273D01*
X175100271Y-89131211D01*
X175111109Y-89123173D01*
X175122683Y-89116236D01*
X175134881Y-89110467D01*
X175147586Y-89105921D01*
X175160675Y-89102642D01*
X175174023Y-89100662D01*
X175187500Y-89100000D01*
X175462500Y-89100000D01*
X175475977Y-89100662D01*
G37*
G36*
X174275977Y-91225662D02*
G01*
X174289325Y-91227642D01*
X174302414Y-91230921D01*
X174315119Y-91235467D01*
X174327317Y-91241236D01*
X174338891Y-91248173D01*
X174349729Y-91256211D01*
X174359727Y-91265273D01*
X174368789Y-91275271D01*
X174376827Y-91286109D01*
X174383764Y-91297683D01*
X174389533Y-91309881D01*
X174394079Y-91322586D01*
X174397358Y-91335675D01*
X174399338Y-91349023D01*
X174400000Y-91362500D01*
X174400000Y-91637500D01*
X174399338Y-91650977D01*
X174397358Y-91664325D01*
X174394079Y-91677414D01*
X174389533Y-91690119D01*
X174383764Y-91702317D01*
X174376827Y-91713891D01*
X174368789Y-91724729D01*
X174359727Y-91734727D01*
X174349729Y-91743789D01*
X174338891Y-91751827D01*
X174327317Y-91758764D01*
X174315119Y-91764533D01*
X174302414Y-91769079D01*
X174289325Y-91772358D01*
X174275977Y-91774338D01*
X174262500Y-91775000D01*
X173062500Y-91775000D01*
X173049023Y-91774338D01*
X173035675Y-91772358D01*
X173022586Y-91769079D01*
X173009881Y-91764533D01*
X172997683Y-91758764D01*
X172986109Y-91751827D01*
X172975271Y-91743789D01*
X172965273Y-91734727D01*
X172956211Y-91724729D01*
X172948173Y-91713891D01*
X172941236Y-91702317D01*
X172935467Y-91690119D01*
X172930921Y-91677414D01*
X172927642Y-91664325D01*
X172925662Y-91650977D01*
X172925000Y-91637500D01*
X172925000Y-91362500D01*
X172925662Y-91349023D01*
X172927642Y-91335675D01*
X172930921Y-91322586D01*
X172935467Y-91309881D01*
X172941236Y-91297683D01*
X172948173Y-91286109D01*
X172956211Y-91275271D01*
X172965273Y-91265273D01*
X172975271Y-91256211D01*
X172986109Y-91248173D01*
X172997683Y-91241236D01*
X173009881Y-91235467D01*
X173022586Y-91230921D01*
X173035675Y-91227642D01*
X173049023Y-91225662D01*
X173062500Y-91225000D01*
X174262500Y-91225000D01*
X174275977Y-91225662D01*
G37*
G36*
X174275977Y-92025662D02*
G01*
X174289325Y-92027642D01*
X174302414Y-92030921D01*
X174315119Y-92035467D01*
X174327317Y-92041236D01*
X174338891Y-92048173D01*
X174349729Y-92056211D01*
X174359727Y-92065273D01*
X174368789Y-92075271D01*
X174376827Y-92086109D01*
X174383764Y-92097683D01*
X174389533Y-92109881D01*
X174394079Y-92122586D01*
X174397358Y-92135675D01*
X174399338Y-92149023D01*
X174400000Y-92162500D01*
X174400000Y-92437500D01*
X174399338Y-92450977D01*
X174397358Y-92464325D01*
X174394079Y-92477414D01*
X174389533Y-92490119D01*
X174383764Y-92502317D01*
X174376827Y-92513891D01*
X174368789Y-92524729D01*
X174359727Y-92534727D01*
X174349729Y-92543789D01*
X174338891Y-92551827D01*
X174327317Y-92558764D01*
X174315119Y-92564533D01*
X174302414Y-92569079D01*
X174289325Y-92572358D01*
X174275977Y-92574338D01*
X174262500Y-92575000D01*
X173062500Y-92575000D01*
X173049023Y-92574338D01*
X173035675Y-92572358D01*
X173022586Y-92569079D01*
X173009881Y-92564533D01*
X172997683Y-92558764D01*
X172986109Y-92551827D01*
X172975271Y-92543789D01*
X172965273Y-92534727D01*
X172956211Y-92524729D01*
X172948173Y-92513891D01*
X172941236Y-92502317D01*
X172935467Y-92490119D01*
X172930921Y-92477414D01*
X172927642Y-92464325D01*
X172925662Y-92450977D01*
X172925000Y-92437500D01*
X172925000Y-92162500D01*
X172925662Y-92149023D01*
X172927642Y-92135675D01*
X172930921Y-92122586D01*
X172935467Y-92109881D01*
X172941236Y-92097683D01*
X172948173Y-92086109D01*
X172956211Y-92075271D01*
X172965273Y-92065273D01*
X172975271Y-92056211D01*
X172986109Y-92048173D01*
X172997683Y-92041236D01*
X173009881Y-92035467D01*
X173022586Y-92030921D01*
X173035675Y-92027642D01*
X173049023Y-92025662D01*
X173062500Y-92025000D01*
X174262500Y-92025000D01*
X174275977Y-92025662D01*
G37*
G36*
X174275977Y-92825662D02*
G01*
X174289325Y-92827642D01*
X174302414Y-92830921D01*
X174315119Y-92835467D01*
X174327317Y-92841236D01*
X174338891Y-92848173D01*
X174349729Y-92856211D01*
X174359727Y-92865273D01*
X174368789Y-92875271D01*
X174376827Y-92886109D01*
X174383764Y-92897683D01*
X174389533Y-92909881D01*
X174394079Y-92922586D01*
X174397358Y-92935675D01*
X174399338Y-92949023D01*
X174400000Y-92962500D01*
X174400000Y-93237500D01*
X174399338Y-93250977D01*
X174397358Y-93264325D01*
X174394079Y-93277414D01*
X174389533Y-93290119D01*
X174383764Y-93302317D01*
X174376827Y-93313891D01*
X174368789Y-93324729D01*
X174359727Y-93334727D01*
X174349729Y-93343789D01*
X174338891Y-93351827D01*
X174327317Y-93358764D01*
X174315119Y-93364533D01*
X174302414Y-93369079D01*
X174289325Y-93372358D01*
X174275977Y-93374338D01*
X174262500Y-93375000D01*
X173062500Y-93375000D01*
X173049023Y-93374338D01*
X173035675Y-93372358D01*
X173022586Y-93369079D01*
X173009881Y-93364533D01*
X172997683Y-93358764D01*
X172986109Y-93351827D01*
X172975271Y-93343789D01*
X172965273Y-93334727D01*
X172956211Y-93324729D01*
X172948173Y-93313891D01*
X172941236Y-93302317D01*
X172935467Y-93290119D01*
X172930921Y-93277414D01*
X172927642Y-93264325D01*
X172925662Y-93250977D01*
X172925000Y-93237500D01*
X172925000Y-92962500D01*
X172925662Y-92949023D01*
X172927642Y-92935675D01*
X172930921Y-92922586D01*
X172935467Y-92909881D01*
X172941236Y-92897683D01*
X172948173Y-92886109D01*
X172956211Y-92875271D01*
X172965273Y-92865273D01*
X172975271Y-92856211D01*
X172986109Y-92848173D01*
X172997683Y-92841236D01*
X173009881Y-92835467D01*
X173022586Y-92830921D01*
X173035675Y-92827642D01*
X173049023Y-92825662D01*
X173062500Y-92825000D01*
X174262500Y-92825000D01*
X174275977Y-92825662D01*
G37*
G36*
X174275977Y-93625662D02*
G01*
X174289325Y-93627642D01*
X174302414Y-93630921D01*
X174315119Y-93635467D01*
X174327317Y-93641236D01*
X174338891Y-93648173D01*
X174349729Y-93656211D01*
X174359727Y-93665273D01*
X174368789Y-93675271D01*
X174376827Y-93686109D01*
X174383764Y-93697683D01*
X174389533Y-93709881D01*
X174394079Y-93722586D01*
X174397358Y-93735675D01*
X174399338Y-93749023D01*
X174400000Y-93762500D01*
X174400000Y-94037500D01*
X174399338Y-94050977D01*
X174397358Y-94064325D01*
X174394079Y-94077414D01*
X174389533Y-94090119D01*
X174383764Y-94102317D01*
X174376827Y-94113891D01*
X174368789Y-94124729D01*
X174359727Y-94134727D01*
X174349729Y-94143789D01*
X174338891Y-94151827D01*
X174327317Y-94158764D01*
X174315119Y-94164533D01*
X174302414Y-94169079D01*
X174289325Y-94172358D01*
X174275977Y-94174338D01*
X174262500Y-94175000D01*
X173062500Y-94175000D01*
X173049023Y-94174338D01*
X173035675Y-94172358D01*
X173022586Y-94169079D01*
X173009881Y-94164533D01*
X172997683Y-94158764D01*
X172986109Y-94151827D01*
X172975271Y-94143789D01*
X172965273Y-94134727D01*
X172956211Y-94124729D01*
X172948173Y-94113891D01*
X172941236Y-94102317D01*
X172935467Y-94090119D01*
X172930921Y-94077414D01*
X172927642Y-94064325D01*
X172925662Y-94050977D01*
X172925000Y-94037500D01*
X172925000Y-93762500D01*
X172925662Y-93749023D01*
X172927642Y-93735675D01*
X172930921Y-93722586D01*
X172935467Y-93709881D01*
X172941236Y-93697683D01*
X172948173Y-93686109D01*
X172956211Y-93675271D01*
X172965273Y-93665273D01*
X172975271Y-93656211D01*
X172986109Y-93648173D01*
X172997683Y-93641236D01*
X173009881Y-93635467D01*
X173022586Y-93630921D01*
X173035675Y-93627642D01*
X173049023Y-93625662D01*
X173062500Y-93625000D01*
X174262500Y-93625000D01*
X174275977Y-93625662D01*
G37*
G36*
X174275977Y-94425662D02*
G01*
X174289325Y-94427642D01*
X174302414Y-94430921D01*
X174315119Y-94435467D01*
X174327317Y-94441236D01*
X174338891Y-94448173D01*
X174349729Y-94456211D01*
X174359727Y-94465273D01*
X174368789Y-94475271D01*
X174376827Y-94486109D01*
X174383764Y-94497683D01*
X174389533Y-94509881D01*
X174394079Y-94522586D01*
X174397358Y-94535675D01*
X174399338Y-94549023D01*
X174400000Y-94562500D01*
X174400000Y-94837500D01*
X174399338Y-94850977D01*
X174397358Y-94864325D01*
X174394079Y-94877414D01*
X174389533Y-94890119D01*
X174383764Y-94902317D01*
X174376827Y-94913891D01*
X174368789Y-94924729D01*
X174359727Y-94934727D01*
X174349729Y-94943789D01*
X174338891Y-94951827D01*
X174327317Y-94958764D01*
X174315119Y-94964533D01*
X174302414Y-94969079D01*
X174289325Y-94972358D01*
X174275977Y-94974338D01*
X174262500Y-94975000D01*
X173062500Y-94975000D01*
X173049023Y-94974338D01*
X173035675Y-94972358D01*
X173022586Y-94969079D01*
X173009881Y-94964533D01*
X172997683Y-94958764D01*
X172986109Y-94951827D01*
X172975271Y-94943789D01*
X172965273Y-94934727D01*
X172956211Y-94924729D01*
X172948173Y-94913891D01*
X172941236Y-94902317D01*
X172935467Y-94890119D01*
X172930921Y-94877414D01*
X172927642Y-94864325D01*
X172925662Y-94850977D01*
X172925000Y-94837500D01*
X172925000Y-94562500D01*
X172925662Y-94549023D01*
X172927642Y-94535675D01*
X172930921Y-94522586D01*
X172935467Y-94509881D01*
X172941236Y-94497683D01*
X172948173Y-94486109D01*
X172956211Y-94475271D01*
X172965273Y-94465273D01*
X172975271Y-94456211D01*
X172986109Y-94448173D01*
X172997683Y-94441236D01*
X173009881Y-94435467D01*
X173022586Y-94430921D01*
X173035675Y-94427642D01*
X173049023Y-94425662D01*
X173062500Y-94425000D01*
X174262500Y-94425000D01*
X174275977Y-94425662D01*
G37*
G36*
X174275977Y-95225662D02*
G01*
X174289325Y-95227642D01*
X174302414Y-95230921D01*
X174315119Y-95235467D01*
X174327317Y-95241236D01*
X174338891Y-95248173D01*
X174349729Y-95256211D01*
X174359727Y-95265273D01*
X174368789Y-95275271D01*
X174376827Y-95286109D01*
X174383764Y-95297683D01*
X174389533Y-95309881D01*
X174394079Y-95322586D01*
X174397358Y-95335675D01*
X174399338Y-95349023D01*
X174400000Y-95362500D01*
X174400000Y-95637500D01*
X174399338Y-95650977D01*
X174397358Y-95664325D01*
X174394079Y-95677414D01*
X174389533Y-95690119D01*
X174383764Y-95702317D01*
X174376827Y-95713891D01*
X174368789Y-95724729D01*
X174359727Y-95734727D01*
X174349729Y-95743789D01*
X174338891Y-95751827D01*
X174327317Y-95758764D01*
X174315119Y-95764533D01*
X174302414Y-95769079D01*
X174289325Y-95772358D01*
X174275977Y-95774338D01*
X174262500Y-95775000D01*
X173062500Y-95775000D01*
X173049023Y-95774338D01*
X173035675Y-95772358D01*
X173022586Y-95769079D01*
X173009881Y-95764533D01*
X172997683Y-95758764D01*
X172986109Y-95751827D01*
X172975271Y-95743789D01*
X172965273Y-95734727D01*
X172956211Y-95724729D01*
X172948173Y-95713891D01*
X172941236Y-95702317D01*
X172935467Y-95690119D01*
X172930921Y-95677414D01*
X172927642Y-95664325D01*
X172925662Y-95650977D01*
X172925000Y-95637500D01*
X172925000Y-95362500D01*
X172925662Y-95349023D01*
X172927642Y-95335675D01*
X172930921Y-95322586D01*
X172935467Y-95309881D01*
X172941236Y-95297683D01*
X172948173Y-95286109D01*
X172956211Y-95275271D01*
X172965273Y-95265273D01*
X172975271Y-95256211D01*
X172986109Y-95248173D01*
X172997683Y-95241236D01*
X173009881Y-95235467D01*
X173022586Y-95230921D01*
X173035675Y-95227642D01*
X173049023Y-95225662D01*
X173062500Y-95225000D01*
X174262500Y-95225000D01*
X174275977Y-95225662D01*
G37*
G36*
X174275977Y-96025662D02*
G01*
X174289325Y-96027642D01*
X174302414Y-96030921D01*
X174315119Y-96035467D01*
X174327317Y-96041236D01*
X174338891Y-96048173D01*
X174349729Y-96056211D01*
X174359727Y-96065273D01*
X174368789Y-96075271D01*
X174376827Y-96086109D01*
X174383764Y-96097683D01*
X174389533Y-96109881D01*
X174394079Y-96122586D01*
X174397358Y-96135675D01*
X174399338Y-96149023D01*
X174400000Y-96162500D01*
X174400000Y-96437500D01*
X174399338Y-96450977D01*
X174397358Y-96464325D01*
X174394079Y-96477414D01*
X174389533Y-96490119D01*
X174383764Y-96502317D01*
X174376827Y-96513891D01*
X174368789Y-96524729D01*
X174359727Y-96534727D01*
X174349729Y-96543789D01*
X174338891Y-96551827D01*
X174327317Y-96558764D01*
X174315119Y-96564533D01*
X174302414Y-96569079D01*
X174289325Y-96572358D01*
X174275977Y-96574338D01*
X174262500Y-96575000D01*
X173062500Y-96575000D01*
X173049023Y-96574338D01*
X173035675Y-96572358D01*
X173022586Y-96569079D01*
X173009881Y-96564533D01*
X172997683Y-96558764D01*
X172986109Y-96551827D01*
X172975271Y-96543789D01*
X172965273Y-96534727D01*
X172956211Y-96524729D01*
X172948173Y-96513891D01*
X172941236Y-96502317D01*
X172935467Y-96490119D01*
X172930921Y-96477414D01*
X172927642Y-96464325D01*
X172925662Y-96450977D01*
X172925000Y-96437500D01*
X172925000Y-96162500D01*
X172925662Y-96149023D01*
X172927642Y-96135675D01*
X172930921Y-96122586D01*
X172935467Y-96109881D01*
X172941236Y-96097683D01*
X172948173Y-96086109D01*
X172956211Y-96075271D01*
X172965273Y-96065273D01*
X172975271Y-96056211D01*
X172986109Y-96048173D01*
X172997683Y-96041236D01*
X173009881Y-96035467D01*
X173022586Y-96030921D01*
X173035675Y-96027642D01*
X173049023Y-96025662D01*
X173062500Y-96025000D01*
X174262500Y-96025000D01*
X174275977Y-96025662D01*
G37*
G36*
X174275977Y-96825662D02*
G01*
X174289325Y-96827642D01*
X174302414Y-96830921D01*
X174315119Y-96835467D01*
X174327317Y-96841236D01*
X174338891Y-96848173D01*
X174349729Y-96856211D01*
X174359727Y-96865273D01*
X174368789Y-96875271D01*
X174376827Y-96886109D01*
X174383764Y-96897683D01*
X174389533Y-96909881D01*
X174394079Y-96922586D01*
X174397358Y-96935675D01*
X174399338Y-96949023D01*
X174400000Y-96962500D01*
X174400000Y-97237500D01*
X174399338Y-97250977D01*
X174397358Y-97264325D01*
X174394079Y-97277414D01*
X174389533Y-97290119D01*
X174383764Y-97302317D01*
X174376827Y-97313891D01*
X174368789Y-97324729D01*
X174359727Y-97334727D01*
X174349729Y-97343789D01*
X174338891Y-97351827D01*
X174327317Y-97358764D01*
X174315119Y-97364533D01*
X174302414Y-97369079D01*
X174289325Y-97372358D01*
X174275977Y-97374338D01*
X174262500Y-97375000D01*
X173062500Y-97375000D01*
X173049023Y-97374338D01*
X173035675Y-97372358D01*
X173022586Y-97369079D01*
X173009881Y-97364533D01*
X172997683Y-97358764D01*
X172986109Y-97351827D01*
X172975271Y-97343789D01*
X172965273Y-97334727D01*
X172956211Y-97324729D01*
X172948173Y-97313891D01*
X172941236Y-97302317D01*
X172935467Y-97290119D01*
X172930921Y-97277414D01*
X172927642Y-97264325D01*
X172925662Y-97250977D01*
X172925000Y-97237500D01*
X172925000Y-96962500D01*
X172925662Y-96949023D01*
X172927642Y-96935675D01*
X172930921Y-96922586D01*
X172935467Y-96909881D01*
X172941236Y-96897683D01*
X172948173Y-96886109D01*
X172956211Y-96875271D01*
X172965273Y-96865273D01*
X172975271Y-96856211D01*
X172986109Y-96848173D01*
X172997683Y-96841236D01*
X173009881Y-96835467D01*
X173022586Y-96830921D01*
X173035675Y-96827642D01*
X173049023Y-96825662D01*
X173062500Y-96825000D01*
X174262500Y-96825000D01*
X174275977Y-96825662D01*
G37*
G36*
X174275977Y-97625662D02*
G01*
X174289325Y-97627642D01*
X174302414Y-97630921D01*
X174315119Y-97635467D01*
X174327317Y-97641236D01*
X174338891Y-97648173D01*
X174349729Y-97656211D01*
X174359727Y-97665273D01*
X174368789Y-97675271D01*
X174376827Y-97686109D01*
X174383764Y-97697683D01*
X174389533Y-97709881D01*
X174394079Y-97722586D01*
X174397358Y-97735675D01*
X174399338Y-97749023D01*
X174400000Y-97762500D01*
X174400000Y-98037500D01*
X174399338Y-98050977D01*
X174397358Y-98064325D01*
X174394079Y-98077414D01*
X174389533Y-98090119D01*
X174383764Y-98102317D01*
X174376827Y-98113891D01*
X174368789Y-98124729D01*
X174359727Y-98134727D01*
X174349729Y-98143789D01*
X174338891Y-98151827D01*
X174327317Y-98158764D01*
X174315119Y-98164533D01*
X174302414Y-98169079D01*
X174289325Y-98172358D01*
X174275977Y-98174338D01*
X174262500Y-98175000D01*
X173062500Y-98175000D01*
X173049023Y-98174338D01*
X173035675Y-98172358D01*
X173022586Y-98169079D01*
X173009881Y-98164533D01*
X172997683Y-98158764D01*
X172986109Y-98151827D01*
X172975271Y-98143789D01*
X172965273Y-98134727D01*
X172956211Y-98124729D01*
X172948173Y-98113891D01*
X172941236Y-98102317D01*
X172935467Y-98090119D01*
X172930921Y-98077414D01*
X172927642Y-98064325D01*
X172925662Y-98050977D01*
X172925000Y-98037500D01*
X172925000Y-97762500D01*
X172925662Y-97749023D01*
X172927642Y-97735675D01*
X172930921Y-97722586D01*
X172935467Y-97709881D01*
X172941236Y-97697683D01*
X172948173Y-97686109D01*
X172956211Y-97675271D01*
X172965273Y-97665273D01*
X172975271Y-97656211D01*
X172986109Y-97648173D01*
X172997683Y-97641236D01*
X173009881Y-97635467D01*
X173022586Y-97630921D01*
X173035675Y-97627642D01*
X173049023Y-97625662D01*
X173062500Y-97625000D01*
X174262500Y-97625000D01*
X174275977Y-97625662D01*
G37*
G36*
X174275977Y-98425662D02*
G01*
X174289325Y-98427642D01*
X174302414Y-98430921D01*
X174315119Y-98435467D01*
X174327317Y-98441236D01*
X174338891Y-98448173D01*
X174349729Y-98456211D01*
X174359727Y-98465273D01*
X174368789Y-98475271D01*
X174376827Y-98486109D01*
X174383764Y-98497683D01*
X174389533Y-98509881D01*
X174394079Y-98522586D01*
X174397358Y-98535675D01*
X174399338Y-98549023D01*
X174400000Y-98562500D01*
X174400000Y-98837500D01*
X174399338Y-98850977D01*
X174397358Y-98864325D01*
X174394079Y-98877414D01*
X174389533Y-98890119D01*
X174383764Y-98902317D01*
X174376827Y-98913891D01*
X174368789Y-98924729D01*
X174359727Y-98934727D01*
X174349729Y-98943789D01*
X174338891Y-98951827D01*
X174327317Y-98958764D01*
X174315119Y-98964533D01*
X174302414Y-98969079D01*
X174289325Y-98972358D01*
X174275977Y-98974338D01*
X174262500Y-98975000D01*
X173062500Y-98975000D01*
X173049023Y-98974338D01*
X173035675Y-98972358D01*
X173022586Y-98969079D01*
X173009881Y-98964533D01*
X172997683Y-98958764D01*
X172986109Y-98951827D01*
X172975271Y-98943789D01*
X172965273Y-98934727D01*
X172956211Y-98924729D01*
X172948173Y-98913891D01*
X172941236Y-98902317D01*
X172935467Y-98890119D01*
X172930921Y-98877414D01*
X172927642Y-98864325D01*
X172925662Y-98850977D01*
X172925000Y-98837500D01*
X172925000Y-98562500D01*
X172925662Y-98549023D01*
X172927642Y-98535675D01*
X172930921Y-98522586D01*
X172935467Y-98509881D01*
X172941236Y-98497683D01*
X172948173Y-98486109D01*
X172956211Y-98475271D01*
X172965273Y-98465273D01*
X172975271Y-98456211D01*
X172986109Y-98448173D01*
X172997683Y-98441236D01*
X173009881Y-98435467D01*
X173022586Y-98430921D01*
X173035675Y-98427642D01*
X173049023Y-98425662D01*
X173062500Y-98425000D01*
X174262500Y-98425000D01*
X174275977Y-98425662D01*
G37*
G36*
X174275977Y-99225662D02*
G01*
X174289325Y-99227642D01*
X174302414Y-99230921D01*
X174315119Y-99235467D01*
X174327317Y-99241236D01*
X174338891Y-99248173D01*
X174349729Y-99256211D01*
X174359727Y-99265273D01*
X174368789Y-99275271D01*
X174376827Y-99286109D01*
X174383764Y-99297683D01*
X174389533Y-99309881D01*
X174394079Y-99322586D01*
X174397358Y-99335675D01*
X174399338Y-99349023D01*
X174400000Y-99362500D01*
X174400000Y-99637500D01*
X174399338Y-99650977D01*
X174397358Y-99664325D01*
X174394079Y-99677414D01*
X174389533Y-99690119D01*
X174383764Y-99702317D01*
X174376827Y-99713891D01*
X174368789Y-99724729D01*
X174359727Y-99734727D01*
X174349729Y-99743789D01*
X174338891Y-99751827D01*
X174327317Y-99758764D01*
X174315119Y-99764533D01*
X174302414Y-99769079D01*
X174289325Y-99772358D01*
X174275977Y-99774338D01*
X174262500Y-99775000D01*
X173062500Y-99775000D01*
X173049023Y-99774338D01*
X173035675Y-99772358D01*
X173022586Y-99769079D01*
X173009881Y-99764533D01*
X172997683Y-99758764D01*
X172986109Y-99751827D01*
X172975271Y-99743789D01*
X172965273Y-99734727D01*
X172956211Y-99724729D01*
X172948173Y-99713891D01*
X172941236Y-99702317D01*
X172935467Y-99690119D01*
X172930921Y-99677414D01*
X172927642Y-99664325D01*
X172925662Y-99650977D01*
X172925000Y-99637500D01*
X172925000Y-99362500D01*
X172925662Y-99349023D01*
X172927642Y-99335675D01*
X172930921Y-99322586D01*
X172935467Y-99309881D01*
X172941236Y-99297683D01*
X172948173Y-99286109D01*
X172956211Y-99275271D01*
X172965273Y-99265273D01*
X172975271Y-99256211D01*
X172986109Y-99248173D01*
X172997683Y-99241236D01*
X173009881Y-99235467D01*
X173022586Y-99230921D01*
X173035675Y-99227642D01*
X173049023Y-99225662D01*
X173062500Y-99225000D01*
X174262500Y-99225000D01*
X174275977Y-99225662D01*
G37*
G36*
X175475977Y-100425662D02*
G01*
X175489325Y-100427642D01*
X175502414Y-100430921D01*
X175515119Y-100435467D01*
X175527317Y-100441236D01*
X175538891Y-100448173D01*
X175549729Y-100456211D01*
X175559727Y-100465273D01*
X175568789Y-100475271D01*
X175576827Y-100486109D01*
X175583764Y-100497683D01*
X175589533Y-100509881D01*
X175594079Y-100522586D01*
X175597358Y-100535675D01*
X175599338Y-100549023D01*
X175600000Y-100562500D01*
X175600000Y-101762500D01*
X175599338Y-101775977D01*
X175597358Y-101789325D01*
X175594079Y-101802414D01*
X175589533Y-101815119D01*
X175583764Y-101827317D01*
X175576827Y-101838891D01*
X175568789Y-101849729D01*
X175559727Y-101859727D01*
X175549729Y-101868789D01*
X175538891Y-101876827D01*
X175527317Y-101883764D01*
X175515119Y-101889533D01*
X175502414Y-101894079D01*
X175489325Y-101897358D01*
X175475977Y-101899338D01*
X175462500Y-101900000D01*
X175187500Y-101900000D01*
X175174023Y-101899338D01*
X175160675Y-101897358D01*
X175147586Y-101894079D01*
X175134881Y-101889533D01*
X175122683Y-101883764D01*
X175111109Y-101876827D01*
X175100271Y-101868789D01*
X175090273Y-101859727D01*
X175081211Y-101849729D01*
X175073173Y-101838891D01*
X175066236Y-101827317D01*
X175060467Y-101815119D01*
X175055921Y-101802414D01*
X175052642Y-101789325D01*
X175050662Y-101775977D01*
X175050000Y-101762500D01*
X175050000Y-100562500D01*
X175050662Y-100549023D01*
X175052642Y-100535675D01*
X175055921Y-100522586D01*
X175060467Y-100509881D01*
X175066236Y-100497683D01*
X175073173Y-100486109D01*
X175081211Y-100475271D01*
X175090273Y-100465273D01*
X175100271Y-100456211D01*
X175111109Y-100448173D01*
X175122683Y-100441236D01*
X175134881Y-100435467D01*
X175147586Y-100430921D01*
X175160675Y-100427642D01*
X175174023Y-100425662D01*
X175187500Y-100425000D01*
X175462500Y-100425000D01*
X175475977Y-100425662D01*
G37*
G36*
X176275977Y-100425662D02*
G01*
X176289325Y-100427642D01*
X176302414Y-100430921D01*
X176315119Y-100435467D01*
X176327317Y-100441236D01*
X176338891Y-100448173D01*
X176349729Y-100456211D01*
X176359727Y-100465273D01*
X176368789Y-100475271D01*
X176376827Y-100486109D01*
X176383764Y-100497683D01*
X176389533Y-100509881D01*
X176394079Y-100522586D01*
X176397358Y-100535675D01*
X176399338Y-100549023D01*
X176400000Y-100562500D01*
X176400000Y-101762500D01*
X176399338Y-101775977D01*
X176397358Y-101789325D01*
X176394079Y-101802414D01*
X176389533Y-101815119D01*
X176383764Y-101827317D01*
X176376827Y-101838891D01*
X176368789Y-101849729D01*
X176359727Y-101859727D01*
X176349729Y-101868789D01*
X176338891Y-101876827D01*
X176327317Y-101883764D01*
X176315119Y-101889533D01*
X176302414Y-101894079D01*
X176289325Y-101897358D01*
X176275977Y-101899338D01*
X176262500Y-101900000D01*
X175987500Y-101900000D01*
X175974023Y-101899338D01*
X175960675Y-101897358D01*
X175947586Y-101894079D01*
X175934881Y-101889533D01*
X175922683Y-101883764D01*
X175911109Y-101876827D01*
X175900271Y-101868789D01*
X175890273Y-101859727D01*
X175881211Y-101849729D01*
X175873173Y-101838891D01*
X175866236Y-101827317D01*
X175860467Y-101815119D01*
X175855921Y-101802414D01*
X175852642Y-101789325D01*
X175850662Y-101775977D01*
X175850000Y-101762500D01*
X175850000Y-100562500D01*
X175850662Y-100549023D01*
X175852642Y-100535675D01*
X175855921Y-100522586D01*
X175860467Y-100509881D01*
X175866236Y-100497683D01*
X175873173Y-100486109D01*
X175881211Y-100475271D01*
X175890273Y-100465273D01*
X175900271Y-100456211D01*
X175911109Y-100448173D01*
X175922683Y-100441236D01*
X175934881Y-100435467D01*
X175947586Y-100430921D01*
X175960675Y-100427642D01*
X175974023Y-100425662D01*
X175987500Y-100425000D01*
X176262500Y-100425000D01*
X176275977Y-100425662D01*
G37*
G36*
X177075977Y-100425662D02*
G01*
X177089325Y-100427642D01*
X177102414Y-100430921D01*
X177115119Y-100435467D01*
X177127317Y-100441236D01*
X177138891Y-100448173D01*
X177149729Y-100456211D01*
X177159727Y-100465273D01*
X177168789Y-100475271D01*
X177176827Y-100486109D01*
X177183764Y-100497683D01*
X177189533Y-100509881D01*
X177194079Y-100522586D01*
X177197358Y-100535675D01*
X177199338Y-100549023D01*
X177200000Y-100562500D01*
X177200000Y-101762500D01*
X177199338Y-101775977D01*
X177197358Y-101789325D01*
X177194079Y-101802414D01*
X177189533Y-101815119D01*
X177183764Y-101827317D01*
X177176827Y-101838891D01*
X177168789Y-101849729D01*
X177159727Y-101859727D01*
X177149729Y-101868789D01*
X177138891Y-101876827D01*
X177127317Y-101883764D01*
X177115119Y-101889533D01*
X177102414Y-101894079D01*
X177089325Y-101897358D01*
X177075977Y-101899338D01*
X177062500Y-101900000D01*
X176787500Y-101900000D01*
X176774023Y-101899338D01*
X176760675Y-101897358D01*
X176747586Y-101894079D01*
X176734881Y-101889533D01*
X176722683Y-101883764D01*
X176711109Y-101876827D01*
X176700271Y-101868789D01*
X176690273Y-101859727D01*
X176681211Y-101849729D01*
X176673173Y-101838891D01*
X176666236Y-101827317D01*
X176660467Y-101815119D01*
X176655921Y-101802414D01*
X176652642Y-101789325D01*
X176650662Y-101775977D01*
X176650000Y-101762500D01*
X176650000Y-100562500D01*
X176650662Y-100549023D01*
X176652642Y-100535675D01*
X176655921Y-100522586D01*
X176660467Y-100509881D01*
X176666236Y-100497683D01*
X176673173Y-100486109D01*
X176681211Y-100475271D01*
X176690273Y-100465273D01*
X176700271Y-100456211D01*
X176711109Y-100448173D01*
X176722683Y-100441236D01*
X176734881Y-100435467D01*
X176747586Y-100430921D01*
X176760675Y-100427642D01*
X176774023Y-100425662D01*
X176787500Y-100425000D01*
X177062500Y-100425000D01*
X177075977Y-100425662D01*
G37*
G36*
X177875977Y-100425662D02*
G01*
X177889325Y-100427642D01*
X177902414Y-100430921D01*
X177915119Y-100435467D01*
X177927317Y-100441236D01*
X177938891Y-100448173D01*
X177949729Y-100456211D01*
X177959727Y-100465273D01*
X177968789Y-100475271D01*
X177976827Y-100486109D01*
X177983764Y-100497683D01*
X177989533Y-100509881D01*
X177994079Y-100522586D01*
X177997358Y-100535675D01*
X177999338Y-100549023D01*
X178000000Y-100562500D01*
X178000000Y-101762500D01*
X177999338Y-101775977D01*
X177997358Y-101789325D01*
X177994079Y-101802414D01*
X177989533Y-101815119D01*
X177983764Y-101827317D01*
X177976827Y-101838891D01*
X177968789Y-101849729D01*
X177959727Y-101859727D01*
X177949729Y-101868789D01*
X177938891Y-101876827D01*
X177927317Y-101883764D01*
X177915119Y-101889533D01*
X177902414Y-101894079D01*
X177889325Y-101897358D01*
X177875977Y-101899338D01*
X177862500Y-101900000D01*
X177587500Y-101900000D01*
X177574023Y-101899338D01*
X177560675Y-101897358D01*
X177547586Y-101894079D01*
X177534881Y-101889533D01*
X177522683Y-101883764D01*
X177511109Y-101876827D01*
X177500271Y-101868789D01*
X177490273Y-101859727D01*
X177481211Y-101849729D01*
X177473173Y-101838891D01*
X177466236Y-101827317D01*
X177460467Y-101815119D01*
X177455921Y-101802414D01*
X177452642Y-101789325D01*
X177450662Y-101775977D01*
X177450000Y-101762500D01*
X177450000Y-100562500D01*
X177450662Y-100549023D01*
X177452642Y-100535675D01*
X177455921Y-100522586D01*
X177460467Y-100509881D01*
X177466236Y-100497683D01*
X177473173Y-100486109D01*
X177481211Y-100475271D01*
X177490273Y-100465273D01*
X177500271Y-100456211D01*
X177511109Y-100448173D01*
X177522683Y-100441236D01*
X177534881Y-100435467D01*
X177547586Y-100430921D01*
X177560675Y-100427642D01*
X177574023Y-100425662D01*
X177587500Y-100425000D01*
X177862500Y-100425000D01*
X177875977Y-100425662D01*
G37*
G36*
X178675977Y-100425662D02*
G01*
X178689325Y-100427642D01*
X178702414Y-100430921D01*
X178715119Y-100435467D01*
X178727317Y-100441236D01*
X178738891Y-100448173D01*
X178749729Y-100456211D01*
X178759727Y-100465273D01*
X178768789Y-100475271D01*
X178776827Y-100486109D01*
X178783764Y-100497683D01*
X178789533Y-100509881D01*
X178794079Y-100522586D01*
X178797358Y-100535675D01*
X178799338Y-100549023D01*
X178800000Y-100562500D01*
X178800000Y-101762500D01*
X178799338Y-101775977D01*
X178797358Y-101789325D01*
X178794079Y-101802414D01*
X178789533Y-101815119D01*
X178783764Y-101827317D01*
X178776827Y-101838891D01*
X178768789Y-101849729D01*
X178759727Y-101859727D01*
X178749729Y-101868789D01*
X178738891Y-101876827D01*
X178727317Y-101883764D01*
X178715119Y-101889533D01*
X178702414Y-101894079D01*
X178689325Y-101897358D01*
X178675977Y-101899338D01*
X178662500Y-101900000D01*
X178387500Y-101900000D01*
X178374023Y-101899338D01*
X178360675Y-101897358D01*
X178347586Y-101894079D01*
X178334881Y-101889533D01*
X178322683Y-101883764D01*
X178311109Y-101876827D01*
X178300271Y-101868789D01*
X178290273Y-101859727D01*
X178281211Y-101849729D01*
X178273173Y-101838891D01*
X178266236Y-101827317D01*
X178260467Y-101815119D01*
X178255921Y-101802414D01*
X178252642Y-101789325D01*
X178250662Y-101775977D01*
X178250000Y-101762500D01*
X178250000Y-100562500D01*
X178250662Y-100549023D01*
X178252642Y-100535675D01*
X178255921Y-100522586D01*
X178260467Y-100509881D01*
X178266236Y-100497683D01*
X178273173Y-100486109D01*
X178281211Y-100475271D01*
X178290273Y-100465273D01*
X178300271Y-100456211D01*
X178311109Y-100448173D01*
X178322683Y-100441236D01*
X178334881Y-100435467D01*
X178347586Y-100430921D01*
X178360675Y-100427642D01*
X178374023Y-100425662D01*
X178387500Y-100425000D01*
X178662500Y-100425000D01*
X178675977Y-100425662D01*
G37*
G36*
X179475977Y-100425662D02*
G01*
X179489325Y-100427642D01*
X179502414Y-100430921D01*
X179515119Y-100435467D01*
X179527317Y-100441236D01*
X179538891Y-100448173D01*
X179549729Y-100456211D01*
X179559727Y-100465273D01*
X179568789Y-100475271D01*
X179576827Y-100486109D01*
X179583764Y-100497683D01*
X179589533Y-100509881D01*
X179594079Y-100522586D01*
X179597358Y-100535675D01*
X179599338Y-100549023D01*
X179600000Y-100562500D01*
X179600000Y-101762500D01*
X179599338Y-101775977D01*
X179597358Y-101789325D01*
X179594079Y-101802414D01*
X179589533Y-101815119D01*
X179583764Y-101827317D01*
X179576827Y-101838891D01*
X179568789Y-101849729D01*
X179559727Y-101859727D01*
X179549729Y-101868789D01*
X179538891Y-101876827D01*
X179527317Y-101883764D01*
X179515119Y-101889533D01*
X179502414Y-101894079D01*
X179489325Y-101897358D01*
X179475977Y-101899338D01*
X179462500Y-101900000D01*
X179187500Y-101900000D01*
X179174023Y-101899338D01*
X179160675Y-101897358D01*
X179147586Y-101894079D01*
X179134881Y-101889533D01*
X179122683Y-101883764D01*
X179111109Y-101876827D01*
X179100271Y-101868789D01*
X179090273Y-101859727D01*
X179081211Y-101849729D01*
X179073173Y-101838891D01*
X179066236Y-101827317D01*
X179060467Y-101815119D01*
X179055921Y-101802414D01*
X179052642Y-101789325D01*
X179050662Y-101775977D01*
X179050000Y-101762500D01*
X179050000Y-100562500D01*
X179050662Y-100549023D01*
X179052642Y-100535675D01*
X179055921Y-100522586D01*
X179060467Y-100509881D01*
X179066236Y-100497683D01*
X179073173Y-100486109D01*
X179081211Y-100475271D01*
X179090273Y-100465273D01*
X179100271Y-100456211D01*
X179111109Y-100448173D01*
X179122683Y-100441236D01*
X179134881Y-100435467D01*
X179147586Y-100430921D01*
X179160675Y-100427642D01*
X179174023Y-100425662D01*
X179187500Y-100425000D01*
X179462500Y-100425000D01*
X179475977Y-100425662D01*
G37*
G36*
X180275977Y-100425662D02*
G01*
X180289325Y-100427642D01*
X180302414Y-100430921D01*
X180315119Y-100435467D01*
X180327317Y-100441236D01*
X180338891Y-100448173D01*
X180349729Y-100456211D01*
X180359727Y-100465273D01*
X180368789Y-100475271D01*
X180376827Y-100486109D01*
X180383764Y-100497683D01*
X180389533Y-100509881D01*
X180394079Y-100522586D01*
X180397358Y-100535675D01*
X180399338Y-100549023D01*
X180400000Y-100562500D01*
X180400000Y-101762500D01*
X180399338Y-101775977D01*
X180397358Y-101789325D01*
X180394079Y-101802414D01*
X180389533Y-101815119D01*
X180383764Y-101827317D01*
X180376827Y-101838891D01*
X180368789Y-101849729D01*
X180359727Y-101859727D01*
X180349729Y-101868789D01*
X180338891Y-101876827D01*
X180327317Y-101883764D01*
X180315119Y-101889533D01*
X180302414Y-101894079D01*
X180289325Y-101897358D01*
X180275977Y-101899338D01*
X180262500Y-101900000D01*
X179987500Y-101900000D01*
X179974023Y-101899338D01*
X179960675Y-101897358D01*
X179947586Y-101894079D01*
X179934881Y-101889533D01*
X179922683Y-101883764D01*
X179911109Y-101876827D01*
X179900271Y-101868789D01*
X179890273Y-101859727D01*
X179881211Y-101849729D01*
X179873173Y-101838891D01*
X179866236Y-101827317D01*
X179860467Y-101815119D01*
X179855921Y-101802414D01*
X179852642Y-101789325D01*
X179850662Y-101775977D01*
X179850000Y-101762500D01*
X179850000Y-100562500D01*
X179850662Y-100549023D01*
X179852642Y-100535675D01*
X179855921Y-100522586D01*
X179860467Y-100509881D01*
X179866236Y-100497683D01*
X179873173Y-100486109D01*
X179881211Y-100475271D01*
X179890273Y-100465273D01*
X179900271Y-100456211D01*
X179911109Y-100448173D01*
X179922683Y-100441236D01*
X179934881Y-100435467D01*
X179947586Y-100430921D01*
X179960675Y-100427642D01*
X179974023Y-100425662D01*
X179987500Y-100425000D01*
X180262500Y-100425000D01*
X180275977Y-100425662D01*
G37*
G36*
X181075977Y-100425662D02*
G01*
X181089325Y-100427642D01*
X181102414Y-100430921D01*
X181115119Y-100435467D01*
X181127317Y-100441236D01*
X181138891Y-100448173D01*
X181149729Y-100456211D01*
X181159727Y-100465273D01*
X181168789Y-100475271D01*
X181176827Y-100486109D01*
X181183764Y-100497683D01*
X181189533Y-100509881D01*
X181194079Y-100522586D01*
X181197358Y-100535675D01*
X181199338Y-100549023D01*
X181200000Y-100562500D01*
X181200000Y-101762500D01*
X181199338Y-101775977D01*
X181197358Y-101789325D01*
X181194079Y-101802414D01*
X181189533Y-101815119D01*
X181183764Y-101827317D01*
X181176827Y-101838891D01*
X181168789Y-101849729D01*
X181159727Y-101859727D01*
X181149729Y-101868789D01*
X181138891Y-101876827D01*
X181127317Y-101883764D01*
X181115119Y-101889533D01*
X181102414Y-101894079D01*
X181089325Y-101897358D01*
X181075977Y-101899338D01*
X181062500Y-101900000D01*
X180787500Y-101900000D01*
X180774023Y-101899338D01*
X180760675Y-101897358D01*
X180747586Y-101894079D01*
X180734881Y-101889533D01*
X180722683Y-101883764D01*
X180711109Y-101876827D01*
X180700271Y-101868789D01*
X180690273Y-101859727D01*
X180681211Y-101849729D01*
X180673173Y-101838891D01*
X180666236Y-101827317D01*
X180660467Y-101815119D01*
X180655921Y-101802414D01*
X180652642Y-101789325D01*
X180650662Y-101775977D01*
X180650000Y-101762500D01*
X180650000Y-100562500D01*
X180650662Y-100549023D01*
X180652642Y-100535675D01*
X180655921Y-100522586D01*
X180660467Y-100509881D01*
X180666236Y-100497683D01*
X180673173Y-100486109D01*
X180681211Y-100475271D01*
X180690273Y-100465273D01*
X180700271Y-100456211D01*
X180711109Y-100448173D01*
X180722683Y-100441236D01*
X180734881Y-100435467D01*
X180747586Y-100430921D01*
X180760675Y-100427642D01*
X180774023Y-100425662D01*
X180787500Y-100425000D01*
X181062500Y-100425000D01*
X181075977Y-100425662D01*
G37*
G36*
X181875977Y-100425662D02*
G01*
X181889325Y-100427642D01*
X181902414Y-100430921D01*
X181915119Y-100435467D01*
X181927317Y-100441236D01*
X181938891Y-100448173D01*
X181949729Y-100456211D01*
X181959727Y-100465273D01*
X181968789Y-100475271D01*
X181976827Y-100486109D01*
X181983764Y-100497683D01*
X181989533Y-100509881D01*
X181994079Y-100522586D01*
X181997358Y-100535675D01*
X181999338Y-100549023D01*
X182000000Y-100562500D01*
X182000000Y-101762500D01*
X181999338Y-101775977D01*
X181997358Y-101789325D01*
X181994079Y-101802414D01*
X181989533Y-101815119D01*
X181983764Y-101827317D01*
X181976827Y-101838891D01*
X181968789Y-101849729D01*
X181959727Y-101859727D01*
X181949729Y-101868789D01*
X181938891Y-101876827D01*
X181927317Y-101883764D01*
X181915119Y-101889533D01*
X181902414Y-101894079D01*
X181889325Y-101897358D01*
X181875977Y-101899338D01*
X181862500Y-101900000D01*
X181587500Y-101900000D01*
X181574023Y-101899338D01*
X181560675Y-101897358D01*
X181547586Y-101894079D01*
X181534881Y-101889533D01*
X181522683Y-101883764D01*
X181511109Y-101876827D01*
X181500271Y-101868789D01*
X181490273Y-101859727D01*
X181481211Y-101849729D01*
X181473173Y-101838891D01*
X181466236Y-101827317D01*
X181460467Y-101815119D01*
X181455921Y-101802414D01*
X181452642Y-101789325D01*
X181450662Y-101775977D01*
X181450000Y-101762500D01*
X181450000Y-100562500D01*
X181450662Y-100549023D01*
X181452642Y-100535675D01*
X181455921Y-100522586D01*
X181460467Y-100509881D01*
X181466236Y-100497683D01*
X181473173Y-100486109D01*
X181481211Y-100475271D01*
X181490273Y-100465273D01*
X181500271Y-100456211D01*
X181511109Y-100448173D01*
X181522683Y-100441236D01*
X181534881Y-100435467D01*
X181547586Y-100430921D01*
X181560675Y-100427642D01*
X181574023Y-100425662D01*
X181587500Y-100425000D01*
X181862500Y-100425000D01*
X181875977Y-100425662D01*
G37*
G36*
X182675977Y-100425662D02*
G01*
X182689325Y-100427642D01*
X182702414Y-100430921D01*
X182715119Y-100435467D01*
X182727317Y-100441236D01*
X182738891Y-100448173D01*
X182749729Y-100456211D01*
X182759727Y-100465273D01*
X182768789Y-100475271D01*
X182776827Y-100486109D01*
X182783764Y-100497683D01*
X182789533Y-100509881D01*
X182794079Y-100522586D01*
X182797358Y-100535675D01*
X182799338Y-100549023D01*
X182800000Y-100562500D01*
X182800000Y-101762500D01*
X182799338Y-101775977D01*
X182797358Y-101789325D01*
X182794079Y-101802414D01*
X182789533Y-101815119D01*
X182783764Y-101827317D01*
X182776827Y-101838891D01*
X182768789Y-101849729D01*
X182759727Y-101859727D01*
X182749729Y-101868789D01*
X182738891Y-101876827D01*
X182727317Y-101883764D01*
X182715119Y-101889533D01*
X182702414Y-101894079D01*
X182689325Y-101897358D01*
X182675977Y-101899338D01*
X182662500Y-101900000D01*
X182387500Y-101900000D01*
X182374023Y-101899338D01*
X182360675Y-101897358D01*
X182347586Y-101894079D01*
X182334881Y-101889533D01*
X182322683Y-101883764D01*
X182311109Y-101876827D01*
X182300271Y-101868789D01*
X182290273Y-101859727D01*
X182281211Y-101849729D01*
X182273173Y-101838891D01*
X182266236Y-101827317D01*
X182260467Y-101815119D01*
X182255921Y-101802414D01*
X182252642Y-101789325D01*
X182250662Y-101775977D01*
X182250000Y-101762500D01*
X182250000Y-100562500D01*
X182250662Y-100549023D01*
X182252642Y-100535675D01*
X182255921Y-100522586D01*
X182260467Y-100509881D01*
X182266236Y-100497683D01*
X182273173Y-100486109D01*
X182281211Y-100475271D01*
X182290273Y-100465273D01*
X182300271Y-100456211D01*
X182311109Y-100448173D01*
X182322683Y-100441236D01*
X182334881Y-100435467D01*
X182347586Y-100430921D01*
X182360675Y-100427642D01*
X182374023Y-100425662D01*
X182387500Y-100425000D01*
X182662500Y-100425000D01*
X182675977Y-100425662D01*
G37*
G36*
X183475977Y-100425662D02*
G01*
X183489325Y-100427642D01*
X183502414Y-100430921D01*
X183515119Y-100435467D01*
X183527317Y-100441236D01*
X183538891Y-100448173D01*
X183549729Y-100456211D01*
X183559727Y-100465273D01*
X183568789Y-100475271D01*
X183576827Y-100486109D01*
X183583764Y-100497683D01*
X183589533Y-100509881D01*
X183594079Y-100522586D01*
X183597358Y-100535675D01*
X183599338Y-100549023D01*
X183600000Y-100562500D01*
X183600000Y-101762500D01*
X183599338Y-101775977D01*
X183597358Y-101789325D01*
X183594079Y-101802414D01*
X183589533Y-101815119D01*
X183583764Y-101827317D01*
X183576827Y-101838891D01*
X183568789Y-101849729D01*
X183559727Y-101859727D01*
X183549729Y-101868789D01*
X183538891Y-101876827D01*
X183527317Y-101883764D01*
X183515119Y-101889533D01*
X183502414Y-101894079D01*
X183489325Y-101897358D01*
X183475977Y-101899338D01*
X183462500Y-101900000D01*
X183187500Y-101900000D01*
X183174023Y-101899338D01*
X183160675Y-101897358D01*
X183147586Y-101894079D01*
X183134881Y-101889533D01*
X183122683Y-101883764D01*
X183111109Y-101876827D01*
X183100271Y-101868789D01*
X183090273Y-101859727D01*
X183081211Y-101849729D01*
X183073173Y-101838891D01*
X183066236Y-101827317D01*
X183060467Y-101815119D01*
X183055921Y-101802414D01*
X183052642Y-101789325D01*
X183050662Y-101775977D01*
X183050000Y-101762500D01*
X183050000Y-100562500D01*
X183050662Y-100549023D01*
X183052642Y-100535675D01*
X183055921Y-100522586D01*
X183060467Y-100509881D01*
X183066236Y-100497683D01*
X183073173Y-100486109D01*
X183081211Y-100475271D01*
X183090273Y-100465273D01*
X183100271Y-100456211D01*
X183111109Y-100448173D01*
X183122683Y-100441236D01*
X183134881Y-100435467D01*
X183147586Y-100430921D01*
X183160675Y-100427642D01*
X183174023Y-100425662D01*
X183187500Y-100425000D01*
X183462500Y-100425000D01*
X183475977Y-100425662D01*
G37*
D18*
X166025000Y-78550000D03*
X168525000Y-78550000D03*
X163525000Y-78550000D03*
X163525000Y-84050000D03*
X166025000Y-84050000D03*
X168525000Y-84050000D03*
D19*
X199625000Y-77925000D03*
X198975000Y-77925000D03*
X198325000Y-77925000D03*
X197675000Y-77925000D03*
X197025000Y-77925000D03*
X196375000Y-77925000D03*
X195725000Y-77925000D03*
X195075000Y-77925000D03*
X195075000Y-83825000D03*
X195725000Y-83825000D03*
X196375000Y-83825000D03*
X197025000Y-83825000D03*
X197675000Y-83825000D03*
X198325000Y-83825000D03*
X198975000Y-83825000D03*
X199625000Y-83825000D03*
X199550000Y-94900000D03*
X198900000Y-94900000D03*
X198250000Y-94900000D03*
X197600000Y-94900000D03*
X196950000Y-94900000D03*
X196300000Y-94900000D03*
X195650000Y-94900000D03*
X195000000Y-94900000D03*
X195000000Y-89000000D03*
X195650000Y-89000000D03*
X196300000Y-89000000D03*
X196950000Y-89000000D03*
X197600000Y-89000000D03*
X198250000Y-89000000D03*
X198900000Y-89000000D03*
X199550000Y-89000000D03*
X194250000Y-104100000D03*
X193600000Y-104100000D03*
X192950000Y-104100000D03*
X192300000Y-104100000D03*
X191650000Y-104100000D03*
X191000000Y-104100000D03*
X190350000Y-104100000D03*
X189700000Y-104100000D03*
X189700000Y-110000000D03*
X190350000Y-110000000D03*
X191000000Y-110000000D03*
X191650000Y-110000000D03*
X192300000Y-110000000D03*
X192950000Y-110000000D03*
X193600000Y-110000000D03*
X194250000Y-110000000D03*
M02*
