G04 #@! TF.GenerationSoftware,KiCad,Pcbnew,(5.1.5)-3*
G04 #@! TF.CreationDate,2021-02-14T15:50:31-08:00*
G04 #@! TF.ProjectId,tree,74726565-2e6b-4696-9361-645f70636258,rev?*
G04 #@! TF.SameCoordinates,Original*
G04 #@! TF.FileFunction,Soldermask,Bot*
G04 #@! TF.FilePolarity,Negative*
%FSLAX46Y46*%
G04 Gerber Fmt 4.6, Leading zero omitted, Abs format (unit mm)*
G04 Created by KiCad (PCBNEW (5.1.5)-3) date 2021-02-14 15:50:31*
%MOMM*%
%LPD*%
G04 APERTURE LIST*
%ADD10C,0.100000*%
G04 APERTURE END LIST*
D10*
G36*
X159981564Y-125379389D02*
G01*
X160172833Y-125458615D01*
X160172835Y-125458616D01*
X160344973Y-125573635D01*
X160491365Y-125720027D01*
X160606385Y-125892167D01*
X160685611Y-126083436D01*
X160726000Y-126286484D01*
X160726000Y-126493516D01*
X160685611Y-126696564D01*
X160606385Y-126887833D01*
X160606384Y-126887835D01*
X160491365Y-127059973D01*
X160344973Y-127206365D01*
X160172835Y-127321384D01*
X160172834Y-127321385D01*
X160172833Y-127321385D01*
X159981564Y-127400611D01*
X159778516Y-127441000D01*
X159571484Y-127441000D01*
X159368436Y-127400611D01*
X159177167Y-127321385D01*
X159177166Y-127321385D01*
X159177165Y-127321384D01*
X159005027Y-127206365D01*
X158858635Y-127059973D01*
X158743616Y-126887835D01*
X158743615Y-126887833D01*
X158664389Y-126696564D01*
X158624000Y-126493516D01*
X158624000Y-126286484D01*
X158664389Y-126083436D01*
X158743615Y-125892167D01*
X158858635Y-125720027D01*
X159005027Y-125573635D01*
X159177165Y-125458616D01*
X159177167Y-125458615D01*
X159368436Y-125379389D01*
X159571484Y-125339000D01*
X159778516Y-125339000D01*
X159981564Y-125379389D01*
G37*
G36*
X225876000Y-127426000D02*
G01*
X223774000Y-127426000D01*
X223774000Y-125324000D01*
X225876000Y-125324000D01*
X225876000Y-127426000D01*
G37*
G36*
X165842724Y-122266497D02*
G01*
X166069906Y-122311686D01*
X166319412Y-122415035D01*
X166543962Y-122565075D01*
X166734925Y-122756038D01*
X166884965Y-122980588D01*
X166988314Y-123230094D01*
X167033503Y-123457276D01*
X167040006Y-123489968D01*
X167041000Y-123494968D01*
X167041000Y-123765032D01*
X166988314Y-124029906D01*
X166884965Y-124279412D01*
X166734925Y-124503962D01*
X166543962Y-124694925D01*
X166319412Y-124844965D01*
X166069906Y-124948314D01*
X165842724Y-124993503D01*
X165805033Y-125001000D01*
X165534967Y-125001000D01*
X165497276Y-124993503D01*
X165270094Y-124948314D01*
X165020588Y-124844965D01*
X164796038Y-124694925D01*
X164605075Y-124503962D01*
X164455035Y-124279412D01*
X164351686Y-124029906D01*
X164299000Y-123765032D01*
X164299000Y-123494968D01*
X164299995Y-123489968D01*
X164306497Y-123457276D01*
X164351686Y-123230094D01*
X164455035Y-122980588D01*
X164605075Y-122756038D01*
X164796038Y-122565075D01*
X165020588Y-122415035D01*
X165270094Y-122311686D01*
X165497276Y-122266497D01*
X165534967Y-122259000D01*
X165805033Y-122259000D01*
X165842724Y-122266497D01*
G37*
G36*
X230980169Y-122259000D02*
G01*
X231219906Y-122306686D01*
X231469412Y-122410035D01*
X231693962Y-122560075D01*
X231884925Y-122751038D01*
X232034965Y-122975588D01*
X232138314Y-123225094D01*
X232183503Y-123452276D01*
X232191000Y-123489967D01*
X232191000Y-123760033D01*
X232190005Y-123765033D01*
X232138314Y-124024906D01*
X232034965Y-124274412D01*
X231884925Y-124498962D01*
X231693962Y-124689925D01*
X231469412Y-124839965D01*
X231219906Y-124943314D01*
X230992724Y-124988503D01*
X230955033Y-124996000D01*
X230684967Y-124996000D01*
X230647276Y-124988503D01*
X230420094Y-124943314D01*
X230170588Y-124839965D01*
X229946038Y-124689925D01*
X229755075Y-124498962D01*
X229605035Y-124274412D01*
X229501686Y-124024906D01*
X229449995Y-123765033D01*
X229449000Y-123760033D01*
X229449000Y-123489967D01*
X229456497Y-123452276D01*
X229501686Y-123225094D01*
X229605035Y-122975588D01*
X229755075Y-122751038D01*
X229946038Y-122560075D01*
X230170588Y-122410035D01*
X230420094Y-122306686D01*
X230659831Y-122259000D01*
X230684967Y-122254000D01*
X230955033Y-122254000D01*
X230980169Y-122259000D01*
G37*
G36*
X214128512Y-81388927D02*
G01*
X214277812Y-81418624D01*
X214441784Y-81486544D01*
X214589354Y-81585147D01*
X214714853Y-81710646D01*
X214813456Y-81858216D01*
X214881376Y-82022188D01*
X214916000Y-82196259D01*
X214916000Y-82373741D01*
X214881376Y-82547812D01*
X214813456Y-82711784D01*
X214714853Y-82859354D01*
X214589354Y-82984853D01*
X214441784Y-83083456D01*
X214277812Y-83151376D01*
X214128512Y-83181073D01*
X214103742Y-83186000D01*
X213926258Y-83186000D01*
X213901488Y-83181073D01*
X213752188Y-83151376D01*
X213588216Y-83083456D01*
X213440646Y-82984853D01*
X213315147Y-82859354D01*
X213216544Y-82711784D01*
X213148624Y-82547812D01*
X213114000Y-82373741D01*
X213114000Y-82196259D01*
X213148624Y-82022188D01*
X213216544Y-81858216D01*
X213315147Y-81710646D01*
X213440646Y-81585147D01*
X213588216Y-81486544D01*
X213752188Y-81418624D01*
X213901488Y-81388927D01*
X213926258Y-81384000D01*
X214103742Y-81384000D01*
X214128512Y-81388927D01*
G37*
G36*
X211588512Y-81388927D02*
G01*
X211737812Y-81418624D01*
X211901784Y-81486544D01*
X212049354Y-81585147D01*
X212174853Y-81710646D01*
X212273456Y-81858216D01*
X212341376Y-82022188D01*
X212376000Y-82196259D01*
X212376000Y-82373741D01*
X212341376Y-82547812D01*
X212273456Y-82711784D01*
X212174853Y-82859354D01*
X212049354Y-82984853D01*
X211901784Y-83083456D01*
X211737812Y-83151376D01*
X211588512Y-83181073D01*
X211563742Y-83186000D01*
X211386258Y-83186000D01*
X211361488Y-83181073D01*
X211212188Y-83151376D01*
X211048216Y-83083456D01*
X210900646Y-82984853D01*
X210775147Y-82859354D01*
X210676544Y-82711784D01*
X210608624Y-82547812D01*
X210574000Y-82373741D01*
X210574000Y-82196259D01*
X210608624Y-82022188D01*
X210676544Y-81858216D01*
X210775147Y-81710646D01*
X210900646Y-81585147D01*
X211048216Y-81486544D01*
X211212188Y-81418624D01*
X211361488Y-81388927D01*
X211386258Y-81384000D01*
X211563742Y-81384000D01*
X211588512Y-81388927D01*
G37*
G36*
X214128512Y-78848927D02*
G01*
X214277812Y-78878624D01*
X214441784Y-78946544D01*
X214589354Y-79045147D01*
X214714853Y-79170646D01*
X214813456Y-79318216D01*
X214881376Y-79482188D01*
X214916000Y-79656259D01*
X214916000Y-79833741D01*
X214881376Y-80007812D01*
X214813456Y-80171784D01*
X214714853Y-80319354D01*
X214589354Y-80444853D01*
X214441784Y-80543456D01*
X214277812Y-80611376D01*
X214128512Y-80641073D01*
X214103742Y-80646000D01*
X213926258Y-80646000D01*
X213901488Y-80641073D01*
X213752188Y-80611376D01*
X213588216Y-80543456D01*
X213440646Y-80444853D01*
X213315147Y-80319354D01*
X213216544Y-80171784D01*
X213148624Y-80007812D01*
X213114000Y-79833741D01*
X213114000Y-79656259D01*
X213148624Y-79482188D01*
X213216544Y-79318216D01*
X213315147Y-79170646D01*
X213440646Y-79045147D01*
X213588216Y-78946544D01*
X213752188Y-78878624D01*
X213901488Y-78848927D01*
X213926258Y-78844000D01*
X214103742Y-78844000D01*
X214128512Y-78848927D01*
G37*
G36*
X211588512Y-78848927D02*
G01*
X211737812Y-78878624D01*
X211901784Y-78946544D01*
X212049354Y-79045147D01*
X212174853Y-79170646D01*
X212273456Y-79318216D01*
X212341376Y-79482188D01*
X212376000Y-79656259D01*
X212376000Y-79833741D01*
X212341376Y-80007812D01*
X212273456Y-80171784D01*
X212174853Y-80319354D01*
X212049354Y-80444853D01*
X211901784Y-80543456D01*
X211737812Y-80611376D01*
X211588512Y-80641073D01*
X211563742Y-80646000D01*
X211386258Y-80646000D01*
X211361488Y-80641073D01*
X211212188Y-80611376D01*
X211048216Y-80543456D01*
X210900646Y-80444853D01*
X210775147Y-80319354D01*
X210676544Y-80171784D01*
X210608624Y-80007812D01*
X210574000Y-79833741D01*
X210574000Y-79656259D01*
X210608624Y-79482188D01*
X210676544Y-79318216D01*
X210775147Y-79170646D01*
X210900646Y-79045147D01*
X211048216Y-78946544D01*
X211212188Y-78878624D01*
X211361488Y-78848927D01*
X211386258Y-78844000D01*
X211563742Y-78844000D01*
X211588512Y-78848927D01*
G37*
G36*
X153852724Y-75786497D02*
G01*
X154079906Y-75831686D01*
X154329412Y-75935035D01*
X154553962Y-76085075D01*
X154744925Y-76276038D01*
X154894965Y-76500588D01*
X154998314Y-76750094D01*
X155043503Y-76977276D01*
X155051000Y-77014967D01*
X155051000Y-77285033D01*
X155043503Y-77322724D01*
X154998314Y-77549906D01*
X154894965Y-77799412D01*
X154744925Y-78023962D01*
X154553962Y-78214925D01*
X154329412Y-78364965D01*
X154079906Y-78468314D01*
X153852724Y-78513503D01*
X153815033Y-78521000D01*
X153544967Y-78521000D01*
X153507276Y-78513503D01*
X153280094Y-78468314D01*
X153030588Y-78364965D01*
X152806038Y-78214925D01*
X152615075Y-78023962D01*
X152465035Y-77799412D01*
X152361686Y-77549906D01*
X152316497Y-77322724D01*
X152309000Y-77285033D01*
X152309000Y-77014967D01*
X152316497Y-76977276D01*
X152361686Y-76750094D01*
X152465035Y-76500588D01*
X152615075Y-76276038D01*
X152806038Y-76085075D01*
X153030588Y-75935035D01*
X153280094Y-75831686D01*
X153507276Y-75786497D01*
X153544967Y-75779000D01*
X153815033Y-75779000D01*
X153852724Y-75786497D01*
G37*
G36*
X218990169Y-75779000D02*
G01*
X219229906Y-75826686D01*
X219479412Y-75930035D01*
X219703962Y-76080075D01*
X219894925Y-76271038D01*
X220044965Y-76495588D01*
X220148314Y-76745094D01*
X220176393Y-76886259D01*
X220201000Y-77009967D01*
X220201000Y-77280033D01*
X220200005Y-77285033D01*
X220148314Y-77544906D01*
X220044965Y-77794412D01*
X219894925Y-78018962D01*
X219703962Y-78209925D01*
X219479412Y-78359965D01*
X219229906Y-78463314D01*
X219002724Y-78508503D01*
X218965033Y-78516000D01*
X218694967Y-78516000D01*
X218657276Y-78508503D01*
X218430094Y-78463314D01*
X218180588Y-78359965D01*
X217956038Y-78209925D01*
X217765075Y-78018962D01*
X217615035Y-77794412D01*
X217511686Y-77544906D01*
X217459995Y-77285033D01*
X217459000Y-77280033D01*
X217459000Y-77009967D01*
X217483607Y-76886259D01*
X217511686Y-76745094D01*
X217615035Y-76495588D01*
X217765075Y-76271038D01*
X217956038Y-76080075D01*
X218180588Y-75930035D01*
X218430094Y-75826686D01*
X218669831Y-75779000D01*
X218694967Y-75774000D01*
X218965033Y-75774000D01*
X218990169Y-75779000D01*
G37*
G36*
X211588512Y-76308927D02*
G01*
X211737812Y-76338624D01*
X211901784Y-76406544D01*
X212049354Y-76505147D01*
X212174853Y-76630646D01*
X212273456Y-76778216D01*
X212341376Y-76942188D01*
X212376000Y-77116259D01*
X212376000Y-77293741D01*
X212341376Y-77467812D01*
X212273456Y-77631784D01*
X212174853Y-77779354D01*
X212049354Y-77904853D01*
X211901784Y-78003456D01*
X211737812Y-78071376D01*
X211588512Y-78101073D01*
X211563742Y-78106000D01*
X211386258Y-78106000D01*
X211361488Y-78101073D01*
X211212188Y-78071376D01*
X211048216Y-78003456D01*
X210900646Y-77904853D01*
X210775147Y-77779354D01*
X210676544Y-77631784D01*
X210608624Y-77467812D01*
X210574000Y-77293741D01*
X210574000Y-77116259D01*
X210608624Y-76942188D01*
X210676544Y-76778216D01*
X210775147Y-76630646D01*
X210900646Y-76505147D01*
X211048216Y-76406544D01*
X211212188Y-76338624D01*
X211361488Y-76308927D01*
X211386258Y-76304000D01*
X211563742Y-76304000D01*
X211588512Y-76308927D01*
G37*
G36*
X214128512Y-76308927D02*
G01*
X214277812Y-76338624D01*
X214441784Y-76406544D01*
X214589354Y-76505147D01*
X214714853Y-76630646D01*
X214813456Y-76778216D01*
X214881376Y-76942188D01*
X214916000Y-77116259D01*
X214916000Y-77293741D01*
X214881376Y-77467812D01*
X214813456Y-77631784D01*
X214714853Y-77779354D01*
X214589354Y-77904853D01*
X214441784Y-78003456D01*
X214277812Y-78071376D01*
X214128512Y-78101073D01*
X214103742Y-78106000D01*
X213926258Y-78106000D01*
X213901488Y-78101073D01*
X213752188Y-78071376D01*
X213588216Y-78003456D01*
X213440646Y-77904853D01*
X213315147Y-77779354D01*
X213216544Y-77631784D01*
X213148624Y-77467812D01*
X213114000Y-77293741D01*
X213114000Y-77116259D01*
X213148624Y-76942188D01*
X213216544Y-76778216D01*
X213315147Y-76630646D01*
X213440646Y-76505147D01*
X213588216Y-76406544D01*
X213752188Y-76338624D01*
X213901488Y-76308927D01*
X213926258Y-76304000D01*
X214103742Y-76304000D01*
X214128512Y-76308927D01*
G37*
G36*
X182083512Y-76078927D02*
G01*
X182232812Y-76108624D01*
X182396784Y-76176544D01*
X182544354Y-76275147D01*
X182669853Y-76400646D01*
X182768456Y-76548216D01*
X182836376Y-76712188D01*
X182871000Y-76886259D01*
X182871000Y-77063741D01*
X182836376Y-77237812D01*
X182768456Y-77401784D01*
X182669853Y-77549354D01*
X182544354Y-77674853D01*
X182396784Y-77773456D01*
X182232812Y-77841376D01*
X182083512Y-77871073D01*
X182058742Y-77876000D01*
X181881258Y-77876000D01*
X181856488Y-77871073D01*
X181707188Y-77841376D01*
X181543216Y-77773456D01*
X181395646Y-77674853D01*
X181270147Y-77549354D01*
X181171544Y-77401784D01*
X181103624Y-77237812D01*
X181069000Y-77063741D01*
X181069000Y-76886259D01*
X181103624Y-76712188D01*
X181171544Y-76548216D01*
X181270147Y-76400646D01*
X181395646Y-76275147D01*
X181543216Y-76176544D01*
X181707188Y-76108624D01*
X181856488Y-76078927D01*
X181881258Y-76074000D01*
X182058742Y-76074000D01*
X182083512Y-76078927D01*
G37*
G36*
X175251000Y-77876000D02*
G01*
X173449000Y-77876000D01*
X173449000Y-76074000D01*
X175251000Y-76074000D01*
X175251000Y-77876000D01*
G37*
G36*
X177003512Y-76078927D02*
G01*
X177152812Y-76108624D01*
X177316784Y-76176544D01*
X177464354Y-76275147D01*
X177589853Y-76400646D01*
X177688456Y-76548216D01*
X177756376Y-76712188D01*
X177791000Y-76886259D01*
X177791000Y-77063741D01*
X177756376Y-77237812D01*
X177688456Y-77401784D01*
X177589853Y-77549354D01*
X177464354Y-77674853D01*
X177316784Y-77773456D01*
X177152812Y-77841376D01*
X177003512Y-77871073D01*
X176978742Y-77876000D01*
X176801258Y-77876000D01*
X176776488Y-77871073D01*
X176627188Y-77841376D01*
X176463216Y-77773456D01*
X176315646Y-77674853D01*
X176190147Y-77549354D01*
X176091544Y-77401784D01*
X176023624Y-77237812D01*
X175989000Y-77063741D01*
X175989000Y-76886259D01*
X176023624Y-76712188D01*
X176091544Y-76548216D01*
X176190147Y-76400646D01*
X176315646Y-76275147D01*
X176463216Y-76176544D01*
X176627188Y-76108624D01*
X176776488Y-76078927D01*
X176801258Y-76074000D01*
X176978742Y-76074000D01*
X177003512Y-76078927D01*
G37*
G36*
X179543512Y-76078927D02*
G01*
X179692812Y-76108624D01*
X179856784Y-76176544D01*
X180004354Y-76275147D01*
X180129853Y-76400646D01*
X180228456Y-76548216D01*
X180296376Y-76712188D01*
X180331000Y-76886259D01*
X180331000Y-77063741D01*
X180296376Y-77237812D01*
X180228456Y-77401784D01*
X180129853Y-77549354D01*
X180004354Y-77674853D01*
X179856784Y-77773456D01*
X179692812Y-77841376D01*
X179543512Y-77871073D01*
X179518742Y-77876000D01*
X179341258Y-77876000D01*
X179316488Y-77871073D01*
X179167188Y-77841376D01*
X179003216Y-77773456D01*
X178855646Y-77674853D01*
X178730147Y-77549354D01*
X178631544Y-77401784D01*
X178563624Y-77237812D01*
X178529000Y-77063741D01*
X178529000Y-76886259D01*
X178563624Y-76712188D01*
X178631544Y-76548216D01*
X178730147Y-76400646D01*
X178855646Y-76275147D01*
X179003216Y-76176544D01*
X179167188Y-76108624D01*
X179316488Y-76078927D01*
X179341258Y-76074000D01*
X179518742Y-76074000D01*
X179543512Y-76078927D01*
G37*
G36*
X184623512Y-76078927D02*
G01*
X184772812Y-76108624D01*
X184936784Y-76176544D01*
X185084354Y-76275147D01*
X185209853Y-76400646D01*
X185308456Y-76548216D01*
X185376376Y-76712188D01*
X185411000Y-76886259D01*
X185411000Y-77063741D01*
X185376376Y-77237812D01*
X185308456Y-77401784D01*
X185209853Y-77549354D01*
X185084354Y-77674853D01*
X184936784Y-77773456D01*
X184772812Y-77841376D01*
X184623512Y-77871073D01*
X184598742Y-77876000D01*
X184421258Y-77876000D01*
X184396488Y-77871073D01*
X184247188Y-77841376D01*
X184083216Y-77773456D01*
X183935646Y-77674853D01*
X183810147Y-77549354D01*
X183711544Y-77401784D01*
X183643624Y-77237812D01*
X183609000Y-77063741D01*
X183609000Y-76886259D01*
X183643624Y-76712188D01*
X183711544Y-76548216D01*
X183810147Y-76400646D01*
X183935646Y-76275147D01*
X184083216Y-76176544D01*
X184247188Y-76108624D01*
X184396488Y-76078927D01*
X184421258Y-76074000D01*
X184598742Y-76074000D01*
X184623512Y-76078927D01*
G37*
G36*
X187163512Y-76078927D02*
G01*
X187312812Y-76108624D01*
X187476784Y-76176544D01*
X187624354Y-76275147D01*
X187749853Y-76400646D01*
X187848456Y-76548216D01*
X187916376Y-76712188D01*
X187951000Y-76886259D01*
X187951000Y-77063741D01*
X187916376Y-77237812D01*
X187848456Y-77401784D01*
X187749853Y-77549354D01*
X187624354Y-77674853D01*
X187476784Y-77773456D01*
X187312812Y-77841376D01*
X187163512Y-77871073D01*
X187138742Y-77876000D01*
X186961258Y-77876000D01*
X186936488Y-77871073D01*
X186787188Y-77841376D01*
X186623216Y-77773456D01*
X186475646Y-77674853D01*
X186350147Y-77549354D01*
X186251544Y-77401784D01*
X186183624Y-77237812D01*
X186149000Y-77063741D01*
X186149000Y-76886259D01*
X186183624Y-76712188D01*
X186251544Y-76548216D01*
X186350147Y-76400646D01*
X186475646Y-76275147D01*
X186623216Y-76176544D01*
X186787188Y-76108624D01*
X186936488Y-76078927D01*
X186961258Y-76074000D01*
X187138742Y-76074000D01*
X187163512Y-76078927D01*
G37*
G36*
X214128512Y-73768927D02*
G01*
X214277812Y-73798624D01*
X214441784Y-73866544D01*
X214589354Y-73965147D01*
X214714853Y-74090646D01*
X214813456Y-74238216D01*
X214881376Y-74402188D01*
X214916000Y-74576259D01*
X214916000Y-74753741D01*
X214881376Y-74927812D01*
X214813456Y-75091784D01*
X214714853Y-75239354D01*
X214589354Y-75364853D01*
X214441784Y-75463456D01*
X214277812Y-75531376D01*
X214128512Y-75561073D01*
X214103742Y-75566000D01*
X213926258Y-75566000D01*
X213901488Y-75561073D01*
X213752188Y-75531376D01*
X213588216Y-75463456D01*
X213440646Y-75364853D01*
X213315147Y-75239354D01*
X213216544Y-75091784D01*
X213148624Y-74927812D01*
X213114000Y-74753741D01*
X213114000Y-74576259D01*
X213148624Y-74402188D01*
X213216544Y-74238216D01*
X213315147Y-74090646D01*
X213440646Y-73965147D01*
X213588216Y-73866544D01*
X213752188Y-73798624D01*
X213901488Y-73768927D01*
X213926258Y-73764000D01*
X214103742Y-73764000D01*
X214128512Y-73768927D01*
G37*
G36*
X211588512Y-73768927D02*
G01*
X211737812Y-73798624D01*
X211901784Y-73866544D01*
X212049354Y-73965147D01*
X212174853Y-74090646D01*
X212273456Y-74238216D01*
X212341376Y-74402188D01*
X212376000Y-74576259D01*
X212376000Y-74753741D01*
X212341376Y-74927812D01*
X212273456Y-75091784D01*
X212174853Y-75239354D01*
X212049354Y-75364853D01*
X211901784Y-75463456D01*
X211737812Y-75531376D01*
X211588512Y-75561073D01*
X211563742Y-75566000D01*
X211386258Y-75566000D01*
X211361488Y-75561073D01*
X211212188Y-75531376D01*
X211048216Y-75463456D01*
X210900646Y-75364853D01*
X210775147Y-75239354D01*
X210676544Y-75091784D01*
X210608624Y-74927812D01*
X210574000Y-74753741D01*
X210574000Y-74576259D01*
X210608624Y-74402188D01*
X210676544Y-74238216D01*
X210775147Y-74090646D01*
X210900646Y-73965147D01*
X211048216Y-73866544D01*
X211212188Y-73798624D01*
X211361488Y-73768927D01*
X211386258Y-73764000D01*
X211563742Y-73764000D01*
X211588512Y-73768927D01*
G37*
G36*
X160726000Y-75451000D02*
G01*
X158624000Y-75451000D01*
X158624000Y-73349000D01*
X160726000Y-73349000D01*
X160726000Y-75451000D01*
G37*
G36*
X225131564Y-73374389D02*
G01*
X225322833Y-73453615D01*
X225322835Y-73453616D01*
X225494973Y-73568635D01*
X225641365Y-73715027D01*
X225756385Y-73887167D01*
X225835611Y-74078436D01*
X225876000Y-74281484D01*
X225876000Y-74488516D01*
X225835611Y-74691564D01*
X225809856Y-74753742D01*
X225756384Y-74882835D01*
X225641365Y-75054973D01*
X225494973Y-75201365D01*
X225322835Y-75316384D01*
X225322834Y-75316385D01*
X225322833Y-75316385D01*
X225131564Y-75395611D01*
X224928516Y-75436000D01*
X224721484Y-75436000D01*
X224518436Y-75395611D01*
X224327167Y-75316385D01*
X224327166Y-75316385D01*
X224327165Y-75316384D01*
X224155027Y-75201365D01*
X224008635Y-75054973D01*
X223893616Y-74882835D01*
X223840144Y-74753742D01*
X223814389Y-74691564D01*
X223774000Y-74488516D01*
X223774000Y-74281484D01*
X223814389Y-74078436D01*
X223893615Y-73887167D01*
X224008635Y-73715027D01*
X224155027Y-73568635D01*
X224327165Y-73453616D01*
X224327167Y-73453615D01*
X224518436Y-73374389D01*
X224721484Y-73334000D01*
X224928516Y-73334000D01*
X225131564Y-73374389D01*
G37*
G36*
X212376000Y-73026000D02*
G01*
X210574000Y-73026000D01*
X210574000Y-71224000D01*
X212376000Y-71224000D01*
X212376000Y-73026000D01*
G37*
G36*
X214128512Y-71228927D02*
G01*
X214277812Y-71258624D01*
X214441784Y-71326544D01*
X214589354Y-71425147D01*
X214714853Y-71550646D01*
X214813456Y-71698216D01*
X214881376Y-71862188D01*
X214916000Y-72036259D01*
X214916000Y-72213741D01*
X214881376Y-72387812D01*
X214813456Y-72551784D01*
X214714853Y-72699354D01*
X214589354Y-72824853D01*
X214441784Y-72923456D01*
X214277812Y-72991376D01*
X214128512Y-73021073D01*
X214103742Y-73026000D01*
X213926258Y-73026000D01*
X213901488Y-73021073D01*
X213752188Y-72991376D01*
X213588216Y-72923456D01*
X213440646Y-72824853D01*
X213315147Y-72699354D01*
X213216544Y-72551784D01*
X213148624Y-72387812D01*
X213114000Y-72213741D01*
X213114000Y-72036259D01*
X213148624Y-71862188D01*
X213216544Y-71698216D01*
X213315147Y-71550646D01*
X213440646Y-71425147D01*
X213588216Y-71326544D01*
X213752188Y-71258624D01*
X213901488Y-71228927D01*
X213926258Y-71224000D01*
X214103742Y-71224000D01*
X214128512Y-71228927D01*
G37*
M02*
