M48
; DRILL file {KiCad (5.1.5)-3} date 2/14/2021 3:22:30 PM
; FORMAT={-:-/ absolute / inch / decimal}
; #@! TF.CreationDate,2021-02-14T15:22:30-08:00
; #@! TF.GenerationSoftware,Kicad,Pcbnew,(5.1.5)-3
; #@! TF.FileFunction,Plated,1,2,PTH
FMAT,2
INCH
T1C0.0157
T2C0.0256
T3C0.0394
T4C0.0402
%
G90
G05
T1
X6.4606Y-4.0512
X6.501Y-3.7982
X6.501Y-3.9577
X6.7077Y-3.8927
X6.7352Y-2.8091
X6.7352Y-3.6978
X6.8317Y-3.6348
X6.8327Y-3.0669
X6.8573Y-3.7677
X6.8907Y-3.5719
X6.9134Y-4.1033
X7.061Y-3.3209
X7.1713Y-3.4852
X7.186Y-4.0925
X7.186Y-4.2411
X7.1959Y-3.9163
X7.2156Y-4.2096
X7.2175Y-4.063
X7.2293Y-4.6486
X7.248Y-4.9272
X7.2608Y-4.4665
X7.2638Y-3.1132
X7.2638Y-3.4577
X7.2864Y-4.7362
X7.2943Y-4.6506
X7.2963Y-2.7589
X7.2963Y-3.502
X7.2963Y-3.6142
X7.3297Y-3.5443
X7.3376Y-4.6565
X7.3494Y-3.6339
X7.3868Y-2.8484
X7.3868Y-3.2756
X7.3868Y-3.7087
X7.3868Y-4.0935
X7.3868Y-4.4705
X7.4203Y-3.6742
X7.4213Y-2.8839
X7.4213Y-3.2461
X7.4213Y-4.064
X7.437Y-4.4094
X7.437Y-4.5295
X7.4685Y-4.0236
X7.4882Y-2.9715
X7.4882Y-3.4409
X7.4882Y-3.6329
X7.4933Y-3.9646
X7.5Y-4.4114
X7.5187Y-3.4065
X7.5187Y-3.5413
X7.5453Y-4.4045
X7.5712Y-4.0068
X7.5719Y-3.9016
X7.5787Y-3.2451
X7.5797Y-3.187
X7.5807Y-4.502
X7.5812Y-4.4152
X7.5965Y-3.9311
X7.5965Y-4.0344
X7.6152Y-3.2118
X7.6152Y-3.2756
X7.627Y-4.4104
X7.627Y-4.5295
X7.6545Y-4.4695
X7.6644Y-4.2441
X7.6693Y-4.4152
X7.6772Y-3.81
X7.6772Y-4.0177
X7.6801Y-3.3711
X7.6801Y-3.5768
X7.6998Y-4.0945
X7.7008Y-4.4734
X7.7019Y-3.9793
X7.7021Y-4.0457
X7.7045Y-4.7551
X7.7049Y-2.9911
X7.7283Y-3.81
X7.7293Y-4.3907
X7.7392Y-4.7303
X7.7402Y-4.6555
X7.7539Y-3.8406
X7.7667Y-4.1753
X7.7677Y-4.1378
X7.7697Y-3.9626
X7.7717Y-4.3514
X7.7717Y-4.4793
X7.7717Y-4.6831
X7.7726Y-4.9321
X7.7787Y-3.7992
X7.7992Y-4.0915
X7.8022Y-4.7096
X7.812Y-4.3996
X7.8278Y-3.8396
X7.8307Y-2.7598
X7.8337Y-3.0148
X7.8346Y-4.7402
X7.8376Y-4.1752
X7.8376Y-4.4833
X7.8563Y-3.6634
X7.874Y-4.2589
X7.8858Y-4.562
X7.9075Y-3.3297
X7.9075Y-4.44
X7.9222Y-3.253
X7.9347Y-3.41
X7.935Y-4.1063
X7.9646Y-3.4347
X7.9656Y-3.8179
X7.9723Y-3.3474
X7.9754Y-4.3524
X7.997Y-2.9301
X8.0Y-4.0748
X8.0315Y-3.7864
X8.0328Y-2.9859
X8.0413Y-3.3573
X8.0551Y-4.9272
X8.0561Y-4.7372
X8.0581Y-4.3258
X8.0728Y-3.061
X8.0728Y-3.503
X8.0787Y-3.4467
X8.0846Y-2.9646
X8.0984Y-4.7096
X8.0994Y-3.7234
X8.1142Y-3.3829
X8.1161Y-2.8091
X8.1201Y-4.2953
X8.1437Y-3.4715
X8.1437Y-3.9311
X8.1654Y-4.9262
X8.1673Y-4.3258
X8.1683Y-4.4843
X8.1713Y-3.7549
X8.1722Y-3.9016
X8.1772Y-3.1073
X8.1772Y-3.4085
X8.1801Y-2.999
X8.1957Y-4.441
X8.1978Y-4.7067
X8.2303Y-4.3907
X8.2306Y-4.4625
X8.2313Y-4.6654
X8.2608Y-4.9154
X8.2618Y-4.2972
X8.2618Y-4.4833
X8.3258Y-4.6644
X8.3268Y-4.9173
X8.3622Y-3.8179
X8.3622Y-3.9656
X8.3661Y-4.439
X8.3671Y-4.1378
X8.3701Y-4.7057
X8.3986Y-3.7864
X8.3986Y-4.0167
X8.3986Y-4.0728
X8.3996Y-4.3278
X8.4104Y-3.503
X8.4104Y-3.7224
X8.4281Y-4.1063
X8.4281Y-4.2657
X8.501Y-3.4715
X8.501Y-3.5531
X8.501Y-4.0433
X8.502Y-4.1624
X8.5266Y-3.7549
X8.5266Y-3.8425
X8.5305Y-3.3593
X8.5305Y-3.439
T2
X7.1331Y-3.1711
X7.1331Y-3.2211
X7.1331Y-3.2711
X7.1331Y-3.3211
X7.1331Y-3.3711
X7.1831Y-3.1711
X7.1831Y-3.2211
X7.1831Y-3.2711
X7.1831Y-3.3211
X7.1831Y-3.3711
T3
X8.31Y-2.8366
X8.31Y-2.9366
X8.31Y-3.0366
X8.31Y-3.1366
X8.31Y-3.2366
X8.41Y-2.8366
X8.41Y-2.9366
X8.41Y-3.0366
X8.41Y-3.1366
X8.41Y-3.2366
T4
X8.8514Y-2.9285
X8.8514Y-4.9754
X6.2864Y-2.9291
X6.2864Y-4.976
T0
M30
