G04 #@! TF.GenerationSoftware,KiCad,Pcbnew,(5.1.5)-3*
G04 #@! TF.CreationDate,2021-02-14T15:22:36-08:00*
G04 #@! TF.ProjectId,tree,74726565-2e6b-4696-9361-645f70636258,rev?*
G04 #@! TF.SameCoordinates,Original*
G04 #@! TF.FileFunction,Soldermask,Bot*
G04 #@! TF.FilePolarity,Negative*
%FSLAX46Y46*%
G04 Gerber Fmt 4.6, Leading zero omitted, Abs format (unit mm)*
G04 Created by KiCad (PCBNEW (5.1.5)-3) date 2021-02-14 15:22:36*
%MOMM*%
%LPD*%
G04 APERTURE LIST*
%ADD10C,0.100000*%
G04 APERTURE END LIST*
D10*
G36*
X159981564Y-125379389D02*
G01*
X160172833Y-125458615D01*
X160172835Y-125458616D01*
X160344973Y-125573635D01*
X160491365Y-125720027D01*
X160606385Y-125892167D01*
X160685611Y-126083436D01*
X160726000Y-126286484D01*
X160726000Y-126493516D01*
X160685611Y-126696564D01*
X160606385Y-126887833D01*
X160606384Y-126887835D01*
X160491365Y-127059973D01*
X160344973Y-127206365D01*
X160172835Y-127321384D01*
X160172834Y-127321385D01*
X160172833Y-127321385D01*
X159981564Y-127400611D01*
X159778516Y-127441000D01*
X159571484Y-127441000D01*
X159368436Y-127400611D01*
X159177167Y-127321385D01*
X159177166Y-127321385D01*
X159177165Y-127321384D01*
X159005027Y-127206365D01*
X158858635Y-127059973D01*
X158743616Y-126887835D01*
X158743615Y-126887833D01*
X158664389Y-126696564D01*
X158624000Y-126493516D01*
X158624000Y-126286484D01*
X158664389Y-126083436D01*
X158743615Y-125892167D01*
X158858635Y-125720027D01*
X159005027Y-125573635D01*
X159177165Y-125458616D01*
X159177167Y-125458615D01*
X159368436Y-125379389D01*
X159571484Y-125339000D01*
X159778516Y-125339000D01*
X159981564Y-125379389D01*
G37*
G36*
X225876000Y-127426000D02*
G01*
X223774000Y-127426000D01*
X223774000Y-125324000D01*
X225876000Y-125324000D01*
X225876000Y-127426000D01*
G37*
G36*
X165842724Y-122266497D02*
G01*
X166069906Y-122311686D01*
X166319412Y-122415035D01*
X166543962Y-122565075D01*
X166734925Y-122756038D01*
X166884965Y-122980588D01*
X166988314Y-123230094D01*
X167033503Y-123457276D01*
X167040006Y-123489968D01*
X167041000Y-123494968D01*
X167041000Y-123765032D01*
X166988314Y-124029906D01*
X166884965Y-124279412D01*
X166734925Y-124503962D01*
X166543962Y-124694925D01*
X166319412Y-124844965D01*
X166069906Y-124948314D01*
X165842724Y-124993503D01*
X165805033Y-125001000D01*
X165534967Y-125001000D01*
X165497276Y-124993503D01*
X165270094Y-124948314D01*
X165020588Y-124844965D01*
X164796038Y-124694925D01*
X164605075Y-124503962D01*
X164455035Y-124279412D01*
X164351686Y-124029906D01*
X164299000Y-123765032D01*
X164299000Y-123494968D01*
X164299995Y-123489968D01*
X164306497Y-123457276D01*
X164351686Y-123230094D01*
X164455035Y-122980588D01*
X164605075Y-122756038D01*
X164796038Y-122565075D01*
X165020588Y-122415035D01*
X165270094Y-122311686D01*
X165497276Y-122266497D01*
X165534967Y-122259000D01*
X165805033Y-122259000D01*
X165842724Y-122266497D01*
G37*
G36*
X230980169Y-122259000D02*
G01*
X231219906Y-122306686D01*
X231469412Y-122410035D01*
X231693962Y-122560075D01*
X231884925Y-122751038D01*
X232034965Y-122975588D01*
X232138314Y-123225094D01*
X232183503Y-123452276D01*
X232191000Y-123489967D01*
X232191000Y-123760033D01*
X232190005Y-123765033D01*
X232138314Y-124024906D01*
X232034965Y-124274412D01*
X231884925Y-124498962D01*
X231693962Y-124689925D01*
X231469412Y-124839965D01*
X231219906Y-124943314D01*
X230992724Y-124988503D01*
X230955033Y-124996000D01*
X230684967Y-124996000D01*
X230647276Y-124988503D01*
X230420094Y-124943314D01*
X230170588Y-124839965D01*
X229946038Y-124689925D01*
X229755075Y-124498962D01*
X229605035Y-124274412D01*
X229501686Y-124024906D01*
X229449995Y-123765033D01*
X229449000Y-123760033D01*
X229449000Y-123489967D01*
X229456497Y-123452276D01*
X229501686Y-123225094D01*
X229605035Y-122975588D01*
X229755075Y-122751038D01*
X229946038Y-122560075D01*
X230170588Y-122410035D01*
X230420094Y-122306686D01*
X230659831Y-122259000D01*
X230684967Y-122254000D01*
X230955033Y-122254000D01*
X230980169Y-122259000D01*
G37*
G36*
X181340721Y-80015174D02*
G01*
X181440995Y-80056709D01*
X181440996Y-80056710D01*
X181531242Y-80117010D01*
X181607990Y-80193758D01*
X181607991Y-80193760D01*
X181668291Y-80284005D01*
X181699516Y-80359389D01*
X181711067Y-80381000D01*
X181726612Y-80399941D01*
X181745554Y-80415487D01*
X181767165Y-80427038D01*
X181790614Y-80434151D01*
X181815000Y-80436553D01*
X181839386Y-80434151D01*
X181862835Y-80427038D01*
X181884446Y-80415487D01*
X181903387Y-80399942D01*
X181918933Y-80381000D01*
X181930484Y-80359389D01*
X181961709Y-80284005D01*
X182022009Y-80193760D01*
X182022010Y-80193758D01*
X182098758Y-80117010D01*
X182189004Y-80056710D01*
X182189005Y-80056709D01*
X182289279Y-80015174D01*
X182395730Y-79994000D01*
X182504270Y-79994000D01*
X182610721Y-80015174D01*
X182710995Y-80056709D01*
X182710996Y-80056710D01*
X182801242Y-80117010D01*
X182877990Y-80193758D01*
X182877991Y-80193760D01*
X182938291Y-80284005D01*
X182979826Y-80384279D01*
X183001000Y-80490730D01*
X183001000Y-80599270D01*
X182979826Y-80705721D01*
X182938291Y-80805995D01*
X182938290Y-80805996D01*
X182877990Y-80896242D01*
X182801242Y-80972990D01*
X182755812Y-81003345D01*
X182710995Y-81033291D01*
X182635611Y-81064516D01*
X182614000Y-81076067D01*
X182595059Y-81091612D01*
X182579513Y-81110554D01*
X182567962Y-81132165D01*
X182560849Y-81155614D01*
X182558447Y-81180000D01*
X182560849Y-81204386D01*
X182567962Y-81227835D01*
X182579513Y-81249446D01*
X182595058Y-81268387D01*
X182614000Y-81283933D01*
X182635611Y-81295484D01*
X182710995Y-81326709D01*
X182710996Y-81326710D01*
X182801242Y-81387010D01*
X182877990Y-81463758D01*
X182877991Y-81463760D01*
X182938291Y-81554005D01*
X182979826Y-81654279D01*
X183001000Y-81760730D01*
X183001000Y-81869270D01*
X182979826Y-81975721D01*
X182938291Y-82075995D01*
X182938290Y-82075996D01*
X182877990Y-82166242D01*
X182801242Y-82242990D01*
X182755812Y-82273345D01*
X182710995Y-82303291D01*
X182635611Y-82334516D01*
X182614000Y-82346067D01*
X182595059Y-82361612D01*
X182579513Y-82380554D01*
X182567962Y-82402165D01*
X182560849Y-82425614D01*
X182558447Y-82450000D01*
X182560849Y-82474386D01*
X182567962Y-82497835D01*
X182579513Y-82519446D01*
X182595058Y-82538387D01*
X182614000Y-82553933D01*
X182635611Y-82565484D01*
X182710995Y-82596709D01*
X182710996Y-82596710D01*
X182801242Y-82657010D01*
X182877990Y-82733758D01*
X182877991Y-82733760D01*
X182938291Y-82824005D01*
X182979826Y-82924279D01*
X183001000Y-83030730D01*
X183001000Y-83139270D01*
X182979826Y-83245721D01*
X182938291Y-83345995D01*
X182938290Y-83345996D01*
X182877990Y-83436242D01*
X182801242Y-83512990D01*
X182755812Y-83543345D01*
X182710995Y-83573291D01*
X182635611Y-83604516D01*
X182614000Y-83616067D01*
X182595059Y-83631612D01*
X182579513Y-83650554D01*
X182567962Y-83672165D01*
X182560849Y-83695614D01*
X182558447Y-83720000D01*
X182560849Y-83744386D01*
X182567962Y-83767835D01*
X182579513Y-83789446D01*
X182595058Y-83808387D01*
X182614000Y-83823933D01*
X182635611Y-83835484D01*
X182710995Y-83866709D01*
X182710996Y-83866710D01*
X182801242Y-83927010D01*
X182877990Y-84003758D01*
X182877991Y-84003760D01*
X182938291Y-84094005D01*
X182979826Y-84194279D01*
X183001000Y-84300730D01*
X183001000Y-84409270D01*
X182979826Y-84515721D01*
X182938291Y-84615995D01*
X182938290Y-84615996D01*
X182877990Y-84706242D01*
X182801242Y-84782990D01*
X182769816Y-84803988D01*
X182708336Y-84845068D01*
X182689394Y-84860614D01*
X182673849Y-84879556D01*
X182662298Y-84901167D01*
X182655185Y-84924615D01*
X182652783Y-84949002D01*
X182655185Y-84973388D01*
X182662298Y-84996837D01*
X182673849Y-85018447D01*
X182689395Y-85037389D01*
X182708337Y-85052934D01*
X182729948Y-85064485D01*
X182753396Y-85071598D01*
X182777782Y-85074000D01*
X183001000Y-85074000D01*
X183001000Y-86176000D01*
X181899000Y-86176000D01*
X181899000Y-85952782D01*
X181896598Y-85928396D01*
X181889485Y-85904947D01*
X181877934Y-85883336D01*
X181862389Y-85864394D01*
X181843447Y-85848849D01*
X181821836Y-85837298D01*
X181798387Y-85830185D01*
X181774001Y-85827783D01*
X181749615Y-85830185D01*
X181726166Y-85837298D01*
X181704555Y-85848849D01*
X181685613Y-85864394D01*
X181670068Y-85883336D01*
X181628988Y-85944816D01*
X181607990Y-85976242D01*
X181531242Y-86052990D01*
X181485812Y-86083345D01*
X181440995Y-86113291D01*
X181340721Y-86154826D01*
X181234270Y-86176000D01*
X181125730Y-86176000D01*
X181019279Y-86154826D01*
X180919005Y-86113291D01*
X180874188Y-86083345D01*
X180828758Y-86052990D01*
X180752010Y-85976242D01*
X180720041Y-85928396D01*
X180691709Y-85885995D01*
X180650174Y-85785721D01*
X180629000Y-85679270D01*
X180629000Y-85570730D01*
X180650174Y-85464279D01*
X180691709Y-85364005D01*
X180752009Y-85273760D01*
X180752010Y-85273758D01*
X180828758Y-85197010D01*
X180919004Y-85136710D01*
X180919005Y-85136709D01*
X180994389Y-85105484D01*
X181016000Y-85093933D01*
X181034941Y-85078388D01*
X181050487Y-85059446D01*
X181062038Y-85037835D01*
X181069151Y-85014386D01*
X181071553Y-84990000D01*
X181288447Y-84990000D01*
X181290849Y-85014386D01*
X181297962Y-85037835D01*
X181309513Y-85059446D01*
X181325058Y-85078387D01*
X181344000Y-85093933D01*
X181365611Y-85105484D01*
X181440995Y-85136709D01*
X181440996Y-85136710D01*
X181531242Y-85197010D01*
X181607990Y-85273758D01*
X181607991Y-85273760D01*
X181670068Y-85366664D01*
X181685614Y-85385606D01*
X181704556Y-85401151D01*
X181726167Y-85412702D01*
X181749615Y-85419815D01*
X181774002Y-85422217D01*
X181798388Y-85419815D01*
X181821837Y-85412702D01*
X181843447Y-85401151D01*
X181862389Y-85385605D01*
X181877934Y-85366663D01*
X181889485Y-85345052D01*
X181896598Y-85321604D01*
X181899000Y-85297218D01*
X181899000Y-85074000D01*
X182122218Y-85074000D01*
X182146604Y-85071598D01*
X182170053Y-85064485D01*
X182191664Y-85052934D01*
X182210606Y-85037389D01*
X182226151Y-85018447D01*
X182237702Y-84996836D01*
X182244815Y-84973387D01*
X182247217Y-84949001D01*
X182244815Y-84924615D01*
X182237702Y-84901166D01*
X182226151Y-84879555D01*
X182210606Y-84860613D01*
X182191664Y-84845068D01*
X182130184Y-84803988D01*
X182098758Y-84782990D01*
X182022010Y-84706242D01*
X181961710Y-84615996D01*
X181961709Y-84615995D01*
X181930484Y-84540611D01*
X181918933Y-84519000D01*
X181903388Y-84500059D01*
X181884446Y-84484513D01*
X181862835Y-84472962D01*
X181839386Y-84465849D01*
X181815000Y-84463447D01*
X181790614Y-84465849D01*
X181767165Y-84472962D01*
X181745554Y-84484513D01*
X181726613Y-84500058D01*
X181711067Y-84519000D01*
X181699516Y-84540611D01*
X181668291Y-84615995D01*
X181668290Y-84615996D01*
X181607990Y-84706242D01*
X181531242Y-84782990D01*
X181485812Y-84813345D01*
X181440995Y-84843291D01*
X181365611Y-84874516D01*
X181344000Y-84886067D01*
X181325059Y-84901612D01*
X181309513Y-84920554D01*
X181297962Y-84942165D01*
X181290849Y-84965614D01*
X181288447Y-84990000D01*
X181071553Y-84990000D01*
X181069151Y-84965614D01*
X181062038Y-84942165D01*
X181050487Y-84920554D01*
X181034942Y-84901613D01*
X181016000Y-84886067D01*
X180994389Y-84874516D01*
X180919005Y-84843291D01*
X180874188Y-84813345D01*
X180828758Y-84782990D01*
X180752010Y-84706242D01*
X180691710Y-84615996D01*
X180691709Y-84615995D01*
X180650174Y-84515721D01*
X180629000Y-84409270D01*
X180629000Y-84300730D01*
X180650174Y-84194279D01*
X180691709Y-84094005D01*
X180752009Y-84003760D01*
X180752010Y-84003758D01*
X180828758Y-83927010D01*
X180919004Y-83866710D01*
X180919005Y-83866709D01*
X180994389Y-83835484D01*
X181016000Y-83823933D01*
X181034941Y-83808388D01*
X181050487Y-83789446D01*
X181062038Y-83767835D01*
X181069151Y-83744386D01*
X181071553Y-83720000D01*
X181288447Y-83720000D01*
X181290849Y-83744386D01*
X181297962Y-83767835D01*
X181309513Y-83789446D01*
X181325058Y-83808387D01*
X181344000Y-83823933D01*
X181365611Y-83835484D01*
X181440995Y-83866709D01*
X181440996Y-83866710D01*
X181531242Y-83927010D01*
X181607990Y-84003758D01*
X181607991Y-84003760D01*
X181668291Y-84094005D01*
X181699516Y-84169389D01*
X181711067Y-84191000D01*
X181726612Y-84209941D01*
X181745554Y-84225487D01*
X181767165Y-84237038D01*
X181790614Y-84244151D01*
X181815000Y-84246553D01*
X181839386Y-84244151D01*
X181862835Y-84237038D01*
X181884446Y-84225487D01*
X181903387Y-84209942D01*
X181918933Y-84191000D01*
X181930484Y-84169389D01*
X181961709Y-84094005D01*
X182022009Y-84003760D01*
X182022010Y-84003758D01*
X182098758Y-83927010D01*
X182189004Y-83866710D01*
X182189005Y-83866709D01*
X182264389Y-83835484D01*
X182286000Y-83823933D01*
X182304941Y-83808388D01*
X182320487Y-83789446D01*
X182332038Y-83767835D01*
X182339151Y-83744386D01*
X182341553Y-83720000D01*
X182339151Y-83695614D01*
X182332038Y-83672165D01*
X182320487Y-83650554D01*
X182304942Y-83631613D01*
X182286000Y-83616067D01*
X182264389Y-83604516D01*
X182189005Y-83573291D01*
X182144188Y-83543345D01*
X182098758Y-83512990D01*
X182022010Y-83436242D01*
X181961710Y-83345996D01*
X181961709Y-83345995D01*
X181930484Y-83270611D01*
X181918933Y-83249000D01*
X181903388Y-83230059D01*
X181884446Y-83214513D01*
X181862835Y-83202962D01*
X181839386Y-83195849D01*
X181815000Y-83193447D01*
X181790614Y-83195849D01*
X181767165Y-83202962D01*
X181745554Y-83214513D01*
X181726613Y-83230058D01*
X181711067Y-83249000D01*
X181699516Y-83270611D01*
X181668291Y-83345995D01*
X181668290Y-83345996D01*
X181607990Y-83436242D01*
X181531242Y-83512990D01*
X181485812Y-83543345D01*
X181440995Y-83573291D01*
X181365611Y-83604516D01*
X181344000Y-83616067D01*
X181325059Y-83631612D01*
X181309513Y-83650554D01*
X181297962Y-83672165D01*
X181290849Y-83695614D01*
X181288447Y-83720000D01*
X181071553Y-83720000D01*
X181069151Y-83695614D01*
X181062038Y-83672165D01*
X181050487Y-83650554D01*
X181034942Y-83631613D01*
X181016000Y-83616067D01*
X180994389Y-83604516D01*
X180919005Y-83573291D01*
X180874188Y-83543345D01*
X180828758Y-83512990D01*
X180752010Y-83436242D01*
X180691710Y-83345996D01*
X180691709Y-83345995D01*
X180650174Y-83245721D01*
X180629000Y-83139270D01*
X180629000Y-83030730D01*
X180650174Y-82924279D01*
X180691709Y-82824005D01*
X180752009Y-82733760D01*
X180752010Y-82733758D01*
X180828758Y-82657010D01*
X180919004Y-82596710D01*
X180919005Y-82596709D01*
X180994389Y-82565484D01*
X181016000Y-82553933D01*
X181034941Y-82538388D01*
X181050487Y-82519446D01*
X181062038Y-82497835D01*
X181069151Y-82474386D01*
X181071553Y-82450000D01*
X181288447Y-82450000D01*
X181290849Y-82474386D01*
X181297962Y-82497835D01*
X181309513Y-82519446D01*
X181325058Y-82538387D01*
X181344000Y-82553933D01*
X181365611Y-82565484D01*
X181440995Y-82596709D01*
X181440996Y-82596710D01*
X181531242Y-82657010D01*
X181607990Y-82733758D01*
X181607991Y-82733760D01*
X181668291Y-82824005D01*
X181699516Y-82899389D01*
X181711067Y-82921000D01*
X181726612Y-82939941D01*
X181745554Y-82955487D01*
X181767165Y-82967038D01*
X181790614Y-82974151D01*
X181815000Y-82976553D01*
X181839386Y-82974151D01*
X181862835Y-82967038D01*
X181884446Y-82955487D01*
X181903387Y-82939942D01*
X181918933Y-82921000D01*
X181930484Y-82899389D01*
X181961709Y-82824005D01*
X182022009Y-82733760D01*
X182022010Y-82733758D01*
X182098758Y-82657010D01*
X182189004Y-82596710D01*
X182189005Y-82596709D01*
X182264389Y-82565484D01*
X182286000Y-82553933D01*
X182304941Y-82538388D01*
X182320487Y-82519446D01*
X182332038Y-82497835D01*
X182339151Y-82474386D01*
X182341553Y-82450000D01*
X182339151Y-82425614D01*
X182332038Y-82402165D01*
X182320487Y-82380554D01*
X182304942Y-82361613D01*
X182286000Y-82346067D01*
X182264389Y-82334516D01*
X182189005Y-82303291D01*
X182144188Y-82273345D01*
X182098758Y-82242990D01*
X182022010Y-82166242D01*
X181961710Y-82075996D01*
X181961709Y-82075995D01*
X181930484Y-82000611D01*
X181918933Y-81979000D01*
X181903388Y-81960059D01*
X181884446Y-81944513D01*
X181862835Y-81932962D01*
X181839386Y-81925849D01*
X181815000Y-81923447D01*
X181790614Y-81925849D01*
X181767165Y-81932962D01*
X181745554Y-81944513D01*
X181726613Y-81960058D01*
X181711067Y-81979000D01*
X181699516Y-82000611D01*
X181668291Y-82075995D01*
X181668290Y-82075996D01*
X181607990Y-82166242D01*
X181531242Y-82242990D01*
X181485812Y-82273345D01*
X181440995Y-82303291D01*
X181365611Y-82334516D01*
X181344000Y-82346067D01*
X181325059Y-82361612D01*
X181309513Y-82380554D01*
X181297962Y-82402165D01*
X181290849Y-82425614D01*
X181288447Y-82450000D01*
X181071553Y-82450000D01*
X181069151Y-82425614D01*
X181062038Y-82402165D01*
X181050487Y-82380554D01*
X181034942Y-82361613D01*
X181016000Y-82346067D01*
X180994389Y-82334516D01*
X180919005Y-82303291D01*
X180874188Y-82273345D01*
X180828758Y-82242990D01*
X180752010Y-82166242D01*
X180691710Y-82075996D01*
X180691709Y-82075995D01*
X180650174Y-81975721D01*
X180629000Y-81869270D01*
X180629000Y-81760730D01*
X180650174Y-81654279D01*
X180691709Y-81554005D01*
X180752009Y-81463760D01*
X180752010Y-81463758D01*
X180828758Y-81387010D01*
X180919004Y-81326710D01*
X180919005Y-81326709D01*
X180994389Y-81295484D01*
X181016000Y-81283933D01*
X181034941Y-81268388D01*
X181050487Y-81249446D01*
X181062038Y-81227835D01*
X181069151Y-81204386D01*
X181071553Y-81180000D01*
X181288447Y-81180000D01*
X181290849Y-81204386D01*
X181297962Y-81227835D01*
X181309513Y-81249446D01*
X181325058Y-81268387D01*
X181344000Y-81283933D01*
X181365611Y-81295484D01*
X181440995Y-81326709D01*
X181440996Y-81326710D01*
X181531242Y-81387010D01*
X181607990Y-81463758D01*
X181607991Y-81463760D01*
X181668291Y-81554005D01*
X181699516Y-81629389D01*
X181711067Y-81651000D01*
X181726612Y-81669941D01*
X181745554Y-81685487D01*
X181767165Y-81697038D01*
X181790614Y-81704151D01*
X181815000Y-81706553D01*
X181839386Y-81704151D01*
X181862835Y-81697038D01*
X181884446Y-81685487D01*
X181903387Y-81669942D01*
X181918933Y-81651000D01*
X181930484Y-81629389D01*
X181961709Y-81554005D01*
X182022009Y-81463760D01*
X182022010Y-81463758D01*
X182098758Y-81387010D01*
X182189004Y-81326710D01*
X182189005Y-81326709D01*
X182264389Y-81295484D01*
X182286000Y-81283933D01*
X182304941Y-81268388D01*
X182320487Y-81249446D01*
X182332038Y-81227835D01*
X182339151Y-81204386D01*
X182341553Y-81180000D01*
X182339151Y-81155614D01*
X182332038Y-81132165D01*
X182320487Y-81110554D01*
X182304942Y-81091613D01*
X182286000Y-81076067D01*
X182264389Y-81064516D01*
X182189005Y-81033291D01*
X182144188Y-81003345D01*
X182098758Y-80972990D01*
X182022010Y-80896242D01*
X181961710Y-80805996D01*
X181961709Y-80805995D01*
X181930484Y-80730611D01*
X181918933Y-80709000D01*
X181903388Y-80690059D01*
X181884446Y-80674513D01*
X181862835Y-80662962D01*
X181839386Y-80655849D01*
X181815000Y-80653447D01*
X181790614Y-80655849D01*
X181767165Y-80662962D01*
X181745554Y-80674513D01*
X181726613Y-80690058D01*
X181711067Y-80709000D01*
X181699516Y-80730611D01*
X181668291Y-80805995D01*
X181668290Y-80805996D01*
X181607990Y-80896242D01*
X181531242Y-80972990D01*
X181485812Y-81003345D01*
X181440995Y-81033291D01*
X181365611Y-81064516D01*
X181344000Y-81076067D01*
X181325059Y-81091612D01*
X181309513Y-81110554D01*
X181297962Y-81132165D01*
X181290849Y-81155614D01*
X181288447Y-81180000D01*
X181071553Y-81180000D01*
X181069151Y-81155614D01*
X181062038Y-81132165D01*
X181050487Y-81110554D01*
X181034942Y-81091613D01*
X181016000Y-81076067D01*
X180994389Y-81064516D01*
X180919005Y-81033291D01*
X180874188Y-81003345D01*
X180828758Y-80972990D01*
X180752010Y-80896242D01*
X180691710Y-80805996D01*
X180691709Y-80805995D01*
X180650174Y-80705721D01*
X180629000Y-80599270D01*
X180629000Y-80490730D01*
X180650174Y-80384279D01*
X180691709Y-80284005D01*
X180752009Y-80193760D01*
X180752010Y-80193758D01*
X180828758Y-80117010D01*
X180919004Y-80056710D01*
X180919005Y-80056709D01*
X181019279Y-80015174D01*
X181125730Y-79994000D01*
X181234270Y-79994000D01*
X181340721Y-80015174D01*
G37*
G36*
X211188512Y-81313927D02*
G01*
X211337812Y-81343624D01*
X211501784Y-81411544D01*
X211649354Y-81510147D01*
X211774853Y-81635646D01*
X211873456Y-81783216D01*
X211941376Y-81947188D01*
X211976000Y-82121259D01*
X211976000Y-82298741D01*
X211941376Y-82472812D01*
X211873456Y-82636784D01*
X211774853Y-82784354D01*
X211649354Y-82909853D01*
X211501784Y-83008456D01*
X211337812Y-83076376D01*
X211188512Y-83106073D01*
X211163742Y-83111000D01*
X210986258Y-83111000D01*
X210961488Y-83106073D01*
X210812188Y-83076376D01*
X210648216Y-83008456D01*
X210500646Y-82909853D01*
X210375147Y-82784354D01*
X210276544Y-82636784D01*
X210208624Y-82472812D01*
X210174000Y-82298741D01*
X210174000Y-82121259D01*
X210208624Y-81947188D01*
X210276544Y-81783216D01*
X210375147Y-81635646D01*
X210500646Y-81510147D01*
X210648216Y-81411544D01*
X210812188Y-81343624D01*
X210961488Y-81313927D01*
X210986258Y-81309000D01*
X211163742Y-81309000D01*
X211188512Y-81313927D01*
G37*
G36*
X213728512Y-81313927D02*
G01*
X213877812Y-81343624D01*
X214041784Y-81411544D01*
X214189354Y-81510147D01*
X214314853Y-81635646D01*
X214413456Y-81783216D01*
X214481376Y-81947188D01*
X214516000Y-82121259D01*
X214516000Y-82298741D01*
X214481376Y-82472812D01*
X214413456Y-82636784D01*
X214314853Y-82784354D01*
X214189354Y-82909853D01*
X214041784Y-83008456D01*
X213877812Y-83076376D01*
X213728512Y-83106073D01*
X213703742Y-83111000D01*
X213526258Y-83111000D01*
X213501488Y-83106073D01*
X213352188Y-83076376D01*
X213188216Y-83008456D01*
X213040646Y-82909853D01*
X212915147Y-82784354D01*
X212816544Y-82636784D01*
X212748624Y-82472812D01*
X212714000Y-82298741D01*
X212714000Y-82121259D01*
X212748624Y-81947188D01*
X212816544Y-81783216D01*
X212915147Y-81635646D01*
X213040646Y-81510147D01*
X213188216Y-81411544D01*
X213352188Y-81343624D01*
X213501488Y-81313927D01*
X213526258Y-81309000D01*
X213703742Y-81309000D01*
X213728512Y-81313927D01*
G37*
G36*
X213728512Y-78773927D02*
G01*
X213877812Y-78803624D01*
X214041784Y-78871544D01*
X214189354Y-78970147D01*
X214314853Y-79095646D01*
X214413456Y-79243216D01*
X214481376Y-79407188D01*
X214516000Y-79581259D01*
X214516000Y-79758741D01*
X214481376Y-79932812D01*
X214413456Y-80096784D01*
X214314853Y-80244354D01*
X214189354Y-80369853D01*
X214041784Y-80468456D01*
X213877812Y-80536376D01*
X213728512Y-80566073D01*
X213703742Y-80571000D01*
X213526258Y-80571000D01*
X213501488Y-80566073D01*
X213352188Y-80536376D01*
X213188216Y-80468456D01*
X213040646Y-80369853D01*
X212915147Y-80244354D01*
X212816544Y-80096784D01*
X212748624Y-79932812D01*
X212714000Y-79758741D01*
X212714000Y-79581259D01*
X212748624Y-79407188D01*
X212816544Y-79243216D01*
X212915147Y-79095646D01*
X213040646Y-78970147D01*
X213188216Y-78871544D01*
X213352188Y-78803624D01*
X213501488Y-78773927D01*
X213526258Y-78769000D01*
X213703742Y-78769000D01*
X213728512Y-78773927D01*
G37*
G36*
X211188512Y-78773927D02*
G01*
X211337812Y-78803624D01*
X211501784Y-78871544D01*
X211649354Y-78970147D01*
X211774853Y-79095646D01*
X211873456Y-79243216D01*
X211941376Y-79407188D01*
X211976000Y-79581259D01*
X211976000Y-79758741D01*
X211941376Y-79932812D01*
X211873456Y-80096784D01*
X211774853Y-80244354D01*
X211649354Y-80369853D01*
X211501784Y-80468456D01*
X211337812Y-80536376D01*
X211188512Y-80566073D01*
X211163742Y-80571000D01*
X210986258Y-80571000D01*
X210961488Y-80566073D01*
X210812188Y-80536376D01*
X210648216Y-80468456D01*
X210500646Y-80369853D01*
X210375147Y-80244354D01*
X210276544Y-80096784D01*
X210208624Y-79932812D01*
X210174000Y-79758741D01*
X210174000Y-79581259D01*
X210208624Y-79407188D01*
X210276544Y-79243216D01*
X210375147Y-79095646D01*
X210500646Y-78970147D01*
X210648216Y-78871544D01*
X210812188Y-78803624D01*
X210961488Y-78773927D01*
X210986258Y-78769000D01*
X211163742Y-78769000D01*
X211188512Y-78773927D01*
G37*
G36*
X153852724Y-75786497D02*
G01*
X154079906Y-75831686D01*
X154329412Y-75935035D01*
X154553962Y-76085075D01*
X154744925Y-76276038D01*
X154894965Y-76500588D01*
X154998314Y-76750094D01*
X155021605Y-76867188D01*
X155050006Y-77009968D01*
X155051000Y-77014968D01*
X155051000Y-77285032D01*
X154998314Y-77549906D01*
X154894965Y-77799412D01*
X154744925Y-78023962D01*
X154553962Y-78214925D01*
X154329412Y-78364965D01*
X154079906Y-78468314D01*
X153852724Y-78513503D01*
X153815033Y-78521000D01*
X153544967Y-78521000D01*
X153507276Y-78513503D01*
X153280094Y-78468314D01*
X153030588Y-78364965D01*
X152806038Y-78214925D01*
X152615075Y-78023962D01*
X152465035Y-77799412D01*
X152361686Y-77549906D01*
X152309000Y-77285032D01*
X152309000Y-77014968D01*
X152309995Y-77009968D01*
X152338395Y-76867188D01*
X152361686Y-76750094D01*
X152465035Y-76500588D01*
X152615075Y-76276038D01*
X152806038Y-76085075D01*
X153030588Y-75935035D01*
X153280094Y-75831686D01*
X153507276Y-75786497D01*
X153544967Y-75779000D01*
X153815033Y-75779000D01*
X153852724Y-75786497D01*
G37*
G36*
X218990169Y-75779000D02*
G01*
X219229906Y-75826686D01*
X219479412Y-75930035D01*
X219703962Y-76080075D01*
X219894925Y-76271038D01*
X220044965Y-76495588D01*
X220148314Y-76745094D01*
X220193503Y-76972276D01*
X220201000Y-77009967D01*
X220201000Y-77280033D01*
X220200005Y-77285033D01*
X220148314Y-77544906D01*
X220044965Y-77794412D01*
X219894925Y-78018962D01*
X219703962Y-78209925D01*
X219479412Y-78359965D01*
X219229906Y-78463314D01*
X219002724Y-78508503D01*
X218965033Y-78516000D01*
X218694967Y-78516000D01*
X218657276Y-78508503D01*
X218430094Y-78463314D01*
X218180588Y-78359965D01*
X217956038Y-78209925D01*
X217765075Y-78018962D01*
X217615035Y-77794412D01*
X217511686Y-77544906D01*
X217459995Y-77285033D01*
X217459000Y-77280033D01*
X217459000Y-77009967D01*
X217466497Y-76972276D01*
X217511686Y-76745094D01*
X217615035Y-76495588D01*
X217765075Y-76271038D01*
X217956038Y-76080075D01*
X218180588Y-75930035D01*
X218430094Y-75826686D01*
X218669831Y-75779000D01*
X218694967Y-75774000D01*
X218965033Y-75774000D01*
X218990169Y-75779000D01*
G37*
G36*
X213728512Y-76233927D02*
G01*
X213877812Y-76263624D01*
X214041784Y-76331544D01*
X214189354Y-76430147D01*
X214314853Y-76555646D01*
X214413456Y-76703216D01*
X214481376Y-76867188D01*
X214516000Y-77041259D01*
X214516000Y-77218741D01*
X214481376Y-77392812D01*
X214413456Y-77556784D01*
X214314853Y-77704354D01*
X214189354Y-77829853D01*
X214041784Y-77928456D01*
X213877812Y-77996376D01*
X213739139Y-78023959D01*
X213703742Y-78031000D01*
X213526258Y-78031000D01*
X213490861Y-78023959D01*
X213352188Y-77996376D01*
X213188216Y-77928456D01*
X213040646Y-77829853D01*
X212915147Y-77704354D01*
X212816544Y-77556784D01*
X212748624Y-77392812D01*
X212714000Y-77218741D01*
X212714000Y-77041259D01*
X212748624Y-76867188D01*
X212816544Y-76703216D01*
X212915147Y-76555646D01*
X213040646Y-76430147D01*
X213188216Y-76331544D01*
X213352188Y-76263624D01*
X213501488Y-76233927D01*
X213526258Y-76229000D01*
X213703742Y-76229000D01*
X213728512Y-76233927D01*
G37*
G36*
X211188512Y-76233927D02*
G01*
X211337812Y-76263624D01*
X211501784Y-76331544D01*
X211649354Y-76430147D01*
X211774853Y-76555646D01*
X211873456Y-76703216D01*
X211941376Y-76867188D01*
X211976000Y-77041259D01*
X211976000Y-77218741D01*
X211941376Y-77392812D01*
X211873456Y-77556784D01*
X211774853Y-77704354D01*
X211649354Y-77829853D01*
X211501784Y-77928456D01*
X211337812Y-77996376D01*
X211199139Y-78023959D01*
X211163742Y-78031000D01*
X210986258Y-78031000D01*
X210950861Y-78023959D01*
X210812188Y-77996376D01*
X210648216Y-77928456D01*
X210500646Y-77829853D01*
X210375147Y-77704354D01*
X210276544Y-77556784D01*
X210208624Y-77392812D01*
X210174000Y-77218741D01*
X210174000Y-77041259D01*
X210208624Y-76867188D01*
X210276544Y-76703216D01*
X210375147Y-76555646D01*
X210500646Y-76430147D01*
X210648216Y-76331544D01*
X210812188Y-76263624D01*
X210961488Y-76233927D01*
X210986258Y-76229000D01*
X211163742Y-76229000D01*
X211188512Y-76233927D01*
G37*
G36*
X213728512Y-73693927D02*
G01*
X213877812Y-73723624D01*
X214041784Y-73791544D01*
X214189354Y-73890147D01*
X214314853Y-74015646D01*
X214413456Y-74163216D01*
X214481376Y-74327188D01*
X214511073Y-74476488D01*
X214516000Y-74501258D01*
X214516000Y-74678742D01*
X214513449Y-74691565D01*
X214481376Y-74852812D01*
X214413456Y-75016784D01*
X214314853Y-75164354D01*
X214189354Y-75289853D01*
X214041784Y-75388456D01*
X213877812Y-75456376D01*
X213728512Y-75486073D01*
X213703742Y-75491000D01*
X213526258Y-75491000D01*
X213501488Y-75486073D01*
X213352188Y-75456376D01*
X213188216Y-75388456D01*
X213040646Y-75289853D01*
X212915147Y-75164354D01*
X212816544Y-75016784D01*
X212748624Y-74852812D01*
X212716551Y-74691565D01*
X212714000Y-74678742D01*
X212714000Y-74501258D01*
X212718927Y-74476488D01*
X212748624Y-74327188D01*
X212816544Y-74163216D01*
X212915147Y-74015646D01*
X213040646Y-73890147D01*
X213188216Y-73791544D01*
X213352188Y-73723624D01*
X213501488Y-73693927D01*
X213526258Y-73689000D01*
X213703742Y-73689000D01*
X213728512Y-73693927D01*
G37*
G36*
X211188512Y-73693927D02*
G01*
X211337812Y-73723624D01*
X211501784Y-73791544D01*
X211649354Y-73890147D01*
X211774853Y-74015646D01*
X211873456Y-74163216D01*
X211941376Y-74327188D01*
X211971073Y-74476488D01*
X211976000Y-74501258D01*
X211976000Y-74678742D01*
X211973449Y-74691565D01*
X211941376Y-74852812D01*
X211873456Y-75016784D01*
X211774853Y-75164354D01*
X211649354Y-75289853D01*
X211501784Y-75388456D01*
X211337812Y-75456376D01*
X211188512Y-75486073D01*
X211163742Y-75491000D01*
X210986258Y-75491000D01*
X210961488Y-75486073D01*
X210812188Y-75456376D01*
X210648216Y-75388456D01*
X210500646Y-75289853D01*
X210375147Y-75164354D01*
X210276544Y-75016784D01*
X210208624Y-74852812D01*
X210176551Y-74691565D01*
X210174000Y-74678742D01*
X210174000Y-74501258D01*
X210178927Y-74476488D01*
X210208624Y-74327188D01*
X210276544Y-74163216D01*
X210375147Y-74015646D01*
X210500646Y-73890147D01*
X210648216Y-73791544D01*
X210812188Y-73723624D01*
X210961488Y-73693927D01*
X210986258Y-73689000D01*
X211163742Y-73689000D01*
X211188512Y-73693927D01*
G37*
G36*
X160726000Y-75451000D02*
G01*
X158624000Y-75451000D01*
X158624000Y-73349000D01*
X160726000Y-73349000D01*
X160726000Y-75451000D01*
G37*
G36*
X225131564Y-73374389D02*
G01*
X225322833Y-73453615D01*
X225322835Y-73453616D01*
X225494973Y-73568635D01*
X225641365Y-73715027D01*
X225756385Y-73887167D01*
X225835611Y-74078436D01*
X225876000Y-74281484D01*
X225876000Y-74488516D01*
X225835611Y-74691564D01*
X225768820Y-74852811D01*
X225756384Y-74882835D01*
X225641365Y-75054973D01*
X225494973Y-75201365D01*
X225322835Y-75316384D01*
X225322834Y-75316385D01*
X225322833Y-75316385D01*
X225131564Y-75395611D01*
X224928516Y-75436000D01*
X224721484Y-75436000D01*
X224518436Y-75395611D01*
X224327167Y-75316385D01*
X224327166Y-75316385D01*
X224327165Y-75316384D01*
X224155027Y-75201365D01*
X224008635Y-75054973D01*
X223893616Y-74882835D01*
X223881180Y-74852811D01*
X223814389Y-74691564D01*
X223774000Y-74488516D01*
X223774000Y-74281484D01*
X223814389Y-74078436D01*
X223893615Y-73887167D01*
X224008635Y-73715027D01*
X224155027Y-73568635D01*
X224327165Y-73453616D01*
X224327167Y-73453615D01*
X224518436Y-73374389D01*
X224721484Y-73334000D01*
X224928516Y-73334000D01*
X225131564Y-73374389D01*
G37*
G36*
X213728512Y-71153927D02*
G01*
X213877812Y-71183624D01*
X214041784Y-71251544D01*
X214189354Y-71350147D01*
X214314853Y-71475646D01*
X214413456Y-71623216D01*
X214481376Y-71787188D01*
X214516000Y-71961259D01*
X214516000Y-72138741D01*
X214481376Y-72312812D01*
X214413456Y-72476784D01*
X214314853Y-72624354D01*
X214189354Y-72749853D01*
X214041784Y-72848456D01*
X213877812Y-72916376D01*
X213728512Y-72946073D01*
X213703742Y-72951000D01*
X213526258Y-72951000D01*
X213501488Y-72946073D01*
X213352188Y-72916376D01*
X213188216Y-72848456D01*
X213040646Y-72749853D01*
X212915147Y-72624354D01*
X212816544Y-72476784D01*
X212748624Y-72312812D01*
X212714000Y-72138741D01*
X212714000Y-71961259D01*
X212748624Y-71787188D01*
X212816544Y-71623216D01*
X212915147Y-71475646D01*
X213040646Y-71350147D01*
X213188216Y-71251544D01*
X213352188Y-71183624D01*
X213501488Y-71153927D01*
X213526258Y-71149000D01*
X213703742Y-71149000D01*
X213728512Y-71153927D01*
G37*
G36*
X211976000Y-72951000D02*
G01*
X210174000Y-72951000D01*
X210174000Y-71149000D01*
X211976000Y-71149000D01*
X211976000Y-72951000D01*
G37*
M02*
