G04 #@! TF.GenerationSoftware,KiCad,Pcbnew,(5.1.5)-3*
G04 #@! TF.CreationDate,2021-02-14T15:22:36-08:00*
G04 #@! TF.ProjectId,tree,74726565-2e6b-4696-9361-645f70636258,rev?*
G04 #@! TF.SameCoordinates,Original*
G04 #@! TF.FileFunction,Paste,Top*
G04 #@! TF.FilePolarity,Positive*
%FSLAX46Y46*%
G04 Gerber Fmt 4.6, Leading zero omitted, Abs format (unit mm)*
G04 Created by KiCad (PCBNEW (5.1.5)-3) date 2021-02-14 15:22:36*
%MOMM*%
%LPD*%
G04 APERTURE LIST*
%ADD10R,2.100000X1.400000*%
%ADD11C,0.100000*%
%ADD12R,0.800000X1.000000*%
%ADD13R,1.000000X0.800000*%
%ADD14R,0.800000X0.500000*%
%ADD15R,0.800000X0.400000*%
%ADD16R,0.500000X0.800000*%
%ADD17R,0.400000X0.800000*%
%ADD18R,1.200000X2.500000*%
%ADD19R,0.450000X1.500000*%
%ADD20R,1.100000X0.400000*%
G04 APERTURE END LIST*
D10*
X169600000Y-111700000D03*
X169600000Y-116200000D03*
X175600000Y-111700000D03*
X175600000Y-116200000D03*
D11*
G36*
X172424505Y-95101204D02*
G01*
X172448773Y-95104804D01*
X172472572Y-95110765D01*
X172495671Y-95119030D01*
X172517850Y-95129520D01*
X172538893Y-95142132D01*
X172558599Y-95156747D01*
X172576777Y-95173223D01*
X172593253Y-95191401D01*
X172607868Y-95211107D01*
X172620480Y-95232150D01*
X172630970Y-95254329D01*
X172639235Y-95277428D01*
X172645196Y-95301227D01*
X172648796Y-95325495D01*
X172650000Y-95349999D01*
X172650000Y-96000001D01*
X172648796Y-96024505D01*
X172645196Y-96048773D01*
X172639235Y-96072572D01*
X172630970Y-96095671D01*
X172620480Y-96117850D01*
X172607868Y-96138893D01*
X172593253Y-96158599D01*
X172576777Y-96176777D01*
X172558599Y-96193253D01*
X172538893Y-96207868D01*
X172517850Y-96220480D01*
X172495671Y-96230970D01*
X172472572Y-96239235D01*
X172448773Y-96245196D01*
X172424505Y-96248796D01*
X172400001Y-96250000D01*
X171499999Y-96250000D01*
X171475495Y-96248796D01*
X171451227Y-96245196D01*
X171427428Y-96239235D01*
X171404329Y-96230970D01*
X171382150Y-96220480D01*
X171361107Y-96207868D01*
X171341401Y-96193253D01*
X171323223Y-96176777D01*
X171306747Y-96158599D01*
X171292132Y-96138893D01*
X171279520Y-96117850D01*
X171269030Y-96095671D01*
X171260765Y-96072572D01*
X171254804Y-96048773D01*
X171251204Y-96024505D01*
X171250000Y-96000001D01*
X171250000Y-95349999D01*
X171251204Y-95325495D01*
X171254804Y-95301227D01*
X171260765Y-95277428D01*
X171269030Y-95254329D01*
X171279520Y-95232150D01*
X171292132Y-95211107D01*
X171306747Y-95191401D01*
X171323223Y-95173223D01*
X171341401Y-95156747D01*
X171361107Y-95142132D01*
X171382150Y-95129520D01*
X171404329Y-95119030D01*
X171427428Y-95110765D01*
X171451227Y-95104804D01*
X171475495Y-95101204D01*
X171499999Y-95100000D01*
X172400001Y-95100000D01*
X172424505Y-95101204D01*
G37*
G36*
X172424505Y-97151204D02*
G01*
X172448773Y-97154804D01*
X172472572Y-97160765D01*
X172495671Y-97169030D01*
X172517850Y-97179520D01*
X172538893Y-97192132D01*
X172558599Y-97206747D01*
X172576777Y-97223223D01*
X172593253Y-97241401D01*
X172607868Y-97261107D01*
X172620480Y-97282150D01*
X172630970Y-97304329D01*
X172639235Y-97327428D01*
X172645196Y-97351227D01*
X172648796Y-97375495D01*
X172650000Y-97399999D01*
X172650000Y-98050001D01*
X172648796Y-98074505D01*
X172645196Y-98098773D01*
X172639235Y-98122572D01*
X172630970Y-98145671D01*
X172620480Y-98167850D01*
X172607868Y-98188893D01*
X172593253Y-98208599D01*
X172576777Y-98226777D01*
X172558599Y-98243253D01*
X172538893Y-98257868D01*
X172517850Y-98270480D01*
X172495671Y-98280970D01*
X172472572Y-98289235D01*
X172448773Y-98295196D01*
X172424505Y-98298796D01*
X172400001Y-98300000D01*
X171499999Y-98300000D01*
X171475495Y-98298796D01*
X171451227Y-98295196D01*
X171427428Y-98289235D01*
X171404329Y-98280970D01*
X171382150Y-98270480D01*
X171361107Y-98257868D01*
X171341401Y-98243253D01*
X171323223Y-98226777D01*
X171306747Y-98208599D01*
X171292132Y-98188893D01*
X171279520Y-98167850D01*
X171269030Y-98145671D01*
X171260765Y-98122572D01*
X171254804Y-98098773D01*
X171251204Y-98074505D01*
X171250000Y-98050001D01*
X171250000Y-97399999D01*
X171251204Y-97375495D01*
X171254804Y-97351227D01*
X171260765Y-97327428D01*
X171269030Y-97304329D01*
X171279520Y-97282150D01*
X171292132Y-97261107D01*
X171306747Y-97241401D01*
X171323223Y-97223223D01*
X171341401Y-97206747D01*
X171361107Y-97192132D01*
X171382150Y-97179520D01*
X171404329Y-97169030D01*
X171427428Y-97160765D01*
X171451227Y-97154804D01*
X171475495Y-97151204D01*
X171499999Y-97150000D01*
X172400001Y-97150000D01*
X172424505Y-97151204D01*
G37*
G36*
X172424505Y-99526204D02*
G01*
X172448773Y-99529804D01*
X172472572Y-99535765D01*
X172495671Y-99544030D01*
X172517850Y-99554520D01*
X172538893Y-99567132D01*
X172558599Y-99581747D01*
X172576777Y-99598223D01*
X172593253Y-99616401D01*
X172607868Y-99636107D01*
X172620480Y-99657150D01*
X172630970Y-99679329D01*
X172639235Y-99702428D01*
X172645196Y-99726227D01*
X172648796Y-99750495D01*
X172650000Y-99774999D01*
X172650000Y-100425001D01*
X172648796Y-100449505D01*
X172645196Y-100473773D01*
X172639235Y-100497572D01*
X172630970Y-100520671D01*
X172620480Y-100542850D01*
X172607868Y-100563893D01*
X172593253Y-100583599D01*
X172576777Y-100601777D01*
X172558599Y-100618253D01*
X172538893Y-100632868D01*
X172517850Y-100645480D01*
X172495671Y-100655970D01*
X172472572Y-100664235D01*
X172448773Y-100670196D01*
X172424505Y-100673796D01*
X172400001Y-100675000D01*
X171499999Y-100675000D01*
X171475495Y-100673796D01*
X171451227Y-100670196D01*
X171427428Y-100664235D01*
X171404329Y-100655970D01*
X171382150Y-100645480D01*
X171361107Y-100632868D01*
X171341401Y-100618253D01*
X171323223Y-100601777D01*
X171306747Y-100583599D01*
X171292132Y-100563893D01*
X171279520Y-100542850D01*
X171269030Y-100520671D01*
X171260765Y-100497572D01*
X171254804Y-100473773D01*
X171251204Y-100449505D01*
X171250000Y-100425001D01*
X171250000Y-99774999D01*
X171251204Y-99750495D01*
X171254804Y-99726227D01*
X171260765Y-99702428D01*
X171269030Y-99679329D01*
X171279520Y-99657150D01*
X171292132Y-99636107D01*
X171306747Y-99616401D01*
X171323223Y-99598223D01*
X171341401Y-99581747D01*
X171361107Y-99567132D01*
X171382150Y-99554520D01*
X171404329Y-99544030D01*
X171427428Y-99535765D01*
X171451227Y-99529804D01*
X171475495Y-99526204D01*
X171499999Y-99525000D01*
X172400001Y-99525000D01*
X172424505Y-99526204D01*
G37*
G36*
X172424505Y-101576204D02*
G01*
X172448773Y-101579804D01*
X172472572Y-101585765D01*
X172495671Y-101594030D01*
X172517850Y-101604520D01*
X172538893Y-101617132D01*
X172558599Y-101631747D01*
X172576777Y-101648223D01*
X172593253Y-101666401D01*
X172607868Y-101686107D01*
X172620480Y-101707150D01*
X172630970Y-101729329D01*
X172639235Y-101752428D01*
X172645196Y-101776227D01*
X172648796Y-101800495D01*
X172650000Y-101824999D01*
X172650000Y-102475001D01*
X172648796Y-102499505D01*
X172645196Y-102523773D01*
X172639235Y-102547572D01*
X172630970Y-102570671D01*
X172620480Y-102592850D01*
X172607868Y-102613893D01*
X172593253Y-102633599D01*
X172576777Y-102651777D01*
X172558599Y-102668253D01*
X172538893Y-102682868D01*
X172517850Y-102695480D01*
X172495671Y-102705970D01*
X172472572Y-102714235D01*
X172448773Y-102720196D01*
X172424505Y-102723796D01*
X172400001Y-102725000D01*
X171499999Y-102725000D01*
X171475495Y-102723796D01*
X171451227Y-102720196D01*
X171427428Y-102714235D01*
X171404329Y-102705970D01*
X171382150Y-102695480D01*
X171361107Y-102682868D01*
X171341401Y-102668253D01*
X171323223Y-102651777D01*
X171306747Y-102633599D01*
X171292132Y-102613893D01*
X171279520Y-102592850D01*
X171269030Y-102570671D01*
X171260765Y-102547572D01*
X171254804Y-102523773D01*
X171251204Y-102499505D01*
X171250000Y-102475001D01*
X171250000Y-101824999D01*
X171251204Y-101800495D01*
X171254804Y-101776227D01*
X171260765Y-101752428D01*
X171269030Y-101729329D01*
X171279520Y-101707150D01*
X171292132Y-101686107D01*
X171306747Y-101666401D01*
X171323223Y-101648223D01*
X171341401Y-101631747D01*
X171361107Y-101617132D01*
X171382150Y-101604520D01*
X171404329Y-101594030D01*
X171427428Y-101585765D01*
X171451227Y-101579804D01*
X171475495Y-101576204D01*
X171499999Y-101575000D01*
X172400001Y-101575000D01*
X172424505Y-101576204D01*
G37*
G36*
X203799505Y-79176204D02*
G01*
X203823773Y-79179804D01*
X203847572Y-79185765D01*
X203870671Y-79194030D01*
X203892850Y-79204520D01*
X203913893Y-79217132D01*
X203933599Y-79231747D01*
X203951777Y-79248223D01*
X203968253Y-79266401D01*
X203982868Y-79286107D01*
X203995480Y-79307150D01*
X204005970Y-79329329D01*
X204014235Y-79352428D01*
X204020196Y-79376227D01*
X204023796Y-79400495D01*
X204025000Y-79424999D01*
X204025000Y-80075001D01*
X204023796Y-80099505D01*
X204020196Y-80123773D01*
X204014235Y-80147572D01*
X204005970Y-80170671D01*
X203995480Y-80192850D01*
X203982868Y-80213893D01*
X203968253Y-80233599D01*
X203951777Y-80251777D01*
X203933599Y-80268253D01*
X203913893Y-80282868D01*
X203892850Y-80295480D01*
X203870671Y-80305970D01*
X203847572Y-80314235D01*
X203823773Y-80320196D01*
X203799505Y-80323796D01*
X203775001Y-80325000D01*
X202874999Y-80325000D01*
X202850495Y-80323796D01*
X202826227Y-80320196D01*
X202802428Y-80314235D01*
X202779329Y-80305970D01*
X202757150Y-80295480D01*
X202736107Y-80282868D01*
X202716401Y-80268253D01*
X202698223Y-80251777D01*
X202681747Y-80233599D01*
X202667132Y-80213893D01*
X202654520Y-80192850D01*
X202644030Y-80170671D01*
X202635765Y-80147572D01*
X202629804Y-80123773D01*
X202626204Y-80099505D01*
X202625000Y-80075001D01*
X202625000Y-79424999D01*
X202626204Y-79400495D01*
X202629804Y-79376227D01*
X202635765Y-79352428D01*
X202644030Y-79329329D01*
X202654520Y-79307150D01*
X202667132Y-79286107D01*
X202681747Y-79266401D01*
X202698223Y-79248223D01*
X202716401Y-79231747D01*
X202736107Y-79217132D01*
X202757150Y-79204520D01*
X202779329Y-79194030D01*
X202802428Y-79185765D01*
X202826227Y-79179804D01*
X202850495Y-79176204D01*
X202874999Y-79175000D01*
X203775001Y-79175000D01*
X203799505Y-79176204D01*
G37*
G36*
X203799505Y-81226204D02*
G01*
X203823773Y-81229804D01*
X203847572Y-81235765D01*
X203870671Y-81244030D01*
X203892850Y-81254520D01*
X203913893Y-81267132D01*
X203933599Y-81281747D01*
X203951777Y-81298223D01*
X203968253Y-81316401D01*
X203982868Y-81336107D01*
X203995480Y-81357150D01*
X204005970Y-81379329D01*
X204014235Y-81402428D01*
X204020196Y-81426227D01*
X204023796Y-81450495D01*
X204025000Y-81474999D01*
X204025000Y-82125001D01*
X204023796Y-82149505D01*
X204020196Y-82173773D01*
X204014235Y-82197572D01*
X204005970Y-82220671D01*
X203995480Y-82242850D01*
X203982868Y-82263893D01*
X203968253Y-82283599D01*
X203951777Y-82301777D01*
X203933599Y-82318253D01*
X203913893Y-82332868D01*
X203892850Y-82345480D01*
X203870671Y-82355970D01*
X203847572Y-82364235D01*
X203823773Y-82370196D01*
X203799505Y-82373796D01*
X203775001Y-82375000D01*
X202874999Y-82375000D01*
X202850495Y-82373796D01*
X202826227Y-82370196D01*
X202802428Y-82364235D01*
X202779329Y-82355970D01*
X202757150Y-82345480D01*
X202736107Y-82332868D01*
X202716401Y-82318253D01*
X202698223Y-82301777D01*
X202681747Y-82283599D01*
X202667132Y-82263893D01*
X202654520Y-82242850D01*
X202644030Y-82220671D01*
X202635765Y-82197572D01*
X202629804Y-82173773D01*
X202626204Y-82149505D01*
X202625000Y-82125001D01*
X202625000Y-81474999D01*
X202626204Y-81450495D01*
X202629804Y-81426227D01*
X202635765Y-81402428D01*
X202644030Y-81379329D01*
X202654520Y-81357150D01*
X202667132Y-81336107D01*
X202681747Y-81316401D01*
X202698223Y-81298223D01*
X202716401Y-81281747D01*
X202736107Y-81267132D01*
X202757150Y-81254520D01*
X202779329Y-81244030D01*
X202802428Y-81235765D01*
X202826227Y-81229804D01*
X202850495Y-81226204D01*
X202874999Y-81225000D01*
X203775001Y-81225000D01*
X203799505Y-81226204D01*
G37*
G36*
X203624505Y-92251204D02*
G01*
X203648773Y-92254804D01*
X203672572Y-92260765D01*
X203695671Y-92269030D01*
X203717850Y-92279520D01*
X203738893Y-92292132D01*
X203758599Y-92306747D01*
X203776777Y-92323223D01*
X203793253Y-92341401D01*
X203807868Y-92361107D01*
X203820480Y-92382150D01*
X203830970Y-92404329D01*
X203839235Y-92427428D01*
X203845196Y-92451227D01*
X203848796Y-92475495D01*
X203850000Y-92499999D01*
X203850000Y-93150001D01*
X203848796Y-93174505D01*
X203845196Y-93198773D01*
X203839235Y-93222572D01*
X203830970Y-93245671D01*
X203820480Y-93267850D01*
X203807868Y-93288893D01*
X203793253Y-93308599D01*
X203776777Y-93326777D01*
X203758599Y-93343253D01*
X203738893Y-93357868D01*
X203717850Y-93370480D01*
X203695671Y-93380970D01*
X203672572Y-93389235D01*
X203648773Y-93395196D01*
X203624505Y-93398796D01*
X203600001Y-93400000D01*
X202699999Y-93400000D01*
X202675495Y-93398796D01*
X202651227Y-93395196D01*
X202627428Y-93389235D01*
X202604329Y-93380970D01*
X202582150Y-93370480D01*
X202561107Y-93357868D01*
X202541401Y-93343253D01*
X202523223Y-93326777D01*
X202506747Y-93308599D01*
X202492132Y-93288893D01*
X202479520Y-93267850D01*
X202469030Y-93245671D01*
X202460765Y-93222572D01*
X202454804Y-93198773D01*
X202451204Y-93174505D01*
X202450000Y-93150001D01*
X202450000Y-92499999D01*
X202451204Y-92475495D01*
X202454804Y-92451227D01*
X202460765Y-92427428D01*
X202469030Y-92404329D01*
X202479520Y-92382150D01*
X202492132Y-92361107D01*
X202506747Y-92341401D01*
X202523223Y-92323223D01*
X202541401Y-92306747D01*
X202561107Y-92292132D01*
X202582150Y-92279520D01*
X202604329Y-92269030D01*
X202627428Y-92260765D01*
X202651227Y-92254804D01*
X202675495Y-92251204D01*
X202699999Y-92250000D01*
X203600001Y-92250000D01*
X203624505Y-92251204D01*
G37*
G36*
X203624505Y-90201204D02*
G01*
X203648773Y-90204804D01*
X203672572Y-90210765D01*
X203695671Y-90219030D01*
X203717850Y-90229520D01*
X203738893Y-90242132D01*
X203758599Y-90256747D01*
X203776777Y-90273223D01*
X203793253Y-90291401D01*
X203807868Y-90311107D01*
X203820480Y-90332150D01*
X203830970Y-90354329D01*
X203839235Y-90377428D01*
X203845196Y-90401227D01*
X203848796Y-90425495D01*
X203850000Y-90449999D01*
X203850000Y-91100001D01*
X203848796Y-91124505D01*
X203845196Y-91148773D01*
X203839235Y-91172572D01*
X203830970Y-91195671D01*
X203820480Y-91217850D01*
X203807868Y-91238893D01*
X203793253Y-91258599D01*
X203776777Y-91276777D01*
X203758599Y-91293253D01*
X203738893Y-91307868D01*
X203717850Y-91320480D01*
X203695671Y-91330970D01*
X203672572Y-91339235D01*
X203648773Y-91345196D01*
X203624505Y-91348796D01*
X203600001Y-91350000D01*
X202699999Y-91350000D01*
X202675495Y-91348796D01*
X202651227Y-91345196D01*
X202627428Y-91339235D01*
X202604329Y-91330970D01*
X202582150Y-91320480D01*
X202561107Y-91307868D01*
X202541401Y-91293253D01*
X202523223Y-91276777D01*
X202506747Y-91258599D01*
X202492132Y-91238893D01*
X202479520Y-91217850D01*
X202469030Y-91195671D01*
X202460765Y-91172572D01*
X202454804Y-91148773D01*
X202451204Y-91124505D01*
X202450000Y-91100001D01*
X202450000Y-90449999D01*
X202451204Y-90425495D01*
X202454804Y-90401227D01*
X202460765Y-90377428D01*
X202469030Y-90354329D01*
X202479520Y-90332150D01*
X202492132Y-90311107D01*
X202506747Y-90291401D01*
X202523223Y-90273223D01*
X202541401Y-90256747D01*
X202561107Y-90242132D01*
X202582150Y-90229520D01*
X202604329Y-90219030D01*
X202627428Y-90210765D01*
X202651227Y-90204804D01*
X202675495Y-90201204D01*
X202699999Y-90200000D01*
X203600001Y-90200000D01*
X203624505Y-90201204D01*
G37*
G36*
X198549505Y-106551204D02*
G01*
X198573773Y-106554804D01*
X198597572Y-106560765D01*
X198620671Y-106569030D01*
X198642850Y-106579520D01*
X198663893Y-106592132D01*
X198683599Y-106606747D01*
X198701777Y-106623223D01*
X198718253Y-106641401D01*
X198732868Y-106661107D01*
X198745480Y-106682150D01*
X198755970Y-106704329D01*
X198764235Y-106727428D01*
X198770196Y-106751227D01*
X198773796Y-106775495D01*
X198775000Y-106799999D01*
X198775000Y-107450001D01*
X198773796Y-107474505D01*
X198770196Y-107498773D01*
X198764235Y-107522572D01*
X198755970Y-107545671D01*
X198745480Y-107567850D01*
X198732868Y-107588893D01*
X198718253Y-107608599D01*
X198701777Y-107626777D01*
X198683599Y-107643253D01*
X198663893Y-107657868D01*
X198642850Y-107670480D01*
X198620671Y-107680970D01*
X198597572Y-107689235D01*
X198573773Y-107695196D01*
X198549505Y-107698796D01*
X198525001Y-107700000D01*
X197624999Y-107700000D01*
X197600495Y-107698796D01*
X197576227Y-107695196D01*
X197552428Y-107689235D01*
X197529329Y-107680970D01*
X197507150Y-107670480D01*
X197486107Y-107657868D01*
X197466401Y-107643253D01*
X197448223Y-107626777D01*
X197431747Y-107608599D01*
X197417132Y-107588893D01*
X197404520Y-107567850D01*
X197394030Y-107545671D01*
X197385765Y-107522572D01*
X197379804Y-107498773D01*
X197376204Y-107474505D01*
X197375000Y-107450001D01*
X197375000Y-106799999D01*
X197376204Y-106775495D01*
X197379804Y-106751227D01*
X197385765Y-106727428D01*
X197394030Y-106704329D01*
X197404520Y-106682150D01*
X197417132Y-106661107D01*
X197431747Y-106641401D01*
X197448223Y-106623223D01*
X197466401Y-106606747D01*
X197486107Y-106592132D01*
X197507150Y-106579520D01*
X197529329Y-106569030D01*
X197552428Y-106560765D01*
X197576227Y-106554804D01*
X197600495Y-106551204D01*
X197624999Y-106550000D01*
X198525001Y-106550000D01*
X198549505Y-106551204D01*
G37*
G36*
X198549505Y-108601204D02*
G01*
X198573773Y-108604804D01*
X198597572Y-108610765D01*
X198620671Y-108619030D01*
X198642850Y-108629520D01*
X198663893Y-108642132D01*
X198683599Y-108656747D01*
X198701777Y-108673223D01*
X198718253Y-108691401D01*
X198732868Y-108711107D01*
X198745480Y-108732150D01*
X198755970Y-108754329D01*
X198764235Y-108777428D01*
X198770196Y-108801227D01*
X198773796Y-108825495D01*
X198775000Y-108849999D01*
X198775000Y-109500001D01*
X198773796Y-109524505D01*
X198770196Y-109548773D01*
X198764235Y-109572572D01*
X198755970Y-109595671D01*
X198745480Y-109617850D01*
X198732868Y-109638893D01*
X198718253Y-109658599D01*
X198701777Y-109676777D01*
X198683599Y-109693253D01*
X198663893Y-109707868D01*
X198642850Y-109720480D01*
X198620671Y-109730970D01*
X198597572Y-109739235D01*
X198573773Y-109745196D01*
X198549505Y-109748796D01*
X198525001Y-109750000D01*
X197624999Y-109750000D01*
X197600495Y-109748796D01*
X197576227Y-109745196D01*
X197552428Y-109739235D01*
X197529329Y-109730970D01*
X197507150Y-109720480D01*
X197486107Y-109707868D01*
X197466401Y-109693253D01*
X197448223Y-109676777D01*
X197431747Y-109658599D01*
X197417132Y-109638893D01*
X197404520Y-109617850D01*
X197394030Y-109595671D01*
X197385765Y-109572572D01*
X197379804Y-109548773D01*
X197376204Y-109524505D01*
X197375000Y-109500001D01*
X197375000Y-108849999D01*
X197376204Y-108825495D01*
X197379804Y-108801227D01*
X197385765Y-108777428D01*
X197394030Y-108754329D01*
X197404520Y-108732150D01*
X197417132Y-108711107D01*
X197431747Y-108691401D01*
X197448223Y-108673223D01*
X197466401Y-108656747D01*
X197486107Y-108642132D01*
X197507150Y-108629520D01*
X197529329Y-108619030D01*
X197552428Y-108610765D01*
X197576227Y-108604804D01*
X197600495Y-108601204D01*
X197624999Y-108600000D01*
X198525001Y-108600000D01*
X198549505Y-108601204D01*
G37*
G36*
X168785779Y-95826144D02*
G01*
X168808834Y-95829563D01*
X168831443Y-95835227D01*
X168853387Y-95843079D01*
X168874457Y-95853044D01*
X168894448Y-95865026D01*
X168913168Y-95878910D01*
X168930438Y-95894562D01*
X168946090Y-95911832D01*
X168959974Y-95930552D01*
X168971956Y-95950543D01*
X168981921Y-95971613D01*
X168989773Y-95993557D01*
X168995437Y-96016166D01*
X168998856Y-96039221D01*
X169000000Y-96062500D01*
X169000000Y-96537500D01*
X168998856Y-96560779D01*
X168995437Y-96583834D01*
X168989773Y-96606443D01*
X168981921Y-96628387D01*
X168971956Y-96649457D01*
X168959974Y-96669448D01*
X168946090Y-96688168D01*
X168930438Y-96705438D01*
X168913168Y-96721090D01*
X168894448Y-96734974D01*
X168874457Y-96746956D01*
X168853387Y-96756921D01*
X168831443Y-96764773D01*
X168808834Y-96770437D01*
X168785779Y-96773856D01*
X168762500Y-96775000D01*
X168187500Y-96775000D01*
X168164221Y-96773856D01*
X168141166Y-96770437D01*
X168118557Y-96764773D01*
X168096613Y-96756921D01*
X168075543Y-96746956D01*
X168055552Y-96734974D01*
X168036832Y-96721090D01*
X168019562Y-96705438D01*
X168003910Y-96688168D01*
X167990026Y-96669448D01*
X167978044Y-96649457D01*
X167968079Y-96628387D01*
X167960227Y-96606443D01*
X167954563Y-96583834D01*
X167951144Y-96560779D01*
X167950000Y-96537500D01*
X167950000Y-96062500D01*
X167951144Y-96039221D01*
X167954563Y-96016166D01*
X167960227Y-95993557D01*
X167968079Y-95971613D01*
X167978044Y-95950543D01*
X167990026Y-95930552D01*
X168003910Y-95911832D01*
X168019562Y-95894562D01*
X168036832Y-95878910D01*
X168055552Y-95865026D01*
X168075543Y-95853044D01*
X168096613Y-95843079D01*
X168118557Y-95835227D01*
X168141166Y-95829563D01*
X168164221Y-95826144D01*
X168187500Y-95825000D01*
X168762500Y-95825000D01*
X168785779Y-95826144D01*
G37*
G36*
X167035779Y-95826144D02*
G01*
X167058834Y-95829563D01*
X167081443Y-95835227D01*
X167103387Y-95843079D01*
X167124457Y-95853044D01*
X167144448Y-95865026D01*
X167163168Y-95878910D01*
X167180438Y-95894562D01*
X167196090Y-95911832D01*
X167209974Y-95930552D01*
X167221956Y-95950543D01*
X167231921Y-95971613D01*
X167239773Y-95993557D01*
X167245437Y-96016166D01*
X167248856Y-96039221D01*
X167250000Y-96062500D01*
X167250000Y-96537500D01*
X167248856Y-96560779D01*
X167245437Y-96583834D01*
X167239773Y-96606443D01*
X167231921Y-96628387D01*
X167221956Y-96649457D01*
X167209974Y-96669448D01*
X167196090Y-96688168D01*
X167180438Y-96705438D01*
X167163168Y-96721090D01*
X167144448Y-96734974D01*
X167124457Y-96746956D01*
X167103387Y-96756921D01*
X167081443Y-96764773D01*
X167058834Y-96770437D01*
X167035779Y-96773856D01*
X167012500Y-96775000D01*
X166437500Y-96775000D01*
X166414221Y-96773856D01*
X166391166Y-96770437D01*
X166368557Y-96764773D01*
X166346613Y-96756921D01*
X166325543Y-96746956D01*
X166305552Y-96734974D01*
X166286832Y-96721090D01*
X166269562Y-96705438D01*
X166253910Y-96688168D01*
X166240026Y-96669448D01*
X166228044Y-96649457D01*
X166218079Y-96628387D01*
X166210227Y-96606443D01*
X166204563Y-96583834D01*
X166201144Y-96560779D01*
X166200000Y-96537500D01*
X166200000Y-96062500D01*
X166201144Y-96039221D01*
X166204563Y-96016166D01*
X166210227Y-95993557D01*
X166218079Y-95971613D01*
X166228044Y-95950543D01*
X166240026Y-95930552D01*
X166253910Y-95911832D01*
X166269562Y-95894562D01*
X166286832Y-95878910D01*
X166305552Y-95865026D01*
X166325543Y-95853044D01*
X166346613Y-95843079D01*
X166368557Y-95835227D01*
X166391166Y-95829563D01*
X166414221Y-95826144D01*
X166437500Y-95825000D01*
X167012500Y-95825000D01*
X167035779Y-95826144D01*
G37*
D12*
X211500000Y-123400000D03*
X211500000Y-121900000D03*
X212600000Y-121900000D03*
X212600000Y-123400000D03*
X205725000Y-123350000D03*
X205725000Y-121850000D03*
X204625000Y-121850000D03*
X204625000Y-123350000D03*
X195325000Y-123475000D03*
X195325000Y-121975000D03*
X194225000Y-121975000D03*
X194225000Y-123475000D03*
X184100000Y-123425000D03*
X184100000Y-121925000D03*
X185200000Y-121925000D03*
X185200000Y-123425000D03*
D13*
X218600000Y-87725000D03*
X220100000Y-87725000D03*
X220100000Y-86625000D03*
X218600000Y-86625000D03*
X218550000Y-94675000D03*
X220050000Y-94675000D03*
X220050000Y-95775000D03*
X218550000Y-95775000D03*
X218525000Y-102075000D03*
X220025000Y-102075000D03*
X220025000Y-103175000D03*
X218525000Y-103175000D03*
X218500000Y-111025000D03*
X220000000Y-111025000D03*
X220000000Y-109925000D03*
X218500000Y-109925000D03*
D14*
X168525000Y-102925000D03*
D15*
X168525000Y-101325000D03*
X168525000Y-102125000D03*
D14*
X168525000Y-100525000D03*
D15*
X166725000Y-102125000D03*
D14*
X166725000Y-102925000D03*
D15*
X166725000Y-101325000D03*
D14*
X166725000Y-100525000D03*
D16*
X209850000Y-115175000D03*
D17*
X208250000Y-115175000D03*
X209050000Y-115175000D03*
D16*
X207450000Y-115175000D03*
D17*
X209050000Y-116975000D03*
D16*
X209850000Y-116975000D03*
D17*
X208250000Y-116975000D03*
D16*
X207450000Y-116975000D03*
X196600000Y-116925000D03*
D17*
X197400000Y-116925000D03*
D16*
X199000000Y-116925000D03*
D17*
X198200000Y-116925000D03*
D16*
X196600000Y-115125000D03*
D17*
X198200000Y-115125000D03*
X197400000Y-115125000D03*
D16*
X199000000Y-115125000D03*
X186025000Y-114975000D03*
D17*
X184425000Y-114975000D03*
X185225000Y-114975000D03*
D16*
X183625000Y-114975000D03*
D17*
X185225000Y-116775000D03*
D16*
X186025000Y-116775000D03*
D17*
X184425000Y-116775000D03*
D16*
X183625000Y-116775000D03*
D14*
X210750000Y-88975000D03*
D15*
X210750000Y-88175000D03*
D14*
X210750000Y-86575000D03*
D15*
X210750000Y-87375000D03*
D14*
X208950000Y-88975000D03*
D15*
X208950000Y-87375000D03*
X208950000Y-88175000D03*
D14*
X208950000Y-86575000D03*
X208975000Y-94575000D03*
D15*
X208975000Y-96175000D03*
X208975000Y-95375000D03*
D14*
X208975000Y-96975000D03*
D15*
X210775000Y-95375000D03*
D14*
X210775000Y-94575000D03*
D15*
X210775000Y-96175000D03*
D14*
X210775000Y-96975000D03*
X210625000Y-105100000D03*
D15*
X210625000Y-104300000D03*
D14*
X210625000Y-102700000D03*
D15*
X210625000Y-103500000D03*
D14*
X208825000Y-105100000D03*
D15*
X208825000Y-103500000D03*
X208825000Y-104300000D03*
D14*
X208825000Y-102700000D03*
D18*
X166025000Y-78550000D03*
X168525000Y-78550000D03*
X163525000Y-78550000D03*
X163525000Y-84050000D03*
X166025000Y-84050000D03*
X168525000Y-84050000D03*
D19*
X199625000Y-77925000D03*
X198975000Y-77925000D03*
X198325000Y-77925000D03*
X197675000Y-77925000D03*
X197025000Y-77925000D03*
X196375000Y-77925000D03*
X195725000Y-77925000D03*
X195075000Y-77925000D03*
X195075000Y-83825000D03*
X195725000Y-83825000D03*
X196375000Y-83825000D03*
X197025000Y-83825000D03*
X197675000Y-83825000D03*
X198325000Y-83825000D03*
X198975000Y-83825000D03*
X199625000Y-83825000D03*
X199550000Y-94900000D03*
X198900000Y-94900000D03*
X198250000Y-94900000D03*
X197600000Y-94900000D03*
X196950000Y-94900000D03*
X196300000Y-94900000D03*
X195650000Y-94900000D03*
X195000000Y-94900000D03*
X195000000Y-89000000D03*
X195650000Y-89000000D03*
X196300000Y-89000000D03*
X196950000Y-89000000D03*
X197600000Y-89000000D03*
X198250000Y-89000000D03*
X198900000Y-89000000D03*
X199550000Y-89000000D03*
X194250000Y-104100000D03*
X193600000Y-104100000D03*
X192950000Y-104100000D03*
X192300000Y-104100000D03*
X191650000Y-104100000D03*
X191000000Y-104100000D03*
X190350000Y-104100000D03*
X189700000Y-104100000D03*
X189700000Y-110000000D03*
X190350000Y-110000000D03*
X191000000Y-110000000D03*
X191650000Y-110000000D03*
X192300000Y-110000000D03*
X192950000Y-110000000D03*
X193600000Y-110000000D03*
X194250000Y-110000000D03*
D11*
G36*
X174130142Y-84576174D02*
G01*
X174153803Y-84579684D01*
X174177007Y-84585496D01*
X174199529Y-84593554D01*
X174221153Y-84603782D01*
X174241670Y-84616079D01*
X174260883Y-84630329D01*
X174278607Y-84646393D01*
X174294671Y-84664117D01*
X174308921Y-84683330D01*
X174321218Y-84703847D01*
X174331446Y-84725471D01*
X174339504Y-84747993D01*
X174345316Y-84771197D01*
X174348826Y-84794858D01*
X174350000Y-84818750D01*
X174350000Y-85306250D01*
X174348826Y-85330142D01*
X174345316Y-85353803D01*
X174339504Y-85377007D01*
X174331446Y-85399529D01*
X174321218Y-85421153D01*
X174308921Y-85441670D01*
X174294671Y-85460883D01*
X174278607Y-85478607D01*
X174260883Y-85494671D01*
X174241670Y-85508921D01*
X174221153Y-85521218D01*
X174199529Y-85531446D01*
X174177007Y-85539504D01*
X174153803Y-85545316D01*
X174130142Y-85548826D01*
X174106250Y-85550000D01*
X173193750Y-85550000D01*
X173169858Y-85548826D01*
X173146197Y-85545316D01*
X173122993Y-85539504D01*
X173100471Y-85531446D01*
X173078847Y-85521218D01*
X173058330Y-85508921D01*
X173039117Y-85494671D01*
X173021393Y-85478607D01*
X173005329Y-85460883D01*
X172991079Y-85441670D01*
X172978782Y-85421153D01*
X172968554Y-85399529D01*
X172960496Y-85377007D01*
X172954684Y-85353803D01*
X172951174Y-85330142D01*
X172950000Y-85306250D01*
X172950000Y-84818750D01*
X172951174Y-84794858D01*
X172954684Y-84771197D01*
X172960496Y-84747993D01*
X172968554Y-84725471D01*
X172978782Y-84703847D01*
X172991079Y-84683330D01*
X173005329Y-84664117D01*
X173021393Y-84646393D01*
X173039117Y-84630329D01*
X173058330Y-84616079D01*
X173078847Y-84603782D01*
X173100471Y-84593554D01*
X173122993Y-84585496D01*
X173146197Y-84579684D01*
X173169858Y-84576174D01*
X173193750Y-84575000D01*
X174106250Y-84575000D01*
X174130142Y-84576174D01*
G37*
G36*
X174130142Y-82701174D02*
G01*
X174153803Y-82704684D01*
X174177007Y-82710496D01*
X174199529Y-82718554D01*
X174221153Y-82728782D01*
X174241670Y-82741079D01*
X174260883Y-82755329D01*
X174278607Y-82771393D01*
X174294671Y-82789117D01*
X174308921Y-82808330D01*
X174321218Y-82828847D01*
X174331446Y-82850471D01*
X174339504Y-82872993D01*
X174345316Y-82896197D01*
X174348826Y-82919858D01*
X174350000Y-82943750D01*
X174350000Y-83431250D01*
X174348826Y-83455142D01*
X174345316Y-83478803D01*
X174339504Y-83502007D01*
X174331446Y-83524529D01*
X174321218Y-83546153D01*
X174308921Y-83566670D01*
X174294671Y-83585883D01*
X174278607Y-83603607D01*
X174260883Y-83619671D01*
X174241670Y-83633921D01*
X174221153Y-83646218D01*
X174199529Y-83656446D01*
X174177007Y-83664504D01*
X174153803Y-83670316D01*
X174130142Y-83673826D01*
X174106250Y-83675000D01*
X173193750Y-83675000D01*
X173169858Y-83673826D01*
X173146197Y-83670316D01*
X173122993Y-83664504D01*
X173100471Y-83656446D01*
X173078847Y-83646218D01*
X173058330Y-83633921D01*
X173039117Y-83619671D01*
X173021393Y-83603607D01*
X173005329Y-83585883D01*
X172991079Y-83566670D01*
X172978782Y-83546153D01*
X172968554Y-83524529D01*
X172960496Y-83502007D01*
X172954684Y-83478803D01*
X172951174Y-83455142D01*
X172950000Y-83431250D01*
X172950000Y-82943750D01*
X172951174Y-82919858D01*
X172954684Y-82896197D01*
X172960496Y-82872993D01*
X172968554Y-82850471D01*
X172978782Y-82828847D01*
X172991079Y-82808330D01*
X173005329Y-82789117D01*
X173021393Y-82771393D01*
X173039117Y-82755329D01*
X173058330Y-82741079D01*
X173078847Y-82728782D01*
X173100471Y-82718554D01*
X173122993Y-82710496D01*
X173146197Y-82704684D01*
X173169858Y-82701174D01*
X173193750Y-82700000D01*
X174106250Y-82700000D01*
X174130142Y-82701174D01*
G37*
G36*
X174105142Y-80801174D02*
G01*
X174128803Y-80804684D01*
X174152007Y-80810496D01*
X174174529Y-80818554D01*
X174196153Y-80828782D01*
X174216670Y-80841079D01*
X174235883Y-80855329D01*
X174253607Y-80871393D01*
X174269671Y-80889117D01*
X174283921Y-80908330D01*
X174296218Y-80928847D01*
X174306446Y-80950471D01*
X174314504Y-80972993D01*
X174320316Y-80996197D01*
X174323826Y-81019858D01*
X174325000Y-81043750D01*
X174325000Y-81531250D01*
X174323826Y-81555142D01*
X174320316Y-81578803D01*
X174314504Y-81602007D01*
X174306446Y-81624529D01*
X174296218Y-81646153D01*
X174283921Y-81666670D01*
X174269671Y-81685883D01*
X174253607Y-81703607D01*
X174235883Y-81719671D01*
X174216670Y-81733921D01*
X174196153Y-81746218D01*
X174174529Y-81756446D01*
X174152007Y-81764504D01*
X174128803Y-81770316D01*
X174105142Y-81773826D01*
X174081250Y-81775000D01*
X173168750Y-81775000D01*
X173144858Y-81773826D01*
X173121197Y-81770316D01*
X173097993Y-81764504D01*
X173075471Y-81756446D01*
X173053847Y-81746218D01*
X173033330Y-81733921D01*
X173014117Y-81719671D01*
X172996393Y-81703607D01*
X172980329Y-81685883D01*
X172966079Y-81666670D01*
X172953782Y-81646153D01*
X172943554Y-81624529D01*
X172935496Y-81602007D01*
X172929684Y-81578803D01*
X172926174Y-81555142D01*
X172925000Y-81531250D01*
X172925000Y-81043750D01*
X172926174Y-81019858D01*
X172929684Y-80996197D01*
X172935496Y-80972993D01*
X172943554Y-80950471D01*
X172953782Y-80928847D01*
X172966079Y-80908330D01*
X172980329Y-80889117D01*
X172996393Y-80871393D01*
X173014117Y-80855329D01*
X173033330Y-80841079D01*
X173053847Y-80828782D01*
X173075471Y-80818554D01*
X173097993Y-80810496D01*
X173121197Y-80804684D01*
X173144858Y-80801174D01*
X173168750Y-80800000D01*
X174081250Y-80800000D01*
X174105142Y-80801174D01*
G37*
G36*
X174105142Y-78926174D02*
G01*
X174128803Y-78929684D01*
X174152007Y-78935496D01*
X174174529Y-78943554D01*
X174196153Y-78953782D01*
X174216670Y-78966079D01*
X174235883Y-78980329D01*
X174253607Y-78996393D01*
X174269671Y-79014117D01*
X174283921Y-79033330D01*
X174296218Y-79053847D01*
X174306446Y-79075471D01*
X174314504Y-79097993D01*
X174320316Y-79121197D01*
X174323826Y-79144858D01*
X174325000Y-79168750D01*
X174325000Y-79656250D01*
X174323826Y-79680142D01*
X174320316Y-79703803D01*
X174314504Y-79727007D01*
X174306446Y-79749529D01*
X174296218Y-79771153D01*
X174283921Y-79791670D01*
X174269671Y-79810883D01*
X174253607Y-79828607D01*
X174235883Y-79844671D01*
X174216670Y-79858921D01*
X174196153Y-79871218D01*
X174174529Y-79881446D01*
X174152007Y-79889504D01*
X174128803Y-79895316D01*
X174105142Y-79898826D01*
X174081250Y-79900000D01*
X173168750Y-79900000D01*
X173144858Y-79898826D01*
X173121197Y-79895316D01*
X173097993Y-79889504D01*
X173075471Y-79881446D01*
X173053847Y-79871218D01*
X173033330Y-79858921D01*
X173014117Y-79844671D01*
X172996393Y-79828607D01*
X172980329Y-79810883D01*
X172966079Y-79791670D01*
X172953782Y-79771153D01*
X172943554Y-79749529D01*
X172935496Y-79727007D01*
X172929684Y-79703803D01*
X172926174Y-79680142D01*
X172925000Y-79656250D01*
X172925000Y-79168750D01*
X172926174Y-79144858D01*
X172929684Y-79121197D01*
X172935496Y-79097993D01*
X172943554Y-79075471D01*
X172953782Y-79053847D01*
X172966079Y-79033330D01*
X172980329Y-79014117D01*
X172996393Y-78996393D01*
X173014117Y-78980329D01*
X173033330Y-78966079D01*
X173053847Y-78953782D01*
X173075471Y-78943554D01*
X173097993Y-78935496D01*
X173121197Y-78929684D01*
X173144858Y-78926174D01*
X173168750Y-78925000D01*
X174081250Y-78925000D01*
X174105142Y-78926174D01*
G37*
D20*
X181525000Y-98950000D03*
X181525000Y-98300000D03*
X181525000Y-97650000D03*
X181525000Y-97000000D03*
X181525000Y-96350000D03*
X181525000Y-95700000D03*
X181525000Y-95050000D03*
X181525000Y-94400000D03*
X181525000Y-93750000D03*
X181525000Y-93100000D03*
X181525000Y-92450000D03*
X181525000Y-91800000D03*
X175825000Y-91800000D03*
X175825000Y-92450000D03*
X175825000Y-93100000D03*
X175825000Y-93750000D03*
X175825000Y-94400000D03*
X175825000Y-95050000D03*
X175825000Y-95700000D03*
X175825000Y-96350000D03*
X175825000Y-97000000D03*
X175825000Y-97650000D03*
X175825000Y-98300000D03*
X175825000Y-98950000D03*
M02*
